<svg width="832" height="806" viewBox="0 0 832 806" fill="none" xmlns="http://www.w3.org/2000/svg">
<rect x="323" y="193" width="191" height="114" fill="#F8EEEC"/>
<path fill-rule="evenodd" clip-rule="evenodd" d="M0 1V561.759H231.213C219.31 525.615 221.593 468.282 224.25 446.49C223.781 446.173 223.334 445.826 222.911 445.452C217.67 440.647 214.537 376.859 221.593 325.607C218.554 326.203 215.464 326.498 212.368 326.489C189.746 326.489 174.533 301.947 174.439 282.023C174.325 257.595 201.42 227.616 207.989 209.196C213.499 193.631 223.969 163.537 249.072 163.537C259.532 163.298 272.825 169.95 272.825 174.568C272.798 175.585 272.648 176.596 272.379 177.577C280.421 184.675 285.641 196.08 285.641 208.937C285.641 227.211 275.108 242.538 260.902 246.772V261.985C267.508 263.344 274.023 265.112 280.411 267.277C287.052 266.924 294.482 266.478 297.325 264.952C302.13 262.389 361.435 217.944 367.402 211.894C371.553 207.64 376.492 203.769 380.892 199.556V152.838H477.711V211.988C490.226 216.543 491.585 224.295 490.163 233.323C488.742 242.351 477.13 249.812 471.35 255.053C465.569 260.293 391.259 331.107 384.047 333.4C377.54 335.475 346.357 330.546 333.562 327.962C332.759 329.305 331.701 330.479 330.449 331.418C328.802 331.607 327.139 331.625 325.489 331.47C332.192 371.941 338.647 428.921 330.957 441.519L330.75 441.83C337.329 463.799 354.316 523.914 364.994 561.759H831.965V1H0Z" fill="#F8EFEC"/>
<path d="M471.287 117.504H568.832" stroke="white" stroke-width="13.4695" stroke-linecap="round" stroke-linejoin="round"/>
<path d="M471.287 149.393H558.144" stroke="white" stroke-width="13.4695" stroke-linecap="round" stroke-linejoin="round"/>
<path d="M207.636 209.165V2.22449" stroke="#EED7D2" stroke-width="3.0405" stroke-linecap="round"/>
<path d="M207.636 562.973V325.576" stroke="#EED7D2" stroke-width="3.0405" stroke-linecap="round"/>
<path d="M415.272 151.977V2.22449" stroke="#EED7D2" stroke-width="3.0405" stroke-linecap="round"/>
<path fill-rule="evenodd" clip-rule="evenodd" d="M380.892 174.464H477.711V249.657H380.892V174.464Z" fill="#F6CC2C"/>
<path d="M415.272 273.98V249.656" stroke="#EED7D2" stroke-width="3.0405" stroke-linecap="round"/>
<path d="M415.272 562.973V307.239" stroke="#EED7D2" stroke-width="3.0405" stroke-linecap="round"/>
<path d="M622.907 562.973V2.22449" stroke="#EED7D2" stroke-width="3.0405" stroke-linecap="round"/>
<path fill-rule="evenodd" clip-rule="evenodd" d="M363.116 774.583L361.881 804.23L411.442 803.929C411.785 804.158 381.006 786.226 381.006 786.226L381.494 774.583H363.116Z" stroke="black" stroke-width="2.59428" stroke-linecap="round" stroke-linejoin="round"/>
<path fill-rule="evenodd" clip-rule="evenodd" d="M190.057 736.437L171.793 771.387L192.838 801.19L212.721 801.325L204.481 787.731L197.415 770.204L206.661 750.342L190.057 736.437Z" stroke="black" stroke-width="2.59428" stroke-linecap="round" stroke-linejoin="round"/>
<path fill-rule="evenodd" clip-rule="evenodd" d="M380.84 152.826H477.669V174.485H380.84V152.826Z" fill="#F9DA67"/>
<path fill-rule="evenodd" clip-rule="evenodd" d="M280.411 267.204C287.052 266.852 294.482 266.405 297.325 264.88C302.13 262.317 361.435 217.872 367.402 211.822C373.369 205.772 380.747 200.521 386.081 193.942C391.415 187.363 386.257 205.595 381.598 209.186C381.058 214.063 380.923 224.274 380.923 224.274C379.69 224.057 378.425 224.103 377.211 224.409C375.997 224.715 374.861 225.274 373.877 226.049C371.2 228.124 339.903 264.766 327.18 279.678" fill="white"/>
<path d="M280.411 267.204C287.052 266.852 294.482 266.405 297.325 264.88C302.13 262.317 361.435 217.872 367.402 211.822C373.369 205.772 380.747 200.521 386.081 193.942C391.415 187.363 386.257 205.595 381.598 209.186C381.058 214.063 380.923 224.274 380.923 224.274C379.69 224.057 378.425 224.103 377.211 224.409C375.997 224.715 374.861 225.274 373.877 226.049C371.2 228.124 339.903 264.766 327.18 279.678" stroke="black" stroke-width="2.59428" stroke-linecap="round" stroke-linejoin="round"/>
<path d="M260.902 261.902C270.615 263.832 286.564 268.398 299.183 275.06" stroke="black" stroke-width="2.59428" stroke-linecap="round" stroke-linejoin="round"/>
<path fill-rule="evenodd" clip-rule="evenodd" d="M325.53 331.47C332.234 371.941 338.689 428.921 330.999 441.519C319.304 460.696 238.643 459.887 222.911 445.421C217.671 440.616 214.537 376.828 221.593 325.576" fill="white"/>
<path d="M325.53 331.47C332.234 371.941 338.689 428.921 330.999 441.519C319.304 460.696 238.643 459.887 222.911 445.421C217.671 440.616 214.537 376.828 221.593 325.576" stroke="black" stroke-width="2.59428" stroke-linecap="round" stroke-linejoin="round"/>
<path fill-rule="evenodd" clip-rule="evenodd" d="M0 1H831.944V76.0681H0V1Z" fill="#EFD7D2"/>
<path fill-rule="evenodd" clip-rule="evenodd" d="M28 139H99V210H28V139Z" fill="#F6CC2C"/>
<path fill-rule="evenodd" clip-rule="evenodd" d="M28 139H98.969V154.875H28V139Z" fill="white" fill-opacity="0.33"/>
<path fill-rule="evenodd" clip-rule="evenodd" d="M89 200H160V271H89V200Z" fill="#5BA7FC"/>
<path fill-rule="evenodd" clip-rule="evenodd" d="M89 200H159.969V215.875H89V200Z" fill="white" fill-opacity="0.33"/>
<path fill-rule="evenodd" clip-rule="evenodd" d="M43 307H114V378H43V307Z" fill="#81EEB8"/>
<path fill-rule="evenodd" clip-rule="evenodd" d="M43 307H113.969V322.875H43V307Z" fill="white" fill-opacity="0.33"/>
<path fill-rule="evenodd" clip-rule="evenodd" d="M276 113H347V184H276V113Z" fill="#5BA7FC"/>
<path fill-rule="evenodd" clip-rule="evenodd" d="M276 113H346.969V128.875H276V113Z" fill="white" fill-opacity="0.33"/>
<path d="M260.902 274.655C257.716 277.197 253.275 277.208 249.632 276.575" stroke="black" stroke-width="2.59428" stroke-linecap="round" stroke-linejoin="round"/>
<path d="M260.902 246.699V266.582" stroke="black" stroke-width="2.59428" stroke-linecap="round" stroke-linejoin="round"/>
<path d="M272.379 177.494C280.421 184.602 285.641 196.007 285.641 208.864C285.641 230.396 271.019 247.861 252.984 247.861C252.016 247.851 251.05 247.788 250.089 247.674" stroke="black" stroke-width="2.59428" stroke-linecap="round" stroke-linejoin="round"/>
<path d="M255.215 217.415C255.828 219.217 256.147 221.105 256.159 223.008C256.159 228.072 248.283 247.913 248.283 261.403C248.283 271.988 250.649 279.19 250.649 287.969C250.649 311.95 235 326.468 212.368 326.468C189.735 326.468 174.533 301.926 174.439 282.002C174.325 257.574 201.42 227.595 207.989 209.175C213.499 193.61 223.969 163.516 249.072 163.516C259.532 163.277 272.825 169.929 272.825 174.547C272.825 181.417 263.662 195.789 255.184 204.402" stroke="black" stroke-width="2.59428" stroke-linecap="round" stroke-linejoin="round"/>
<path d="M256.74 215.931C255.701 217.254 254.279 218.224 252.667 218.709C251.056 219.193 249.334 219.168 247.738 218.636C246.141 218.105 244.748 217.093 243.748 215.74C242.749 214.386 242.191 212.757 242.153 211.075C242.114 209.393 242.596 207.74 243.532 206.342C244.469 204.944 245.814 203.87 247.384 203.265C248.955 202.661 250.673 202.557 252.305 202.966C253.937 203.376 255.403 204.28 256.502 205.554" stroke="black" stroke-width="2.59428" stroke-linecap="round" stroke-linejoin="round"/>
<path fill-rule="evenodd" clip-rule="evenodd" d="M333.593 327.962C346.388 330.546 377.572 335.465 384.078 333.4C391.29 331.107 465.59 260.293 471.381 255.053C477.171 249.812 488.794 242.393 490.195 233.323C491.595 224.253 490.194 216.491 477.597 211.946C477.835 217.799 478.064 226.931 477.815 225.571C475.687 218.515 475.438 210.514 471.588 210.607C469.513 217.207 472.439 229.65 467.334 237.982C461.471 244.354 383.601 295.451 375.424 298.035C367.257 298.035 349.335 292.576 341.366 290.013" fill="white"/>
<path d="M333.593 327.962C346.388 330.546 377.572 335.465 384.078 333.4C391.29 331.107 465.59 260.293 471.381 255.053C477.171 249.812 488.794 242.393 490.195 233.323C491.595 224.253 490.194 216.491 477.597 211.946C477.835 217.799 478.064 226.931 477.815 225.571C475.687 218.515 475.438 210.514 471.588 210.607C469.513 217.207 472.439 229.65 467.334 237.982C461.471 244.354 383.601 295.451 375.424 298.035C367.257 298.035 349.335 292.576 341.366 290.013" stroke="black" stroke-width="2.59428" stroke-linecap="round" stroke-linejoin="round"/>
<path fill-rule="evenodd" clip-rule="evenodd" d="M269.12 290.615C275.471 263.946 331.186 278.048 340.556 285.53C343.836 295.689 338.678 325.825 330.491 331.418C318.194 333.203 262.354 318.986 269.12 290.615Z" fill="white" stroke="black" stroke-width="2.59428" stroke-linecap="round" stroke-linejoin="round"/>
<path d="M658.75 115.511H787.883" stroke="white" stroke-width="13.4695" stroke-linecap="round" stroke-linejoin="round"/>
<path d="M658.75 150.887H749.031" stroke="white" stroke-width="13.4695" stroke-linecap="round" stroke-linejoin="round"/>
<path d="M658.75 188.525H780.017" stroke="white" stroke-width="13.4695" stroke-linecap="round" stroke-linejoin="round"/>
<path d="M658.75 222.769H719.871" stroke="white" stroke-width="13.4695" stroke-linecap="round" stroke-linejoin="round"/>
<path fill-rule="evenodd" clip-rule="evenodd" d="M374.126 594.27C374.126 594.27 340.691 474.933 330.792 441.861C320.269 457.853 261.265 459.648 234.035 451.045C243.011 480.516 287.477 586.228 295.001 594.748L361.985 776.7L383.549 774.998L374.126 594.27Z" fill="black"/>
<path fill-rule="evenodd" clip-rule="evenodd" d="M224.25 446.5C221.375 470.108 218.957 535.463 234.523 570.403C226.782 599.635 187.463 735.866 187.463 735.866L206.993 753.04L307.775 600.497C307.775 600.497 294.71 496.611 259.096 455.456C243.925 454.179 230.621 451.118 224.25 446.5Z" fill="black"/>
</svg>
