
<svg width="372" height="462" viewBox="0 0 372 462" fill="none" xmlns="http://www.w3.org/2000/svg">		
 <path d="M282.531 239.114C288.416 242.953 300.03 246.364 323.856 247.629C348.612 248.142 369.425 224.801 370.067 193.838C372.186 126.381 302.317 112.11 264.85 35.9803C247.639 0.972775 225.874 1.38595 220.396 1.56051C208.429 1.96073 191.24 11.0414 190.898 27.5312C190.798 30.4225 191.335 33.3004 192.47 35.9616C193.605 38.6228 195.31 41.0024 197.465 42.9324" stroke="white" stroke-width="1.80058" stroke-miterlimit="10" stroke-linecap="round"/>		
 <path d="M210.131 77.5934C212.583 83.7171 217.715 94.017 219.223 105.74" stroke="#E2C5C5" stroke-width="1.80058" stroke-miterlimit="10" stroke-linecap="round"/>		
 <path d="M107.462 312.498V312.497C107.599 312.314 107.775 311.93 107.946 311.277C108.113 310.645 108.256 309.834 108.372 308.859C108.603 306.912 108.714 304.382 108.694 301.464C108.653 295.631 108.087 288.318 106.942 281.157C105.796 273.985 104.078 267.021 101.756 261.855C100.595 259.27 99.3051 257.186 97.8991 255.75C96.5011 254.322 95.0391 253.582 93.4976 253.55C92.0892 253.521 90.3479 254.568 88.2986 256.965C86.2903 259.314 84.1597 262.754 81.9547 267.035C77.5492 275.587 72.9338 287.314 68.4566 299.897C63.9821 312.473 59.6582 325.866 55.8309 337.739L55.6427 338.323C51.9599 349.748 48.7394 359.739 46.3079 366.128C46.7577 367.268 47.6513 368.619 48.8858 370.042C50.217 371.576 51.8972 373.141 53.7141 374.549C55.5313 375.957 57.4667 377.194 59.3023 378.082C60.9286 378.87 62.4233 379.357 63.6615 379.483C75.9375 359.886 102.731 318.867 107.462 312.498Z" stroke="white" stroke-width="1.80058"/>		
 <path opacity="0.27" d="M102.681 78.1466C100.194 76.51 101.324 77.6142 99.4399 74.6211L102.681 78.1466Z" fill="black"/>		
 <path d="M192.552 238.531C192.769 240.517 193.12 242.486 193.604 244.424C217.372 255.074 280.074 250.251 281.949 243.23C283.618 237.04 293.841 112.287 253.032 95.9163" stroke="#E2C5C5" stroke-width="1.80058" stroke-miterlimit="10" stroke-linecap="round"/>		
 <path d="M230.575 97.079C199.617 111.824 191.428 178.463 191.505 217.798" stroke="white" stroke-width="1.80058" stroke-miterlimit="10" stroke-linecap="round"/>		
 <path d="M240.531 100.534C246.902 99.723 254.013 97.601 253.296 96.3972C246.522 84.3704 245.266 71.9537 244.237 64.9662" stroke="#E2C5C5" stroke-width="1.80058" stroke-linecap="round" stroke-linejoin="round"/>		
 <path d="M226.05 84.3134C227.288 87.48 229.524 93.2534 230.575 97.1001" stroke="#E2C5C5" stroke-width="1.80058" stroke-linecap="round" stroke-linejoin="round"/>		
 <path d="M263.613 174.845C263.969 177.849 263.438 181.548 263.428 183.81C263.318 196.055 262.458 209.724 254.9 219.869C251.936 223.842 247.103 227.631 242.496 227.464C235.163 230.193 222.925 233.253 222.925 233.253L204.408 236.904C204.408 236.904 173.185 241.803 157.857 241.053C152.747 240.803 147.574 240.12 142.459 240.158C139.505 240.168 134.805 241.007 132.018 239.941C131.232 239.637 131.485 237.841 131.643 237.196C132.341 234.761 134.753 233.082 136.864 232.045C141.883 229.7 144.66 231.27 149.77 231.52C153.945 231.679 158.958 229.622 166.289 226.964C174.928 223.758 184.805 219.928 193.579 217.157C203.586 213.978 213.814 210.588 223.617 206.83C225.588 206.114 227.597 205.507 229.634 205.009C228.816 199.757 228.396 194.45 228.378 189.135C228.282 183.37 228.335 177.319 229.245 171.647" stroke="#E2C5C5" stroke-width="1.80058" stroke-miterlimit="10" stroke-linecap="round"/>		
 <path d="M224.784 152.99C223.5 160.715 223.249 166.92 223.914 168.907C228.324 171.592 252.842 180.817 271.028 172.333C276.877 157.759 273.004 111.79 255.135 108.466C250.477 107.649 246.391 109.07 242.817 111.899" stroke="#E2C5C5" stroke-width="1.80058" stroke-miterlimit="10" stroke-linecap="round"/>		
 <path d="M233.597 81.9701C232.317 82.74 230.938 83.3318 229.498 83.7293C222.911 85.5954 215.917 83.0875 210.132 77.5646" stroke="#E2C5C5" stroke-width="1.80058" stroke-linecap="round" stroke-linejoin="round"/>		
 <path d="M234.013 51.8304C238.847 53.0628 243.79 53.8191 248.77 54.0887C249.6 55.1994 250.052 56.547 250.059 57.9334C249.998 59.4806 249.396 60.9571 248.359 62.1068C247.322 63.2565 245.915 64.0067 244.382 64.2272L244.237 64.9446" stroke="#E2C5C5" stroke-width="1.80058" stroke-linecap="round" stroke-linejoin="round"/>		
 <path d="M210.131 77.5933C205.101 72.8209 201.011 65.7988 198.85 57.4479C196.59 48.3242 196.991 39.3997 199.659 32.3232C200.979 33.6329 202.343 34.9002 203.752 36.1109" stroke="white" stroke-width="1.80058" stroke-linecap="round" stroke-linejoin="round"/>		
 <path d="M176.213 242.406C163.251 242.137 116.454 240.807 107.885 240.629L176.213 242.406Z" fill="#FFC88E"/>		
 <path d="M184.192 243.22C170.511 242.936 123.298 240.805 115.449 240.642C109.594 231.156 82.3899 181.245 80.5953 177.462" stroke="#E2C5C5" stroke-width="4.17014" stroke-linecap="round" stroke-linejoin="round"/>		
 <path d="M94.374 254.666L94.375 254.687L94.374 254.708C92.8881 286.681 107.548 329.012 123.266 363.465C131.114 380.668 139.205 395.862 145.631 406.755C148.845 412.203 151.635 416.564 153.766 419.558C154.833 421.058 155.721 422.196 156.405 422.953C156.749 423.333 157.022 423.595 157.224 423.756C157.302 423.817 157.358 423.855 157.395 423.877C158.447 423.88 159.925 423.585 161.629 423.031C163.367 422.465 165.275 421.651 167.096 420.689C168.918 419.726 170.631 418.628 171.988 417.501C173.27 416.437 174.161 415.408 174.579 414.505C174.032 410.134 172.327 402.7 170.065 393.775C168.228 386.526 166.035 378.336 163.822 370.072C163.266 367.995 162.709 365.913 162.155 363.84C159.403 353.528 156.751 343.441 154.868 335.311C153.926 331.246 153.174 327.657 152.697 324.767C152.227 321.915 152.004 319.632 152.184 318.244L152.316 317.225L153.309 317.49C154.107 317.703 155.781 317.959 158.513 318.232C161.223 318.503 164.923 318.786 169.737 319.066C179.363 319.625 193.423 320.169 212.895 320.572C232.186 320.972 250.086 315.117 263.222 305.467C276.361 295.815 284.68 282.417 284.985 267.714C285.236 255.635 283.66 249.081 281.063 245.48C280.003 246.167 278.51 246.776 276.739 247.323C274.448 248.03 271.565 248.67 268.257 249.225C261.637 250.335 253.248 251.119 244.354 251.41C226.675 251.989 206.805 250.631 194.834 245.919C180.103 245.011 164.416 244.143 153.993 243.927C142.316 243.684 127.233 244.073 115.089 245.774C109.009 246.625 103.725 247.798 99.985 249.355C98.114 250.135 96.686 250.988 95.738 251.899C94.802 252.799 94.374 253.713 94.374 254.666Z" stroke="white" stroke-width="1.80058"/>		
 <path d="M174 415.5L189.055 441.615C189.055 441.615 156 464.5 150.5 460C145 455.5 164.5 428.5 164.5 428.5L162 423" stroke="white" stroke-width="2" stroke-linecap="round" stroke-linejoin="round"/>		
 <path d="M62.5 380L48.3455 406.33C48.3455 406.33 15 391.364 18 384C21 376.636 45 377 45 377L50.2107 371.963" stroke="white" stroke-width="1.80058" stroke-linecap="round" stroke-linejoin="round"/>		
 <path d="M106.5 125C129.667 136.167 134 176.5 156 230" stroke="#ECFFD5" stroke-width="2"/>		
 <path d="M154 153.5C141 176 150.5 206.5 156 230" stroke="#ECFFD5" stroke-width="2"/>		
 <mask id="path-21-inside-1" fill="white">		
 <path d="M128.126 95.7515C125.88 97.3084 122.222 98.5031 121.172 101.256C120.634 102.669 120.895 104.356 122.424 104.933C123.767 105.44 125.585 105.013 126.886 104.563C132.92 102.472 137.492 96.3094 140.152 90.7736C140.2 90.6752 140.271 90.5899 140.359 90.5251C140.447 90.4603 140.549 90.4179 140.658 90.4015C140.766 90.3852 140.876 90.3954 140.979 90.4313C141.083 90.4672 141.176 90.5277 141.25 90.6076C141.563 90.9462 141.38 91.4944 141.425 91.9097C141.797 95.3424 140.565 98.7457 139.008 101.747C137.234 105.15 134.978 108.279 132.311 111.037C126.782 116.727 119.808 120.803 112.137 122.828C110.293 123.331 108.269 123.813 106.73 125.008C104.738 126.554 104.595 128.972 104.001 131.237C103.069 134.808 101.634 138.228 99.7415 141.395C96.0358 147.715 90.4294 152.703 83.7217 155.648C80.1771 157.156 76.3927 158.023 72.5448 158.208C70.3982 158.334 68.2444 158.238 66.1174 157.922C64.9465 157.778 63.7925 157.52 62.6715 157.152C62.0609 156.926 59.5141 155.439 61.0061 154.799C66.8391 152.299 72.699 149.833 78.3064 146.849C80.4457 145.71 82.5748 144.499 83.9823 142.458C85.2637 140.6 86.9367 135.186 83.3248 134.726C81.7112 134.521 80.0989 135.264 78.7581 136.082C73.3703 139.371 69.1331 144.249 62.9025 146.086C57.5365 147.668 51.5985 147.395 46.0855 146.858C43.0666 146.564 40.7855 144.461 39.0015 142.173C36.8202 139.375 34.8519 136.392 33.968 132.916C33.6143 131.525 35.4731 131.81 36.2605 131.788C41.4539 131.64 46.6836 131.313 51.7423 130.054C56.2297 128.937 60.7937 127.069 64.4207 124.146C65.665 123.144 67.3745 121.764 67.1358 119.982C67.0025 118.934 66.4843 117.973 65.682 117.285C64.8797 116.598 63.8505 116.233 62.7944 116.262C59.8148 116.241 56.9139 117.971 54.2485 119.121C50.4549 120.759 46.5577 122.458 42.3928 122.81C39.7525 123.032 37.0976 122.612 34.6546 121.586C32.7652 120.791 30.1659 119.549 28.9699 117.804C28.5283 117.16 28.7611 116.467 28.8494 115.762C29.0371 114.263 28.6722 112.756 28.3916 111.292C27.9648 109.066 27.6265 106.825 27.3105 104.581C27.1681 103.571 26.7425 102.25 26.8533 101.24C26.8647 101.119 26.9021 101.002 26.9629 100.897C27.0237 100.792 27.1065 100.702 27.2056 100.632C27.3047 100.562 27.4177 100.515 27.5369 100.493C27.6561 100.471 27.7786 100.475 27.8961 100.505C28.7853 100.705 29.3723 101.672 29.9195 102.319C32.619 105.284 36.2778 107.201 40.2517 107.733C42.3643 107.937 44.4963 107.715 46.5216 107.08C48.4749 106.46 51.3963 105.252 52.2788 103.252C53.2768 100.989 51.2476 98.6695 49.2642 97.8805C46.9243 96.9497 44.338 97.1866 41.8776 97.1855C39.7196 97.2871 37.5657 96.9103 35.5703 96.0822C34.1252 95.3778 32.7741 94.4949 31.5487 93.4544C30.2645 92.5109 29.1024 91.4118 28.0889 90.1822C27.0596 88.7821 27.2965 86.8346 27.319 85.1969C27.3481 83.083 27.4713 80.9732 27.6888 78.8675C27.9467 76.4011 28.3376 73.9504 28.8598 71.5261C29.1513 70.1735 29.2927 67.5509 31.2049 67.5683C32.8424 67.5832 33.8563 69.6697 34.9835 70.5526C35.8955 71.2925 36.9599 71.8217 38.1003 72.102C39.2408 72.3824 40.4291 72.4071 41.5802 72.1744C42.8547 71.8755 44.2701 71.071 44.1908 69.5738C44.1236 68.3068 43.0037 67.1945 42.1195 66.4135C40.2218 64.7368 37.9797 63.5087 36.0472 61.8763C34.2395 60.3494 32.6395 58.423 32.0639 56.0833C31.4563 53.6124 32.1361 50.9142 32.6347 48.4832C33.1991 45.7402 33.9155 43.0307 34.7808 40.3674C35.0333 39.4682 35.3424 38.5858 35.7063 37.7256C36.0179 36.9315 36.5221 36.2274 37.1735 35.6766C37.8594 35.1993 39.2721 35.5528 40.0678 35.5713C41.3513 35.6013 42.6338 35.6606 43.9151 35.7494C46.4363 35.9247 48.9455 36.2186 51.4428 36.6311C53.7944 37.0222 56.1281 37.5119 58.444 38.1004C60.4124 38.6007 62.495 39.168 64.0786 40.5074C65.7624 41.9313 66.5597 43.9802 67.3577 45.9716C68.2746 48.2593 70.0243 52.0856 73.2024 51.1394C75.5675 50.4352 74.9238 47.4072 73.9983 45.8199C72.7642 43.7033 70.7955 42.2111 69.8339 39.9036C69.2172 38.4225 73.375 39.6271 73.9479 39.7103C76.5883 40.0936 79.3065 40.1751 81.836 41.1033C86.2505 42.723 87.9905 47.2349 89.1671 51.4436C89.7803 53.7143 90.1976 56.0334 90.4146 58.3754C90.655 60.7258 90.8394 63.127 91.6762 65.3573C92.0917 66.4649 92.6899 67.9834 94.0922 67.9287C95.2123 67.885 96.2417 66.9887 96.9419 66.1841C98.2985 64.5712 99.2548 62.6605 99.7325 60.6077C100.31 58.3185 100.328 55.9237 99.7855 53.6259C99.2425 51.3281 98.1544 49.1948 96.613 47.4062C96.1107 46.8399 96.8662 46.0684 97.4837 46.3148C100.288 47.4334 103.092 48.552 105.896 49.6706C108.269 50.6177 110.691 51.5619 112.762 53.0909C117.023 56.2379 117.881 61.5399 117.846 66.5283C117.775 71.4023 116.726 76.2124 114.762 80.6736C114.31 81.729 113.75 82.9784 113.851 84.1565C114.022 86.1661 116.078 86.0092 117.484 85.3807C120.106 84.2085 121.89 81.7306 123.052 79.1864C125.432 73.9756 126.441 67.0962 123.529 61.8968C123.263 61.4207 123.542 60.6159 124.21 60.7737C128.837 61.8657 131.953 66.216 134.604 69.8586C137.487 73.8197 139.537 78.3795 138.072 83.3131C136.555 88.4214 132.416 92.7776 128.126 95.7515ZM91.2126 131.369C91.8085 130.896 92.2348 130.242 92.4274 129.506C92.62 128.769 92.5686 127.991 92.2808 127.286C90.307 122.65 83.7223 125.773 85.1391 130.327C86.0189 133.154 89.3159 133.048 91.2126 131.369ZM59.8889 75.6975C57.818 73.0703 53.3672 72.6729 50.7114 74.5964C48.2399 76.3865 47.6938 79.4798 49.9835 81.6733C52.3623 83.9522 56.7319 84.3295 59.5661 82.6571C62.1487 81.1332 61.4842 77.7215 59.8889 75.6975ZM79.8493 107.291C78.6495 108.068 77.589 109.042 76.712 110.172C75.6693 111.453 74.8155 113.09 75.2685 114.461C75.9852 116.63 79.6908 116.683 81.9675 116.31C84.6929 115.863 87.3334 114.171 87.9498 111.456C88.8499 107.493 83.7381 104.944 79.8493 107.291ZM68.5832 56.235C67.1428 55.2204 65.0759 56.2841 63.8978 57.2584C63.2606 57.7859 62.7627 58.462 62.4479 59.2271C62.1332 59.9922 62.0112 60.8229 62.0928 61.6462C62.4217 65.1559 66.4734 67.2459 69.6481 66.0139C70.5407 65.6496 71.2976 65.0164 71.8138 64.2022C72.33 63.388 72.5798 62.4332 72.5286 61.4705C72.3597 59.1504 70.3481 57.4786 68.5832 56.235ZM87.7258 73.1915C87.0562 72.3878 85.9975 71.245 84.8504 71.2556C83.337 71.2696 82.7483 73.1922 82.5205 74.4034C82.163 76.3045 82.6666 78.3016 83.3281 80.0796C83.9196 81.6087 84.6332 83.0877 85.4619 84.5024C86.1303 85.6778 86.9071 87.1317 88.3275 87.4864C91.6976 88.3279 91.84 83.0943 91.5471 81.1017C91.0145 78.1672 89.6935 75.4328 87.7258 73.1915ZM108.696 88.7924C107.962 88.1847 107.077 87.7887 106.135 87.6467C104.255 87.2673 101.963 87.87 100.15 89.0057C99.4613 89.3995 98.9072 89.9909 98.559 90.7032C98.2108 91.4156 98.0845 92.2161 98.1966 93.0011C98.4056 94.585 98.9675 96.1019 99.8409 97.4397C100.733 98.6381 102.205 98.82 103.744 98.7566C105.252 98.6945 107.131 98.4623 108.337 97.31C109.547 96.1535 109.989 94.3809 110.2 92.8954C110.323 92.1399 110.25 91.3653 109.987 90.6465C109.723 89.9277 109.279 89.2891 108.696 88.7924Z"/>		
 </mask>		
 <path d="M128.126 95.7515C125.88 97.3084 122.222 98.5031 121.172 101.256C120.634 102.669 120.895 104.356 122.424 104.933C123.767 105.44 125.585 105.013 126.886 104.563C132.92 102.472 137.492 96.3094 140.152 90.7736C140.2 90.6752 140.271 90.5899 140.359 90.5251C140.447 90.4603 140.549 90.4179 140.658 90.4015C140.766 90.3852 140.876 90.3954 140.979 90.4313C141.083 90.4672 141.176 90.5277 141.25 90.6076C141.563 90.9462 141.38 91.4944 141.425 91.9097C141.797 95.3424 140.565 98.7457 139.008 101.747C137.234 105.15 134.978 108.279 132.311 111.037C126.782 116.727 119.808 120.803 112.137 122.828C110.293 123.331 108.269 123.813 106.73 125.008C104.738 126.554 104.595 128.972 104.001 131.237C103.069 134.808 101.634 138.228 99.7415 141.395C96.0358 147.715 90.4294 152.703 83.7217 155.648C80.1771 157.156 76.3927 158.023 72.5448 158.208C70.3982 158.334 68.2444 158.238 66.1174 157.922C64.9465 157.778 63.7925 157.52 62.6715 157.152C62.0609 156.926 59.5141 155.439 61.0061 154.799C66.8391 152.299 72.699 149.833 78.3064 146.849C80.4457 145.71 82.5748 144.499 83.9823 142.458C85.2637 140.6 86.9367 135.186 83.3248 134.726C81.7112 134.521 80.0989 135.264 78.7581 136.082C73.3703 139.371 69.1331 144.249 62.9025 146.086C57.5365 147.668 51.5985 147.395 46.0855 146.858C43.0666 146.564 40.7855 144.461 39.0015 142.173C36.8202 139.375 34.8519 136.392 33.968 132.916C33.6143 131.525 35.4731 131.81 36.2605 131.788C41.4539 131.64 46.6836 131.313 51.7423 130.054C56.2297 128.937 60.7937 127.069 64.4207 124.146C65.665 123.144 67.3745 121.764 67.1358 119.982C67.0025 118.934 66.4843 117.973 65.682 117.285C64.8797 116.598 63.8505 116.233 62.7944 116.262C59.8148 116.241 56.9139 117.971 54.2485 119.121C50.4549 120.759 46.5577 122.458 42.3928 122.81C39.7525 123.032 37.0976 122.612 34.6546 121.586C32.7652 120.791 30.1659 119.549 28.9699 117.804C28.5283 117.16 28.7611 116.467 28.8494 115.762C29.0371 114.263 28.6722 112.756 28.3916 111.292C27.9648 109.066 27.6265 106.825 27.3105 104.581C27.1681 103.571 26.7425 102.25 26.8533 101.24C26.8647 101.119 26.9021 101.002 26.9629 100.897C27.0237 100.792 27.1065 100.702 27.2056 100.632C27.3047 100.562 27.4177 100.515 27.5369 100.493C27.6561 100.471 27.7786 100.475 27.8961 100.505C28.7853 100.705 29.3723 101.672 29.9195 102.319C32.619 105.284 36.2778 107.201 40.2517 107.733C42.3643 107.937 44.4963 107.715 46.5216 107.08C48.4749 106.46 51.3963 105.252 52.2788 103.252C53.2768 100.989 51.2476 98.6695 49.2642 97.8805C46.9243 96.9497 44.338 97.1866 41.8776 97.1855C39.7196 97.2871 37.5657 96.9103 35.5703 96.0822C34.1252 95.3778 32.7741 94.4949 31.5487 93.4544C30.2645 92.5109 29.1024 91.4118 28.0889 90.1822C27.0596 88.7821 27.2965 86.8346 27.319 85.1969C27.3481 83.083 27.4713 80.9732 27.6888 78.8675C27.9467 76.4011 28.3376 73.9504 28.8598 71.5261C29.1513 70.1735 29.2927 67.5509 31.2049 67.5683C32.8424 67.5832 33.8563 69.6697 34.9835 70.5526C35.8955 71.2925 36.9599 71.8217 38.1003 72.102C39.2408 72.3824 40.4291 72.4071 41.5802 72.1744C42.8547 71.8755 44.2701 71.071 44.1908 69.5738C44.1236 68.3068 43.0037 67.1945 42.1195 66.4135C40.2218 64.7368 37.9797 63.5087 36.0472 61.8763C34.2395 60.3494 32.6395 58.423 32.0639 56.0833C31.4563 53.6124 32.1361 50.9142 32.6347 48.4832C33.1991 45.7402 33.9155 43.0307 34.7808 40.3674C35.0333 39.4682 35.3424 38.5858 35.7063 37.7256C36.0179 36.9315 36.5221 36.2274 37.1735 35.6766C37.8594 35.1993 39.2721 35.5528 40.0678 35.5713C41.3513 35.6013 42.6338 35.6606 43.9151 35.7494C46.4363 35.9247 48.9455 36.2186 51.4428 36.6311C53.7944 37.0222 56.1281 37.5119 58.444 38.1004C60.4124 38.6007 62.495 39.168 64.0786 40.5074C65.7624 41.9313 66.5597 43.9802 67.3577 45.9716C68.2746 48.2593 70.0243 52.0856 73.2024 51.1394C75.5675 50.4352 74.9238 47.4072 73.9983 45.8199C72.7642 43.7033 70.7955 42.2111 69.8339 39.9036C69.2172 38.4225 73.375 39.6271 73.9479 39.7103C76.5883 40.0936 79.3065 40.1751 81.836 41.1033C86.2505 42.723 87.9905 47.2349 89.1671 51.4436C89.7803 53.7143 90.1976 56.0334 90.4146 58.3754C90.655 60.7258 90.8394 63.127 91.6762 65.3573C92.0917 66.4649 92.6899 67.9834 94.0922 67.9287C95.2123 67.885 96.2417 66.9887 96.9419 66.1841C98.2985 64.5712 99.2548 62.6605 99.7325 60.6077C100.31 58.3185 100.328 55.9237 99.7855 53.6259C99.2425 51.3281 98.1544 49.1948 96.613 47.4062C96.1107 46.8399 96.8662 46.0684 97.4837 46.3148C100.288 47.4334 103.092 48.552 105.896 49.6706C108.269 50.6177 110.691 51.5619 112.762 53.0909C117.023 56.2379 117.881 61.5399 117.846 66.5283C117.775 71.4023 116.726 76.2124 114.762 80.6736C114.31 81.729 113.75 82.9784 113.851 84.1565C114.022 86.1661 116.078 86.0092 117.484 85.3807C120.106 84.2085 121.89 81.7306 123.052 79.1864C125.432 73.9756 126.441 67.0962 123.529 61.8968C123.263 61.4207 123.542 60.6159 124.21 60.7737C128.837 61.8657 131.953 66.216 134.604 69.8586C137.487 73.8197 139.537 78.3795 138.072 83.3131C136.555 88.4214 132.416 92.7776 128.126 95.7515ZM91.2126 131.369C91.8085 130.896 92.2348 130.242 92.4274 129.506C92.62 128.769 92.5686 127.991 92.2808 127.286C90.307 122.65 83.7223 125.773 85.1391 130.327C86.0189 133.154 89.3159 133.048 91.2126 131.369ZM59.8889 75.6975C57.818 73.0703 53.3672 72.6729 50.7114 74.5964C48.2399 76.3865 47.6938 79.4798 49.9835 81.6733C52.3623 83.9522 56.7319 84.3295 59.5661 82.6571C62.1487 81.1332 61.4842 77.7215 59.8889 75.6975ZM79.8493 107.291C78.6495 108.068 77.589 109.042 76.712 110.172C75.6693 111.453 74.8155 113.09 75.2685 114.461C75.9852 116.63 79.6908 116.683 81.9675 116.31C84.6929 115.863 87.3334 114.171 87.9498 111.456C88.8499 107.493 83.7381 104.944 79.8493 107.291ZM68.5832 56.235C67.1428 55.2204 65.0759 56.2841 63.8978 57.2584C63.2606 57.7859 62.7627 58.462 62.4479 59.2271C62.1332 59.9922 62.0112 60.8229 62.0928 61.6462C62.4217 65.1559 66.4734 67.2459 69.6481 66.0139C70.5407 65.6496 71.2976 65.0164 71.8138 64.2022C72.33 63.388 72.5798 62.4332 72.5286 61.4705C72.3597 59.1504 70.3481 57.4786 68.5832 56.235ZM87.7258 73.1915C87.0562 72.3878 85.9975 71.245 84.8504 71.2556C83.337 71.2696 82.7483 73.1922 82.5205 74.4034C82.163 76.3045 82.6666 78.3016 83.3281 80.0796C83.9196 81.6087 84.6332 83.0877 85.4619 84.5024C86.1303 85.6778 86.9071 87.1317 88.3275 87.4864C91.6976 88.3279 91.84 83.0943 91.5471 81.1017C91.0145 78.1672 89.6935 75.4328 87.7258 73.1915ZM108.696 88.7924C107.962 88.1847 107.077 87.7887 106.135 87.6467C104.255 87.2673 101.963 87.87 100.15 89.0057C99.4613 89.3995 98.9072 89.9909 98.559 90.7032C98.2108 91.4156 98.0845 92.2161 98.1966 93.0011C98.4056 94.585 98.9675 96.1019 99.8409 97.4397C100.733 98.6381 102.205 98.82 103.744 98.7566C105.252 98.6945 107.131 98.4623 108.337 97.31C109.547 96.1535 109.989 94.3809 110.2 92.8954C110.323 92.1399 110.25 91.3653 109.987 90.6465C109.723 89.9277 109.279 89.2891 108.696 88.7924Z" stroke="#ECFFD5" stroke-width="2.88853" mask="url(#path-21-inside-1)"/>		
 <mask id="path-22-inside-2" fill="white">		
 <path d="M145.529 67.7285C145.011 68.5123 144.546 69.3297 144.137 70.1752C143.708 70.9996 143.258 71.8096 142.894 72.6661C142.191 74.2109 141.837 75.8919 141.858 77.5891C141.891 78.4429 142.052 79.2869 142.336 80.0928C143.017 82.0226 144.987 83.5153 145.32 85.5462C145.396 85.8351 145.389 86.1398 145.297 86.4243C145.07 86.8293 144.341 86.8264 143.893 86.6282C143.358 86.2693 142.897 85.8096 142.536 85.2746C141.735 84.2705 141.153 83.1103 140.826 81.8681C140.718 81.4708 140.127 81.2362 139.875 81.6597C138.479 84.0109 137.867 86.7451 138.128 89.4669C138.389 92.1888 139.509 94.757 141.326 96.8002C142.418 98.0426 143.693 99.1988 144.357 100.747C144.781 101.596 144.893 102.567 144.672 103.49C144.119 105.074 142.397 104.286 141.473 103.723C138.369 101.833 138.128 101.5 138.128 101.5L137 102.5L136.5 103.5C136.5 103.5 136.231 104.13 136 104.5C135.674 105.023 135 105.5 135 105.5C135 105.5 133.5 107.5 133.5 108C134 110.5 136.484 111.179 138.527 113.615C140.776 116.297 144.136 119.398 144.288 123.135C144.318 123.893 144.181 124.65 143.885 125.349C143.59 126.049 143.144 126.674 142.579 127.181C141.038 128.494 139.193 127.969 137.797 126.714C134.766 123.988 132.96 119.733 132.239 115.798C132.13 115.2 131.16 115.213 131.144 115.851C131.033 120.315 131.046 124.778 131.246 129.24C131.323 130.968 131.445 132.739 132.382 134.245C133.215 135.499 134.38 136.496 135.748 137.125C137.498 137.995 139.426 138.352 141.302 138.838C143.202 139.331 146.169 140.054 145.312 142.684C144.654 144.701 142.329 145.158 140.474 144.894C138.386 144.556 136.491 143.473 135.139 141.846C135.058 141.755 134.95 141.692 134.83 141.668C134.711 141.644 134.587 141.659 134.477 141.711C134.367 141.763 134.276 141.849 134.219 141.957C134.162 142.064 134.142 142.188 134.161 142.308C134.619 144.527 135.583 146.611 136.978 148.396C138.373 150.182 140.162 151.621 142.205 152.601C144.378 153.62 146.773 154.076 149.168 153.928C151.451 153.83 153.738 153.484 156.016 153.587C160.199 156.286 165.682 155.365 169.736 152.737C173.691 150.172 178.649 145.25 177.512 140.061C177.485 139.939 177.42 139.828 177.326 139.745C177.232 139.662 177.114 139.612 176.989 139.601C176.864 139.59 176.739 139.62 176.632 139.685C176.525 139.751 176.442 139.849 176.395 139.965C174.994 143.225 172.415 146.559 169.023 147.885C167.376 148.529 165.299 148.781 163.714 147.821C161.651 146.572 162.254 144.028 163.895 142.698C167.008 140.174 171.797 141.437 174.711 138.42C177.234 135.809 177.463 131.151 177.795 127.751C178.262 122.603 178.048 117.417 177.158 112.325C177.134 112.212 177.074 112.11 176.987 112.034C176.901 111.957 176.792 111.911 176.677 111.901C176.561 111.891 176.446 111.918 176.348 111.979C176.249 112.039 176.173 112.129 176.13 112.237C174.377 116.291 171.946 120.018 168.941 123.256C167.565 124.714 165.888 126.237 163.849 126.614C162.844 126.814 161.799 126.63 160.923 126.098C160.046 125.567 159.4 124.726 159.112 123.742C158.443 121.362 160.785 119.58 162.434 118.277C164.164 116.911 166.077 115.965 167.978 114.88C169.511 114.035 170.811 112.823 171.76 111.352C172.709 109.881 173.278 108.198 173.416 106.452C173.863 101.892 171.738 97.7653 169.356 94.045C169.11 93.6621 168.333 93.6309 168.345 94.2276C168.379 96.1179 168.008 97.9937 167.257 99.7287C166.506 101.464 165.392 103.018 163.989 104.286C162.634 105.503 160.614 106.924 158.679 106.633C156.091 106.245 156.798 103.387 157.742 101.815C159.688 98.5751 162.806 96.1728 163.564 92.2833C163.875 90.6225 163.787 88.9116 163.307 87.2915C162.827 85.6714 161.97 84.1884 160.805 82.9647C160.745 82.8965 160.671 82.8426 160.588 82.8069C160.505 82.7712 160.414 82.7546 160.324 82.7584C160.234 82.7623 160.145 82.7863 160.065 82.8289C159.985 82.8715 159.916 82.9314 159.863 83.0044C158.961 84.2437 158.736 86.0252 157.615 87.0806C156.671 87.9686 155.365 87.825 155.065 86.4754C154.966 85.7272 155.101 84.9667 155.452 84.2986C156.026 82.9453 156.679 81.7275 156.817 80.2383C156.925 78.8672 156.748 77.4886 156.296 76.1897C155.377 73.4399 153.419 71.2356 151.222 69.4112C150.38 68.6331 149.451 67.9547 148.453 67.3895C147.492 66.9104 146.232 66.729 145.529 67.7285ZM161.209 139.796C161.555 140.083 161.793 140.48 161.883 140.92C161.973 141.361 161.91 141.819 161.705 142.219C160.633 144.658 156.824 145.809 154.501 144.639C153.684 144.255 153.037 143.582 152.687 142.749C151.691 140.043 155.948 140.003 157.566 139.654C158.664 139.417 160.215 139.062 161.209 139.796ZM156.796 126.983C156.915 127.393 156.927 127.827 156.831 128.243C156.734 128.659 156.533 129.044 156.246 129.36C155.917 129.668 155.504 129.872 155.059 129.945C154.614 130.017 154.158 129.956 153.748 129.768C152.871 129.284 152.211 128.483 151.903 127.529C151.405 126.221 151.21 123.943 152.987 123.481C154.97 122.966 156.45 125.364 156.796 126.983ZM147.075 112.717C148.317 114.117 147.136 116.234 145.501 116.535C144.848 116.668 144.17 116.549 143.602 116.201C143.031 115.828 142.394 115.084 142.549 114.345C142.673 113.75 143.26 113.575 143.751 113.371C144.763 112.95 146.031 111.54 147.075 112.717ZM148.32 88.8636C148.605 89.007 148.856 89.2085 149.059 89.455C149.261 89.7014 149.409 89.9875 149.494 90.2948C149.579 90.602 149.599 90.9237 149.552 91.239C149.505 91.5543 149.392 91.8563 149.222 92.1255C147.854 94.4634 144.335 92.885 144.444 90.4296C144.448 90.3471 144.467 90.2661 144.501 90.191C144.546 90.0246 144.616 89.8659 144.707 89.7197C145.431 88.5512 147.152 88.2664 148.32 88.8636Z"/>		
 </mask>		
 <path d="M145.529 67.7285C145.011 68.5123 144.546 69.3297 144.137 70.1752C143.708 70.9996 143.258 71.8096 142.894 72.6661C142.191 74.2109 141.837 75.8919 141.858 77.5891C141.891 78.4429 142.052 79.2869 142.336 80.0928C143.017 82.0226 144.987 83.5153 145.32 85.5462C145.396 85.8351 145.389 86.1398 145.297 86.4243C145.07 86.8293 144.341 86.8264 143.893 86.6282C143.358 86.2693 142.897 85.8096 142.536 85.2746C141.735 84.2705 141.153 83.1103 140.826 81.8681C140.718 81.4708 140.127 81.2362 139.875 81.6597C138.479 84.0109 137.867 86.7451 138.128 89.4669C138.389 92.1888 139.509 94.757 141.326 96.8002C142.418 98.0426 143.693 99.1988 144.357 100.747C144.781 101.596 144.893 102.567 144.672 103.49C144.119 105.074 142.397 104.286 141.473 103.723C138.369 101.833 138.128 101.5 138.128 101.5L137 102.5L136.5 103.5C136.5 103.5 136.231 104.13 136 104.5C135.674 105.023 135 105.5 135 105.5C135 105.5 133.5 107.5 133.5 108C134 110.5 136.484 111.179 138.527 113.615C140.776 116.297 144.136 119.398 144.288 123.135C144.318 123.893 144.181 124.65 143.885 125.349C143.59 126.049 143.144 126.674 142.579 127.181C141.038 128.494 139.193 127.969 137.797 126.714C134.766 123.988 132.96 119.733 132.239 115.798C132.13 115.2 131.16 115.213 131.144 115.851C131.033 120.315 131.046 124.778 131.246 129.24C131.323 130.968 131.445 132.739 132.382 134.245C133.215 135.499 134.38 136.496 135.748 137.125C137.498 137.995 139.426 138.352 141.302 138.838C143.202 139.331 146.169 140.054 145.312 142.684C144.654 144.701 142.329 145.158 140.474 144.894C138.386 144.556 136.491 143.473 135.139 141.846C135.058 141.755 134.95 141.692 134.83 141.668C134.711 141.644 134.587 141.659 134.477 141.711C134.367 141.763 134.276 141.849 134.219 141.957C134.162 142.064 134.142 142.188 134.161 142.308C134.619 144.527 135.583 146.611 136.978 148.396C138.373 150.182 140.162 151.621 142.205 152.601C144.378 153.62 146.773 154.076 149.168 153.928C151.451 153.83 153.738 153.484 156.016 153.587C160.199 156.286 165.682 155.365 169.736 152.737C173.691 150.172 178.649 145.25 177.512 140.061C177.485 139.939 177.42 139.828 177.326 139.745C177.232 139.662 177.114 139.612 176.989 139.601C176.864 139.59 176.739 139.62 176.632 139.685C176.525 139.751 176.442 139.849 176.395 139.965C174.994 143.225 172.415 146.559 169.023 147.885C167.376 148.529 165.299 148.781 163.714 147.821C161.651 146.572 162.254 144.028 163.895 142.698C167.008 140.174 171.797 141.437 174.711 138.42C177.234 135.809 177.463 131.151 177.795 127.751C178.262 122.603 178.048 117.417 177.158 112.325C177.134 112.212 177.074 112.11 176.987 112.034C176.901 111.957 176.792 111.911 176.677 111.901C176.561 111.891 176.446 111.918 176.348 111.979C176.249 112.039 176.173 112.129 176.13 112.237C174.377 116.291 171.946 120.018 168.941 123.256C167.565 124.714 165.888 126.237 163.849 126.614C162.844 126.814 161.799 126.63 160.923 126.098C160.046 125.567 159.4 124.726 159.112 123.742C158.443 121.362 160.785 119.58 162.434 118.277C164.164 116.911 166.077 115.965 167.978 114.88C169.511 114.035 170.811 112.823 171.76 111.352C172.709 109.881 173.278 108.198 173.416 106.452C173.863 101.892 171.738 97.7653 169.356 94.045C169.11 93.6621 168.333 93.6309 168.345 94.2276C168.379 96.1179 168.008 97.9937 167.257 99.7287C166.506 101.464 165.392 103.018 163.989 104.286C162.634 105.503 160.614 106.924 158.679 106.633C156.091 106.245 156.798 103.387 157.742 101.815C159.688 98.5751 162.806 96.1728 163.564 92.2833C163.875 90.6225 163.787 88.9116 163.307 87.2915C162.827 85.6714 161.97 84.1884 160.805 82.9647C160.745 82.8965 160.671 82.8426 160.588 82.8069C160.505 82.7712 160.414 82.7546 160.324 82.7584C160.234 82.7623 160.145 82.7863 160.065 82.8289C159.985 82.8715 159.916 82.9314 159.863 83.0044C158.961 84.2437 158.736 86.0252 157.615 87.0806C156.671 87.9686 155.365 87.825 155.065 86.4754C154.966 85.7272 155.101 84.9667 155.452 84.2986C156.026 82.9453 156.679 81.7275 156.817 80.2383C156.925 78.8672 156.748 77.4886 156.296 76.1897C155.377 73.4399 153.419 71.2356 151.222 69.4112C150.38 68.6331 149.451 67.9547 148.453 67.3895C147.492 66.9104 146.232 66.729 145.529 67.7285ZM161.209 139.796C161.555 140.083 161.793 140.48 161.883 140.92C161.973 141.361 161.91 141.819 161.705 142.219C160.633 144.658 156.824 145.809 154.501 144.639C153.684 144.255 153.037 143.582 152.687 142.749C151.691 140.043 155.948 140.003 157.566 139.654C158.664 139.417 160.215 139.062 161.209 139.796ZM156.796 126.983C156.915 127.393 156.927 127.827 156.831 128.243C156.734 128.659 156.533 129.044 156.246 129.36C155.917 129.668 155.504 129.872 155.059 129.945C154.614 130.017 154.158 129.956 153.748 129.768C152.871 129.284 152.211 128.483 151.903 127.529C151.405 126.221 151.21 123.943 152.987 123.481C154.97 122.966 156.45 125.364 156.796 126.983ZM147.075 112.717C148.317 114.117 147.136 116.234 145.501 116.535C144.848 116.668 144.17 116.549 143.602 116.201C143.031 115.828 142.394 115.084 142.549 114.345C142.673 113.75 143.26 113.575 143.751 113.371C144.763 112.95 146.031 111.54 147.075 112.717ZM148.32 88.8636C148.605 89.007 148.856 89.2085 149.059 89.455C149.261 89.7014 149.409 89.9875 149.494 90.2948C149.579 90.602 149.599 90.9237 149.552 91.239C149.505 91.5543 149.392 91.8563 149.222 92.1255C147.854 94.4634 144.335 92.885 144.444 90.4296C144.448 90.3471 144.467 90.2661 144.501 90.191C144.546 90.0246 144.616 89.8659 144.707 89.7197C145.431 88.5512 147.152 88.2664 148.32 88.8636Z" stroke="#ECFFD5" stroke-width="3.6" mask="url(#path-22-inside-2)"/>		
 </svg>