<svg preserveAspectRatio="xMinYMin slice" viewBox="0 0 920 881" fill="none" xmlns="http://www.w3.org/2000/svg">
<path d="M100 5.29289e-05C777.5 107 626 598 768 683.5V0L100 5.29289e-05Z" fill="#E8E5E2"/>
<path d="M526.428 879.536V509.505" stroke="#E8E5E2" stroke-width="2.18656" stroke-linecap="round" stroke-linejoin="round"/>
<path d="M430.145 879.536V509.505" stroke="#E8E5E2" stroke-width="2.18656" stroke-linecap="round" stroke-linejoin="round"/>
<path d="M526.428 549.212H430.145" stroke="#E8E5E2" stroke-width="2.18656" stroke-linecap="round" stroke-linejoin="round"/>
<path d="M526.428 854.5H430.145" stroke="#E8E5E2" stroke-width="2.18656" stroke-linecap="round" stroke-linejoin="round"/>
<path d="M146.159 879.536V509.505" stroke="#E8E5E2" stroke-width="2.18656" stroke-linecap="round" stroke-linejoin="round"/>
<path d="M49.8755 879.536V509.505" stroke="#E8E5E2" stroke-width="2.18656" stroke-linecap="round" stroke-linejoin="round"/>
<path d="M146.159 549.212H49.8757" stroke="#E8E5E2" stroke-width="2.18656" stroke-linecap="round" stroke-linejoin="round"/>
<path d="M146.159 854.5H49.8757" stroke="#E8E5E2" stroke-width="2.18656" stroke-linecap="round" stroke-linejoin="round"/>
<path d="M396.07 477.209H501.386V495.62H396.07V477.209Z" fill="#E8E5E2" stroke="#1D2124" stroke-width="2.18656" stroke-linecap="round" stroke-linejoin="round"/>
<path d="M326.744 255.601V245.642C326.79 229.818 333.067 214.657 344.205 203.468C355.343 192.279 370.436 185.973 386.188 185.927H389.3C405.052 185.973 420.145 192.279 431.283 203.468C442.421 214.657 448.698 229.818 448.744 245.642V477.209" stroke="#E8E5E2" stroke-width="2.28495" stroke-linecap="round" stroke-linejoin="round"/>
<path d="M295.86 311.258V311.26H357.671V311.259V311.256V311.252V311.249V311.246V311.243V311.24V311.237V311.234V311.23V311.227V311.224V311.221V311.218V311.215V311.211V311.208V311.205V311.202V311.199V311.196V311.193V311.189V311.186V311.183V311.18V311.177V311.174V311.17V311.167V311.164V311.161V311.158V311.155V311.152V311.148V311.145V311.142V311.139V311.136V311.133V311.129V311.126V311.123V311.12V311.117V311.114V311.11V311.107V311.104V311.101V311.098V311.095V311.091V311.088V311.085V311.082V311.079V311.076V311.072V311.069V311.066V311.063V311.06V311.057V311.053V311.05V311.047V311.044V311.041V311.038V311.034V311.031V311.028V311.025V311.022V311.019V311.015V311.012V311.009V311.006V311.003V311V310.996V310.993V310.99V310.987V310.984V310.981V310.977V310.974V310.971V310.968V310.965V310.962V310.958V310.955V310.952V310.949V310.946V310.942V310.939V310.936V310.933V310.93V310.927V310.923V310.92V310.917V310.914V310.911V310.908V310.904V310.901V310.898V310.895V310.892V310.888V310.885V310.882V310.879V310.876V310.873V310.869V310.866V310.863V310.86V310.857V310.853V310.85V310.847V310.844V310.841V310.838V310.834V310.831V310.828V310.825V310.822V310.818V310.815V310.812V310.809V310.806V310.803V310.799V310.796V310.793V310.79V310.787V310.783V310.78V310.777V310.774V310.771V310.767V310.764V310.761V310.758V310.755V310.752V310.748V310.745V310.742V310.739V310.736V310.732V310.729V310.726V310.723V310.72V310.716V310.713V310.71V310.707V310.704V310.701V310.697V310.694V310.691V310.688V310.685V310.681V310.678V310.675V310.672V310.669V310.665V310.662V310.659V310.656V310.653V310.649V310.646V310.643V310.64V310.637V310.633V310.63V310.627V310.624V310.621V310.618V310.614V310.611V310.608V310.605V310.602V310.598V310.595V310.592V310.589V310.586V310.582V310.579V310.576V310.573V310.57V310.566V310.563V310.56V310.557V310.554V310.55V310.547V310.544V310.541V310.538V310.534V310.531V310.528V310.525V310.522V310.518V310.515V310.512V310.509V310.506V310.502V310.499V310.496V310.493V310.49V310.486V310.483V310.48V310.477V310.474V310.47V310.467V310.464V310.461V310.458V310.454V310.451V310.448V310.445V310.442V310.438V310.435V310.432V310.429V310.426V310.422V310.419V310.416V310.413V310.41V310.406V310.403V310.4V310.397V310.394V310.39V310.387V310.384V310.381V310.378V310.374V310.371V310.368V310.365V310.362V310.358V310.355V310.352V310.349V310.346V310.342V310.339V310.336V310.333V310.33V310.326V310.323V310.32V310.317V310.314V310.31V310.307V310.304V310.301V310.298V310.294V310.291V310.288V310.285V310.282V310.278V310.275V310.272V310.269V310.266V310.262V310.259V310.256V310.253V310.25V310.246V310.243V310.24V310.237V310.234V310.23V310.227V310.224V310.221V310.218V310.214V310.211V310.208V310.205V310.202V310.198V310.195V310.192V310.189V287.668C357.648 279.441 354.388 271.557 348.602 265.736C342.816 259.916 334.974 256.631 326.787 256.596C318.592 256.619 310.74 259.9 304.944 265.721C299.149 271.543 295.883 279.433 295.86 287.667C295.86 287.668 295.86 287.668 295.86 287.669L295.86 310.189V310.192V310.195V310.198V310.201V310.204V310.207V310.21V310.213V310.216V310.22V310.223V310.226V310.229V310.232V310.235V310.238V310.241V310.244V310.247V310.25V310.253V310.257V310.26V310.263V310.266V310.269V310.272V310.275V310.278V310.281V310.284V310.287V310.291V310.294V310.297V310.3V310.303V310.306V310.309V310.312V310.315V310.319V310.322V310.325V310.328V310.331V310.334V310.337V310.34V310.343V310.346V310.35V310.353V310.356V310.359V310.362V310.365V310.368V310.371V310.374V310.378V310.381V310.384V310.387V310.39V310.393V310.396V310.399V310.403V310.406V310.409V310.412V310.415V310.418V310.421V310.424V310.428V310.431V310.434V310.437V310.44V310.443V310.446V310.449V310.453V310.456V310.459V310.462V310.465V310.468V310.471V310.474V310.478V310.481V310.484V310.487V310.49V310.493V310.496V310.5V310.503V310.506V310.509V310.512V310.515V310.518V310.522V310.525V310.528V310.531V310.534V310.537V310.54V310.544V310.547V310.55V310.553V310.556V310.559V310.562V310.566V310.569V310.572V310.575V310.578V310.581V310.584V310.588V310.591V310.594V310.597V310.6V310.603V310.607V310.61V310.613V310.616V310.619V310.622V310.625V310.629V310.632V310.635V310.638V310.641V310.644V310.648V310.651V310.654V310.657V310.66V310.663V310.667V310.67V310.673V310.676V310.679V310.682V310.685V310.689V310.692V310.695V310.698V310.701V310.704V310.708V310.711V310.714V310.717V310.72V310.723V310.727V310.73V310.733V310.736V310.739V310.742V310.746V310.749V310.752V310.755V310.758V310.761V310.765V310.768V310.771V310.774V310.777V310.781V310.784V310.787V310.79V310.793V310.796V310.8V310.803V310.806V310.809V310.812V310.815V310.819V310.822V310.825V310.828V310.831V310.835V310.838V310.841V310.844V310.847V310.85V310.854V310.857V310.86V310.863V310.866V310.869V310.873V310.876V310.879V310.882V310.885V310.889V310.892V310.895V310.898V310.901V310.904V310.908V310.911V310.914V310.917V310.92V310.924V310.927V310.93V310.933V310.936V310.939V310.943V310.946V310.949V310.952V310.955V310.959V310.962V310.965V310.968V310.971V310.975V310.978V310.981V310.984V310.987V310.99V310.994V310.997V311V311.003V311.006V311.01V311.013V311.016V311.019V311.022V311.026V311.029V311.032V311.035V311.038V311.041V311.045V311.048V311.051V311.054V311.057V311.061V311.064V311.067V311.07V311.073V311.077V311.08V311.083V311.086V311.089V311.092V311.096V311.099V311.102V311.105V311.108V311.112V311.115V311.118V311.121V311.124V311.128V311.131V311.134V311.137V311.14V311.144V311.147V311.15V311.153V311.156V311.159V311.163V311.166V311.169V311.172V311.175V311.179V311.182V311.185V311.188V311.191V311.195V311.198V311.201V311.204V311.207V311.211V311.214V311.217V311.22V311.223V311.226V311.23V311.233V311.236V311.239V311.242V311.246V311.249V311.252V311.255V311.258Z" fill="#E8E5E2" stroke="black" stroke-width="1.09328"/>
<path d="M317.156 311.938C317.24 314.438 318.287 316.807 320.077 318.546C321.867 320.284 324.259 321.256 326.749 321.256C329.239 321.256 331.632 320.284 333.422 318.546C335.211 316.807 336.259 314.438 336.343 311.938" fill="#E8E5E2"/>
<path d="M317.156 311.938C317.24 314.438 318.287 316.807 320.077 318.546C321.867 320.284 324.259 321.256 326.749 321.256C329.239 321.256 331.632 320.284 333.422 318.546C335.211 316.807 336.259 314.438 336.343 311.938" stroke="#1D2124" stroke-width="2.28495" stroke-linecap="round" stroke-linejoin="round"/>
<path d="M310.234 462.45H194.872C190.499 462.453 186.304 464.194 183.205 467.293C180.105 470.392 178.353 474.598 178.33 478.991V478.991C178.341 483.386 180.084 487.598 183.178 490.706C186.272 493.813 190.464 495.565 194.839 495.576H310.201" fill="#E8E5E2"/>
<path d="M199.28 462.45V495.62" stroke="#1D2124" stroke-width="2.28495" stroke-linecap="round" stroke-linejoin="round"/>
<path d="M303.726 462.45V495.62" stroke="#1D2124" stroke-width="2.28495" stroke-linecap="round" stroke-linejoin="round"/>
<path d="M287.605 450.467H163.705V461.892H287.605V450.467Z" fill="#E8E5E2" stroke="#1D2124" stroke-width="1.09328"/>
<path d="M190.758 434.167H299.427V449.932H190.758V434.167Z" fill="#E8E5E2" stroke="#1D2124" stroke-width="2.39428" stroke-linecap="round" stroke-linejoin="round"/>
<path d="M121.463 442.596H84.9327V495.084H121.463V442.596Z" fill="#E8E5E2" stroke="#1D2124" stroke-width="1.09328"/>
<path d="M84.3862 454.042C80.6546 454.146 77.1104 455.707 74.5074 458.395C71.9044 461.083 70.448 464.685 70.448 468.435C70.448 472.185 71.9044 475.788 74.5074 478.475C77.1104 481.163 80.6546 482.725 84.3862 482.828" stroke="#E8E5E2" stroke-width="2.39428" stroke-linecap="round" stroke-linejoin="round"/>
<path d="M129.319 264.026C91.9265 264.026 61.6143 233.575 61.6143 196.013C61.6143 158.45 91.9265 128 129.319 128C166.711 128 197.023 158.45 197.023 196.013C197.023 233.575 166.711 264.026 129.319 264.026Z" fill="#E8E5E2" stroke="black" stroke-width="2.39428" stroke-linecap="round" stroke-linejoin="round"/>
<path d="M129.236 196.072V147.454" stroke="black" stroke-width="2.39428" stroke-linecap="round" stroke-linejoin="round"/>
<path d="M129.236 196.072H97.9576" stroke="black" stroke-width="2.39428" stroke-linecap="round" stroke-linejoin="round"/>
<path d="M525.928 148.362H767.937V158.496H525.928V148.362Z" stroke="#1D2124" stroke-width="2.39428" stroke-linecap="round" stroke-linejoin="round"/>
<path d="M660.02 37H681.068V147.618H660.02V37Z" stroke="#1D2124" stroke-width="2.39428" stroke-linecap="round" stroke-linejoin="round"/>
<path d="M605.798 42.196L623.479 53.8252L562.915 146.744L545.234 135.115L605.798 42.196Z" stroke="#1D2124" stroke-width="2.39428" stroke-linecap="round" stroke-linejoin="round"/>
<path d="M623.015 56H636.063V147.781H623.015V56Z" stroke="#1D2124" stroke-width="2.39428" stroke-linecap="round" stroke-linejoin="round"/>
<path d="M724.48 158.496H737.094V171.167H724.48V158.496Z" stroke="black" stroke-width="2.39428" stroke-linecap="round" stroke-linejoin="round"/>
<path d="M556.76 158.496H569.374V171.167H556.76V158.496Z" stroke="black" stroke-width="2.39428" stroke-linecap="round" stroke-linejoin="round"/>
<path d="M705.576 436.353C695.455 442.913 663.959 514.818 644.413 591.478" stroke="#1D2124" stroke-width="2.39428" stroke-linecap="round" stroke-linejoin="round"/>
<path d="M619.523 509.854C630.737 492.817 640.307 474.743 648.102 455.879C653.272 443.317 665.733 389.779 708.025 389.779C727.996 389.779 759.72 410.639 759.72 444.859C759.72 464.385 746.247 488.863 733.601 514.391C729.762 511.055 725.178 508.699 720.239 507.521C715.3 506.344 710.152 506.381 705.23 507.628C700.308 508.876 695.759 511.298 691.967 514.688C688.176 518.079 685.254 522.338 683.451 527.104C681.647 531.871 681.014 537.004 681.607 542.068C682.199 547.133 683.998 551.979 686.852 556.196C689.706 560.413 693.53 563.876 698.001 566.291C702.471 568.707 707.455 570.004 712.531 570.072C698.709 648.788 671.664 681.018 651.737 693.678" stroke="#1D2124" stroke-width="2.18656" stroke-linecap="round" stroke-linejoin="round"/>
<path d="M536.922 553.179C547.555 599.479 568.842 653.837 591.588 682.82L648.812 682.82C662.594 663.494 670.025 640.328 670.067 616.556C670.067 579.57 643.86 534.035 640.258 506.397C635.904 472.954 618.328 434 591.283 434C551.32 434 536.116 461.802 531.513 484.761L547.892 499.87C554.132 501.794 559.475 505.906 562.948 511.457C566.421 517.009 567.791 523.629 566.81 530.111C565.828 536.593 562.559 542.505 557.6 546.767C552.641 551.03 546.322 553.36 539.795 553.332C538.835 553.33 537.876 553.279 536.922 553.179Z" fill="#E8E5E2" stroke="#1D2124" stroke-width="2.18656" stroke-linecap="round" stroke-linejoin="round"/>
<path d="M627.481 682.82C629.451 655.378 629.375 585.321 597.912 530.471" stroke="#1D2124" stroke-width="2.39428" stroke-linecap="round" stroke-linejoin="round"/>
<path d="M1.96765 495.62H574.325V509.964H1.96765V495.62Z" fill="#E8E5E2" stroke="#1D2124" stroke-width="2.18656" stroke-linecap="round" stroke-linejoin="round"/>
</svg>
