<svg width="784" height="773" viewBox="0 0 784 773" fill="none" xmlns="http://www.w3.org/2000/svg">
<g clip-path="url(#clip0)">
<path d="M-1 774H712C697.51 774 638.052 308.798 465.673 160.916C293.294 13.0341 -1 0 -1 0V774Z" fill="#2E3439" stroke="#1D2124" stroke-width="2.39"/>
<path d="M530.432 877.536V507.505" stroke="#E8E5E2" stroke-width="2.18656" stroke-linecap="round" stroke-linejoin="round"/>
<path d="M434.148 877.536V507.505" stroke="#E8E5E2" stroke-width="2.18656" stroke-linecap="round" stroke-linejoin="round"/>
<path d="M530.432 547.212H434.149" stroke="#E8E5E2" stroke-width="2.18656" stroke-linecap="round" stroke-linejoin="round"/>
<path d="M150.163 877.536V507.505" stroke="#E8E5E2" stroke-width="2.18656" stroke-linecap="round" stroke-linejoin="round"/>
<path d="M53.8794 877.536V507.505" stroke="#E8E5E2" stroke-width="2.18656" stroke-linecap="round" stroke-linejoin="round"/>
<path d="M150.163 547.212H53.8796" stroke="#E8E5E2" stroke-width="2.18656" stroke-linecap="round" stroke-linejoin="round"/>
<path d="M400.074 475.209H505.39V493.62H400.074V475.209Z" fill="#E8E5E2" stroke="#1D2124" stroke-width="2.18656" stroke-linecap="round" stroke-linejoin="round"/>
<path d="M330.748 253.601V243.642C330.793 227.818 337.071 212.657 348.209 201.468C359.347 190.279 374.44 183.973 390.192 183.927H393.304C409.055 183.973 424.149 190.279 435.287 201.468C446.425 212.657 452.702 227.818 452.748 243.642V475.209" stroke="#E8E5E2" stroke-width="2.28495" stroke-linecap="round" stroke-linejoin="round"/>
<path d="M299.863 309.258V309.26H361.674V309.259V309.256V309.252V309.249V309.246V309.243V309.24V309.237V309.234V309.23V309.227V309.224V309.221V309.218V309.215V309.211V309.208V309.205V309.202V309.199V309.196V309.193V309.189V309.186V309.183V309.18V309.177V309.174V309.17V309.167V309.164V309.161V309.158V309.155V309.152V309.148V309.145V309.142V309.139V309.136V309.133V309.129V309.126V309.123V309.12V309.117V309.114V309.11V309.107V309.104V309.101V309.098V309.095V309.091V309.088V309.085V309.082V309.079V309.076V309.072V309.069V309.066V309.063V309.06V309.057V309.053V309.05V309.047V309.044V309.041V309.038V309.034V309.031V309.028V309.025V309.022V309.019V309.015V309.012V309.009V309.006V309.003V309V308.996V308.993V308.99V308.987V308.984V308.981V308.977V308.974V308.971V308.968V308.965V308.962V308.958V308.955V308.952V308.949V308.946V308.942V308.939V308.936V308.933V308.93V308.927V308.923V308.92V308.917V308.914V308.911V308.908V308.904V308.901V308.898V308.895V308.892V308.888V308.885V308.882V308.879V308.876V308.873V308.869V308.866V308.863V308.86V308.857V308.853V308.85V308.847V308.844V308.841V308.838V308.834V308.831V308.828V308.825V308.822V308.818V308.815V308.812V308.809V308.806V308.803V308.799V308.796V308.793V308.79V308.787V308.783V308.78V308.777V308.774V308.771V308.767V308.764V308.761V308.758V308.755V308.752V308.748V308.745V308.742V308.739V308.736V308.732V308.729V308.726V308.723V308.72V308.716V308.713V308.71V308.707V308.704V308.701V308.697V308.694V308.691V308.688V308.685V308.681V308.678V308.675V308.672V308.669V308.665V308.662V308.659V308.656V308.653V308.649V308.646V308.643V308.64V308.637V308.633V308.63V308.627V308.624V308.621V308.618V308.614V308.611V308.608V308.605V308.602V308.598V308.595V308.592V308.589V308.586V308.582V308.579V308.576V308.573V308.57V308.566V308.563V308.56V308.557V308.554V308.55V308.547V308.544V308.541V308.538V308.534V308.531V308.528V308.525V308.522V308.518V308.515V308.512V308.509V308.506V308.502V308.499V308.496V308.493V308.49V308.486V308.483V308.48V308.477V308.474V308.47V308.467V308.464V308.461V308.458V308.454V308.451V308.448V308.445V308.442V308.438V308.435V308.432V308.429V308.426V308.422V308.419V308.416V308.413V308.41V308.406V308.403V308.4V308.397V308.394V308.39V308.387V308.384V308.381V308.378V308.374V308.371V308.368V308.365V308.362V308.358V308.355V308.352V308.349V308.346V308.342V308.339V308.336V308.333V308.33V308.326V308.323V308.32V308.317V308.314V308.31V308.307V308.304V308.301V308.298V308.294V308.291V308.288V308.285V308.282V308.278V308.275V308.272V308.269V308.266V308.262V308.259V308.256V308.253V308.25V308.246V308.243V308.24V308.237V308.234V308.23V308.227V308.224V308.221V308.218V308.214V308.211V308.208V308.205V308.202V308.198V308.195V308.192V308.189V285.668C361.651 277.441 358.391 269.557 352.605 263.736C346.819 257.916 338.977 254.631 330.79 254.596C322.595 254.619 314.742 257.9 308.947 263.721C303.152 269.543 299.886 277.433 299.863 285.667C299.863 285.668 299.863 285.668 299.863 285.669L299.863 308.189V308.192V308.195V308.198V308.201V308.204V308.207V308.21V308.213V308.216V308.22V308.223V308.226V308.229V308.232V308.235V308.238V308.241V308.244V308.247V308.25V308.253V308.257V308.26V308.263V308.266V308.269V308.272V308.275V308.278V308.281V308.284V308.287V308.291V308.294V308.297V308.3V308.303V308.306V308.309V308.312V308.315V308.319V308.322V308.325V308.328V308.331V308.334V308.337V308.34V308.343V308.346V308.35V308.353V308.356V308.359V308.362V308.365V308.368V308.371V308.374V308.378V308.381V308.384V308.387V308.39V308.393V308.396V308.399V308.403V308.406V308.409V308.412V308.415V308.418V308.421V308.424V308.428V308.431V308.434V308.437V308.44V308.443V308.446V308.449V308.453V308.456V308.459V308.462V308.465V308.468V308.471V308.474V308.478V308.481V308.484V308.487V308.49V308.493V308.496V308.5V308.503V308.506V308.509V308.512V308.515V308.518V308.522V308.525V308.528V308.531V308.534V308.537V308.54V308.544V308.547V308.55V308.553V308.556V308.559V308.562V308.566V308.569V308.572V308.575V308.578V308.581V308.584V308.588V308.591V308.594V308.597V308.6V308.603V308.607V308.61V308.613V308.616V308.619V308.622V308.625V308.629V308.632V308.635V308.638V308.641V308.644V308.648V308.651V308.654V308.657V308.66V308.663V308.667V308.67V308.673V308.676V308.679V308.682V308.685V308.689V308.692V308.695V308.698V308.701V308.704V308.708V308.711V308.714V308.717V308.72V308.723V308.727V308.73V308.733V308.736V308.739V308.742V308.746V308.749V308.752V308.755V308.758V308.761V308.765V308.768V308.771V308.774V308.777V308.781V308.784V308.787V308.79V308.793V308.796V308.8V308.803V308.806V308.809V308.812V308.815V308.819V308.822V308.825V308.828V308.831V308.835V308.838V308.841V308.844V308.847V308.85V308.854V308.857V308.86V308.863V308.866V308.869V308.873V308.876V308.879V308.882V308.885V308.889V308.892V308.895V308.898V308.901V308.904V308.908V308.911V308.914V308.917V308.92V308.924V308.927V308.93V308.933V308.936V308.939V308.943V308.946V308.949V308.952V308.955V308.959V308.962V308.965V308.968V308.971V308.975V308.978V308.981V308.984V308.987V308.99V308.994V308.997V309V309.003V309.006V309.01V309.013V309.016V309.019V309.022V309.026V309.029V309.032V309.035V309.038V309.041V309.045V309.048V309.051V309.054V309.057V309.061V309.064V309.067V309.07V309.073V309.077V309.08V309.083V309.086V309.089V309.092V309.096V309.099V309.102V309.105V309.108V309.112V309.115V309.118V309.121V309.124V309.128V309.131V309.134V309.137V309.14V309.144V309.147V309.15V309.153V309.156V309.159V309.163V309.166V309.169V309.172V309.175V309.179V309.182V309.185V309.188V309.191V309.195V309.198V309.201V309.204V309.207V309.211V309.214V309.217V309.22V309.223V309.226V309.23V309.233V309.236V309.239V309.242V309.246V309.249V309.252V309.255V309.258Z" fill="#E8E5E2" stroke="black" stroke-width="1.09328"/>
<path d="M321.158 309.938C321.242 312.438 322.29 314.807 324.08 316.546C325.87 318.284 328.262 319.256 330.752 319.256C333.242 319.256 335.634 318.284 337.424 316.546C339.214 314.807 340.262 312.438 340.345 309.938" fill="#E8E5E2"/>
<path d="M321.158 309.938C321.242 312.438 322.29 314.807 324.08 316.546C325.87 318.284 328.262 319.256 330.752 319.256C333.242 319.256 335.634 318.284 337.424 316.546C339.214 314.807 340.262 312.438 340.345 309.938" stroke="#1D2124" stroke-width="2.28495" stroke-linecap="round" stroke-linejoin="round"/>
<path d="M314.238 460.45H198.876C194.503 460.453 190.308 462.194 187.209 465.293C184.109 468.392 182.357 472.598 182.334 476.991V476.991C182.345 481.386 184.088 485.598 187.182 488.706C190.276 491.813 194.468 493.565 198.843 493.576H314.205" fill="#E8E5E2"/>
<path d="M203.283 460.45V493.62" stroke="#1D2124" stroke-width="2.28495" stroke-linecap="round" stroke-linejoin="round"/>
<path d="M307.73 460.45V493.62" stroke="#1D2124" stroke-width="2.28495" stroke-linecap="round" stroke-linejoin="round"/>
<path d="M291.608 448.467H167.708V459.892H291.608V448.467Z" fill="#E8E5E2" stroke="#1D2124" stroke-width="1.09328"/>
<path d="M194.761 432.167H303.43V447.932H194.761V432.167Z" fill="#E8E5E2" stroke="#1D2124" stroke-width="2.39428" stroke-linecap="round" stroke-linejoin="round"/>
<path d="M125.467 440.596H88.9366V493.084H125.467V440.596Z" fill="#E8E5E2" stroke="#1D2124" stroke-width="1.09328"/>
<path d="M88.3901 452.042C84.6586 452.146 81.1143 453.708 78.5113 456.395C75.9083 459.083 74.4519 462.686 74.4519 466.436C74.4519 470.186 75.9083 473.788 78.5113 476.476C81.1143 479.164 84.6586 480.725 88.3901 480.829" stroke="#E8E5E2" stroke-width="2.39428" stroke-linecap="round" stroke-linejoin="round"/>
<path d="M133.323 262.026C95.9304 262.026 65.6182 231.575 65.6182 194.013C65.6182 156.45 95.9304 126 133.323 126C170.715 126 201.027 156.45 201.027 194.013C201.027 231.575 170.715 262.026 133.323 262.026Z" fill="#E8E5E2" stroke="black" stroke-width="2.39428" stroke-linecap="round" stroke-linejoin="round"/>
<path d="M133.239 194.072V145.454" stroke="black" stroke-width="2.39428" stroke-linecap="round" stroke-linejoin="round"/>
<path d="M133.239 194.072H101.96" stroke="black" stroke-width="2.39428" stroke-linecap="round" stroke-linejoin="round"/>
<path d="M529.932 146.362H771.941V156.496H529.932V146.362Z" stroke="#1D2124" stroke-width="2.39428" stroke-linecap="round" stroke-linejoin="round"/>
<path d="M664.023 35H685.072V145.618H664.023V35Z" stroke="#1D2124" stroke-width="2.39428" stroke-linecap="round" stroke-linejoin="round"/>
<path d="M609.802 40.1959L627.482 51.8251L566.919 144.744L549.238 133.115L609.802 40.1959Z" stroke="#1D2124" stroke-width="2.39428" stroke-linecap="round" stroke-linejoin="round"/>
<path d="M627.018 54H640.067V145.781H627.018V54Z" stroke="#1D2124" stroke-width="2.39428" stroke-linecap="round" stroke-linejoin="round"/>
<path d="M728.484 156.496H741.098V169.167H728.484V156.496Z" stroke="black" stroke-width="2.39428" stroke-linecap="round" stroke-linejoin="round"/>
<path d="M560.763 156.496H573.376V169.167H560.763V156.496Z" stroke="black" stroke-width="2.39428" stroke-linecap="round" stroke-linejoin="round"/>
<path d="M709.58 434.353C699.459 440.913 667.963 512.818 648.417 589.479" stroke="#1D2124" stroke-width="2.39428" stroke-linecap="round" stroke-linejoin="round"/>
<path d="M623.527 507.854C634.741 490.817 644.311 472.743 652.106 453.879C657.276 441.317 669.737 387.78 712.029 387.78C732 387.78 763.724 408.639 763.724 442.859C763.724 462.385 750.251 486.863 737.604 512.391C733.765 509.055 729.182 506.699 724.243 505.521C719.304 504.344 714.156 504.381 709.234 505.629C704.312 506.876 699.763 509.298 695.971 512.688C692.18 516.079 689.258 520.338 687.455 525.104C685.651 529.871 685.018 535.004 685.61 540.068C686.203 545.133 688.002 549.979 690.856 554.196C693.71 558.413 697.534 561.876 702.004 564.291C706.475 566.707 711.459 568.004 716.535 568.072C702.004 616.5 691.004 641.5 680.504 657" stroke="#1D2124" stroke-width="2.18656" stroke-linecap="round" stroke-linejoin="round"/>
<path d="M541.445 551.179C552.148 597.479 668.105 668.017 691 697C680.974 632.808 656.344 568.176 647.976 504.397C643.595 470.954 623.386 432 596.164 432C555.938 432 540.634 459.802 536 482.761L552.487 497.87C558.768 499.794 564.146 503.906 567.642 509.457C571.138 515.009 572.517 521.629 571.529 528.111C570.541 534.593 567.251 540.505 562.259 544.767C557.267 549.03 550.906 551.36 544.337 551.332C543.371 551.33 542.405 551.279 541.445 551.179Z" fill="#E8E5E2" stroke="#1D2124" stroke-width="2.18656" stroke-linecap="round" stroke-linejoin="round"/>
<path d="M691 696C678.688 667.433 617.865 594.397 599 508" stroke="#1D2124" stroke-width="2.39428" stroke-linecap="round" stroke-linejoin="round"/>
<path d="M5.97058 493.62H578.328V507.964H5.97058V493.62Z" fill="#E8E5E2" stroke="#1D2124" stroke-width="2.18656" stroke-linecap="round" stroke-linejoin="round"/>
</g>
<defs>
<clipPath id="clip0">
<rect width="784" height="773" fill="white"/>
</clipPath>
</defs>
</svg>
