<?xml version="1.0" encoding="utf-8"?>
<!-- Generator: Adobe Illustrator 24.1.0, SVG Export Plug-In . SVG Version: 6.00 Build 0)  -->
<svg version="1.1" id="Layer_1" xmlns="http://www.w3.org/2000/svg" xmlns:xlink="http://www.w3.org/1999/xlink" x="0px" y="0px"
	 viewBox="0 0 126 158" style="enable-background:new 0 0 126 158;" xml:space="preserve">
<style type="text/css">
	.st0{fill:none;}
	.st1{fill:none;stroke:#81EEB8;stroke-width:1.4998;stroke-linecap:round;stroke-linejoin:round;stroke-miterlimit:10;}
</style>
<g id="Layer_x0020_1">
	<rect x="-24.1" y="-14.2" class="st0" width="175.4" height="170"/>
	<path class="st1" d="M14.2,138.6c0,0-6.3-14.7-4-28c2.4-13.3,8.4-16.1,16.3-19.2c7.9-3.2,9.6-10.1,9.1-17.1
		c-0.6-7,0.7-14.9,1.5-15.9c0.9-1-1.8,1.3-4.1,3.1c-2.3,1.8,2.7-2.1,4.1-7s12.6-22.6,17.8-27c5.2-4.4,7.3-4.2,6.4-2.5
		c-0.9,1.7-4.8,9.3-5.6,17c-0.8,7.7-4,11.6-7.7,13.1c-3.7,1.5-7.2,1.1-9.2,8.6c-2,7.5,0.2,12.2-1.7,18.8c-1.9,6.6-6.2,8.8-12.2,12.5
		c-6,3.7-11,10.9-11,21.5s8.7,29.3,7.2,11.6s0-19.1,8.8-25.5c8.8-6.3,12.3-4.9,8.2,1c-4.1,5.9-4.6,6.4,0.5,16.4s8.9,12.2,9.1,16.7
		c0.1,4.6,10.2,4.5,4.5-4.3c-5.7-8.8-4-18.6-7.1-25.4c-3.1-6.9-4.9-19.8-3.4-25.3c1.5-5.5,1.8-0.7,1.8,5c0,5.7,3.3,12.4,5,22.5
		c1.7,10.1,2.6,12.2,5.8,19.1c3.2,6.9,7.3,10.9,8.2-4.1c0.9-15,0.7-28.7-1-35.4c-1.8-6.6-0.1-6.8-2.9-9c-2.7-2.2-5-6.9-5-10.3
		c0-3.3,0.3-4.8,0-4.9c-0.3-0.1-2.1-0.3-2.2-2.3c0-2-0.2-3.3-0.6-4.3s1-3.3,2.2-2.4c1.2,0.9,1.2,3.3,1.1,5.6
		c-0.1,2.3-1.4,2.7-1.5-0.6c-0.1-3.3,0.7-8.5,1.7-10.4c1-1.9,1.6-2.8,3.1-10.3c1.5-7.6,4.7-16.6,8.3-19.4c3.6-2.9,10.6-4.4,13.2-3.4
		c2.5,1-1.6-3-7.8-0.9c-6.3,2.1-6.7,4.8-9.9,5.7c-3.1,1-9.1,4.3-12,9.2s-6.8,12.7-8.7,14.4c-1.9,1.6,4.9-7.4,5.3-12.2
		c0.4-4.8,4.7-14.8,10.3-18.8c5.6-4,16.3-7.6,19.5-4.7c3.2,2.9,2.6,0.9,1.1-1.3c-1.5-2.1,4.1-3.7,5.7,0.9c1.6,4.6-0.6,9.9,0.6,8.7
		c1.2-1.3,1.8-4.6,0.8-8.3c-1-3.7,4.4-2.5,9.6,2.3c5.2,4.8,7.3,8.8,10.6,13.5c3.3,4.7,4.9,7.4,5.4,12.7c0.4,5.2-1.7,9.2-2.9,12.2
		c-1.3,2.9-2.3,10.1-0.8,14.2c1.5,4.1,2.8,7.7,4.8,15.8c2,8.2,6.7,11.8,3.1,19.1s-6.4,6.3-6.1,19.9s-4.7,28.4-11.9,32.7
		c-7.2,4.3,5.2-8.4,6-23.4c0.9-15-2.4,9.6-9.3,19.6c-6.9,10-7.5,2.8-5.3-6.2c2.2-9,18.4-33.9,20.6-49.1c2.2-15.2-2.9-24.9-3-28.1
		c-0.1-3.2-1.9,4.2-1.2,7.7c0.7,3.5,2,9.4-0.9,18.4s-4.7,14-6.9,23.4c-2.2,9.4-10.8,21-13.3,23.3s1-1.6,5.3-10.5
		c4.3-8.9,5.7-12.4,6.6-18.9c0.9-6.5,5.4-15.8,4.7-23.5c-0.7-7.7,2.5-23.5,3.4-31c0.9-7.5,0-18.7-4.6-23.7c-4.6-5-8-6.5-11.2-5.5
		c-3.2,1-3.2-1.8-1.6-2.4c1.6-0.6,12.3,1.3,16.5,7.9c4.2,6.7,3.7,20.6,2.9,27.3c-0.7,6.7-7.1,22.3-9.4,26
		c-2.4,3.7-13.6,18-12.2,28.7c1.5,10.8-2.6,17-6.3,22.4s-2.6,7.7-3,8.1c-0.4,0.4-0.6-2.8,0.5-6.1c1-3.3,6.5-8.9,6.5-16.7
		c0.1-7.8,1.2-12.8,1.3-15.2c0.1-2.4-5.1,0.2-6.5,7.3c-1.5,7.1,0.4,9.3-2.4,14.7c-2.7,5.4-2.3,14.7-2.3,14.1c0-0.7-1.1-3.8-0.1-10.2
		c1-6.3,3.3-7.1,2.1-13.8c-1.2-6.8,5.8-12.7,8.8-14.7c3.1-2,6.4-11.9,6.7-14.2c0.3-2.3,4.6-3.3,6.9-8c2.4-4.7,3.6-11.3,4-13.1
		c0.4-1.7-2.4,6.4-3.5,9c-1.1,2.5-2,5.3-7.8,9s-9.3,4.7-13.3,4.6c-4.1-0.1-9.5-5.8-11.9-6.7c-1.6-0.6-3.1-2.9-4.4-2.1
		c-0.6,0.4-1,3.1-1.6,5.3c-1.8,6.9-2.5,9.5-5.2,13.8c-2.6,4.3-3.2,4.9-1.5,1.2c1.7-3.7,5.8-14.2,6.1-18.9c0.3-4.7-2-17.7-0.9-25.5
		c1.1-7.8,3.2-22.3,9.1-30.3c5.8-8,15.3-8,16.9-6.3c1.6,1.7-0.1,1.4-4.3,1.5c-4.2,0.1-8.9,1.3-11.7,7.7c-2.8,6.4-5.9,10.5-5.6,28.1
		c0.3,17.7-0.2,21.4-0.2,21.4s-0.5,10.8-3.9,19.1c-3.4,8.3-4.9,11.2-4.3,9.6c2.7-8.5,6.8-17.2,6.4-29.6c-0.1-2.5-0.3-5.3-0.8-8.3
		c-0.9-5.4-2-18.2,5.2-20.4c2.2-0.7,4.6-0.9,6.4-0.9c2.5-0.1,4.7,2.2,5.5,3.1c0.6,0.7-0.8,0.4-2.6,0.5c-1.8,0.1-3.6,0.9-4.6-1.4
		c-0.3-0.6-0.3-1.2,0.1-1.5c1-0.8,3.5-0.5,3.8,0.8s-1.3,3.3-4,1.5c-2.7-1.8-4.8-4-4.7-7.3c0.2-3.3,6.9-3.6,11.7-0.6
		c2.5,1.5,3.7,4.9,4,8c0.4,4.2,0.1,5.5-2.8,8.1c-1.3,1.2-2.3,2.3-2,3.8c0.5,2.2,3.5,3.1,4.1,1.8c0.6-1.2-0.3-2.1-1.4-1.8
		c-1.1,0.3-1.4,1,0.3,1c1.7,0,2.2,2.2,2.1,4.5c-0.1,2.3-0.2,2.8-0.8,2.3c-0.6-0.4-1-0.6-2.3-0.3c-1.3,0.3-2.6,1.2-4.5,1.3
		c-1.9,0.1-2.3,0-1.2,0.6c1.1,0.6,1.4,0.7,2.5,2.1c1.2,1.4,3.4,2.8,7.1,2.9c3.7,0.1,4.9-1.4,5.9-1.8c0.9-0.4,0.2-0.1-1.2-0.5
		c-1.3-0.4-3.2-1.1-4.8-1.2c-1.5-0.1-2.2-0.2-3.1-0.7c-0.8-0.4-3.2-0.4-4.1-0.4c-0.9,0-0.9-0.5,1.1-0.5c2.1,0,2.8,0.1,4,0.6
		c1.2,0.6,2.4,0.2,3.4,0.3s2.1,1,3.4,1.3c1.3,0.3,1.9,0.2,2.2,0.3c0.3,0.1-0.6-0.4-1.2-0.9c-0.6-0.5-1.7-1.8-3.3-2.4
		c-1.5-0.6-2.5-0.2-2.7-0.6c-0.3-0.4,1.1-2.5,0.8-4.4c-0.2-1.9,0.8-1.8,2.3-1.6c1.5,0.1,1.9-0.1,0.9-0.7c-1-0.7-2.3,0.2-1.8,1.2
		c0.3,0.7,2.3,1.1,3.5,0.3c0.6-0.2,1.3,1,1.7,1.6c0.1,0.2-0.2,0.1-0.2,0.5c-0.1,1,1.2,1,1,0c-0.1-0.6-0.5-0.7-0.9-1.4
		c-0.4-0.6-1.2-1.1-1.2-1.1c0.2-0.3,0.4-0.7,0.4-1.2c0.2-2.6-2.3-5-2.2-8.4c0.1-2.7,6.6-4.8,8.7-4.1c2.1,0.7,3.3,2.2,3.3,2.4
		c-0.6,1.2-8.2,2-6.6-1.1c0.8-1.6,4.1-1.4,4.3-0.1c0.2,1.3-0.6,3-3.2,2c-1.2-0.5-2.5-0.7-3.5-1.6c-1.8-1.6-2.6-4.4,0.4-6.5
		c3.4-2.4,11.9-0.6,13.4,1.8c1.6,2.4,1.2,5.2,0.7,9.4c-0.5,4.1-1,6-1,6"/>
</g>
</svg>
