<svg width="95" height="159" viewBox="0 0 95 159" fill="none" xmlns="http://www.w3.org/2000/svg">
<path d="M32.472 59.5034C32.472 59.5034 33.9743 64.2274 33.6817 65.2988C33.3793 66.3702 30.4039 68.2598 28.5602 69.0292C26.7067 69.8084 23.3996 68.3474 21.3705 66.5455C19.3512 64.7436 18.9219 66.6721 18.5317 66.9059C18.1513 67.1396 16.4148 66.8767 16.4734 65.026C16.5319 63.1852 16.9319 61.3735 19.2829 60.682C21.9266 59.9125 24.6873 59.2891 27.2627 59.3281C29.8479 59.3768 29.6137 58.2761 31.9062 57.458C34.2085 56.6495 43.0077 54.2437 43.0077 54.2437C43.0077 54.2437 45.2222 53.9223 45.866 54.7989C46.5196 55.6755 47.0562 61.13 48.5585 63.0196C50.0608 64.9092 53.7678 65.815 59.8258 65.6007C65.8936 65.3864 67.8739 62.7663 68.6934 60.9644C69.5128 59.1625 70.0006 55.3736 70.5859 54.3898C71.1615 53.4061 73.5125 53.5717 73.5125 53.5717C73.5125 53.5717 74.371 55.5489 75.8147 56.6008C77.2488 57.6528 80.0681 62.3183 81.2777 63.8572C82.4776 65.4059 84.2043 68.026 82.6044 70.3441C81.0143 72.6623 78.5657 74.2986 75.9025 74.2597C73.2296 74.211 70.781 72.6623 70.9273 72.3701C71.0834 72.0681 74.1954 73.0519 75.9416 72.5552C77.6878 72.0681 75.5123 70.198 72.0492 71.1428C68.5861 72.0876 66.4107 72.2142 65.8936 70.2857C65.3766 68.3474 68.7812 65.4741 65.8936 67.237C63.0158 68.9903 59.143 75.3506 57.2504 76.8505C55.3579 78.3603 54.4995 81.5355 55.9823 82.9966C57.4651 84.4576 56.7529 82.3732 62.1281 80.8732C67.513 79.3635 71.4639 79.5583 73.2296 80.1622C74.9953 80.7661 76.9268 79.0908 79.6388 79.8408C82.3508 80.5907 82.1752 82.0128 82.0484 82.6556C81.9216 83.2985 82.5849 86.7562 81.5118 88.5192C80.4388 90.2724 74.1173 90.7107 69.8152 89.8439C65.5132 88.9867 58.5869 85.2076 58.5869 85.2076C58.5869 85.2076 63.1914 87.1848 69.0836 87.5744C74.9758 87.9543 79.8729 87.7887 80.2241 85.8114C80.5656 83.8342 79.7949 83.1427 80.7802 82.6751C81.7752 82.1979 85.1213 82.8505 86.0676 80.5518C87.0236 78.2531 85.131 75.0973 83.9214 73.2467C82.7215 71.3961 82.6337 71.1428 83.3458 70.1104C84.0482 69.0779 84.1848 67.8312 83.4922 66.565C82.7995 65.2988 82.5069 65.0163 84.6921 65.2988C86.887 65.5812 90.594 64.0715 91.7549 61.2371C92.9158 58.4028 92.6133 52.7535 92.2036 51.7016C91.7939 50.6496 92.2231 50.2892 93.4035 50.9516C94.5937 51.6236 94.1644 50.3282 90.633 49.4711C87.1016 48.6139 83.2092 48.5652 80.1168 49.2178C77.0146 49.8607 76.1172 50.9418 75.8733 52.5295C75.6391 54.1171 74.6344 53.971 74.527 53.3087C74.41 52.6366 74.888 51.049 74.5661 50.5522C74.2441 50.0652 69.9421 50.4256 69.8933 50.747C69.8543 51.0685 70.264 54.4385 69.7665 53.3282C69.2787 52.2081 68.5666 50.26 64.3523 49.2665C60.1282 48.2828 53.0752 49.0912 50.412 49.6561C47.739 50.2113 47.4464 53.6496 47.8268 56.221C48.217 58.8021 51.5338 56.9515 54.1092 55.6853C56.6944 54.4191 59.1039 54.7405 60.1575 55.6074C61.2111 56.4645 61.3574 56.893 59.699 57.4482C58.0504 58.0034 55.8262 57.4677 55.5335 56.6301C55.2311 55.7924 56.1286 55.0619 57.6211 55.2567C59.1039 55.4515 59.3576 56.1333 59.3186 56.8443C59.2698 57.5651 57.7285 57.7891 55.1043 57.8378C52.4801 57.8768 51.8948 57.2534 51.0558 57.682C50.2169 58.1203 48.0024 58.3541 47.4659 57.2534C46.9294 56.1625 47.1245 54.4872 46.344 53.9515C45.5734 53.4158 45.1832 53.4937 45.0758 52.7048C44.9685 51.9061 45.1441 50.3379 45.1441 50.3379C45.1441 50.3379 38.6666 51.6723 33.8963 53.0457C29.1162 54.4191 24.2971 56.1431 21.6339 57.3021C18.961 58.4612 16.0831 59.9612 15.7807 62.065C15.6637 62.854 15.6247 63.5261 15.6051 64.052C15.5759 65.1624 16.0246 66.5358 15.6539 67.4026C15.2149 68.4351 14.0541 68.9221 13.1371 68.8052C11.5372 68.5909 11.108 70.6071 11.8006 73.9577C12.4835 77.3083 16.0149 75.8863 15.1564 77.8246C14.2979 79.7531 15.0686 80.7466 17.5172 81.3407C19.9755 81.9446 18.3366 82.9284 18.8927 84.5647C19.4585 86.201 22.6875 87.5257 25.2629 86.8829C27.848 86.24 29.3503 87.701 27.6334 85.0809C25.9067 82.4608 23.0679 79.0226 22.2095 77.172C21.351 75.3311 21.868 75.8863 21.868 72.6233C21.868 69.3604 18.639 68.1526 16.7465 67.0812C14.854 66.0098 13.2151 65.5812 11.5372 67.2955C9.85928 69.0195 9.73246 73.5292 11.1567 76.1006C12.5712 78.6817 12.3176 80.4836 14.4638 83.9219C16.6197 87.3601 19.7609 88.0906 21.4778 88.2173C23.1948 88.3439 22.8533 89.464 26.2091 95.8145C29.565 102.175 29.1357 111.925 28.2773 113.727C27.4188 115.529 26.336 117.681 25.7799 121.285C25.2239 124.899 27.6724 130.655 30.7649 135.028C33.867 139.411 41.6127 147.914 52.0216 148.859C62.4305 149.804 65.3571 143.025 65.3571 143.025C65.3571 143.025 68.6934 140.979 71.7956 134.278C74.888 127.577 73.9905 126.847 75.1514 126.33C76.3123 125.814 79.7071 128.269 79.1023 130.928C78.5072 133.587 74.5466 147.593 67.4935 153.778C60.4404 159.963 55.6603 158.073 55.0555 156.096C54.4604 154.119 55.6994 152.833 57.5138 152.784C59.3186 152.746 60.099 154.372 59.2308 156.184C58.3625 157.995 52.7337 158.161 49.0365 157.08C45.3392 156.008 35.4376 153.603 28.0431 146.561C20.6486 139.518 19.956 131.96 20.7267 127.1C21.5071 122.249 24.0044 118.217 25.897 115.811C27.7895 113.405 27.292 114.905 27.9553 112.908C28.6284 110.912 28.3651 104.902 27.8968 103.782C27.4188 102.662 25.5653 103.655 24.58 99.2236C23.5947 94.8016 21.2242 91.2854 18.2098 90.5549C15.2052 89.8244 13.5273 87.5452 12.8834 85.4803C12.2396 83.4251 9.49833 81.9836 8.83498 79.7921C8.17162 77.6005 7.17658 77.3278 6.06447 76.6752C4.94262 76.0324 4.51338 72.2142 2.8745 70.5389C1.24537 68.8636 0.981973 65.1234 1.45998 62.893C1.92823 60.6625 1.19659 58.4222 1.19659 56.7469C1.19659 55.0716 1.45998 55.1593 2.14285 51.5555C2.83548 47.9419 -0.0911086 48.7211 1.45998 43.6465C3.01107 38.5816 4.38657 39.3511 4.47436 29.9908C4.55241 20.6306 9.88855 19.1696 13.3322 18.3124C16.7758 17.4456 19.7804 18.1371 22.8826 12.0398C25.975 5.9425 30.7161 7.65676 37.1643 4.30616C43.6126 0.955564 47.4854 0.264016 51.0168 1.72503C54.5385 3.18605 57.9821 1.47179 61.6891 3.53669C65.3863 5.59186 64.6937 7.83209 65.5522 9.37102C66.4204 10.9197 70.5469 12.9846 68.908 18.5657C67.2789 24.1468 66.2448 15.556 57.2992 16.4131C48.3536 17.28 58.8503 15.0398 58.4113 10.832C57.9821 6.62431 47.4074 7.65676 45.5051 11.9522C43.6126 16.2475 51.9631 17.8741 45.9441 19.6858C39.9153 21.4877 37.1643 18.9943 35.0962 17.1047C33.0378 15.2151 29.682 19.4228 32.6086 20.4553C35.5254 21.4877 34.4133 25.3546 30.2771 26.0364C28.6187 26.3188 26.8335 25.6175 25.1068 24.8968C20.9413 23.163 12.0152 21.8773 21.9461 27.9357C22.7265 28.4032 23.2728 29.1045 23.224 30.2441C23.0387 34.968 17.8391 34.7245 16.1709 35.5719C11.9567 37.7245 17.2928 38.9225 15.0101 40.4323C12.7273 41.9322 7.43997 43.0523 7.52777 45.7114C7.60581 48.3704 8.85449 48.799 12.6005 46.3932C16.3465 43.9971 19.2244 45.0685 16.7758 47.6399C14.3174 50.2211 11.186 48.6334 7.26437 51.4678C3.35251 54.3022 2.8745 57.8671 3.78174 60.7014C4.68898 63.5358 9.84952 65.854 12.3859 62.4644C14.9223 59.0651 14.9223 56.6593 19.3121 55.0327C23.702 53.3963 22.3265 48.8867 25.0287 50.1334C27.7407 51.3801 29.5454 54.1269 29.5942 52.3639C29.6332 50.6107 31.1453 47.5133 31.2233 45.4484C31.3111 43.3932 28.3455 44.4647 27.7895 41.2894C27.2237 38.1044 26.931 34.1986 28.7358 31.1889C30.5405 28.1889 32.5598 28.5298 34.5792 28.6565C36.6083 28.7831 38.0228 25.6565 39.8275 23.8448C41.642 22.0429 42.3249 25.2669 46.5391 22.9C50.7632 20.5429 51.4948 19.4715 57.426 21.3124C63.367 23.163 69.2982 26.0851 71.62 28.2279C73.9417 30.3805 75.2392 32.0558 74.4588 29.8155C73.6881 27.585 68.0105 21.6533 68.0105 21.6533C68.0105 21.6533 64.6937 21.6533 67.3179 23.7182C69.9421 25.7831 74.2929 29.6012 76.4391 33.9453C78.595 38.2797 81.4533 43.627 82.3996 44.8932C83.3458 46.1594 83.8629 46.4614 83.9214 47.299C83.9897 48.1367 84.653 52.1107 84.653 54.9061C84.653 57.6917 83.0434 57.1365 80.4583 57.1755C77.8829 57.2242 76.5074 56.8346 76.5659 56.1918C76.6342 55.5489 79.3657 53.8736 81.5801 53.8054C83.7946 53.747 84.3311 54.9645 83.9019 55.9093C83.4726 56.8541 81.7947 57.4385 80.507 56.5521C79.2193 55.6755 79.6193 54.4093 80.7412 54.1074C81.863 53.8054 83.8531 53.8054 84.3116 55.1788C84.7799 56.5521 83.9897 57.2827 84.8286 58.9774C85.6676 60.682 87.7552 62.63 89.6087 66.2825C91.4525 69.9351 90.9842 74.2305 90.5062 77.5811C90.038 80.9317 88.7405 86.8536 88.0576 89.4737C87.365 92.0938 85.3847 95.5321 85.5213 97.8113C85.6481 100.09 86.5943 102.788 85.3847 104.941C84.1848 107.084 77.6878 110.522 72.4394 109.665C67.1911 108.808 64.8205 107.775 63.1426 107.172C61.4647 106.568 63.1036 107.99 62.6354 110.561C62.1573 113.142 64.2255 112.499 64.8205 111.038C65.4254 109.577 65.601 107.688 66.4984 105.973C67.4057 104.249 67.0155 108.896 68.391 112.158C69.7762 115.421 70.6347 116.532 70.9761 112.499C71.3176 108.457 73.0442 103.051 73.8149 106.831C74.5856 110.61 74.3319 117.993 75.9708 114.389C77.6 110.785 76.7415 103.344 78.3706 105.973C80.0095 108.603 79.1511 116.707 80.5265 112.675C81.902 108.633 82.1654 103.051 82.1654 103.051C82.1654 103.051 84.653 111.379 85.2579 110.697C85.5505 110.357 85.4822 108.37 85.3261 106.402" stroke="#81EEB8" stroke-width="1.5"/>
</svg>
