<svg width="126" height="158" viewBox="0 0 126 158" fill="none" xmlns="http://www.w3.org/2000/svg">
<path d="M47.7952 59.1308C47.7952 59.1308 49.2652 63.8246 48.9789 64.8892C48.6829 65.9538 45.7716 67.8314 43.9675 68.5959C42.1538 69.3702 38.9179 67.9185 36.9324 66.128C34.9565 64.3376 34.5365 66.2538 34.1547 66.4861C33.7824 66.7184 32.0833 66.4571 32.1406 64.6182C32.1979 62.7891 32.5892 60.989 34.8897 60.3018C37.4765 59.5372 40.1779 58.9178 42.6979 58.9566C45.2275 59.0049 44.9984 57.9113 47.2416 57.0984C49.4943 56.2951 58.1043 53.9046 58.1043 53.9046C58.1043 53.9046 60.2712 53.5852 60.9012 54.4563C61.5407 55.3273 62.0657 60.747 63.5357 62.6245C65.0057 64.5021 68.633 65.4022 74.5608 65.1892C80.4981 64.9763 82.4358 62.3729 83.2376 60.5825C84.0394 58.792 84.5167 55.0273 85.0894 54.0498C85.6526 53.0723 87.9531 53.2368 87.9531 53.2368C87.9531 53.2368 88.7931 55.2015 90.2058 56.2467C91.609 57.2919 94.3677 61.9277 95.5513 63.4569C96.7254 64.9957 98.415 67.5991 96.8495 69.9025C95.2936 72.2058 92.8977 73.8318 90.2917 73.793C87.6763 73.7447 85.2804 72.2058 85.4235 71.9155C85.5763 71.6155 88.6213 72.593 90.3299 72.0994C92.0386 71.6155 89.9099 69.7573 86.5213 70.6961C83.1326 71.6348 81.004 71.7607 80.4981 69.8444C79.9922 67.9185 83.3235 65.0634 80.4981 66.8152C77.6821 68.5572 73.8926 74.877 72.0408 76.3674C70.1889 77.8675 69.3489 81.0226 70.7998 82.4743C72.2508 83.926 71.5539 81.8549 76.8135 80.3645C82.0826 78.8644 85.9485 79.0579 87.6763 79.658C89.404 80.258 91.294 78.5934 93.9477 79.3386C96.6013 80.0838 96.4295 81.4968 96.3054 82.1355C96.1813 82.7743 96.8304 86.21 95.7804 87.9617C94.7304 89.7038 88.5449 90.1393 84.3354 89.278C80.1258 88.4263 73.3485 84.6712 73.3485 84.6712C73.3485 84.6712 77.854 86.6359 83.6194 87.023C89.3849 87.4004 94.1768 87.2359 94.5204 85.2712C94.8545 83.3066 94.1004 82.6194 95.0645 82.1549C96.0381 81.6807 99.3122 82.3291 100.238 80.0451C101.174 77.7611 99.3218 74.6254 98.1381 72.7865C96.964 70.9477 96.8781 70.6961 97.575 69.6702C98.2622 68.6443 98.3959 67.4055 97.7181 66.1474C97.0404 64.8892 96.754 64.6086 98.8922 64.8892C101.04 65.1699 104.667 63.6698 105.803 60.8535C106.939 58.0371 106.643 52.4239 106.242 51.3786C105.841 50.3334 106.261 49.9753 107.416 50.6334C108.581 51.3012 108.161 50.014 104.705 49.1623C101.25 48.3107 97.4413 48.2623 94.4154 48.9107C91.3799 49.5495 90.5017 50.6237 90.2631 52.2013C90.034 53.7788 89.0508 53.6336 88.9458 52.9755C88.8313 52.3077 89.299 50.7302 88.984 50.2366C88.669 49.7527 84.4594 50.1108 84.4117 50.4302C84.3735 50.7495 84.7744 54.0982 84.2876 52.9949C83.8103 51.8819 83.1135 49.9463 78.9899 48.9591C74.8567 47.9816 67.9553 48.7849 65.3494 49.3462C62.7339 49.8979 62.4475 53.3142 62.8198 55.8693C63.2016 58.4339 66.4471 56.5951 68.9671 55.337C71.4967 54.0788 73.8544 54.3982 74.8853 55.2595C75.9162 56.1112 76.0594 56.537 74.4367 57.0887C72.8235 57.6403 70.6471 57.108 70.3607 56.2757C70.0648 55.4434 70.943 54.7176 72.4035 54.9111C73.8544 55.1047 74.1026 55.7821 74.0644 56.4886C74.0167 57.2048 72.5085 57.4274 69.9407 57.4758C67.373 57.5145 66.8003 56.8951 65.9794 57.321C65.1585 57.7565 62.9916 57.9888 62.4666 56.8951C61.9416 55.8112 62.1325 54.1466 61.3689 53.6143C60.6148 53.082 60.233 53.1594 60.128 52.3755C60.023 51.5819 60.1948 50.0237 60.1948 50.0237C60.1948 50.0237 53.8566 51.3496 49.1889 52.7142C44.5116 54.0788 39.7961 55.7918 37.1902 56.9435C34.5747 58.0952 31.7588 59.5856 31.4629 61.6761C31.3483 62.46 31.3101 63.1278 31.2911 63.6504C31.2624 64.7537 31.7015 66.1183 31.3388 66.9797C30.9092 68.0056 29.7733 68.4895 28.876 68.3733C27.3106 68.1604 26.8906 70.1638 27.5683 73.493C28.2365 76.8223 31.692 75.4093 30.852 77.3352C30.012 79.2515 30.7661 80.2386 33.162 80.829C35.5674 81.429 33.9638 82.4065 34.5079 84.0324C35.0615 85.6584 38.2211 86.9746 40.7411 86.3358C43.2706 85.6971 44.7407 87.1488 43.0606 84.5454C41.3711 81.942 38.5934 78.5256 37.7534 76.6868C36.9133 74.8576 37.4193 75.4093 37.4193 72.1671C37.4193 68.925 34.2597 67.7249 32.4079 66.6603C30.556 65.5957 28.9524 65.1699 27.3106 66.8732C25.6688 68.5862 25.5447 73.0672 26.9383 75.6222C28.3224 78.1869 28.0742 79.9773 30.1742 83.3937C32.2838 86.8101 35.3574 87.5359 37.0374 87.6617C38.7174 87.7875 38.3834 88.9005 41.667 95.2106C44.9507 101.53 44.5307 111.218 43.6906 113.009C42.8506 114.799 41.7911 116.938 41.247 120.519C40.7029 124.109 43.0988 129.829 46.1247 134.175C49.1602 138.53 56.7393 146.979 66.9244 147.917C77.1094 148.856 79.9731 142.12 79.9731 142.12C79.9731 142.12 83.2376 140.088 86.2731 133.429C89.299 126.771 88.4208 126.045 89.5567 125.532C90.6926 125.019 94.0145 127.458 93.4227 130.1C92.8404 132.742 88.9649 146.659 82.0635 152.805C75.1621 158.95 70.4848 157.073 69.893 155.108C69.3107 153.144 70.523 151.866 72.2985 151.818C74.0644 151.779 74.828 153.395 73.9785 155.195C73.1289 156.995 67.6212 157.16 64.0035 156.086C60.3857 155.021 50.697 152.631 43.4616 145.633C36.2261 138.636 35.5483 131.126 36.3024 126.297C37.0661 121.477 39.5097 117.47 41.3615 115.08C43.2134 112.689 42.7266 114.18 43.3756 112.196C44.0343 110.212 43.7766 104.24 43.3184 103.127C42.8506 102.014 41.037 103.001 40.0729 98.598C39.1088 94.2041 36.7893 90.7103 33.8397 89.9845C30.8997 89.2586 29.2579 86.9939 28.6279 84.9422C27.9979 82.9001 25.3156 81.4678 24.6665 79.2902C24.0174 77.1126 23.0437 76.8416 21.9556 76.1932C20.8578 75.5545 20.4378 71.7607 18.8342 70.096C17.2401 68.4314 16.9824 64.715 17.4501 62.4987C17.9083 60.2825 17.1924 58.0565 17.1924 56.3919C17.1924 54.7272 17.4501 54.8143 18.1183 51.2335C18.796 47.6429 15.9324 48.4171 17.4501 43.3749C18.9678 38.3423 20.3137 39.1068 20.3996 29.8062C20.476 20.5056 25.6974 19.0538 29.067 18.2022C32.4365 17.3408 35.3765 18.028 38.412 11.9695C41.4379 5.91102 46.077 7.61436 52.3866 4.28511C58.6962 0.955847 62.4857 0.268704 65.9412 1.72042C69.3871 3.17213 72.7567 1.46879 76.384 3.52054C80.0017 5.56261 79.324 7.78857 80.164 9.31771C81.0135 10.8565 85.0513 12.9083 83.4476 18.4538C81.8535 23.9993 80.8417 15.4633 72.0885 16.315C63.3353 17.1763 73.6062 14.9503 73.1767 10.7694C72.7567 6.58849 62.4094 7.61436 60.548 11.8824C58.6962 16.1504 66.8671 17.7667 60.9775 19.5668C55.0784 21.3572 52.3866 18.8796 50.3629 17.0021C48.3488 15.1246 45.0652 19.3055 47.9288 20.3314C50.7829 21.3572 49.6948 25.1994 45.6475 25.8769C44.0247 26.1576 42.2779 25.4607 40.5884 24.7446C36.5124 23.0219 27.7783 21.7444 37.4956 27.7641C38.2593 28.2287 38.7938 28.9255 38.7461 30.0578C38.5647 34.7517 33.477 34.5097 31.8447 35.3517C27.721 37.4906 32.9424 38.681 30.7088 40.1811C28.4751 41.6715 23.3015 42.7845 23.3874 45.4266C23.4637 48.0687 24.6856 48.4946 28.351 46.1041C32.0165 43.7233 34.8324 44.7879 32.4365 47.3429C30.031 49.9076 26.9669 48.33 23.1297 51.1464C19.3019 53.9627 18.8342 57.5048 19.7219 60.3212C20.6096 63.1375 25.6592 65.4409 28.141 62.0729C30.6229 58.6953 30.6229 56.3048 34.9183 54.6885C39.2138 53.0626 37.8679 48.5817 40.512 49.8205C43.1656 51.0592 44.9316 53.7885 44.9793 52.0367C45.0175 50.2947 46.497 47.2171 46.5734 45.1653C46.6593 43.1232 43.7575 44.1878 43.2134 41.0328C42.6597 37.868 42.3734 33.9871 44.1393 30.9966C45.9052 28.0157 47.8811 28.3545 49.857 28.4803C51.8425 28.6061 53.2266 25.4994 54.9925 23.6993C56.768 21.9089 57.4362 25.1123 61.5598 22.7606C65.693 20.4185 66.4089 19.3539 72.2126 21.183C78.0258 23.0219 83.8294 25.9253 86.1013 28.0545C88.3731 30.1933 89.6426 31.8579 88.879 29.632C88.1249 27.4157 82.5694 21.5218 82.5694 21.5218C82.5694 21.5218 79.324 21.5218 81.8917 23.5735C84.4594 25.6253 88.7167 29.4191 90.8167 33.7355C92.9263 38.0422 95.7231 43.3555 96.649 44.6136C97.575 45.8718 98.0809 46.1718 98.1381 47.0041C98.205 47.8364 98.854 51.7851 98.854 54.5627C98.854 57.3306 97.279 56.779 94.7495 56.8177C92.2295 56.8661 90.8836 56.479 90.9408 55.8402C91.0076 55.2015 93.6804 53.5368 95.8472 53.4691C98.014 53.411 98.539 54.6208 98.119 55.5596C97.699 56.4983 96.0572 57.079 94.7972 56.1983C93.5372 55.3273 93.9286 54.0691 95.0263 53.7691C96.124 53.4691 98.0713 53.4691 98.52 54.8337C98.9781 56.1983 98.205 56.9242 99.0259 58.6081C99.8468 60.3018 101.89 62.2374 103.703 65.8667C105.507 69.496 105.049 73.764 104.581 77.0933C104.123 80.4225 102.854 86.3068 102.185 88.9102C101.508 91.5136 99.57 94.93 99.7036 97.1946C99.8277 99.4593 100.754 102.14 99.57 104.279C98.3959 106.408 92.0386 109.825 86.9031 108.973C81.7676 108.121 79.4481 107.095 77.8062 106.495C76.1644 105.895 77.7681 107.308 77.3099 109.863C76.8421 112.428 78.8658 111.789 79.4481 110.337C80.0399 108.886 80.2117 107.008 81.0899 105.305C81.9776 103.592 81.5958 108.208 82.9417 111.45C84.2972 114.693 85.1372 115.796 85.4713 111.789C85.8054 107.773 87.4949 102.401 88.249 106.157C89.0031 109.912 88.7549 117.248 90.3586 113.667C91.9527 110.086 91.1126 102.692 92.7067 105.305C94.3104 107.918 93.4704 115.97 94.8163 111.963C96.1622 107.947 96.4199 102.401 96.4199 102.401C96.4199 102.401 98.854 110.676 99.4459 109.999C99.7322 109.66 99.6654 107.686 99.5127 105.731" stroke="#81EEB8" stroke-width="1.5"/>
</svg>
