<svg width="128" height="158" viewBox="0 0 128 158" fill="none" xmlns="http://www.w3.org/2000/svg">
<path d="M61.5369 1.87409C61.5369 1.87409 59.5518 0.343373 46.8223 1.33324C34.1031 2.3231 26.3364 10.5175 21.8238 22.0387C17.3112 33.5599 13.6991 45.0811 13.5251 54.7042C13.3409 64.3376 15.4386 69.7461 14.1595 69.0215C12.8805 68.297 14.2414 68.8379 12.8907 62.3578C11.54 55.8778 13.0749 41.0298 15.7763 34.8151C18.488 28.6106 34.6454 11.0584 38.9738 8.98682C43.3022 6.91525 69.2012 -4.24878 88.1624 8.89498C107.113 22.0387 109.006 42.285 109.047 44.2647C109.098 46.2445 108.055 45.9281 105.67 43.1014C103.276 40.2645 98.9885 36.0805 100.022 37.3357C101.066 38.6011 105.711 44.7138 107.881 46.3771C110.04 48.0507 105.783 56.286 107.4 56.8166C109.027 57.3575 111.145 55.6941 109.794 60.7353C108.444 65.7764 109.702 65.5519 111.421 73.1137C113.13 80.6754 109.835 82.9205 112.864 87.0636C115.893 91.2067 112.68 93.809 113.898 97.0031C115.115 100.197 118.819 95.656 118.144 98.2685C117.469 100.881 112.281 99.84 112.455 101.146C112.639 102.452 114.174 105.289 118.727 104.697C123.291 104.116 124.887 100.83 124.396 103.146C123.895 105.463 117.285 107.585 121.869 106.708C126.443 105.83 127.354 102.32 126.893 104.432C126.443 106.545 124.007 109.422 121.255 110.188C118.502 110.953 109.477 110.412 113.314 110.912C117.152 111.402 117.192 112.351 121.705 116.127C126.218 119.913 125.051 126.393 123.107 129.72C121.163 133.057 117.96 132.291 118.236 126.709C118.502 121.127 112.455 118.79 113.539 118.474C114.624 118.158 117.827 119.188 119.546 121.484C121.255 123.78 120.487 129.546 118.052 134.577C115.617 139.618 109.395 142.996 106.909 144.119C104.422 145.251 102.263 143.945 103.389 139.353C104.514 134.761 103.071 129.271 104.064 129.852C105.057 130.444 104.964 136.424 104.023 141.373C103.071 146.323 100.82 148.486 97.116 149.568C93.4117 150.65 93.0536 146.017 93.0536 141.598C93.0536 137.189 94.1792 132.873 95.8062 128.505C97.4332 124.138 98.0676 124.189 99.7765 121.668C101.496 119.147 103.03 117.658 106.008 111.994C108.986 106.32 110.296 97.6358 110.296 93.809C110.296 89.9822 109.753 80.3999 109.119 73.2871C108.484 66.1846 108.311 65.1029 104.79 59.3372C101.27 53.5817 100.094 41.6115 99.1932 37.5602C98.2927 33.5089 85.2972 19.6508 71.0328 19.4671C56.7787 19.2937 47.8456 24.692 37.9096 33.2436C27.9839 41.7952 26.7662 52.949 29.9281 57.2758C33.09 61.5925 31.9133 66.9908 30.4705 69.1542C29.0276 71.3176 26.449 67.848 25.1904 66.2765C23.9215 64.6947 21.1689 68.9297 21.0871 71.7156C20.995 74.5117 23.7476 73.2973 24.4229 72.532C25.0983 71.7666 23.8192 70.7666 24.3206 70.491C24.822 70.2155 25.7839 70.1747 27.5234 70.4706C30.7672 71.0319 35.4128 71.1952 35.4128 71.1952C35.4128 71.1952 38.1654 70.338 39.8334 69.3481C41.5115 68.3582 46.4539 62.8477 53.668 62.3986C60.8922 61.9496 67.0728 64.9192 68.2905 65.7662C69.5082 66.6234 70.7975 64.2661 74.4506 63.8987C78.1036 63.5416 78.8711 64.1743 79.5976 63.0926C80.3139 62.0109 86.4126 55.1737 93.7596 54.8165C101.117 54.4491 104.146 56.9085 106.1 57.4901C108.065 58.0718 108.628 57.3983 109.17 58.48C109.712 59.5617 108.382 60.5006 107.41 60.9292C106.448 61.3578 107.031 67.5725 106.039 70.7666C105.046 73.9607 103.603 77.4711 97.5969 79.4917C91.6005 81.5224 86.3614 79.0937 83.6088 76.073C80.8562 73.0626 80.7641 69.7257 83.8851 66.9398C86.9958 64.1539 91.007 63.3375 94.5782 64.1539C98.1392 64.96 98.2313 65.4601 97.2183 65.9091C96.2052 66.3581 88.7763 65.7458 85.6451 67.3888C82.5037 69.0318 81.1018 70.7462 80.6106 71.3993C80.1092 72.0524 79.4339 68.9909 79.3213 67.1847C79.2088 65.3886 78.2162 65.0927 76.098 65.7254C73.9798 66.3581 71.6775 65.9091 71.0021 68.0623C70.3268 70.2257 72.6701 72.5626 71.1352 76.8894C69.6003 81.2061 66.6635 85.4308 66.4895 89.5332C66.3053 93.6253 70.4598 95.0233 72.4449 93.5334C74.4301 92.0537 77.2952 92.9518 76.9371 93.7579C76.5687 94.5743 74.7678 93.6457 74.3585 94.1457C73.9594 94.6356 76.6199 96.2581 79.5976 95.6254C82.5753 94.9927 84.3763 93.6049 85.1437 92.115C85.9112 90.6353 85.3279 89.9107 87.0368 90.5026C88.7558 91.0843 90.7001 89.0535 90.1066 86.3595C89.5233 83.6552 88.2135 83.298 90.7819 84.5532C93.3606 85.8186 95.1206 87.482 99.449 90.3597C103.777 93.2477 102.069 96.6663 100.493 98.1052C98.9067 99.5441 94.8955 100.575 90.1987 101.391C85.5121 102.197 82.3911 103.544 80.7641 104.136C79.1474 104.718 79.7715 103.912 72.6905 104.177C65.6095 104.453 62.4067 105.749 60.9639 106.116C59.5211 106.473 57.5768 107.147 64.6169 109.667C71.657 112.188 76.6199 112.504 81.3065 111.831C86.0033 111.157 89.8814 107.422 92.1429 105.075C94.3941 102.738 95.182 101.299 94.7522 101.34C94.3327 101.391 93.1354 102.381 90.8945 104.677C88.6638 106.963 86.1363 108.81 79.6897 109.402C73.2329 109.984 68.0858 108.494 64.6169 107.912C61.1378 107.33 60.1964 107.779 57.3517 107.422C54.507 107.055 50.8335 100.371 58.6615 94.9519C66.4895 89.5332 66.0597 85.7268 67.5026 83.0735C68.9454 80.4203 69.4672 78.9814 69.3751 78.7059C69.283 78.4406 67.2058 83.1654 65.1286 84.5124C63.0616 85.8594 58.6615 88.6045 53.2893 87.7983C47.9172 86.9922 43.2715 82.7164 42.6371 78.5222C42.0027 74.3382 51.3451 70.4706 55.0494 69.7563C58.7434 69.0318 62.4988 70.9707 63.7369 71.1646C64.9751 71.3686 60.708 70.8992 58.0476 71.736C55.3871 72.5626 50.1274 73.5321 46.9246 73.3076C43.7218 73.083 42.0743 75.5322 41.7366 76.318C41.399 77.1139 41.6241 75.0424 40.2529 74.1443C38.8715 73.2361 33.837 74.0015 30.3681 73.1953C26.889 72.3891 32.8035 79.2263 32.8035 84.6247C32.8035 90.023 31.6779 89.574 31.4937 91.2884C31.3095 92.9926 31.0026 90.023 30.5932 86.7371C30.1839 83.4511 29.1504 92.1864 29.1504 93.4926C29.1504 94.7988 28.7002 90.972 28.0658 85.4308C27.4313 79.8998 27.9225 74.3382 26.8481 73.4606C24.5662 71.6136 25.395 73.8892 25.5895 75.0118C25.835 76.3282 25.9988 78.1242 25.7327 80.0325C25.1904 83.9511 26.9095 86.9207 26.7765 89.176C26.6434 91.421 24.249 91.4619 23.7476 89.2168C23.2564 86.9718 24.3411 83.992 25.1495 80.757C25.9578 77.5119 24.116 75.9404 22.3969 76.5731C20.6778 77.2058 19.7364 81.8388 20.2787 86.7881C20.821 91.7374 22.1308 93.3089 22.7141 95.6968C23.2973 98.0848 23.7476 98.3501 25.6509 95.5642C27.5439 92.7681 27.8611 89.6658 27.5439 93.2171C27.2267 96.7786 22.4378 101.003 18.3856 103.483C14.3233 105.953 8.67483 107.218 10.8032 108.024C12.9214 108.841 16.7587 107.259 15.7149 108.075C14.6814 108.881 13.6888 111.178 17.2498 108.881C20.821 106.585 23.9727 102.626 24.9653 101.677C25.9578 100.738 26.4081 102.718 27.6769 102.534C28.9356 102.361 29.4779 95.3805 29.57 98.1256C29.6621 100.871 28.6695 104.024 27.8611 107.034C27.0425 110.055 27.9737 111.086 28.9867 109.647C29.9895 108.208 31.1458 102.442 31.6472 101.616C32.1486 100.779 31.5142 96.0744 31.7598 97.0439C32.0054 98.0133 34.8296 108.81 35.8631 111.514C36.9068 114.219 35.597 115.657 34.6454 114.443C33.704 113.229 31.6267 120.423 28.4648 125.281C25.3029 130.148 25.3029 130.322 22.2434 129.965C19.1736 129.607 13.0749 133.965 9.83112 135.812C6.57713 137.659 7.07853 136.485 7.84598 133.159C8.61343 129.832 8.61343 128.25 12.2665 127.628C15.9196 126.995 19.6238 123.219 23.2359 118.892C26.8378 114.576 28.3728 106.657 25.3029 111.606C22.2434 116.555 14.6609 124.658 11.0488 122.495C7.43667 120.331 5.99386 113.31 7.62086 108.545C9.24786 103.779 15.3056 93.4212 15.8479 98.9114C16.3903 104.402 18.2015 103.953 17.2089 95.5846C16.2163 87.2167 17.6591 73.8994 18.9177 68.4909C20.1866 63.0926 18.4675 64.9805 15.807 69.1236C13.1465 73.2667 11.4786 81.502 13.0135 79.5223C14.5382 77.5425 17.3828 76.6445 15.674 77.9915C13.9549 79.3386 2.85243 91.0843 1.23566 101.075C-0.391336 111.065 7.0069 108.994 5.11385 113.045C3.2208 117.096 3.845 123.035 5.92223 126.903C7.99947 130.781 3.845 131.536 4.2543 134.74C4.66361 137.934 5.73804 138.873 7.09899 139.149C8.44971 139.414 7.90737 145.261 10.3018 148.282C12.6963 151.292 16.0321 151.252 14.6814 149.364C13.3205 147.476 10.619 140.996 13.0544 137.485C15.4898 133.975 23.3383 131.903 21.9876 135.587C20.6368 139.281 23.2052 150.303 19.7773 148.374C16.3493 146.435 16.0731 142.884 15.5819 144.68C15.0805 146.486 16.5745 151.517 22.9801 152.599C29.3858 153.68 31.197 152.333 27.943 147.925C24.6992 143.506 25.2313 139.547 27.1346 133.25C29.0276 126.954 29.836 136.22 30.9207 142.067C32.0054 147.925 33.3151 152.242 36.4668 153.456C39.6287 154.67 39.7617 153.497 37.7357 150.527C35.6994 147.558 35.0752 145.945 36.1087 145.129C37.1524 144.323 40.6724 153.497 45.8093 156.385C50.9563 159.262 57.6382 151.252 53.8419 148.731C50.0558 146.211 41.2045 142.976 39.5878 137.843C37.9608 132.71 37.8482 118.015 37.8687 117.504C37.8892 116.984 38.2064 116.27 40.5497 119.464C42.9032 122.658 46.5051 128.556 54.9061 130.26C63.2969 131.975 62.3043 130.352 66.4077 133.097C70.511 135.842 79.7204 136.026 85.3586 134.312C90.9968 132.597 93.9336 129.72 93.9336 129.72" stroke="#EC70F7" stroke-width="1.1" stroke-linecap="round" stroke-linejoin="round"/>
</svg>
