<svg width="126" height="158" viewBox="0 0 126 158" fill="none" xmlns="http://www.w3.org/2000/svg">
<path d="M39.5645 60.2348C41.4194 58.3082 51.9341 52.164 60.5626 59.0892C64.5121 62.255 61.4171 64.2024 60.3334 63.7442C59.2496 63.286 57.6239 63.8171 54.4455 64.3691C51.2776 64.921 46.5882 63.588 47.2864 62.9424C47.9742 62.2967 54.06 60.5992 58.2179 61.6615C62.3758 62.7133 65.9398 69.6905 63.1366 72.721C60.3334 75.7514 57.2488 80.0732 58.6764 82.3226C60.1041 84.572 63.4805 84.1866 63.939 83.8117C64.3975 83.4473 64.0745 83.1244 62.5322 81.9997C61.0003 80.875 62.7406 80.9271 64.929 82.2809C67.1069 83.6347 67.753 85.5092 67.159 87.6232C66.5546 89.7372 66.9506 92.6531 67.1799 93.8924C67.4091 95.1316 66.5129 94.4651 64.2829 93.5071C62.0528 92.5386 56.0087 92.9968 54.6331 93.2259C53.2576 93.455 54.1225 94.0382 56.7902 94.4443C59.458 94.8609 61.7506 95.1837 64.3246 96.173C66.9089 97.1519 70.1186 97.3394 72.307 97.0686C74.4849 96.7874 77.4966 96.7458 77.4966 96.7458C77.4966 96.7458 75.0581 96.7458 73.3595 96.7145C71.6609 96.6937 69.1286 97.0582 67.2424 96.6416C65.3666 96.2251 63.5743 95.6211 60.2187 94.7047C56.8632 93.7778 51.757 93.8299 51.757 93.8299C51.757 93.8299 54.1954 94.3818 57.5927 95.569C61.0003 96.7666 66.9506 100.328 72.1819 99.318C77.4236 98.3079 79.8413 96.0272 79.8413 96.0272C79.8413 96.0272 78.5074 95.9856 76.4336 95.9856C74.3703 95.9856 72.3486 94.236 70.2749 94.84C68.2116 95.4336 68.0761 94.7463 68.1699 92.1324C68.2532 89.5081 69.2015 85.5404 70.7855 84.1554C72.3695 82.7808 75.9751 82.9682 75.7459 83.6555C75.5166 84.3429 73.818 83.843 73.7972 84.624C73.7763 85.4051 76.319 86.384 77.9342 84.322C79.5391 82.2497 78.5282 80.5106 76.2773 75.918C74.0264 71.3255 73.1927 66.7747 75.2144 63.7442C77.2465 60.7138 89.5535 58.3707 93.5135 63.6089C97.463 68.847 91.1896 69.3781 91.1375 69.097C91.0958 68.8262 91.1896 69.0553 88.3864 66.6601C85.5832 64.2753 79.6954 64.4628 78.5074 65.6083C77.309 66.7538 77.4445 68.3159 81.7691 68.5034C86.0834 68.6908 89.1159 70.2946 95.0037 69.5552C100.881 68.8262 102.403 64.4107 103.914 56.7878C105.435 49.1648 105.3 42.552 102.903 38.3761C100.516 34.2001 100.245 28.5974 99.1408 28.7745C98.0362 28.9619 95.3267 29.4722 97.9424 31.6695C100.558 33.8773 100.193 37.595 102.309 43.2914C104.424 48.9878 101.944 57.1106 101.944 61.3386C101.944 65.5667 102.35 66.8996 102.767 66.3477C103.184 65.7958 103.643 64.1816 104.007 62.1613C104.372 60.141 108.051 48.0193 106.029 42.1459C104.007 36.262 103.226 30.6594 100.933 27.9518C98.6301 25.2442 96.7961 26.2543 90.5435 17.892C84.291 9.54007 74.9226 7.88426 79.883 11.1021C84.8433 14.3096 90.5435 22.8073 89.8141 25.8378C89.0742 28.8682 82.1756 25.5149 78.8721 18.5376C75.5583 11.5604 63.1574 7.69681 65.1791 9.08186C67.2007 10.4565 71.4316 13.9451 75.1936 18.9959C77.0381 21.4639 77.8821 26.5876 76.3711 26.9208C73.818 27.4936 66.2628 19.4124 64.8456 16.9235C63.9181 15.2989 62.7093 13.4453 60.3542 11.5083C56.8111 8.60282 53.6119 8.4362 54.1329 8.92565C55.4147 10.1545 63.47 13.2057 62.3759 20.8391C62.0111 23.4113 57.874 17.4338 52.6323 13.6744C47.3906 9.90455 41.2319 11.9248 37.0114 20.7454C32.7805 29.5555 35.1669 35.6164 32.5929 39.7507C30.019 43.885 31.5821 45.1763 31.2174 55.6422C30.8526 66.1186 33.6038 70.2425 33.7913 64.4628C33.9789 58.6727 35.3545 56.6524 37.9284 49.3106C40.5024 41.9584 36.2715 41.9584 39.2102 31.4925C42.1593 21.0161 52.2676 16.8818 54.383 20.0997C56.488 23.3176 64.1161 24.5048 71.1086 27.5352C72.8489 28.2954 74.1827 29.5868 75.1414 29.6701C78.0593 29.92 78.7054 26.9625 85.8124 27.7227C95.2746 28.7328 100.787 28.4621 100.787 24.8797C100.787 21.2973 98.7656 17.2567 92.5235 11.1021C86.271 4.94755 74.141 -0.478071 62.9282 1.36518C51.7153 3.19802 42.1593 6.60336 39.033 10.092C35.9068 13.5806 33.3745 16.6527 32.2282 22.0263C31.0819 27.3998 31.7697 30.3366 29.6126 34.0126C27.4242 37.72 25.9757 47.1966 27.5388 51.2788C29.1019 55.3715 28.4558 58.6727 27.6326 55.7776C26.8093 52.893 26.1632 51.8828 23.3079 51.737C20.463 51.6017 21.7969 57.4855 22.7139 60.693C23.631 63.9109 20.8798 67.764 21.8907 71.4401C22.9015 75.1162 28.1432 76.5845 27.4033 73.8249C26.6634 71.0756 27.6743 68.5971 28.3204 65.9311C28.9665 63.2652 26.7572 62.3071 25.4755 57.6209C24.1833 52.9346 21.5676 51.4455 20.2754 56.4441C18.9937 61.4532 18.5768 63.4318 19.4939 65.952C20.4213 68.4825 19.869 73.7103 21.4738 75.2307C23.0787 76.7407 23.1308 77.4801 24.2771 79.7816C25.4234 82.0726 28.1849 82.1664 29.1436 82.9891C30.1128 83.8222 31.5404 91.5388 31.5404 91.8513C31.53 92.1637 31.53 92.4865 31.53 92.8197C31.3633 104.119 29.7376 127.477 31.0819 133.278C32.1865 138.047 35.0314 144.389 39.8146 146.961C47.9116 151.325 49.2038 162.301 57.7386 153.949C62.3342 149.45 63.9911 151.189 64.1682 147.243C64.5955 138.245 91.9191 132.34 93.2113 109.034C93.5864 102.421 90.3143 105.223 86.4585 111.284C82.6028 117.344 78.8304 121.437 71.3899 125.571C63.939 129.706 55.6752 126.581 50.5273 121.802C45.3794 117.022 36.0944 100.953 36.0944 100.953C36.0944 100.953 40.4086 107.93 43.7641 110.409C47.1197 112.898 47.9012 108.711 48.8183 110.596C49.7457 112.481 50.9337 115.376 52.4031 114.366C53.8828 113.356 56.8736 115.085 58.7911 118.084C63.5326 125.457 75.4958 110.815 76.5587 112.335C76.9234 112.866 72.0777 122.676 76.8088 115.189C79.5703 110.825 80.4353 111.054 80.4353 114.137C80.4353 117.209 87.5215 109.17 91.5648 103.754C95.6081 98.3391 98.453 94.8504 99.5576 86.3007C100.662 77.7613 102.361 75.1474 102.403 72.294C102.455 69.451 105.987 64.3482 106.863 65.3167C107.738 66.2852 104.195 78.7298 102.861 82.1664C101.527 85.6133 100.891 86.3007 100.662 86.259C100.433 86.2174 100.86 79.9378 103.142 76.8865C105.425 73.8353 107.509 64.5878 106.727 63.2964C105.946 62.0155 104.653 62.6508 104.653 62.6508" stroke="#EC70F7" stroke-width="1.5"/>
</svg>
