<svg width="90" height="159" viewBox="0 0 90 159" fill="none" xmlns="http://www.w3.org/2000/svg">
<path d="M21.5645 60.6145C23.4194 58.6756 33.9341 52.492 42.5626 59.4616C46.5121 62.6477 43.4171 64.6076 42.3334 64.1464C41.2496 63.6853 39.6239 64.2198 36.4455 64.7753C33.2776 65.3307 28.5882 63.9892 29.2864 63.3394C29.9742 62.6896 36.06 60.9813 40.2179 62.0503C44.3758 63.1089 47.9398 70.1309 45.1366 73.1807C42.3334 76.2306 39.2488 80.58 40.6764 82.8439C42.1041 85.1077 45.4805 84.7199 45.939 84.3426C46.3975 83.9758 46.0745 83.6509 44.5322 82.519C43.0003 81.3871 44.7406 81.4395 46.929 82.8019C49.1069 84.1644 49.753 86.0509 49.159 88.1785C48.5546 90.3061 48.9506 93.2406 49.1799 94.4878C49.4091 95.735 48.5129 95.0643 46.2829 94.1001C44.0528 93.1254 38.0087 93.5865 36.6331 93.8171C35.2576 94.0477 36.1225 94.6346 38.7902 95.0433C41.458 95.4625 43.7506 95.7874 46.3246 96.7831C48.9089 97.7683 52.1186 97.9569 54.307 97.6844C56.4849 97.4014 59.4966 97.3595 59.4966 97.3595C59.4966 97.3595 57.0581 97.3595 55.3595 97.3281C53.6609 97.3071 51.1286 97.6739 49.2424 97.2547C47.3666 96.8355 45.5743 96.2276 42.2187 95.3053C38.8632 94.3725 33.757 94.425 33.757 94.425C33.757 94.425 36.1954 94.9804 39.5927 96.1752C43.0003 97.3805 48.9506 100.965 54.1819 99.9482C59.4236 98.9316 61.8413 96.6364 61.8413 96.6364C61.8413 96.6364 60.5074 96.5944 58.4336 96.5944C56.3703 96.5944 54.3486 94.8337 52.2749 95.4416C50.2116 96.039 50.0761 95.3472 50.1699 92.7166C50.2532 90.0755 51.2015 86.0824 52.7855 84.6885C54.3695 83.305 57.9751 83.4937 57.7459 84.1854C57.5166 84.8771 55.818 84.374 55.7972 85.1601C55.7763 85.9461 58.319 86.9313 59.9342 84.8561C61.5391 82.7705 60.5282 81.0202 58.2773 76.3983C56.0264 71.7763 55.1927 67.1963 57.2144 64.1464C59.2465 61.0966 71.5535 58.7384 75.5135 64.0102C79.463 69.2819 73.1896 69.8165 73.1375 69.5335C73.0958 69.261 73.1896 69.4916 70.3864 67.081C67.5832 64.6809 61.6954 64.8696 60.5074 66.0225C59.309 67.1753 59.4445 68.7474 63.7691 68.9361C68.0834 69.1247 71.1159 70.7387 77.0037 69.9946C82.8811 69.261 84.4025 64.8172 85.9135 57.1454C87.435 49.4736 87.2995 42.8184 84.9027 38.6156C82.5163 34.4129 82.2454 28.7743 81.1408 28.9525C80.0362 29.1412 77.3267 29.6547 79.9424 31.8661C82.558 34.088 82.1933 37.8296 84.3087 43.5625C86.4242 49.2954 83.944 57.4703 83.944 61.7254C83.944 65.9805 84.3504 67.3221 84.7672 66.7666C85.1841 66.2111 85.6426 64.5866 86.0073 62.5534C86.3721 60.5201 90.0506 48.3207 88.029 42.4096C86.0073 36.4881 85.2258 30.8495 82.9332 28.1245C80.6301 25.3996 78.7961 26.4162 72.5435 18.0003C66.291 9.59481 56.9226 7.92839 61.883 11.1669C66.8433 14.3949 72.5435 22.9471 71.8141 25.997C71.0742 29.0468 64.1756 25.6721 60.8721 18.6501C57.5583 11.6281 45.1574 7.73974 47.1791 9.13366C49.2007 10.5171 53.4316 14.0281 57.1936 19.1112C59.0381 21.5951 59.8821 26.7516 58.3711 27.087C55.818 27.6634 48.2628 19.5304 46.8456 17.0256C45.9181 15.3906 44.7093 13.525 42.3542 11.5756C38.8111 8.65155 35.6119 8.48386 36.1329 8.97645C37.4147 10.2132 45.47 13.284 44.3759 20.9663C44.0111 23.555 39.874 17.5391 34.6323 13.7556C29.3906 9.96163 23.2319 11.9949 19.0114 20.872C14.7805 29.7386 17.1669 35.8383 14.5929 39.9991C12.019 44.1599 13.5821 45.4595 13.2174 55.9925C12.8526 66.536 15.6038 70.6863 15.7913 64.8696C15.9789 59.0424 17.3545 57.0091 19.9284 49.6203C22.5024 42.221 18.2715 42.221 21.2102 31.688C24.1593 21.1445 34.2676 16.9836 36.383 20.2222C38.488 23.4607 46.1161 24.6555 53.1086 27.7053C54.8489 28.4704 56.1827 29.77 57.1414 29.8538C60.0593 30.1054 60.7054 27.1289 67.8124 27.894C77.2746 28.9106 82.7873 28.6381 82.7873 25.0328C82.7873 21.4274 80.7656 17.3609 74.5235 11.1669C68.271 4.97286 56.141 -0.487546 44.9282 1.36752C33.7153 3.21211 24.1593 6.63928 21.033 10.1503C17.9068 13.6613 15.3745 16.7531 14.2282 22.1611C13.0819 27.5691 13.7697 30.5246 11.6126 34.2243C9.42417 37.9554 7.97566 47.4927 9.5388 51.6011C11.1019 55.72 10.4558 59.0424 9.63259 56.1288C8.80933 53.2256 8.16324 52.209 5.30791 52.0623C2.46301 51.926 3.79688 57.8476 4.71392 61.0756C5.63096 64.3141 2.87985 68.192 3.89067 71.8916C4.9015 75.5913 10.1432 77.069 9.40333 74.2917C8.66344 71.5248 9.67427 69.0304 10.3204 66.3474C10.9665 63.6643 8.75723 62.7001 7.47546 57.9838C6.18327 53.2676 3.56762 51.7688 2.27543 56.7995C0.993663 61.8407 0.576827 63.832 1.49387 66.3683C2.42133 68.9151 1.86902 74.1764 3.47384 75.7066C5.07865 77.2263 5.13076 77.9704 6.27706 80.2866C7.42336 82.5923 10.1849 82.6867 11.1436 83.5146C12.1128 84.3531 13.5404 92.1192 13.5404 92.4336C13.53 92.7481 13.53 93.073 13.53 93.4083C13.3633 104.78 11.7376 128.288 13.0819 134.126C14.1865 138.926 17.0314 145.308 21.8146 147.897C29.9116 152.288 31.2038 163.335 39.7386 154.93C44.3342 150.402 45.9911 152.152 46.1682 148.18C46.5955 139.125 73.9191 133.182 75.2113 109.727C75.5864 103.071 72.3143 105.891 68.4585 111.99C64.6028 118.09 60.8304 122.209 53.3899 126.37C45.939 130.531 37.6752 127.387 32.5273 122.576C27.3794 117.765 18.0944 101.594 18.0944 101.594C18.0944 101.594 22.4086 108.616 25.7641 111.11C29.1197 113.615 29.9012 109.402 30.8183 111.299C31.7457 113.196 32.9337 116.109 34.4031 115.093C35.8828 114.076 38.8736 115.816 40.7911 118.834C45.5326 126.255 57.4958 111.519 58.5587 113.049C58.9234 113.584 54.0777 123.456 58.8088 115.921C61.5703 111.529 62.4353 111.76 62.4353 114.862C62.4353 117.954 69.5215 109.863 73.5648 104.413C77.6081 98.9631 80.453 95.452 81.5576 86.8475C82.6622 78.2534 84.3608 75.6227 84.4025 72.751C84.4546 69.8898 87.9873 64.7543 88.8626 65.729C89.738 66.7037 86.1949 79.228 84.861 82.6867C83.5272 86.1557 82.8915 86.8475 82.6622 86.8055C82.433 86.7636 82.8602 80.4438 85.1424 77.373C87.4246 74.3022 89.5087 64.9954 88.7272 63.6958C87.9456 62.4067 86.6534 63.046 86.6534 63.046" stroke="#EC70F7" stroke-width="1.5"/>
</svg>
