<svg width="84" height="149" viewBox="0 0 84 149" fill="none" xmlns="http://www.w3.org/2000/svg">
<path d="M21.3202 76.759C21.3202 76.759 21.6702 84.2489 19.9902 92.4488C18.3203 100.659 16.1603 102.459 11.3003 102.989C6.45038 103.519 3.32042 99.9987 1.38044 105.819C-0.55954 111.639 2.71042 116.579 12.0503 119.748C21.4002 122.928 14.4403 124.688 20.7002 133.858C26.9602 143.028 34.4601 135.268 27.0502 128.568C19.6402 121.868 20.6102 119.748 15.6703 109.519C10.7303 99.2887 9.76035 97.6987 7.20037 102.459C4.6504 107.229 5.35039 111.109 14.7003 113.579C24.0502 116.049 24.5802 119.218 31.5501 126.718C38.51 134.208 42.13 150.178 44.16 147.268C46.1899 144.358 56.7698 128.308 58.4498 120.458C60.1198 112.609 61.7098 109.079 64.1797 105.729C66.6497 102.379 64.9697 98.1887 64.4397 95.2788C63.9097 92.3688 63.7198 87.1788 65.3097 85.6389C66.1297 84.8489 66.7997 83.9289 67.8297 82.8189C68.1797 82.4589 69.1597 81.3189 69.6797 80.6789C72.4497 77.249 71.3997 79.1189 70.0997 81.0989C69.4497 82.0889 68.6697 82.8189 68.2697 83.2889C67.5697 84.0989 67.2797 84.3589 65.5497 85.4889C63.0298 87.1188 58.3598 91.4788 54.6999 92.1488C51.0399 92.8088 40.98 92.9788 36.84 90.0288C32.6901 87.0688 26.6502 82.5789 25.0602 78.9589C23.4802 75.339 22.2902 72.569 20.1702 67.0091C18.0503 61.4491 20.3002 62.0691 18.3603 59.1192C16.4203 56.1592 14.3003 56.1192 15.0103 52.1092C15.7203 48.0893 20.4802 45.5393 19.2902 49.3293C18.1003 53.1192 19.7302 55.7692 20.3502 59.6891C20.9602 63.6191 17.9603 63.3491 16.0203 61.6291C14.0803 59.9091 13.5503 57.6592 12.8003 52.1892C12.0603 46.7293 13.7103 42.6693 15.1203 42.7093C16.5303 42.7593 17.6603 43.1993 17.6103 40.6394C17.5703 38.0794 18.7102 29.8395 21.7102 23.2695C24.7102 16.6996 29.1001 11.7097 29.8901 11.6497C30.6901 11.5797 32.4701 9.2897 33.6401 8.44971C34.8101 7.60972 34.5001 6.74972 35.2901 6.63973C36.0901 6.52973 38.62 5.18974 38.91 4.74975C39.2 4.29975 40.12 3.96976 41.18 3.90976C42.24 3.83976 43.92 2.57977 44.97 2.51977C46.0299 2.44977 48.5499 2.99977 49.1899 2.84977C49.8299 2.68977 50.4599 1.56978 51.2599 1.71978C52.0499 1.87978 53.3699 2.93977 54.5899 2.55977C55.7998 2.18977 56.2898 1.10979 56.2898 2.18977C56.2898 3.26976 57.3398 3.54976 59.2398 3.28976C61.1398 3.02977 62.3698 3.30976 62.2398 4.05975C62.1098 4.80975 62.8098 4.58975 64.2697 4.65975C65.7197 4.71975 65.7497 6.34973 67.2197 6.04973C68.6997 5.73974 68.5197 6.87972 67.7297 7.62972C66.9397 8.37971 68.5497 7.40972 70.0397 8.13971C71.5397 8.8697 75.8896 13.4497 76.1096 14.7796C76.3296 16.0996 73.8796 15.2196 75.1596 16.2796C76.4396 17.3396 77.6996 18.6796 77.6996 19.4496C77.6996 20.2196 76.3296 19.6896 77.0996 20.1396C77.8696 20.5796 78.7496 25.5395 79.4596 30.1195C80.1696 34.7094 80.2096 39.0794 79.9196 40.1594C79.6396 41.2393 77.8096 41.1693 77.3396 40.3294C76.8796 39.4894 78.2296 36.0794 76.8996 29.1095C75.5796 22.1396 72.7597 18.3496 68.4397 14.1596C64.1097 9.96969 61.3398 10.8997 60.0098 11.0697C58.6898 11.2497 60.0598 9.83969 58.4298 9.74969C56.7898 9.65969 50.4199 10.6797 51.6399 9.78969C52.8499 8.9097 48.3899 9.0397 43.01 10.2397C37.63 11.4297 29.3001 18.2596 27.2702 22.3596C25.2402 26.4595 28.6401 23.5095 27.3202 30.2995C25.9902 37.0894 20.3502 44.4593 21.0102 46.0893C21.6702 47.7193 21.5802 58.8792 21.0102 62.6191C20.4402 66.3691 22.7302 72.149 24.5802 74.969C26.4302 77.7889 28.3701 78.5889 32.0801 81.0589C35.7801 83.5289 37.68 82.5989 41.38 81.6289C45.09 80.6589 42.75 85.0689 46.0999 82.9489C49.4499 80.8389 52.7599 82.6889 55.4898 83.9689C58.2298 85.2489 59.1498 82.5589 60.5198 83.6089C61.8898 84.6689 63.0798 83.8389 65.8597 82.9489C68.6297 82.0689 72.6897 77.089 74.6296 66.4191C76.5696 55.7492 75.9096 50.1892 75.9996 47.6793C76.0896 45.1593 79.1896 41.9793 74.3696 39.6094C69.5397 37.2294 66.1697 35.6594 64.2497 36.7794C62.3298 37.9094 61.5098 40.1894 64.9197 40.0294C68.3297 39.8594 73.0296 40.7793 76.3396 41.8093C79.1396 42.6793 81.0496 43.8293 81.0196 44.9893C80.9696 46.5093 79.7196 50.9092 78.2596 51.2292C76.7996 51.5492 71.5797 51.4892 68.5197 50.8992C65.4497 50.2992 63.4398 48.9993 62.7398 47.4593C62.0298 45.9093 62.1598 43.6593 62.2898 42.8493C62.4198 42.0293 63.6298 42.4293 64.3597 43.2193C65.0897 44.0193 65.1497 45.4493 67.3397 46.1593C69.5197 46.8593 71.2397 45.6293 71.2397 45.6293C71.2397 45.6293 71.6597 44.2393 69.7397 43.0493C67.8197 41.8593 65.8997 41.1693 65.4597 42.6693C65.0197 44.1693 66.0997 45.4293 67.7797 45.5993C69.4497 45.7793 69.5397 43.5093 69.2997 42.8893C69.0597 42.2793 66.7197 41.3493 64.6297 42.0093C62.5298 42.6693 63.0198 40.9693 61.7098 40.7793C60.5198 40.5894 60.5298 41.0393 60.5398 41.5693C60.5698 43.3093 61.4198 47.2193 62.1998 48.5793C63.0098 50.0093 64.9497 50.7792 68.0197 51.4692C71.7797 52.3192 78.5796 52.6692 79.1096 51.8892C79.6396 51.1092 80.6796 49.2193 81.7196 47.5693C82.7495 45.9093 82.7295 43.5593 81.8696 43.1093C81.0096 42.6693 76.6196 40.8693 73.9296 40.2294C71.2397 39.5894 66.7197 38.9494 64.0097 39.2094C61.2998 39.4794 61.2298 39.4994 57.8098 39.1494C54.3999 38.7894 54.5099 38.5894 53.8699 38.0894C53.2299 37.5794 50.4499 36.0794 47.0999 35.3494C43.75 34.6294 38.36 34.4494 37.02 34.3594C35.6901 34.2694 34.3901 34.3694 33.7001 35.6494C33.0201 36.9294 32.7701 41.8093 33.1601 42.9993C33.5601 44.1893 36.7301 45.0493 40.55 45.8293C44.36 46.5993 48.9699 46.8593 50.4799 46.4293C53.7599 45.4993 49.7699 39.3694 48.0499 39.9694C47.0199 40.3294 43.62 40.9893 41.72 40.6794C39.29 40.2794 38.59 38.1394 38.59 38.1394C39.36 37.1994 41.53 36.3494 42.16 36.3494C43.87 36.3194 45.7999 37.0294 45.6799 38.1594C45.51 39.8594 43.81 41.1593 41.76 39.9494C39.71 38.7394 40.47 36.9994 41.2 36.5094C41.33 36.4194 41.54 36.3494 41.8 36.3094C42.42 36.1994 43.36 36.2694 44.39 36.7294C45.32 37.1394 46.2799 37.9894 47.2699 38.9094C48.3699 39.9294 49.2999 41.0793 50.0099 41.9593C52.7199 45.3493 50.0499 41.8993 53.4199 41.1393C54.5899 40.8793 55.4098 39.9494 55.0998 38.6694C54.7898 37.3894 51.4599 35.4494 46.5699 34.5294C41.67 33.5994 34.9601 33.6794 33.4601 33.8994C31.9601 34.1194 31.5001 34.5794 31.2101 35.7494C30.9201 36.9194 27.9401 38.4494 25.2902 39.9894C22.6402 41.5393 19.8002 42.2593 20.8102 41.5393C21.8302 40.8093 27.0302 37.4794 29.3701 36.1094C31.7101 34.7494 31.2001 33.8894 29.7901 34.8094C28.3801 35.7394 19.2302 41.5993 18.6302 42.1793C18.0403 42.7493 18.1903 43.8093 21.0602 42.8593C23.9202 41.9093 31.3101 37.7394 31.9001 37.9694C32.5001 38.1894 32.2601 42.3993 32.4101 43.3193C32.5701 44.2493 34.3501 45.0893 39.51 46.2293C44.67 47.3793 49.8699 47.5593 51.2899 46.8093C52.6999 46.0593 54.9498 41.2293 54.9498 41.4693C54.9498 41.7093 54.0599 46.4193 54.0599 46.4193C54.0599 46.4193 53.6799 49.2493 52.1399 51.0992C50.5999 52.9492 48.6999 55.2892 49.6299 57.5792C50.5499 59.8691 55.5198 58.3392 56.2998 56.5092C57.0698 54.6792 53.8799 53.8292 52.6199 55.5492C51.3699 57.2692 52.3599 57.3792 54.0399 56.6792C55.7098 55.9692 56.3298 56.8992 56.1998 58.7092C56.0598 60.5091 56.7898 65.0091 55.8998 64.6291C54.9998 64.2391 54.0199 64.0491 50.3199 65.5991C46.6099 67.1391 46.0199 68.369 44.5 68.549C42.98 68.729 42.73 67.3391 44.3 67.9491C45.8599 68.569 48.1099 70.619 51.7699 72.429C55.4298 74.239 60.7198 72.299 62.2198 72.029C63.7198 71.769 64.0497 72.119 64.2097 72.569C64.3597 73.029 62.5798 71.569 61.7198 70.469C60.8598 69.359 58.6698 69.079 56.9298 69.139C55.1898 69.209 54.5299 69.119 52.8699 68.499C51.2199 67.8891 46.8599 68.389 46.8599 68.389C46.8599 68.389 49.6099 67.1291 52.5999 68.0091C55.5998 68.889 56.0698 69.309 58.1398 68.869C60.2098 68.429 61.5298 69.529 62.6398 71.099C63.7398 72.659 62.7498 69.029 61.8198 67.6591C60.8898 66.2891 58.4698 65.0791 57.4798 65.0791C56.4798 65.0791 58.3798 65.2291 58.1598 62.4091C57.9398 59.5891 56.9098 58.2592 57.7998 57.9692C58.2498 57.8192 59.1698 57.3792 59.5598 56.8392C59.7298 56.6092 59.7598 56.1492 59.9198 56.0192C60.1198 55.8592 60.5798 55.9192 60.9998 56.1492C62.5898 57.0092 60.9898 58.1192 59.8698 57.8392C58.7398 57.5492 58.6298 58.5192 60.3098 58.8892C61.4398 59.1492 62.7898 58.7092 63.4498 57.3992C63.7698 56.7692 63.3798 54.8092 63.2798 53.7492C62.9698 50.4792 60.6098 46.6093 60.1198 42.9593C59.8398 40.8794 59.3998 40.2894 56.2498 40.3394C55.4198 40.3494 56.0498 39.3094 55.7398 37.8794C55.1898 35.3594 51.6399 33.0494 48.7799 32.0794C43.96 30.4395 38.67 31.3495 35.1601 32.5094" stroke="#F29E39" stroke-width="1.5" stroke-linecap="round" stroke-linejoin="round"/>
</svg>
