<svg width="95" height="158" viewBox="0 0 95 158" fill="none" xmlns="http://www.w3.org/2000/svg">
<path d="M48.3324 101.033C48.3324 101.033 47.0267 101.383 44.5365 103.403C42.0462 105.422 44.9672 107.052 45.4922 107.469C46.0037 107.887 51.2938 107.779 50.9035 107.173C50.5131 106.567 48.0228 106.325 48.2921 105.948C48.5613 105.557 48.8978 105.557 51.3612 106.096C53.8245 106.621 54.336 108.021 54.2687 111.105C54.2149 114.202 50.3516 117.07 52.3707 119.359C54.3899 121.648 53.3803 120.881 49.6651 120.315C45.9633 119.749 40.7405 120.49 42.0731 120.84C43.4058 121.204 46.7306 121.433 49.8805 122.267C50.9977 122.564 51.8861 122.995 52.5861 123.062C53.8245 123.197 54.7802 123.035 56.8128 122.86C59.9896 122.591 64.4855 121.109 64.4855 121.109C64.4855 121.109 64.7144 121.163 61.7934 121.392C58.8723 121.635 59.9492 122.092 55.5879 122.469C51.2131 122.833 51.5765 122.065 47.794 121.406C44.025 120.759 43.6211 120.679 41.427 120.409C39.2463 120.153 39.1386 119.238 37.9945 118.982C36.8503 118.713 35.9753 119.588 35.9753 119.588C35.9753 119.588 37.6041 119.144 38.6271 119.534C39.6502 119.938 40.6059 120.705 42.1404 121.837C43.6884 122.968 46.5421 125.068 49.3824 125.661C52.2361 126.253 59.2358 126.603 61.6184 124.799C63.9875 122.981 65.2124 121.837 65.9662 121.096C66.72 120.355 68.2815 120.517 68.2815 120.517C68.2815 120.517 67.9585 120.019 67.3258 120.019C66.7066 120.019 67.0296 120.288 64.5663 120.611C62.103 120.934 60.0031 119.426 58.5493 120.046C57.0955 120.665 55.2514 121.231 55.2514 121.029C55.2514 120.813 56.8801 119.48 57.4186 117.339C57.9435 115.212 54.2687 109.651 56.3417 109.57C58.4281 109.476 58.63 108.627 59.5319 108.129C60.4473 107.617 62.3856 106.58 62.7895 107.025C63.1933 107.469 62.1433 107.712 61.2415 108.196C60.3396 108.695 61.6049 109.031 63.1798 108.668C64.7413 108.318 67.5412 106.594 65.8182 103.093C64.0952 99.5921 61.901 95.7276 61.6049 90.6243C61.3088 85.521 64.2702 81.4814 68.968 81.6026C73.6524 81.7103 76.6138 81.9392 75.8735 83.6628C75.1331 85.3863 72.4275 86.2211 71.2833 85.5748C70.1391 84.9285 69.4122 84.2418 69.9776 82.5451C70.5429 80.8485 76.0619 81.6295 76.1696 82.9087C76.2908 84.1744 74.1505 86.2615 71.9294 86.2615C69.7084 86.2615 66.6527 85.4267 66.7335 84.7669C66.8277 84.1206 67.4739 81.9527 71.9025 81.4141C76.3177 80.8889 81.7828 83.9455 79.5887 85.4267C77.3945 86.9079 63.7452 87.9178 64.7548 83.6493C65.7643 79.3674 71.9294 76.5262 78.458 75.5702C84.9865 74.6142 88.1364 77.765 87.7864 80.6196C87.4229 83.4742 87.3691 89.9375 87.3691 90.9474C87.3691 91.9573 87.9614 91.6611 88.9036 88.5775C89.8594 85.4806 91.4074 83.9455 90.9901 79.8521C90.5728 75.7452 90.3305 76.8763 89.3882 75.0316C88.4325 73.2003 92.3496 60.6642 92.4169 57.0421C92.4708 53.42 92.1208 50.5115 91.1651 50.875C90.2093 51.2251 88.4325 52.2889 90.0343 55.3185C91.6362 58.3482 89.2132 64.5826 88.4998 70.992C87.7864 77.4149 88.6748 75.9876 91.3401 68.5683C94.0188 61.1355 94.3149 54.6049 93.7765 50.0402C93.238 45.462 89.5632 33.882 78.0541 32.8182C66.5316 31.7545 47.6594 34.9592 61.4299 30.7984C75.2004 26.6377 81.4867 27.5937 71.5121 26.8801C61.5511 26.1664 38.0349 31.3909 46.7037 27.0013C55.3725 22.6116 75.4293 19.1645 62.4933 20.5918C49.5574 22.0057 32.6909 28.1862 36.0157 23.3118C39.3406 18.4509 59.0473 11.2066 45.6403 14.5325C32.2197 17.8584 22.7298 24.5102 20.9395 27.2975C19.1627 30.0848 16.5512 27.7688 11.2073 44.8696C5.86328 61.9703 13.6975 73.0118 13.7379 76.7013C13.7648 80.3773 13.9398 82.0065 14.411 80.0002C14.8955 77.9805 16.0397 74.1698 16.8474 74.0621C17.655 73.9409 22.6625 80.5927 26.8219 78.6268C30.9813 76.6743 34.4273 77.8054 33.9158 78.1959C33.3908 78.5864 33.3505 79.0577 33.9966 80.6196C34.6562 82.1816 37.8599 83.5146 39.0175 82.1816C39.8655 81.1852 39.8925 79.2866 40.579 79.1519C40.8213 79.1115 41.4674 79.6771 41.8174 80.0541C43.1904 81.4814 44.8999 82.3297 44.8326 82.0873C44.7788 81.845 43.8903 81.616 42.2481 79.8252C40.6193 78.0478 37.6176 77.0917 34.6562 77.3611C31.6813 77.6304 28.2488 79.3808 30.416 80.9293C32.5697 82.4778 35.3965 83.8109 41.0097 83.178C46.6095 82.5586 45.5191 84.4572 46.2325 83.7166C46.946 82.976 46.6768 72.3789 37.5368 70.0091C28.3968 67.6257 22.0971 71.1267 19.1896 72.8502C16.282 74.5738 17.5877 67.2756 20.5491 58.0116C23.524 48.7475 20.9664 46.9701 23.1067 43.4557C25.247 39.9548 26.1354 36.9251 25.6643 35.0938C25.1797 33.2491 23.2817 32.7105 21.9221 30.5695C20.5491 28.442 21.801 28.671 29.3391 34.1378C36.8772 39.6047 42.1674 38.4736 53.5553 42.0419C64.9567 45.5967 66.9758 50.4711 79.1983 46.9028C91.4343 43.348 87.396 51.0635 90.7208 48.9226C94.0457 46.7816 93.2111 41.9207 92.74 36.575C92.2554 31.2293 90.4786 20.0128 88.1094 17.6295C85.7269 15.2596 83.95 12.3511 79.7367 10.0351C75.5235 7.71913 75.5235 7.30171 70.5968 6.88428C65.6701 6.46686 66.6797 4.3259 62.8164 4.3259C58.9666 4.3259 55.0494 7.53061 55.2783 6.17063C55.5206 4.81065 55.4533 2.96592 55.4533 2.96592C55.4533 2.96592 51.9534 7.71913 52.5457 5.57816C53.138 3.4372 52.3707 1 52.3707 1C52.3707 1 52.2496 2.13108 49.8805 5.75321C47.4979 9.37534 45.3037 6.93815 34.8581 11.8125C24.4124 16.6869 19.9568 26.7724 18.5973 27.7284C17.2243 28.671 15.1513 30.1656 13.3745 34.7976C11.5976 39.4296 10.1035 38.5275 7.61319 47.5626C5.12293 56.5843 7.19591 59.3177 7.4382 62.5224C7.6805 65.7271 9.09389 71.194 6.10557 69.3493C3.10379 67.5045 2.9288 70.9516 3.45377 76.0549C3.99221 81.1717 5.00178 80.458 5.83635 84.6053C6.67093 88.7661 9.48426 87.9985 11.288 88.8199C13.1052 89.6548 11.9745 91.7419 12.1495 94.6773C12.338 97.6127 12.9841 97.7069 12.9033 95.5121C12.8091 93.3038 13.6437 91.5264 13.0514 88.8872C12.4457 86.2481 13.1052 82.4778 12.7822 80.1214C12.4457 77.7785 12.5399 77.011 10.938 73.887C9.33619 70.7766 9.30927 69.9417 8.59584 68.0701C7.88241 66.1984 5.84981 66.0638 4.7191 66.7505C3.58838 67.4372 1.86539 70.1302 1.24618 73.0791C0.626982 76.0145 1.27311 77.5226 2.10768 79.2192C2.94226 80.9159 3.46723 84.5649 4.54411 88.2409C5.60752 91.9304 7.30359 94.2464 9.49772 96.4951C11.6918 98.7572 12.7283 98.2456 12.7687 98.5552C12.7956 98.8515 12.9706 102.797 13.9264 107.361C14.8686 111.94 15.7032 118.228 19.0819 122.631C22.474 127.021 22.1644 127.384 21.7606 130.4C21.3433 133.43 19.9165 133.942 17.8973 134.857C15.8782 135.786 15.6359 137.146 16.982 140.499C18.3146 143.852 20.3338 146.262 25.3143 150.235C30.3083 154.22 34.9388 155.755 40.2155 156.59C45.4922 157.425 49.7728 157.129 55.4667 154.342C62.4933 150.894 74.5543 144.754 74.4735 135.531C74.4601 134.225 73.0736 133.538 72.9794 132.757C72.6159 129.633 73.1409 128.044 67.2585 135.356C59.8954 144.498 56.9205 143.785 49.9208 143.192C42.9212 142.6 40.4174 143.192 35.0869 138.628C29.7429 134.049 23.9817 128.354 23.9817 128.354" stroke="#5BA7FC" stroke-width="1.5" stroke-linecap="round" stroke-linejoin="round"/>
</svg>
