<svg width="126" height="158" viewBox="0 0 126 158" fill="none" xmlns="http://www.w3.org/2000/svg">
<path d="M63.3324 101.033C63.3324 101.033 62.0267 101.383 59.5365 103.403C57.0462 105.422 59.9672 107.052 60.4922 107.469C61.0037 107.887 66.2938 107.779 65.9035 107.173C65.5131 106.567 63.0228 106.325 63.2921 105.948C63.5613 105.557 63.8978 105.557 66.3612 106.096C68.8245 106.621 69.336 108.021 69.2687 111.105C69.2149 114.202 65.3516 117.07 67.3707 119.359C69.3899 121.648 68.3803 120.881 64.6651 120.315C60.9633 119.749 55.7405 120.49 57.0731 120.84C58.4058 121.204 61.7306 121.433 64.8805 122.267C65.9977 122.564 66.8861 122.995 67.5861 123.062C68.8245 123.197 69.7802 123.035 71.8128 122.86C74.9896 122.591 79.4855 121.109 79.4855 121.109C79.4855 121.109 79.7144 121.163 76.7934 121.392C73.8723 121.635 74.9492 122.092 70.5879 122.469C66.2131 122.833 66.5765 122.065 62.794 121.406C59.025 120.759 58.6211 120.679 56.427 120.409C54.2463 120.153 54.1386 119.238 52.9945 118.982C51.8503 118.713 50.9753 119.588 50.9753 119.588C50.9753 119.588 52.6041 119.144 53.6271 119.534C54.6502 119.938 55.6059 120.705 57.1404 121.837C58.6884 122.968 61.5421 125.068 64.3824 125.661C67.2361 126.253 74.2358 126.603 76.6184 124.799C78.9875 122.981 80.2124 121.837 80.9662 121.096C81.72 120.355 83.2815 120.517 83.2815 120.517C83.2815 120.517 82.9585 120.019 82.3258 120.019C81.7066 120.019 82.0296 120.288 79.5663 120.611C77.103 120.934 75.0031 119.426 73.5493 120.046C72.0955 120.665 70.2514 121.231 70.2514 121.029C70.2514 120.813 71.8801 119.48 72.4186 117.339C72.9435 115.212 69.2687 109.651 71.3417 109.57C73.4281 109.476 73.63 108.627 74.5319 108.129C75.4473 107.617 77.3856 106.58 77.7895 107.025C78.1933 107.469 77.1433 107.712 76.2415 108.196C75.3396 108.695 76.6049 109.031 78.1798 108.668C79.7413 108.318 82.5412 106.594 80.8182 103.093C79.0952 99.5921 76.901 95.7276 76.6049 90.6243C76.3088 85.521 79.2702 81.4814 83.968 81.6026C88.6524 81.7103 91.6138 81.9392 90.8735 83.6628C90.1331 85.3863 87.4275 86.2211 86.2833 85.5748C85.1391 84.9285 84.4122 84.2418 84.9776 82.5451C85.5429 80.8485 91.0619 81.6295 91.1696 82.9087C91.2908 84.1744 89.1505 86.2615 86.9294 86.2615C84.7084 86.2615 81.6527 85.4267 81.7335 84.7669C81.8277 84.1206 82.4739 81.9527 86.9025 81.4141C91.3177 80.8889 96.7828 83.9455 94.5887 85.4267C92.3945 86.9079 78.7452 87.9178 79.7548 83.6493C80.7643 79.3674 86.9294 76.5262 93.458 75.5702C99.9865 74.6142 103.136 77.765 102.786 80.6196C102.423 83.4742 102.369 89.9375 102.369 90.9474C102.369 91.9573 102.961 91.6611 103.904 88.5775C104.859 85.4806 106.407 83.9455 105.99 79.8521C105.573 75.7452 105.33 76.8763 104.388 75.0316C103.432 73.2003 107.35 60.6642 107.417 57.0421C107.471 53.42 107.121 50.5115 106.165 50.875C105.209 51.2251 103.432 52.2889 105.034 55.3185C106.636 58.3482 104.213 64.5826 103.5 70.992C102.786 77.4149 103.675 75.9876 106.34 68.5683C109.019 61.1355 109.315 54.6049 108.776 50.0402C108.238 45.462 104.563 33.882 93.0541 32.8182C81.5316 31.7545 62.6594 34.9592 76.4299 30.7984C90.2004 26.6377 96.4867 27.5937 86.5121 26.8801C76.5511 26.1664 53.0349 31.3909 61.7037 27.0013C70.3725 22.6116 90.4293 19.1645 77.4933 20.5918C64.5574 22.0057 47.6909 28.1862 51.0157 23.3118C54.3406 18.4509 74.0473 11.2066 60.6403 14.5325C47.2197 17.8584 37.7298 24.5102 35.9395 27.2975C34.1627 30.0848 31.5512 27.7688 26.2073 44.8696C20.8633 61.9703 28.6975 73.0118 28.7379 76.7013C28.7648 80.3773 28.9398 82.0065 29.411 80.0002C29.8955 77.9805 31.0397 74.1698 31.8474 74.0621C32.655 73.9409 37.6625 80.5927 41.8219 78.6268C45.9813 76.6743 49.4273 77.8054 48.9158 78.1959C48.3908 78.5864 48.3505 79.0577 48.9966 80.6196C49.6562 82.1816 52.8599 83.5146 54.0175 82.1816C54.8655 81.1852 54.8925 79.2866 55.579 79.1519C55.8213 79.1115 56.4674 79.6771 56.8174 80.0541C58.1904 81.4814 59.8999 82.3297 59.8326 82.0873C59.7788 81.845 58.8903 81.616 57.2481 79.8252C55.6193 78.0478 52.6176 77.0917 49.6562 77.3611C46.6813 77.6304 43.2488 79.3808 45.416 80.9293C47.5697 82.4778 50.3965 83.8109 56.0097 83.178C61.6095 82.5586 60.5191 84.4572 61.2325 83.7166C61.946 82.976 61.6768 72.3789 52.5368 70.0091C43.3968 67.6257 37.0971 71.1267 34.1896 72.8502C31.282 74.5738 32.5877 67.2756 35.5491 58.0116C38.524 48.7475 35.9664 46.9701 38.1067 43.4557C40.247 39.9548 41.1354 36.9251 40.6643 35.0938C40.1797 33.2491 38.2817 32.7105 36.9221 30.5695C35.5491 28.442 36.801 28.671 44.3391 34.1378C51.8772 39.6047 57.1674 38.4736 68.5553 42.0419C79.9567 45.5967 81.9758 50.4711 94.1983 46.9028C106.434 43.348 102.396 51.0635 105.721 48.9226C109.046 46.7816 108.211 41.9207 107.74 36.575C107.255 31.2293 105.479 20.0128 103.109 17.6295C100.727 15.2596 98.95 12.3511 94.7367 10.0351C90.5235 7.71913 90.5235 7.30171 85.5968 6.88428C80.6701 6.46686 81.6797 4.3259 77.8164 4.3259C73.9666 4.3259 70.0494 7.53061 70.2783 6.17063C70.5206 4.81065 70.4533 2.96592 70.4533 2.96592C70.4533 2.96592 66.9534 7.71913 67.5457 5.57816C68.138 3.4372 67.3707 1 67.3707 1C67.3707 1 67.2496 2.13108 64.8805 5.75321C62.4979 9.37534 60.3037 6.93815 49.8581 11.8125C39.4124 16.6869 34.9568 26.7724 33.5973 27.7284C32.2243 28.671 30.1513 30.1656 28.3745 34.7976C26.5976 39.4296 25.1035 38.5275 22.6132 47.5626C20.1229 56.5843 22.1959 59.3177 22.4382 62.5224C22.6805 65.7271 24.0939 71.194 21.1056 69.3493C18.1038 67.5045 17.9288 70.9516 18.4538 76.0549C18.9922 81.1717 20.0018 80.458 20.8364 84.6053C21.6709 88.7661 24.4843 87.9985 26.288 88.8199C28.1052 89.6548 26.9745 91.7419 27.1495 94.6773C27.338 97.6127 27.9841 97.7069 27.9033 95.5121C27.8091 93.3038 28.6437 91.5264 28.0514 88.8872C27.4457 86.2481 28.1052 82.4778 27.7822 80.1214C27.4457 77.7785 27.5399 77.011 25.938 73.887C24.3362 70.7766 24.3093 69.9417 23.5958 68.0701C22.8824 66.1984 20.8498 66.0638 19.7191 66.7505C18.5884 67.4372 16.8654 70.1302 16.2462 73.0791C15.627 76.0145 16.2731 77.5226 17.1077 79.2192C17.9423 80.9159 18.4672 84.5649 19.5441 88.2409C20.6075 91.9304 22.3036 94.2464 24.4977 96.4951C26.6918 98.7572 27.7283 98.2456 27.7687 98.5552C27.7956 98.8515 27.9706 102.797 28.9264 107.361C29.8686 111.94 30.7032 118.228 34.0819 122.631C37.474 127.021 37.1644 127.384 36.7606 130.4C36.3433 133.43 34.9165 133.942 32.8973 134.857C30.8782 135.786 30.6359 137.146 31.982 140.499C33.3146 143.852 35.3338 146.262 40.3143 150.235C45.3083 154.22 49.9388 155.755 55.2155 156.59C60.4922 157.425 64.7728 157.129 70.4667 154.342C77.4933 150.894 89.5543 144.754 89.4735 135.531C89.4601 134.225 88.0736 133.538 87.9794 132.757C87.6159 129.633 88.1409 128.044 82.2585 135.356C74.8954 144.498 71.9205 143.785 64.9208 143.192C57.9212 142.6 55.4174 143.192 50.0869 138.628C44.7429 134.049 38.9817 128.354 38.9817 128.354" stroke="#5BA7FC" stroke-width="1.5" stroke-linecap="round" stroke-linejoin="round"/>
</svg>
