<svg id="Layer_1" data-name="Layer 1" xmlns="http://www.w3.org/2000/svg" viewBox="0 0 126 158"><defs><style>.cls-1,.cls-2{fill:none;}.cls-2{stroke:#F6CC2C;stroke-linecap:round;stroke-linejoin:round;stroke-width:1.5px;}</style></defs><g id="Layer_1-2" data-name="Layer_1"><rect class="cls-1" x="-22.85" width="168.69" height="158"/><path class="cls-2" d="M1,133.37c0-.37,1.37-1.12,9.43-3.49a91.85,91.85,0,0,0,20.31-9c4.78-2.9.88,3.08,11.95,7.24s26.28,4.23,36-1.12,11.07-14.18,10.76-15.25-1.55.62-3.44.33-3.12,1.47-2.89-2.53-.31-5.65-.67-5.8-4.49,4.64-7.46,6a72.74,72.74,0,0,0-8.25,4.86c-2.37,1.57-9.32,1.34-12.47-1s-2.79-3.19-4.2-4.94-5.42-4.3-7.79-9.35S39.13,83,39.13,79.57s.59-10.48.59-10.48A24.1,24.1,0,0,0,37.87,81c.75,6.46,1.49,9.14.45,11.52s1.4,4,2.52,7.05,2.45,5.71,1.26,7.42-3,1.19-2.22-.15,1-4.37.26-5.46-3,.53-2.35,3.87-2.11,3-1.59-.37,3.16-5.47,1.71-8.28-1.73-4.21-.82-9.36-2.38-7-1.11-11.28,2.08-4.09.52-6.17,1.19,2.68-1.63,5.65-1,5.72-.23,9.2,1.56,10.62.15,11.73,1.34,8-1,10.55.88.37-.53-5-2.15-4.6-5.56-5.35-3.2-4.6-2.53-7.35-2-5.42-3.78-3.94-2.16,2.35-.71,4.16,1,2.49-.78.49-3-2.75-1.44-6.84,2.74-6.23.88-6.67-3-.15-2.89-3,4.67-5.13,4.2-6-3.87-1.08-5,1.38-2-.64.31-2.2,3.78-2.59,3.52-4.23-3.3,1-4.75,3.75-2.26,1.41-.89-.81,2-1.56,2.71-3.87,2.19-.71,4.9-3.11,4.75-5.16,5.34-6.94-5.15,1.4-6.08,4.3-1.78,2-1.33-.07,1.44-4.8,4.11-5.91,5.91-.93,7.46-4.49-3.27.39-4,2-1.07-1.27.89-2.9,3.86-1.11,4.5-2.82,1.89-2.34,3.67-2.9a6.67,6.67,0,0,0,3.56-2.63c.86-1.12,3.83-2,4.13-3.6s3.84-5.15,7.08-5.44,4.59.11,8.75-1.23,9-1.41,12.36.15,4.53,3.68,4.55,4.81-1.48-.11-2.78-1.19S68.46,27.3,66,28.56,64.9,29.85,61,30.34s-10.39,3.82-13.81,9.1-2.59.59-8.24,5.86-1.56,3.86-5,4.75-4.53.75-4,4.08,1,5.72-3.72,8.24-2.45,1.56-2.22,5.87.33,5.39-1,7.72S24.21,77,22.32,80s-1,4,.89,2,4-1.66,4.34.56,2.79,5.46,1,7.72,3.31,2.15,3.57,4.6,2.37.57,1.52-1.88,1.26-5.58-1.26-7.58-2.83-2.9-2.16-5.94,2.75-5.27,1.86-8.62-3-6.6,1-9.87,4.9-3.86,5.2-7.5,2.68-5.57,5.27-7.79,4,.22.52,3.33.67,2.9-2.45,6.91S37,59.4,36.32,62.15s-.71,3.61-1.9,5.2-.22,5.49.12,3.67a11.58,11.58,0,0,1,2-5.26C38,63.45,38,61.34,41.59,59.11s3.85-4.68,4.38-8.17,4.75-9.43,8-12.85,6.23-5.63,9.72-5.94,9.8-2.71,11.69.83,1.64,6.6-.66,5.6-1.12-4-4.57-4.46-5.91,3.79-7.83,6.32-3-.38-4.45,2.3S57.21,51.06,52,54s-4.91,5.61-7.2,7.23-6.58,4.49-5.2,4.8,7.23-.34,12.76.92,7.86,4.81,8.21,5.63a2.53,2.53,0,0,1-1.3,3c-1.14.35-2.65-1.69-4.86-1.47s-6.07-.81-6.74-1.73a8.13,8.13,0,0,0-2.93-1.7,13.49,13.49,0,0,1,2.56.61c.54.3-1.07-2.15-.85-2s.94,1.59,1.56,1.57.44-2,.44-2a3.75,3.75,0,0,0,.39,1.54c.34.43,1.17-1.28,1.17-1.28s-.72.93.37,1.24,1.06-.41,1.32-.72.66.63,1.35,1.26,2.38,1.13,1.38,2.28-4.21,1.1-4.29-.4.09-1.87,1.93-1.71a6.32,6.32,0,0,1,4.31,2.52A2.9,2.9,0,0,0,59,74.89c.78,0,1.71-.11,1.63.68S56.85,82.66,51.91,83a10.19,10.19,0,0,1-10.35-6.68c-1.23-3.82-.86-8.27,1.81-8.91a24.2,24.2,0,0,1,11.66,1c4.08,1.41,7.2,5.13,5.6,9.1s-3,6.72-2.63,8.2.71,2.4.26,2.4-.29-1.71-1-2.71c-.54-.81-1.68.26-2.13,1.59M55,88.27c.11,1.54,1.67,2.06,3.2,2.22,1.31.14,1.39,1.5,2.69,2,.44.09,1,1,.88,2.76a3.7,3.7,0,0,1-.46,2.06c-.13.16-.16.12-.34.06a8.22,8.22,0,0,0-2.82-.62c-1.84,0-3.47.45-5.2.13s.9,3.76,3.73,5.32c3.36,1.86,7,1,10.4-.48,2.47-1.08,4-2.54,3.8-2.53-.62,0-4.65-.45-7.07.44s-5.35-.15-7.53-.86-2.88-1.07-2.66-1.16a42.74,42.74,0,0,1,5.31,1.2c2.32.6,2.9.66,5.08,0a15.1,15.1,0,0,1,6.35-.14c1.26.28,2.49-1,2.23-1a8.53,8.53,0,0,1-3.39.17c-2-.37-3.54-1-5.56-.64a17.39,17.39,0,0,1-1.71.39c-.18,0-.15,0-.09-.11a6.51,6.51,0,0,0,.68-2.27,12.72,12.72,0,0,0-.28-2.59l.3,0c1.88-.25,2.09-1.36,3.15-1.22,2.79.36,4.92-2,3-4.83-.63-.93-1.67.09-1.86,1.3s-.74,1.08-.51.1,1.31-1.14,1.24-3-1.41-4.66-1.71-7.41.94-3.44.57-3.93-3-1.16-4.13-.77-1-.57-.84-.68,4.33-.05,5.23.51.51.89.29,3.41S74.82,74,75.89,73.5a3.36,3.36,0,0,0,1.4-1s-.5.85-.45,1.07S79,72.5,79,72.74s-1,.74-.81,1,1.69-.23,1.93-.4.19.25-.46.6-.85.51,1.15.59.57.25,0,.39,1,.71,1.54,1.28-1,.08-2.88.6-4.53.37-4.68-.93,1.26-2.1,2.64-1.92,2.1,1.17,1.9,2-3.29,1-4.78.4a3.19,3.19,0,0,0-3.11-.07,9.84,9.84,0,0,1-3.47,1c-1,0-.71.46-.71,1s.87,4.9,4.44,6.65,7,2.15,10.28.29A10.53,10.53,0,0,0,87,77c.4-3.23-.78-4-2.16-4.6S78.4,70.29,75,70.71,69.18,72,68.69,72.54s-.37-.9,2.11-1.78a18.25,18.25,0,0,1,9.14-.5,72.94,72.94,0,0,1,8,1.87c1.47.29,2.68.86,2.38,1.53,0,.07-3.24.21-1.79,3.17C89.08,78,90.41,79.6,90,81.72c-.27,1.36.35,3.33,1.2,5.22.47,1,.7.84,0,1.75-.38.52-1,1.1-1.58,1-1.09-.26-1.26,4.23-3.35,8.06s-1,4.72.64,6.65-.49,4.63-.42,5.27,3,.33,2.72-2.23-1.94-2.86-1.12-4.38,3.05-.85,2.93,3.38-.4,5.12,1.93,5.49.45-.11-.26-1.81-.22-2.23.85-3.35.57-2.56-1.14-5.75.37-5-.19-6.87-1-3.88-.45-4.4c.81-.77,1.57,1.37,1.93,2,1.18,2.13,1,3.68,1.26,7.31s1.33,6.13,3.26,12.58,6,6,6.69,1.56.07-9.87,3-14.55.74-8.57-2.16-9.76-2.21-1.58-3.54-.75c-.79.5-1.05.78-1.36.69-.07,0-4.88,5.68-5,5.61s4.5-5.92,4.35-6.06L99.88,88c-1.17-1.17-1-2.39-2.16-4.52s-1.69.07-3.17,1,.22.09,1.17-1.5,1-2.62.33-3.81-.85-.13-2.64-.65a2,2,0,0,1-1.09-3.14c.57-.83-.67-1.44-1-1.67s-.74-1.3-2-2-.48-1.35.78-1.64,2.91-.61,2.87,0-1.35,1.14-2.3.64.78-1,3.33-1.27a11.36,11.36,0,0,1,5.07.76c1.07.29-3.16-2.93-3.27-6.24s-3.94-7-4.3-7.42,1.74,5.68,2.56,8.32-1.71,1.78-2.35-3.2-2.52-6.79-3.18-11.39-3.8-6.46-6.84-7.13-2.33-3.75.41-4,7.24,2.68,8.73,9.59,3.41,8.34,6.08,10.13,3.53,2.27,2.86,5.72,2.11,6.75,2.56,4.15.45-3.49-.66-7.2.44-3.11-4.68-6.91-1.19-6.15-5.35-11.87S88.92,34.14,84,33.1s-5.34.37-5.6-2,2.3-4,7.42-.93,8.61,7.8,12,10.1,5.27,7.28,7.73,9.87.74,3.49,4.08,8.39-.22,3.35,4.31,8.32c1.15,1.26,5.31,4.69,5.11,4.85-.38.3-2.4-2.56-6.15-2-2.46.36-3.78-6-4.09-7.39-1-4.75-1.4-10.09-6.53-13.06s-1.12-4-5.64-8.17S94.23,45.35,98.47,49s1,6.08,4.23,9.35,5.63,5,5.94,8.77,1.92,4.49-.08,3.92a16.16,16.16,0,0,0-5.12-.66c-2.6-.08-4.57.13-6.26,1.35s-3.75,2.4-4.2,3.07.67,1.1,1.19,1.28,2.61-1.93,2.69-2.59-1.73,0-2.83.72c-2,1.38-2.69,3.46.45,3.82s5.12-1.88,6-2.75a4.25,4.25,0,0,0,1.11-2.49c-.07.11-1,2.1-.48,2.75s1,.15,2-1.39,4.74-2.71,7.93-2.59,4.38-.78,5.28,0,1.28,1.76,1.68,4.25,1.55,5.44,1.07,5.07-.64-3.14-3-3.94-2.68-.33-2.08-1.19a7.18,7.18,0,0,0,1-1.56c0-.15-1,1.09-1.6,1.58s-2.56.09-4,.39a3.66,3.66,0,0,0-2.83,1.69c-.83,1.11-2.58,3.57-4.7,3.76s-2.85-.48-2.63-2,2.38-2.92,3-3.42,1.39.29-.12,2.12-1.78,1.13-2.57,1.59c-.37.22-.41.76.21,1.27s2.24,1.24,2.7,2c.85,1.33,0,3.79,1.67,4.38s3.79,1.41,4.9,3.72c1,2-.55-.44,2.49.48,3.45,1,4.94,2.15,5.23,1.52s-3.34-.86-5.6-2.52-2.31-5.09-2.57-6.51-1.4.17-3.35-.14-1.36-1.76-.74-2.58,1.76-1.58,2.11-2.41a5.31,5.31,0,0,1,1.32-1.64,4.35,4.35,0,0,0-1,2.85A2.82,2.82,0,0,1,104.72,83c-.81,0-.43,1,2.07.52s3.29-1.26,3.61-2.32.16-3,.5-1.79-.17,2.18,1.24,2.27a9.23,9.23,0,0,0,3.72-.52c.55-.3-.14.24-1.43,1s-1,2.38.33,3.87,5.79,1.55,5.61-.56-.83-3.31-.83-2.86a47.91,47.91,0,0,1,.9,6.83,60,60,0,0,0,.78,10.28c.74,4.9-1.78,7.58-1.56,11S122,121.2,122,121.2"/></g></svg>