<svg width="126" height="169" viewBox="0 0 126 169" fill="none" xmlns="http://www.w3.org/2000/svg">
<path d="M35.1704 93.6429C35.1704 93.6429 34.5031 89.6548 37.1625 86.9727C39.822 84.2906 41.0471 80.442 39.7423 74.1307C38.4375 67.8194 32.2819 66.8522 27.5507 67.2012C22.8194 67.5501 18.9349 70.5413 20.2098 72.5354C21.4847 74.5295 26.1861 75.1178 28.5268 74.5295C30.7714 73.8243 32.9788 73.0057 35.1406 72.0768C34.2195 71.0954 33.1425 70.2733 31.9532 69.644C29.9684 68.7507 27.7255 68.6159 25.6482 69.2651C23.2477 70.0727 26.4949 74.7289 28.5069 74.4796C30.5189 74.2304 32.0528 71.7178 31.5847 70.4914C31.1165 69.2651 29.6424 68.0786 23.8753 69.8434C18.1081 71.6081 13.3072 76.8227 13.3072 74.9183C13.3072 73.014 12.3111 68.936 13.3072 67.6499C14.3032 66.3637 14.9407 63.4523 22.7597 64.559C30.5787 65.6657 37.4813 66.8722 36.6047 65.556C35.7282 64.2399 33.2879 61.7872 28.0786 61.9567C22.8693 62.1262 25.2896 60.5708 18.8353 60.7403C12.3809 60.9098 13.1478 65.8651 12.859 65.0376C12.5701 64.21 12.4705 58.7163 12.859 50.032C13.2474 41.3477 15.0403 33.9097 16.5244 31.1478C18.0085 28.386 16.3949 26.2723 13.9447 27.0599C11.4944 27.8476 7.71937 30.6593 8.38672 30.3901C9.05407 30.1209 13.4964 27.2394 11.0163 31.756C8.12395 36.8281 5.89131 42.2494 4.37265 47.8883C2.45028 54.8677 5.24917 55.5158 3.66546 59.3743C2.08174 63.2329 -0.956203 69.5442 1.96222 66.264C4.88063 62.9837 9.39273 59.7233 8.0381 64.559C6.68348 69.3947 7.56 70.0328 9.87083 68.1583C12.1817 66.2839 10.8669 69.0657 11.6737 73.1436C12.4805 77.2215 14.5821 84.5 14.9806 86.3346C15.379 88.1691 16.1559 91.8981 15.6877 91.9978C15.2196 92.0975 12.5402 91.1703 12.8391 87.7903C13.1379 84.4103 12.7494 76.9224 13.4068 79.3652C14.0642 81.808 15.8969 90.7715 16.7336 94.63C17.9431 100.129 19.6706 105.5 21.8931 110.673C23.9025 114.489 26.3097 118.082 29.0746 121.391C31.4386 124.342 34.1097 127.032 37.043 129.417C39.4933 131.172 46.7545 132.309 52.1232 131.411C57.4919 130.514 60.8187 127.423 63.4383 123.435C66.0579 119.447 67.3627 113.654 66.3567 109.935C65.3507 106.216 59.8923 106.774 55.6193 109.755C51.6333 112.361 46.8997 113.577 42.1527 113.215C38.6666 112.876 35.7382 110.812 35.1206 109.546C34.5031 108.28 33.8357 109.257 37.3518 108.788C40.8678 108.32 39.4236 108.24 42.332 108.459C45.2405 108.678 45.7485 108.389 49.1549 108.16C52.5614 107.931 56.0376 107.891 57.3524 107.652C58.1422 107.506 58.907 107.247 59.6234 106.884C59.6234 106.884 55.5097 106.884 53.418 106.026C51.3263 105.169 49.4338 104.252 47.5712 104.8C45.7086 105.348 44.8421 106.096 43.6568 105.797C42.4715 105.498 41.1866 104.63 39.2642 105.438C37.3418 106.246 34.3437 107.941 32.2221 108.21C30.5986 108.419 39.4236 107.342 41.8639 105.378C44.3042 103.414 41.8639 98.8376 41.6049 97.8306C41.3459 96.8235 40.3001 94.0418 37.81 93.4735C35.3198 92.9051 35.3597 95.3479 37.3119 95.1984C39.2642 95.0488 39.8817 97.4517 42.9894 97.3719C46.0971 97.2922 44.4038 95.3778 46.7644 93.8922C49.3442 92.2172 53.4877 93.9819 47.8402 95.2881C46.9437 95.5074 46.0473 95.6171 47.4716 95.8564C50.1111 96.315 52.8204 95.6071 53.9061 93.5432C55.6691 90.2131 52.9997 87.7903 50.9179 86.0953C49.7526 85.0982 49.0753 84.8191 48.8462 81.2496C48.3183 73.5324 48.3979 67.929 50.41 64.6786C52.422 61.4283 54.1651 59.6934 56.7946 59.2846C59.4242 58.8758 63.2191 59.3345 67.4025 58.0582C71.5859 56.782 72.084 57.1409 75.0024 59.0553C77.9208 60.9696 76.9447 62.5649 73.5481 62.5649C70.1516 62.5649 59.3345 61.3983 54.8025 63.1831C50.2705 64.9678 49.9518 72.655 52.3124 71.4287C54.673 70.2023 57.7309 67.6598 61.5757 67.1713C65.4204 66.6827 67.2531 68.8862 66.6455 70.7208C66.0379 72.5553 62.9701 73.3131 61.1772 71.8574C59.3843 70.4017 60.2808 67.4205 61.8446 67.1414C63.7784 66.847 65.754 67.246 67.4224 68.268C69.4743 69.4545 69.8329 70.4615 69.8329 70.4615C69.8329 70.4615 67.6515 72.7847 62.8606 73.353C61.11 73.5387 59.345 73.1761 57.809 72.3154C56.273 71.4546 55.0416 70.1381 54.2846 68.5472C53.667 66.8024 62.6713 63.0235 71.7553 67.5501C76.0781 69.7237 80.0224 70.5413 82.8711 71.987C85.2617 73.1934 86.8553 75.4667 87.1143 73.5823C87.184 72.9841 83.3592 70.0926 83.419 64.2001C83.419 59.5638 83.7178 56.5826 80.8591 51.2384C77.2833 44.618 84.415 44.5183 81.4269 36.3624C78.4387 28.2065 73.2593 25.9233 62.9502 23.5603C52.6411 21.1973 64.7829 22.0647 73.339 22.1545C81.895 22.2442 69.2353 16.8003 60.0716 19.9609C50.908 23.1216 54.8224 19.3428 60.3306 17.239C65.8387 15.1352 57.452 15.3147 50.8881 18.7346C44.3241 22.1545 47.7406 17.4284 53.9459 14.7464C60.1513 12.0643 48.0991 13.869 43.1986 18.7346C38.298 23.6002 37.2223 18.2061 44.1946 14.0783C51.167 9.95056 49.5235 9.17286 41.7543 13.0813C33.9851 16.9897 34.2342 20.4495 31.9632 21.2372C29.6922 22.0248 30.8277 17.4683 37.2123 12.8221C43.597 8.17581 31.0866 13.4303 27.9391 18.6947C24.7916 23.9591 23.0485 22.6829 24.8813 18.8642C26.714 15.0455 21.0066 20.6888 18.387 24.348C15.7674 28.0071 11.9725 21.8952 17.0324 13.6496C22.0923 5.40401 28.3575 2.74189 34.3736 1.68501C37.4003 1.05197 40.485 0.737849 43.5771 0.747787C43.5771 0.747787 32.77 1.54543 27.0427 5.5436C21.3154 9.54177 29.7021 5.75298 35.3398 3.91841C40.9774 2.08383 45.5692 0.149557 59.3744 1.74484C73.1796 3.34012 78.4387 10.5787 83.917 10.14C89.3953 9.7013 84.8433 12.4133 90.3913 19.6917C95.9393 26.9702 97.9115 30.2106 100.003 31.6563C102.095 33.1021 97.3636 31.3572 95.4911 29.7819C93.6185 28.2065 96.9851 34.7671 99.4753 43.0227C100.485 46.6207 101.723 50.1508 103.181 53.5914C101.766 52.6181 100.434 51.5311 99.1964 50.3411C96.6664 47.9681 98.5489 51.697 99.8537 56.1838C101.159 60.6705 97.4931 56.6125 96.4971 55.1867C95.501 53.7609 96.3178 58.5169 97.2341 61.4582C97.798 63.3009 97.7253 65.28 97.0278 67.0763C96.3303 68.8725 95.0485 70.3812 93.3894 71.3589C89.2857 73.8216 88.4988 76.5435 88.6781 80.7411C88.8574 84.9387 85.8792 87.2319 87.2737 90.1333C88.6681 93.0348 93.25 90.3028 95.3118 87.6706C97.3736 85.0384 98.2999 74.8785 97.8417 71.7976C97.3836 68.7167 92.9511 71.4087 94.6544 74.3899C96.3576 77.3711 94.3755 84.0214 91.6065 84.5897C88.8375 85.1581 86.6262 88.9369 85.3115 95.8564C83.9967 102.776 83.5684 105.757 79.9029 111.38M125.253 146.616C116.956 142.947 113.729 143.077 108.569 141.093C103.41 139.108 102.473 137.633 99.784 136.775C97.0947 135.918 94.0468 137.025 96.0488 137.463C99.8737 138.291 102.314 138.181 100.202 142.877C98.7979 145.988 95.4911 150.375 90.0825 154.842C80.5504 162.649 64.1255 169.229 46.2564 168.172C28.3874 167.116 19.8711 163.087 17.0723 153.087C14.2734 143.087 15.4089 140.903 18.2974 139.128C21.1859 137.354 22.0326 137.334 24.7319 135.429C28.7758 132.568 28.477 133.734 27.5308 135.1C25.3594 138.261 23.7657 136.805 21.7338 139.587C20.6946 141.177 20.1791 143.053 20.2596 144.951C20.2098 160.395 33.6465 164.892 47.4816 164.892C62.7012 164.892 85.5903 158.361 95.8596 143.745C98.28 140.305 98.2302 139.557 96.3676 138.989C90.8993 137.324 89.3056 136.765 84.0564 133.286C79.6838 130.394 81.138 121.889 81.8353 116.535C82.5325 111.181 80.6101 113.474 76.8052 117.193C73.0003 120.912 63.7271 125.997 63.7271 125.997L125.253 146.616Z" stroke="#2EB80B" stroke-width="1.5" stroke-linecap="round" stroke-linejoin="round"/>
</svg>
