<svg width="126" height="169" viewBox="0 0 126 169" fill="none" xmlns="http://www.w3.org/2000/svg">
<path d="M125 146.303C116.67 142.616 113.429 142.748 108.248 140.762C103.077 138.786 102.132 137.289 99.43 136.433C96.7379 135.577 93.6699 136.678 95.6814 137.116C99.5214 137.951 101.97 137.839 99.8465 142.555C98.4446 145.672 95.1226 150.072 89.6876 154.524C80.1179 162.347 63.63 168.947 45.6487 167.888C27.6674 166.829 19.1644 162.785 16.3504 152.761C13.5465 142.738 14.6843 140.538 17.5796 138.735C20.4749 136.932 21.3282 136.942 24.0407 135.027C28.1042 132.165 27.7995 133.326 26.8547 134.701C24.6705 137.869 23.0654 136.413 21.0336 139.204C19.9568 140.67 19.5606 142.575 19.5504 144.582C19.4996 160.065 32.9907 164.608 46.8779 164.618C62.1569 164.628 85.1364 158.068 95.4477 143.411C97.8757 139.957 97.835 139.214 95.9556 138.643C90.4698 136.973 88.8749 136.413 83.6024 132.919C79.2137 130.016 80.6665 121.49 81.3674 116.122C82.0684 110.754 80.1382 113.046 76.3185 116.784C72.5089 120.522 63.1931 125.605 63.1931 125.605M34.5551 93.1725C34.5551 93.1725 33.8948 89.1897 36.5768 86.4802C39.2486 83.7808 40.4778 79.9305 39.1673 73.6049C37.8466 67.2691 31.6802 66.3014 26.9258 66.6477C22.1714 67.0042 18.2602 69.948 19.5403 71.9955C20.8101 74.0429 25.5239 74.5929 27.8909 73.9512C30.2579 73.3095 34.5348 71.4862 34.5348 71.4862C34.5348 71.4862 32.8484 69.7036 31.3348 69.0517C29.8211 68.3896 27.4337 67.9006 25.0159 68.7155C22.6082 69.5304 25.8693 74.1957 27.8909 73.9512C29.9125 73.7067 31.4465 71.1806 30.9792 69.9684C30.522 68.7665 29.0287 67.5543 23.2381 69.3165C17.4475 71.0685 12.6322 76.3042 12.6322 74.4096C12.6322 72.5251 11.6671 68.3896 12.6728 67.1163C13.6786 65.843 14.2475 62.889 22.1003 63.9891C29.9531 65.0893 36.8815 66.3218 36.0079 64.9568C35.124 63.5919 32.6757 61.1778 27.454 61.3509C22.2324 61.5241 24.64 60.0369 18.1586 60.1693C11.6671 60.3018 12.4493 65.3133 12.1446 64.4781C11.8398 63.6428 11.7484 58.1423 12.1852 49.4331C12.6322 40.724 14.3795 33.2575 15.8729 30.4869C17.3662 27.7163 15.7408 25.5975 13.2824 26.3921C10.8341 27.1866 7.0143 30.0387 7.67463 29.7331C8.33496 29.4275 12.8049 26.5652 10.3058 31.0981C7.8067 35.6309 5.57173 40.2452 3.64154 47.2839C1.71135 54.3123 4.51521 54.9337 2.93042 58.8044C1.35578 62.6751 -1.71221 68.96 1.22372 65.7106C4.15964 62.451 8.68036 59.1507 7.31907 64.0401C5.95777 68.9192 6.8416 69.5304 9.15783 67.646C11.4842 65.7513 10.1229 68.5627 10.9661 72.6576C11.7992 76.7422 13.8919 83.9846 14.2881 85.8384C14.6843 87.6923 15.4665 91.4205 14.9992 91.5223C14.5217 91.6242 11.8398 90.687 12.1446 87.2951C12.4493 83.9133 12.0531 76.3959 12.7135 78.8507C13.3738 81.3158 15.2126 90.2898 16.0456 94.1605C16.8786 98.0313 18.9002 105.192 21.2266 110.255C22.5981 113.239 25.7474 117.711 28.4395 121.032C29.6687 122.682 33.9354 127.327 36.3939 129.079C38.8524 130.841 46.1363 131.982 51.5307 131.106C56.9251 130.23 60.2572 127.143 62.8884 123.099C65.5195 119.055 66.83 113.29 65.8243 109.562C64.8186 105.824 59.3327 106.394 55.0355 109.379C50.7383 112.373 45.0391 113.209 41.5242 112.852C38.0193 112.506 35.0834 110.438 34.4637 109.165C33.8542 107.881 33.1735 108.88 36.6987 108.411C40.234 107.953 38.7812 107.861 41.707 108.085C44.6226 108.299 45.1407 108.014 48.5643 107.779C51.9878 107.535 55.4724 107.515 56.793 107.27C58.1035 107.026 59.0686 106.496 59.0686 106.496C59.0686 106.496 54.9441 106.496 52.8412 105.64C50.7383 104.785 48.8284 103.858 46.9693 104.408C45.1001 104.958 44.2264 105.712 43.0378 105.447C41.8594 105.182 40.5591 104.275 38.6289 105.09C36.6987 105.905 33.6916 107.596 31.5583 107.871C29.9328 108.085 38.7914 107.005 41.2397 105.029C43.6982 103.043 41.2397 98.4693 40.9756 97.4608C40.7216 96.4524 39.7057 93.5697 37.2066 92.9789C34.7075 92.378 34.7482 94.8634 36.7088 94.7106C38.6593 94.5578 39.2892 96.9719 42.408 96.8904C45.5166 96.7987 43.8302 94.9347 46.1973 93.3966C48.7878 91.7159 52.9529 93.4882 47.2843 94.8023C46.3801 95.0162 45.476 95.1282 46.9084 95.3727C49.5599 95.8311 52.2825 95.118 53.3695 93.0502C55.1371 89.7092 52.4552 87.2849 50.3929 85.5838C49.2246 84.6263 48.544 84.3003 48.3103 80.725C47.7821 72.9835 47.8633 67.3608 49.8849 64.1012C51.9066 60.8518 53.6539 59.0896 56.2851 58.6923C58.9162 58.3053 62.736 58.7433 66.9418 57.4598C71.1577 56.1866 71.6352 56.5431 74.5711 58.4275C77.5172 60.3221 76.5013 61.9519 73.0879 61.9927C69.6644 62.0334 58.8248 60.8213 54.2736 62.614C49.7122 64.3966 49.3973 72.1075 51.7745 70.875C54.1415 69.6425 57.2095 67.0959 61.0699 66.607C64.9303 66.1282 66.7691 68.3284 66.1595 70.1721C65.5398 72.0158 62.4719 72.7696 60.6737 71.313C58.8756 69.8666 59.7696 66.8616 61.3442 66.5764C62.9087 66.3014 64.8795 66.5255 66.9418 67.7071C69.004 68.8989 69.3596 69.9073 69.3596 69.9073C69.3596 69.9073 67.1653 72.2399 62.3804 72.8104C57.6057 73.3808 54.3549 69.7341 53.7453 67.9719C53.1256 66.2199 62.1671 62.4307 71.2898 67.0042C75.6277 69.1841 79.5896 69.9888 82.4544 71.4454C84.852 72.6576 86.4977 74.9393 86.711 73.0548C86.7821 72.4538 82.9421 69.5508 83.003 63.6428C83.0437 58.9877 83.2976 56.0032 80.4328 50.6657C76.8366 43.9835 84.0291 43.9021 80.9611 35.7226C77.8829 27.5431 72.8035 25.2512 62.4515 22.8778C52.0996 20.5045 64.2903 21.3805 72.8847 21.4721C81.4792 21.5536 68.7602 16.104 59.5562 19.2719C50.3421 22.4398 54.2939 18.6506 59.8204 16.5421C65.3468 14.4335 56.9251 14.6067 50.3421 18.0394C43.7693 21.4721 47.1827 16.7254 53.4101 13.9955C59.6375 11.2656 47.5382 13.1195 42.6213 18.0394C37.7146 22.9695 36.5768 17.5097 43.5864 13.3742C50.6062 9.24877 48.9402 8.45425 41.1381 12.4065C33.3259 16.3689 33.59 19.8016 31.3144 20.586C29.0287 21.3805 30.1665 16.8069 36.5768 12.1518C42.9769 7.48656 30.4306 12.763 27.2712 18.0394C24.1219 23.3158 22.3644 22.0018 24.2032 18.2126C26.0521 14.4335 20.3428 19.9748 17.7116 23.6724C15.0805 27.3597 11.2709 21.2073 16.3504 12.9362C21.44 4.67518 27.7182 2.03697 33.7627 0.936867C39.8175 -0.163237 42.9769 0.00992751 42.9769 0.00992751C42.9769 0.00992751 32.1475 0.804447 26.3975 4.8076C20.6577 8.80058 29.0693 5.02151 34.7278 3.17782C40.3864 1.33413 44.9985 -0.601242 58.8553 0.977612C72.712 2.55647 77.9744 9.85994 83.5008 9.42193C89.0273 8.98393 84.4253 11.7036 90.033 19.0071C95.6509 26.3106 97.5811 29.56 99.684 31.0573C101.787 32.5547 96.9614 30.7008 95.1226 29.1219C93.2839 27.5431 96.616 34.1335 99.1557 42.4047C101.706 50.6657 102.843 52.9575 102.843 52.9575C102.843 52.9575 101.441 52.0713 98.8916 49.698C96.3518 47.3246 98.2414 51.0629 99.5519 55.555C100.873 60.0369 97.1849 55.993 96.1791 54.5364C95.1633 53.09 95.9963 57.8775 96.9207 60.8314C97.8452 63.7752 97.1849 68.3081 93.0604 70.7629C88.9358 73.228 88.1536 75.9579 88.3263 80.1749C88.499 84.4022 85.5224 86.6839 86.9244 89.5869C88.3263 92.49 92.8877 89.7601 94.9906 87.1219C97.0934 84.4837 97.9773 74.2873 97.5303 71.2009C97.0934 68.1247 92.6235 70.8139 94.3302 73.7984C96.0471 76.7931 93.9848 83.516 91.2216 84.0864C88.4584 84.6568 86.2234 88.4461 84.9027 95.3931C83.5922 102.34 83.1453 105.325 79.4677 110.957C75.78 116.59 65.4789 124.108 63.1931 125.605L34.5551 93.1725Z" stroke="#2EB80B" stroke-width="1.5" stroke-linecap="round" stroke-linejoin="round"/>
</svg>
