<svg width="126" height="158" viewBox="0 0 126 158" fill="none" xmlns="http://www.w3.org/2000/svg">
<path d="M57.3005 137.145C65.2473 137.092 74.1667 134.107 78.4796 127.12C81.372 122.454 83.3688 109.621 83.3688 109.621C83.3688 109.621 79.56 120.132 79.0428 120.184C78.5135 120.231 78.663 107.793 78.2099 105.196C77.7641 102.615 72.5115 102.597 72.5115 102.597C72.5115 102.597 72.709 104.143 72.7032 104.543M74.2046 104.512C74.2046 104.512 71.0547 109.218 66.8564 112.8C62.6582 116.382 53.974 117.908 50.3456 116.081C46.7101 114.236 46.1768 109.837 44.1118 106.738C42.0518 103.626 45.2372 101.954 49.1598 102.001C53.0702 102.043 55.9744 103.206 58.4361 102.553C60.8906 101.882 63.8044 101.338 68.2132 101.234C72.6341 101.136 77.9396 103.865 77.6898 101.852C77.4349 99.8518 76.3445 95.604 72.0637 90.7254C67.7878 85.8344 63.5206 83.6937 64.561 85.7499C65.6087 87.8234 63.8854 90.0525 62.0201 89.9668C60.1427 89.8763 55.8642 91.6571 55.8613 92.5764C55.8706 93.5005 56.4221 93.4338 59.203 91.8153C61.9789 90.2092 60.901 92.2797 56.7652 93.9883C52.6465 95.6893 48.6372 96.6288 46.6806 91.7176C44.724 86.8065 49.6891 80.8713 49.5767 74.4842C49.5383 72.0363 48.6636 70.2435 47.3983 68.9233M47.3983 68.9233C45.3648 66.8015 42.3226 65.9005 40.1224 65.4624C38.641 65.174 37.6746 65.4924 37.1407 66.0814M47.3983 68.9233C47.0102 69.721 46.3188 70.2929 45.5117 70.4398C43.221 70.8454 41.0329 72.1548 37.5647 71.3696C34.0965 70.5844 33.3793 71.1311 32.3511 70.518C31.4633 70.0036 33.9594 66.7072 37.1407 66.0814M47.3983 68.9233C48.114 67.4521 47.7978 65.213 45.2721 63.4553C41.3598 60.7521 34.3064 58.2431 26.9387 65.9483C19.571 73.6535 22.9742 82.1066 26.3688 94.7556C29.7512 107.4 31.3705 112.233 34.5499 115.031C37.7292 117.829 42.3224 125.723 42.9412 125.525C43.5477 125.323 42.8886 124.498 42.1021 121.954C41.3106 119.422 39.977 116.126 37.6399 112.472C35.3079 108.806 35.9616 105.645 36.4847 108.069C37.0028 110.506 40.2912 114.297 42.4181 120.786C44.54 127.288 47.4627 131.176 49.4544 133.686C51.4461 136.195 54.6002 137.055 54.6002 137.055L55.1454 138.022C55.1454 138.022 63.9382 156.328 66.0085 156.783C68.0716 157.221 75.9401 158.029 87.6233 147.364C99.3186 136.704 104.702 117.806 104.702 117.806C104.702 117.806 108.197 107.126 106.847 105.378C105.481 103.637 105.145 97.6632 104.378 95.7021C104.212 95.305 100.92 95.9423 100.876 92.2285C102.054 95.9076 104.687 94.7617 105.013 94.6911C105.808 94.5492 107.061 94.2891 107.798 92.01C109.121 87.9665 109.127 84.8629 111.127 77.7399C113.139 70.6219 111.272 66.1205 109.556 65.246C107.851 64.3763 110.134 69.2168 109.571 74.6432C109.014 80.0573 108.239 76.3962 106.874 74.1956C105.509 71.995 107.097 79.9941 106.346 82.4833C105.583 84.9676 102.865 85.202 102.174 84.4217C101.495 83.6464 105.312 78.8332 104.768 77.7237C104.211 76.6092 101.715 82.7855 99.6189 83.6572C97.5105 84.524 99.6647 77.9662 98.5752 72.4532C98.3214 71.1867 98.3096 69.9883 98.3681 68.8613C98.3681 68.8613 97.8146 68.582 91.9668 65.4055C86.114 62.2414 81.1685 64.1289 73.7685 62.9336C66.3635 61.7507 63.5422 65.5389 68.0681 64.6194C68.6372 64.5038 69.1398 64.4247 69.5843 64.3756M37.1407 66.0814C36.3909 66.9086 36.4944 68.2698 37.2228 69.2337C38.4772 70.901 40.3913 71.0062 41.5401 69.8125C42.6889 68.6189 41.6674 67.2174 43.2159 67.9815C44.7644 68.7456 45.3135 69.8427 45.2707 69.1066C45.2208 68.3531 42.8014 66.6218 38.8858 66.0313C38.2926 65.9433 37.7058 65.9702 37.1407 66.0814ZM69.5843 64.3756C70.0356 64.3258 70.4271 64.3068 70.7678 64.3119M69.5843 64.3756C69.5488 64.3811 69.5134 64.387 69.4781 64.3932C65.8191 65.0272 64.2885 67.0602 64.1976 67.671C64.0917 68.3189 64.0445 68.4006 64.0445 68.4006C64.0445 68.4006 65.267 66.6037 66.2927 66.0654C67.3306 65.532 67.2533 66.5653 67.6199 67.5175C67.9865 68.4696 70.7119 69.058 71.8893 68.2497C73.0595 67.4241 73.7092 65.8868 73.3184 65.4857C73.0713 65.2474 72.8579 64.6431 71.7236 64.4074M69.5843 64.3756C69.9709 64.3155 70.3679 64.2969 70.7678 64.3119M70.7678 64.3119C71.1445 64.3174 71.4591 64.3524 71.7236 64.4074M70.7678 64.3119C71.0858 64.3238 71.4057 64.357 71.7236 64.4074M71.7236 64.4074C74.7761 64.8913 77.6481 66.9632 77.0051 67.0632C76.2033 67.1878 73.0034 69.7027 68.8939 68.8906C64.7893 68.0662 65.6674 69.0507 61.4419 68.9113C57.2165 68.7719 58.2942 62.3869 59.7851 60.6976C61.2883 59.0131 66.738 54.2643 80.1582 58.8059C93.5734 63.3598 98.432 67.9665 98.432 67.9665C98.7424 64.5674 99.4991 61.6779 96.6173 58.7403C92.5484 54.565 95.291 49.9543 89.4388 41.5268C83.5987 33.1043 79.1997 34.3766 69.1613 34.1666C59.1279 33.9442 58.7635 26.9528 53.8848 21.8347C49.0233 16.7091 42.1764 15.5484 42.1764 15.5484C42.1764 15.5484 49.502 18.2958 53.4206 23.1588C57.3219 28.0291 58.5572 29.9189 57.1601 31.5165C55.7629 33.114 55.9895 29.7821 48.1727 25.7593C40.3559 21.7365 36.3714 22.9304 36.3714 22.9304C36.3714 22.9304 42.7428 23.2679 48.7375 27.3086C54.7273 31.3617 53.53 32.7804 51.4614 33.8645C49.4099 34.9411 47.0425 38.6235 40.2864 36.2912C33.5375 33.9761 30.1866 36.6893 29.2127 38.327C28.2389 39.9647 29.1288 45.3401 25.2078 52.9016C21.2746 60.4581 23.2917 66.9035 22.3312 71.5953C21.3706 76.2871 22.145 80.2645 22.6337 84.1418C23.1347 88.024 20.3369 86.1412 19.8498 80.0498C19.375 73.9633 19.7084 73.9099 16.9533 69.8869C14.2104 65.8688 17.7358 59.9178 14.9107 51.4374C12.0906 42.9446 16.2961 35.6266 21.0177 29.522C25.7344 23.4298 22.9471 23.2049 27.9203 18.3372C32.8762 13.4769 35.0298 7.86803 40.8514 8.93442C46.673 10.0008 49.4026 10.9648 47.3687 9.96312C45.3349 8.96149 43.9559 9.28637 41.6341 7.59412C39.3195 5.91914 48.8007 6.27989 53.1364 2.95443C57.4892 -0.378513 66.3506 0.884432 73.7567 4.23938C81.1557 7.57705 86.4339 11.2157 88.2054 18.9002C89.9769 26.5846 89.1185 35.6892 89.4322 35.3691C89.7459 35.0489 90.5912 26.3274 89.5913 21.2242C88.5742 16.1285 87.6367 12.9055 91.0616 14.4644C94.4987 16.0281 105.969 25.2535 109.273 34.6881C112.585 44.1399 109.782 61.914 109.782 61.914" stroke="#E65590" stroke-width="1.5" stroke-linecap="round" stroke-linejoin="round"/>
</svg>
