<svg width="124" height="159" viewBox="0 0 124 159" fill="none" xmlns="http://www.w3.org/2000/svg">
<path d="M82.9364 141.708C90.8926 138.445 98.6354 131.832 100.13 123.044C101.14 117.171 97.938 103.424 97.938 103.424C97.938 103.424 98.3792 115.561 97.881 115.822C97.3687 116.083 92.4725 103.482 90.9638 101.045C89.4693 98.6236 84.1889 100.726 84.1889 100.726C84.1889 100.726 85.0144 102.205 85.171 102.612C85.3276 103.032 83.6908 104.54 83.6908 104.54L81.812 102.075C81.812 102.075 83.1926 104.569 83.2495 104.729C83.3065 104.888 82.0824 106.005 81.812 106.034C81.5273 106.077 79.7055 102.263 79.7055 102.263C79.7055 102.263 81.3423 105.918 81.4989 106.266C81.6554 106.614 79.734 107.76 79.0793 107.702C78.4103 107.644 76.6027 104.062 76.6027 104.062C76.6027 104.062 78.5811 107.861 78.6665 108.311C78.7661 108.76 76.5316 110.167 75.9053 110.355C75.2791 110.544 73.3718 106.614 73.3718 106.614L75.1794 110.138C75.1794 110.138 75.5353 110.805 74.7524 111.704C73.9554 112.589 71.5785 113.111 71.5785 113.111M71.5785 113.111L69.5432 108.601C69.5432 108.601 71.4789 112.661 71.5785 113.111ZM71.5785 113.111C71.6639 113.56 68.5326 114.996 67.7213 114.706C66.8958 114.416 65.4583 110.544 65.4583 110.544C65.4583 110.544 66.9955 114.068 67.0951 114.314C67.1805 114.575 67.1236 115.155 65.3017 114.735C63.4799 114.314 61.8431 111.501 61.8431 111.501C61.8431 111.501 62.384 112.342 63.8215 113.836C65.2733 115.344 64.0777 117.229 61.6581 115.721C59.2385 114.227 58.171 112.4 59.1816 114.836C60.1779 117.258 64.7609 120.144 67.5221 120.274C76.4319 120.68 84.2601 109.804 86.6655 101.973C86.6655 101.973 85.4129 107.992 82.6518 113.299C79.8906 118.607 71.792 123.653 67.4082 123.276C63.0102 122.885 60.6903 118.665 57.3597 116.373C54.0292 114.068 56.5485 111.095 60.5052 109.558C64.4478 108.021 67.8352 108.021 70.0413 106.367C72.2332 104.7 74.9375 102.974 79.3212 101.089C83.7192 99.2036 90.1525 99.8127 89.0851 97.884C88.0176 95.9698 85.1995 92.1269 78.9227 88.9365C72.646 85.7317 67.4936 85.2966 69.3724 86.9498C71.2654 88.6175 70.4399 91.5613 68.5326 92.2284C66.6112 92.8955 63.0387 96.4193 63.4088 97.3474C63.793 98.2755 64.3197 97.9855 66.4546 95.2302C68.5896 92.4894 68.3476 95.0127 64.889 98.4061C61.4446 101.785 57.801 104.352 53.8442 100.19C49.8874 96.0278 52.4636 88.0374 49.7593 81.6423C47.0693 75.2471 40.4794 75.6386 36.608 76.3637C32.7509 77.1033 33.306 80.1776 35.2274 81.3377C37.1631 82.5123 39.1273 81.8453 39.7962 80.1776C40.4652 78.5099 38.8711 77.5093 40.7356 77.6543C42.6001 77.7993 43.5964 78.6839 43.2548 77.9589C42.899 77.2193 39.7678 76.4507 35.5975 77.4368C31.413 78.4374 29.5627 84.412 30.8579 84.6006C32.1389 84.8036 32.637 83.9625 36.4372 83.3534C40.2375 82.7444 41.9027 80.5401 44.0377 79.206C46.1726 77.8573 45.9733 73.4199 40.9633 72.2597C35.9391 71.1141 27.8405 71.4332 23.5706 82.1788C19.3007 92.9245 26.1468 100.074 34.6866 111.457C43.2121 122.841 46.7989 127.061 51.1257 128.598C55.4525 130.135 63.2664 136.241 63.8073 135.791C64.3339 135.342 63.3376 134.776 61.5158 132.528C59.6939 130.295 57.0181 127.511 53.1895 124.77C49.3608 122.015 48.7345 118.563 50.2432 120.796C51.7519 123.044 56.5912 125.538 61.3592 131.223C66.1273 136.922 70.6391 139.663 73.6565 141.389C76.6739 143.114 80.1894 142.708 80.1894 142.708L81.1288 143.462C81.1288 143.462 97.3829 158.37 99.6459 157.993C101.895 157.601 110.121 155.238 117.523 139.765C124.938 124.291 122.675 103.061 122.675 103.061C122.675 103.061 121.849 90.8797 119.786 89.6616C117.708 88.458 114.946 82.5703 113.381 80.9027C113.053 80.5691 110.008 82.5414 108.456 78.8144C111.132 82.0483 113.31 79.8296 113.608 79.6265C114.349 79.1625 115.501 78.3939 115.316 75.7981C115.003 71.1866 113.751 68.0543 112.868 60.0639C112 52.0736 108.3 48.2887 106.222 48.1001C104.158 47.9116 108.413 51.8706 110.05 57.5697C111.687 63.2543 109.424 59.8754 107.161 58.2077C104.898 56.5401 109.737 63.9649 109.993 66.7782C110.235 69.5915 107.602 70.9256 106.592 70.418C105.595 69.9105 107.474 63.5153 106.478 62.6162C105.467 61.7171 105.467 68.9534 103.717 70.6791C101.952 72.4048 101.454 64.922 98.123 59.8029C97.3544 58.6283 96.8563 57.4246 96.4577 56.2645C96.4577 56.2645 95.7888 56.2065 88.6296 55.3654C81.4704 54.5388 77.2717 58.4398 69.3581 60.2235C61.4446 62.0216 60.1494 66.9812 64.3197 64.2259C68.4899 61.4706 69.3724 62.7467 69.9417 62.9787C70.4968 63.2253 70.4683 65.038 69.6286 66.3431C68.7746 67.6337 65.7999 68.1413 65.0455 67.3292C64.2912 66.5171 63.9496 65.444 63.1241 66.4011C62.3128 67.3582 61.8147 69.664 61.8147 69.664C61.8147 69.664 61.8289 69.5625 61.6723 68.8664C61.5158 68.2138 62.2274 65.5455 65.6433 63.4283C69.0593 61.2966 75.0371 62.6307 74.2828 63.0803C73.5284 63.5298 71.3365 67.3582 66.8816 68.1993C62.4267 69.0259 63.7076 69.664 59.4093 71.2301C55.1109 72.7963 53.6022 65.9226 54.4135 63.6168C55.239 61.3111 58.783 54.3213 74.0977 53.4802C89.4124 52.6536 96.1588 55.3364 96.1588 55.3364C95.0914 51.7835 94.6786 48.5642 90.5938 46.766C84.8152 44.1992 85.6976 38.4421 76.4035 32.3079C67.1236 26.1738 63.2237 29.2336 53.0614 33.0765C42.899 36.9049 39.6966 30.0022 32.7224 26.8119C25.7625 23.607 18.4183 25.2022 18.4183 25.2022C18.4183 25.2022 26.8869 25.0137 32.7936 28.3345C38.6861 31.6699 40.6929 33.0765 39.9386 35.2518C39.1842 37.427 38.0598 33.9756 28.5806 33.0765C19.1015 32.1774 15.5859 34.9907 15.5859 34.9907C15.5859 34.9907 22.1189 32.7575 29.7762 34.4107C37.4336 36.0784 36.8073 37.9926 35.1705 39.9213C33.5479 41.8355 32.6655 46.505 24.937 46.882C17.2227 47.2736 14.9597 51.363 14.6465 53.4077C14.3334 55.4524 17.4077 60.5135 16.5395 69.722C15.6571 78.9305 20.297 84.6151 21.2364 89.7341C22.1758 94.8532 24.5669 98.5511 26.6307 102.263C28.7087 105.976 25.1363 105.207 22.1758 99.2616C19.2296 93.316 19.5427 93.1275 15.1447 90.1837C10.7609 87.2399 11.8853 79.8151 5.6086 72.4048C-0.668146 64.98 0.584358 55.902 2.8474 47.8391C5.11045 39.7908 2.22115 40.6898 5.23854 33.7726C8.2417 26.8699 8.12784 20.3442 14.4046 19.068C20.6813 17.7919 23.8126 17.6614 21.3645 17.4729C18.9164 17.2843 17.6639 18.1689 14.6465 17.4003C11.6434 16.6463 21.3076 13.1804 24.3107 8.07584C27.3281 2.95679 36.7361 0.651041 45.5321 1.04258C54.3139 1.41962 61.0888 2.95679 65.9849 9.99005C70.8811 17.0233 73.7134 26.5508 73.8985 26.1013C74.0835 25.6517 71.3935 16.5157 68.3191 11.7737C65.2306 7.04623 62.9818 4.17492 67.0524 4.36344C71.1373 4.55196 86.395 9.22146 93.54 17.4003C100.699 25.5937 105.097 44.6488 105.097 44.6488" stroke="#E65590" stroke-width="1.1" stroke-linecap="round" stroke-linejoin="round"/>
</svg>
