<svg width="126" height="158" viewBox="0 0 126 158" fill="none" xmlns="http://www.w3.org/2000/svg">
<path d="M91.2583 60.8585C90.9583 59.7185 89.9083 54.4786 90.2783 48.8187C90.6383 43.1589 90.3283 35.049 86.9484 27.9992C83.5684 20.9493 78.7785 16.8494 73.9586 18.1393C69.1487 19.4193 58.9089 19.2693 51.6291 17.7094C44.3492 16.1594 38.1193 14.3894 33.7694 16.5494C29.4195 18.6993 24.6596 25.0092 22.3796 31.7791C20.1097 38.5489 19.2597 52.1587 19.0597 55.3486C18.8597 58.5286 16.3698 59.2185 16.8698 58.0986C17.3597 56.9786 17.7097 45.9388 19.9097 36.349C22.1097 26.7592 23.2196 25.5792 28.8495 18.7993C34.4794 12.0295 40.4293 7.08956 54.169 6.25958C67.9088 5.4296 78.0486 11.3995 84.4784 20.4793C90.9183 29.5691 91.9683 32.3591 93.7182 44.2188C95.4682 56.0786 94.7682 61.1685 94.1082 62.5585C93.4382 63.9484 92.3883 65.6084 92.5183 68.6484C92.6483 71.6883 91.2683 74.2882 91.1983 73.5783C91.1383 72.8783 91.5383 68.4984 91.0883 63.4385C90.6383 58.3786 72.7787 50.8587 66.7988 51.7387C60.8289 52.6087 61.8089 56.1986 62.3189 57.1786C62.8389 58.1586 67.4588 57.9986 69.1487 57.5586C70.8387 57.1086 73.7286 57.0986 73.7286 57.0986C73.7286 57.0986 73.1786 56.4986 71.5187 55.5686C69.8587 54.6486 67.0088 54.3486 66.1788 54.7086C65.3488 55.0586 65.6588 57.3286 66.2288 57.3986C66.8088 57.4686 69.5687 57.6586 70.0387 56.9186C70.4987 56.1686 69.9987 54.7586 68.1787 54.5586C66.3688 54.3686 63.5088 54.7586 62.4589 56.6186C61.4089 58.4786 59.6789 58.7285 59.4589 55.8686C59.2489 53.0087 60.1189 49.6287 67.9188 49.3687C75.7286 49.0987 77.1286 52.0187 79.0285 52.2287C80.9385 52.4387 82.4485 52.9687 81.8885 51.9187C81.3285 50.8787 79.8885 48.2288 75.7786 46.3188C71.6687 44.4088 62.9688 44.1688 59.6189 45.8988C56.269 47.6188 57.649 52.6087 58.0989 57.6686C58.5589 62.7285 60.3489 65.2884 61.5189 67.0784C62.6989 68.8783 64.3288 69.4483 64.1388 72.1883C63.9488 74.9282 60.9589 74.8282 60.7589 74.1282C60.5489 73.4283 60.0289 73.0283 57.639 72.5183C55.259 72.0183 55.349 73.4083 56.119 73.4083C56.899 73.4083 57.389 73.9282 58.8989 73.8882C60.4089 73.8382 60.6489 73.1583 59.6889 72.7483C58.7289 72.3383 55.779 71.9283 55.419 73.0483C55.049 74.1582 54.709 74.7782 53.449 74.7682C52.1891 74.7582 52.2391 74.3182 50.9891 73.1183C49.7391 71.9183 47.8891 71.6783 47.6292 72.0883C47.3592 72.4983 47.7591 72.9483 48.9291 73.1383C50.0891 73.3383 51.8691 73.7183 50.9591 72.7983C50.0491 71.8783 47.4792 71.2983 46.9692 71.9683C46.4592 72.6483 47.6692 73.3883 47.0192 73.5583C46.3592 73.7283 44.2692 73.1983 43.8392 71.8683C43.3992 70.5283 43.8392 68.0284 46.2292 66.7684C48.6191 65.5084 49.6391 62.4785 50.0591 58.7585C50.4791 55.0386 50.8891 52.1187 42.7492 51.5187C34.6194 50.9087 32.8794 55.8786 33.9994 56.3686C35.1194 56.8686 37.8093 57.0186 40.4593 56.9586C43.1092 56.9086 46.4992 56.8786 46.4992 56.8786C46.4992 56.8786 46.2192 56.2686 44.4692 55.2586C42.7192 54.2486 40.5493 53.8886 39.2093 54.0886C37.8693 54.2786 38.0793 56.4286 38.5993 56.7486C39.1093 57.0686 41.9593 57.0286 42.7592 56.6286C43.5692 56.2286 43.8492 53.7086 38.3893 54.1286C32.9294 54.5486 26.1296 60.4385 25.1396 56.6286C24.1496 52.8187 25.3596 51.8587 30.7795 50.1087C36.1994 48.3688 44.5592 49.0987 47.7891 51.0387C51.0191 52.9787 52.7291 51.1587 50.7391 47.9088C48.7491 44.6588 42.1593 43.9688 34.7794 45.1488C27.4095 46.3288 20.0897 52.8887 19.2397 56.8786C18.3797 60.8785 17.1398 67.0884 17.8297 75.5382C18.5097 83.988 21.6597 89.4579 28.5695 90.3179C35.4794 91.1779 36.4094 92.9679 36.8894 97.4478C37.3694 101.938 39.7593 102.308 44.1692 102.268C48.5791 102.238 48.2491 96.8578 47.7291 94.0979C47.2092 91.3379 48.8591 91.7679 53.339 92.7879C57.829 93.8079 57.799 89.5479 58.0289 96.3678C58.2689 103.188 61.2789 104.918 66.1588 102.928C71.0487 100.938 71.4287 97.4378 69.9387 93.0679C68.4487 88.698 67.0188 87.928 67.0188 87.928C67.0188 87.928 64.3688 89.148 59.4389 89.4679C54.049 89.8079 44.9092 89.5379 40.4693 86.348C40.4693 86.348 41.2993 86.278 43.2692 85.738C45.2392 85.188 51.4891 85.368 55.549 85.498C59.6089 85.618 67.3288 87.098 67.3288 87.098C67.3288 87.098 66.1288 86.698 62.6989 85.558C59.2689 84.418 58.5289 83.8681 57.379 83.0181C56.229 82.1681 56.339 82.8881 54.629 83.5181C52.929 84.138 51.7691 83.4581 50.3291 82.6681C48.8991 81.8681 47.8791 81.8481 45.4092 83.3381C42.9392 84.818 38.6993 86.398 38.6993 86.398C38.6993 86.398 38.1693 87.248 38.3593 89.268C38.5493 91.2979 32.9594 91.1179 32.2595 88.358C31.5695 85.608 32.7194 82.6581 36.5194 81.4481C40.3293 80.2381 43.5592 79.0881 44.7692 76.8482C45.9892 74.6082 49.1791 75.0882 51.9091 76.3782C54.629 77.6682 58.6089 74.7782 60.7189 76.2182C62.8389 77.6582 63.3288 79.3181 66.9788 80.5381C70.6287 81.7581 73.9086 80.7781 73.6886 85.198C73.4586 89.6179 78.2285 92.8279 80.4385 88.398C82.6485 83.9681 88.0884 92.1579 89.3283 83.2081C90.5783 74.2582 93.3682 75.5082 93.6282 72.1883C93.8882 68.8783 93.5882 64.6484 94.9682 63.4185C96.3482 62.1885 99.8681 64.9984 97.9782 71.4083C96.0882 77.8082 94.5482 71.8583 95.2382 68.2584C95.9282 64.6684 96.7182 64.5584 96.9482 67.9484C97.1782 71.3383 98.5481 72.9783 96.1382 78.1582C93.7282 83.3481 91.4783 87.908 93.6382 92.5279C95.7982 97.1378 95.1482 110.848 92.2583 117.807C92.2583 117.807 91.1483 115.227 90.8483 117.067C90.1983 121.057 90.2183 126.387 86.4284 129.217C80.8985 133.337 71.6787 137.837 66.9988 140.707C62.3089 143.577 59.8189 139.767 59.8189 139.767C59.8189 139.767 62.0689 142.697 61.6289 142.847C61.1889 142.987 52.3391 140.377 50.6891 139.717C49.0391 139.057 42.5993 137.737 39.4693 136.157C36.3394 134.567 31.8995 133.637 28.0495 131.717C24.1996 129.797 23.8196 131.747 27.3196 133.767C43.1292 142.887 60.6989 169.526 81.6385 157.537C100.898 146.517 119.518 130.017 98.8481 126.787C88.5683 125.177 74.0086 159.427 68.3587 165.416C62.7089 171.396 36.8894 163.136 22.5196 154.197C8.13993 145.247 3.98001 138.307 3.22002 136.657C1.79005 133.497 13.4898 117.307 19.8497 128.857C23.1096 134.767 26.6696 132.857 23.4296 128.887C20.1797 124.927 19.6697 122.557 18.9497 118.777C18.2197 115.007 17.9197 110.518 17.9197 110.518C17.9197 110.518 15.9798 113.377 15.9298 108.528C15.8798 103.678 17.3997 98.5278 16.6098 92.5579C15.8298 86.578 15.1898 76.7982 14.5998 71.5283C14.0098 66.2484 14.0598 61.2685 15.4598 59.8985C16.8598 58.5286 18.3797 61.7085 16.8498 63.5185C15.3098 65.3284 15.4998 67.5284 16.0798 69.0583" stroke="#2EB80B" stroke-width="1.5" stroke-linecap="round" stroke-linejoin="round"/>
</svg>
