<svg width="131" height="158" viewBox="0 0 131 158" fill="none" xmlns="http://www.w3.org/2000/svg">
<path d="M1.03283 118.311C7.23843 133.929 28.6126 148.723 28.6126 148.723C28.6126 148.723 8.67049 129.808 2.90456 111.659C-2.85509 93.5172 5.78753 85.8178 11.1075 83.8414C16.4212 81.8589 20.6357 80.6494 17.7528 89.0098C14.8698 97.3639 12.7657 108.692 16.9802 120.568C21.1885 132.445 28.0536 142.676 33.9263 146.634C39.799 150.593 44.3401 151.691 44.3401 151.691C44.3401 151.691 42.6254 147.894 38.3606 140.861C34.0959 133.823 30.2142 131.017 29.605 128.542C28.9957 126.067 32.7643 126.235 32.9841 124.253C33.2102 122.277 33.3736 119.197 30.1074 114.577C26.8351 109.957 18.7514 98.4113 20.7425 89.9449C22.7399 81.4724 25.5098 84.1158 24.844 75.5372C24.1782 66.9587 24.5927 67.4263 24.5927 67.4263C24.5927 67.4263 21.1319 66.7966 20.799 62.9437C20.4662 59.0971 20.0767 59.041 19.4172 54.92C18.7514 50.7929 19.7438 47.3328 22.0741 43.2617C24.398 39.1906 27.3061 39.0285 28.7759 41.1171C30.2456 43.2056 25.2585 48.1308 26.2007 56.3727C26.6969 60.7243 21.0252 63.5672 21.9799 61.9088C24.7749 57.0335 20.2275 56.6283 21.0817 54.2405C21.9987 51.6781 22.6519 47.8565 23.6004 44.4899C23.7071 44.1158 24.4169 41.5659 24.6807 41.4974C25.2837 41.3353 27.7835 43.3552 28.1352 42.6383C28.5686 41.7592 27.3689 39.9762 27.2559 38.455C27.0926 36.1545 27.8463 33.8602 28.085 31.4413C28.8575 23.4675 29.3035 17.4762 33.1788 15.0011C37.0605 12.5261 54.1196 2.24553 66.3047 1.25426C78.4961 0.262988 84.9215 2.18942 87.9112 6.6969C90.901 11.2044 93.1747 17.9687 93.1181 20.9924C93.0616 24.0161 89.5694 13.6233 84.8084 12.3079C80.0412 10.9862 85.1413 11.9213 87.5783 17.8627C90.0154 23.7979 84.7519 25.0884 80.4306 20.9113C76.1093 16.7343 78.7159 15.4687 70.626 15.1944C62.5361 14.9201 55.3946 13.9849 53.7302 18.4924C52.0657 22.9999 51.9589 30.4812 45.8664 32.9001C39.7676 35.3191 36.9977 38.1744 37.8896 40.1008C38.7752 42.0273 42.9834 46.8091 45.0876 49.228C47.1917 51.647 49.8234 52.8066 50.2254 52.9126C50.6274 53.0248 52.9513 54.9325 56.6634 57.5198C60.3754 60.1008 63.673 59.2218 64.3953 59.4712C65.1113 59.7205 64.3199 56.3103 62.8125 55.3315C61.305 54.3589 60.1116 55.1819 59.8478 56.541C59.584 57.9063 60.2121 58.6856 61.663 59.0597C63.1202 59.4275 63.9179 58.4923 63.629 57.1457C63.3463 55.8053 62.109 54.5647 59.0627 53.8477C56.0164 53.1308 53.6862 54.2904 53.6862 54.2904C53.6862 54.2904 50.5018 52.526 51.2743 51.5971C52.0532 50.6619 55.1811 49.3402 61.2171 51.3477C67.2594 53.3552 69.0557 55.5559 69.9476 57.314C70.8333 59.0722 70.5695 60.3938 70.5695 60.3938C70.5695 60.3938 71.4551 59.9387 72.9499 60.2006C74.4448 60.4624 76.9509 61.6719 77.7298 62.3702C78.5023 63.0746 78.6531 63.7729 78.6531 63.7729C78.6531 63.7729 78.7096 65.1071 80.5374 66.2604C82.3651 67.4138 86.8246 68.7604 88.2378 68.3801C89.6511 67.9936 89.7076 66.8776 89.3056 65.8926C88.9036 64.9013 87.2706 64.3652 86.2279 64.8452C85.1916 65.3253 85.2607 66.7903 85.5245 67.5011C85.782 68.2056 88.2127 68.4487 88.7089 67.0023C89.2051 65.5622 87.4778 64.0784 85.4114 63.7729C83.3512 63.4736 80.1919 65.0946 80.1919 65.0946C80.1919 65.0946 79.1932 64.5834 79.1116 63.829C79.0299 63.0746 81.5737 61.8465 84.0861 61.6532C86.5922 61.4662 90.857 62.0709 94.2613 64.2966C97.6719 66.5223 98.2748 69.521 96.8365 73.0933C95.3981 76.6656 90.5241 79.3589 87.8107 79.6893C85.0911 80.0198 80.6316 79.2779 78.3076 76.6095C75.9837 73.9474 76.26 69.2716 76.7311 66.9898C77.2022 64.7081 78.1946 64.2405 78.1946 64.2405C78.1946 64.2405 77.0075 62.2455 74.7338 61.5036C72.46 60.7617 70.4124 61.2729 70.4124 61.2729C70.4124 61.2729 67.4792 67.046 63.4908 68.1993C59.5024 69.3527 55.5391 69.4649 51.9966 66.9898C48.4479 64.5148 47.7319 60.6682 47.8952 58.137C48.0585 55.6058 49.4717 53.7542 49.4717 53.7542C49.4717 53.7542 46.4003 52.7505 43.7372 49.4525C41.0803 46.1482 35.239 40.0198 35.239 40.0198C35.239 40.0198 36.8155 43.9537 35.4337 49.2841C34.0456 54.6208 30.9428 54.9512 29.5045 63.9662C28.0661 72.9811 25.8489 82.3327 29.0585 92.8876C32.2744 103.442 45.8476 110.319 52.4928 111.31C59.1381 112.295 64.5711 110.924 68.9427 108.667C73.3205 106.416 80.2422 102.289 84.1803 97.7255C88.1122 93.1619 77.1833 92.6818 74.3569 92.9562C71.5367 93.2305 69.4012 89.6893 66.3549 89.2217C63.3087 88.7542 63.07 88.4611 60.2184 86.2666C57.3669 84.0659 53.749 84.1594 51.1236 83.006C48.4918 81.8527 48.1276 81.4537 48.1276 81.4537C48.1276 81.4537 50.8598 87.7504 56.4812 91.3227C62.1027 94.8951 67.2719 93.9474 70.1361 93.3863C72.9939 92.819 66.4806 91.2666 63.5411 90.1382C60.6078 89.0098 58.5602 87.0584 56.117 86.3477C53.6799 85.6307 44.4595 81.5098 45.1818 78.3739C45.8978 75.238 56.1169 74.3028 59.3328 73.0372C62.5487 71.7779 62.9444 71.435 63.6101 71.9275C64.2759 72.42 60.9282 72.6694 59.829 74.2093C58.7361 75.7492 58.6796 76.9961 59.9546 77.9312C61.2297 78.8664 62.0336 78.4674 61.4809 76.7093C60.9282 74.9512 66.1037 76.7903 66.6313 78.4424C67.1589 80.0946 64.4455 80.3938 66.022 80.8863C67.5986 81.3851 71.6184 80.3938 73.1949 80.0073C74.7714 79.627 75.5503 80.3003 74.4574 80.8614C73.7539 81.223 73.063 81.4911 72.4852 81.8028C70.6511 82.8128 72.7552 83.2305 73.7225 82.8502C75.4435 82.1769 77.1142 79.6208 75.588 77.2517C77.9119 78.8352 77.5162 83.4175 78.1003 86.304C78.8164 89.8764 77.9182 91.6282 78.4709 92.0522C79.0237 92.4761 83.86 92.4636 84.6891 94.0846C85.5182 95.7055 86.3787 94.1968 87.0696 93.1806C87.7605 92.1644 92.5843 82.5696 93.5264 80.2567C94.4686 77.9499 97.1505 74.5085 97.54 73.8539C97.9294 73.1931 97.9545 72.5322 97.9545 72.5322C97.9545 72.5322 100.021 73.3427 100.781 72.713C101.541 72.0771 99.4682 66.6594 99.2986 66.1669C99.1353 65.6744 97.8038 70.4562 98.3879 71.117C98.9657 71.7779 100.435 70.9799 99.7132 69.6332C98.9971 68.2866 101.905 65.2068 105.228 57.5073C108.55 49.8078 111.207 42.8814 110.102 37.6009C108.99 32.3265 105.002 29.6333 105.611 25.6183C106.22 21.6034 104.449 15.662 99.4117 9.6146C94.3681 3.56722 88.4388 3.18069 88.7717 4.9949C89.1046 6.80912 93.093 10.3316 94.0352 15.9425C94.9773 21.5473 94.8391 22.5635 94.2864 24.465C93.7337 26.3602 97.1945 31.6906 99.1353 32.738C101.07 33.7792 103.45 36.5846 103.563 42.4138C103.676 48.243 101.013 57.0958 100.128 60.0634C99.6127 61.7904 99.0223 63.3365 98.6203 64.3215C98.212 65.3066 101.183 66.4911 102.1 65.3876C103.017 64.2904 102.182 65.8864 104.148 67.0958C106.113 68.3053 108.192 66.8776 108.192 66.8776C108.192 66.8776 106.201 68.137 106.201 69.9512C106.201 71.7716 116.307 74.8452 116.307 74.8452C116.307 74.8452 114.48 68.5796 113.261 64.6769C112.043 60.7741 111.603 61.8963 108.469 61.2916C105.341 60.6869 104.455 59.4275 102.872 60.9923C101.296 62.5572 101.02 63.7105 100.159 64.1532C99.3049 64.5958 99.33 64.5397 99.33 64.5397C99.33 64.5397 99.2358 65.531 101.396 64.5086C103.551 63.4923 107.074 64.2093 108.042 65.2816C109.009 66.3539 109.926 65.7741 109.951 66.4599C109.983 67.1519 107.985 69.9512 107.721 71.4537C107.458 72.9499 104.135 71.2479 102.891 71.1669C101.641 71.0796 101.378 70.6432 101.447 71.5347C101.516 72.4263 101.685 73.2804 100.316 73.43C98.9406 73.5859 98.6642 73.1557 98.4444 73.4736C98.2246 73.7916 95.2725 78.3552 94.8266 81.1544C94.3869 83.9599 91.4788 85.3377 91.3406 86.8464C91.2025 88.3614 91.6735 91.8215 92.2514 92.2891C92.8355 92.7566 94.4434 91.5784 94.3869 90.8053C94.3304 90.0385 93.4699 88.1681 92.6973 88.1432C91.9185 88.112 91.9185 88.6357 91.8682 89.6394C91.8117 90.6432 92.5717 93.405 93.8153 93.5547C95.0652 93.7105 96.133 92.3452 96.1016 90.612C96.0765 88.8851 96.7674 85.637 97.653 82.9998C98.5386 80.3626 100.699 75.5746 103.915 75.026C107.125 74.4774 121.389 78.8228 122.362 78.9848C123.33 79.1532 121.194 76.4038 119.341 75.743C117.488 75.0821 121.144 77.0896 121.364 78.4362C121.584 79.7829 114.524 77.2267 111.559 76.622C108.594 76.0173 103.746 75.3564 101.974 77.2829C100.203 79.2031 98.5386 83.4674 97.5965 86.6532C96.6543 89.8452 96.6292 91.5222 96.4345 93.3364C96.2398 95.1507 95.7562 96.597 97.1819 96.5534C98.6077 96.5098 97.9419 93.6918 97.5274 93.2118C97.1128 92.7317 96.7109 93.5297 96.5601 95.001C96.4094 96.4724 97.5965 98.5172 99.0537 98.1993C100.505 97.8876 100.976 95.9487 100.479 94.4337C99.977 92.925 100.398 90.2005 102.276 85.531C104.16 80.8552 105.272 80.4125 109.342 80.6868C113.412 80.9674 116.986 81.6781 119.31 81.541C121.64 81.4038 120.56 82.6694 116.873 82.2018C113.192 81.7342 107.458 80.9362 105.548 81.9836C103.639 83.0247 101.56 89.1594 101.227 90.8053C100.894 92.4574 101.723 94.1906 101.78 95.6993C101.836 97.2143 101.723 97.6133 102.169 97.7068C102.609 97.8065 102.697 96.703 102.445 96.3165C102.194 95.9362 101.861 97.4761 102.42 98.1868C102.973 98.9038 105.686 98.804 106.195 97.7192C106.71 96.6345 107.169 95.6432 106.861 94.4898C106.559 93.3364 107.112 92.5135 106.227 91.9337C105.341 91.3539 104.606 90.3938 104.926 90.6307C105.24 90.8614 108.777 91.0671 108.952 89.9574C109.135 88.8414 108.789 87.0646 109.022 86.7217C109.26 86.3789 109.744 88.4674 109.756 89.2529C109.769 90.0384 113.456 89.0472 114.907 88.1806C116.364 87.314 115.629 89.0596 113.261 89.7205C110.893 90.3813 111.71 91.8402 112.539 92.2891C113.374 92.7442 118.537 92.9499 118.537 92.9499C118.537 92.9499 116.998 93.5297 114.505 93.4175C112.011 93.3053 113.33 94.8452 112.388 96.7716C112.018 97.5322 111.509 98.2429 111.031 99.097C110.805 99.5023 109.581 99.0098 107.916 97.7691C107.564 97.5073 110.07 100.144 109.945 100.624C109.738 101.447 109.606 103.523 109.593 104.664C109.537 109.004 107.709 111.148 104.995 109.558C102.276 107.962 99.2861 102.85 98.1241 101.416C96.9621 99.9886 96.9621 104.496 102.276 109.833C107.596 115.163 109.537 115.662 106.597 116.042C103.664 116.429 87.2078 110.824 81.5612 108.841C75.9083 106.865 73.5278 107.358 72.6422 108.511C71.7566 109.664 71.4802 109.284 72.146 112.083C72.8055 114.889 69.5959 119.783 66.6564 124.072C63.7232 128.361 59.7913 126.104 58.9057 122.314C58.0201 118.517 65.2181 112.033 66.7695 111.316C68.3209 110.6 64.9417 115.824 64.4958 120.444C64.0561 125.063 63.3903 129.845 60.6204 132.046C57.8505 134.247 47.7695 144.359 46.7709 151.84C45.7785 159.315 51.758 158.33 54.4148 151.067C57.0779 143.81 64.4958 136.005 69.15 131.715C73.8042 127.426 75.8015 112.252 78.4584 114.122C81.1152 115.992 101.17 123.523 103.997 120.774C106.823 118.025 109.424 115.768 111.804 116.703C114.191 117.638 111 112.027 110.479 110.874C109.951 109.72 113.023 113.848 115.215 114.614C117.4 115.381 126.514 107.906 127.23 105.93C127.952 103.947 125.848 93.723 125.628 89.5397C125.402 85.3626 125.183 82.0085 124.297 80.8552C123.411 79.7018 123.411 80.4125 123.631 83.7666C123.857 87.1207 124.353 84.6457 123.907 89.6519C123.468 94.6581 123.191 95.8115 124.517 98.6669C125.848 101.528 127.4 106.422 130 108.954" stroke="#F6CC2C" stroke-width="1.1" stroke-linecap="round" stroke-linejoin="round"/>
</svg>
