<svg width="126" height="158" viewBox="0 0 126 158" fill="none" xmlns="http://www.w3.org/2000/svg">
<path d="M7 83.8415C12.3137 81.8589 16.5282 80.6494 13.6453 89.0098C10.7623 97.3639 8.65817 108.692 12.8727 120.568C17.081 132.445 23.9461 142.676 29.8188 146.634C35.6915 150.593 40.2326 151.691 40.2326 151.691C40.2326 151.691 38.5179 147.894 34.2531 140.861C29.9884 133.823 26.1067 131.017 25.4975 128.542C24.8882 126.067 28.6568 126.235 28.8766 124.253C29.1027 122.277 29.266 119.197 25.9999 114.577C22.7276 109.957 14.6439 98.4113 16.635 89.9449C18.6324 81.4724 21.4023 84.1158 20.7365 75.5372C20.0707 66.9587 20.4852 67.4263 20.4852 67.4263C20.4852 67.4263 17.0244 66.7966 16.6915 62.9437C16.3586 59.0971 15.9692 59.041 15.3097 54.92C14.6439 50.7929 15.6363 47.3328 17.9666 43.2617C20.2905 39.1906 23.1986 39.0285 24.6684 41.1171C26.1381 43.2056 21.151 48.1308 22.0932 56.3727C22.5894 60.7243 16.9176 63.5672 17.8724 61.9088C20.6674 57.0335 16.12 56.6283 16.9742 54.2405C17.8912 51.6781 18.5444 47.8565 19.4929 44.4899C19.5996 44.1158 20.3094 41.5659 20.5732 41.4974C21.1762 41.3353 23.676 43.3552 24.0277 42.6383C24.4611 41.7592 23.2614 39.9762 23.1484 38.455C22.9851 36.1545 23.7388 33.8602 23.9775 31.4413C24.75 23.4675 25.196 17.4762 29.0713 15.0011C32.953 12.5261 50.0121 2.24553 62.1972 1.25426C74.3885 0.262988 80.814 2.18942 83.8037 6.6969C86.7935 11.2044 89.0672 17.9687 89.0106 20.9924C88.9541 24.0161 85.4619 13.6233 80.7009 12.3079C75.9337 10.9862 81.0338 11.9213 83.4708 17.8627C85.9078 23.7979 80.6444 25.0884 76.3231 20.9113C72.0018 16.7343 74.6084 15.4687 66.5185 15.1944C58.4286 14.9201 51.2871 13.9849 49.6227 18.4924C47.9582 22.9999 47.8514 30.4812 41.7589 32.9001C35.6601 35.3191 32.8902 38.1744 33.7821 40.1008C34.6677 42.0273 38.8759 46.8091 40.9801 49.228C43.0842 51.647 45.7159 52.8066 46.1179 52.9126C46.5199 53.0248 48.8438 54.9325 52.5559 57.5198C56.2679 60.1008 59.5655 59.2218 60.2878 59.4712C61.0038 59.7205 60.2124 56.3103 58.705 55.3315C57.1975 54.3589 56.0041 55.1819 55.7403 56.541C55.4765 57.9063 56.1046 58.6856 57.5555 59.0597C59.0127 59.4275 59.8104 58.4923 59.5215 57.1457C59.2388 55.8053 58.0015 54.5647 54.9552 53.8477C51.9089 53.1308 49.5787 54.2904 49.5787 54.2904C49.5787 54.2904 46.3942 52.526 47.1668 51.5971C47.9456 50.6619 51.0736 49.3402 57.1096 51.3477C63.1519 53.3552 64.9482 55.5559 65.8401 57.314C66.7258 59.0722 66.462 60.3938 66.462 60.3938C66.462 60.3938 67.3476 59.9387 68.8424 60.2006C70.3373 60.4624 72.8434 61.6719 73.6223 62.3702C74.3948 63.0746 74.5456 63.7729 74.5456 63.7729C74.5456 63.7729 74.6021 65.1071 76.4299 66.2604C78.2576 67.4138 82.7171 68.7604 84.1303 68.3801C85.5435 67.9936 85.6001 66.8776 85.1981 65.8926C84.7961 64.9013 83.1631 64.3652 82.1204 64.8452C81.0841 65.3253 81.1531 66.7903 81.4169 67.5011C81.6745 68.2056 84.1052 68.4487 84.6014 67.0023C85.0976 65.5622 83.3703 64.0784 81.3039 63.7729C79.2437 63.4736 76.0844 65.0946 76.0844 65.0946C76.0844 65.0946 75.0857 64.5834 75.0041 63.829C74.9224 63.0746 77.4662 61.8465 79.9786 61.6532C82.4847 61.4662 86.7495 62.0709 90.1538 64.2966C93.5644 66.5223 94.1673 69.521 92.729 73.0933C91.2906 76.6656 86.4166 79.3589 83.7032 79.6893C80.9836 80.0198 76.5241 79.2779 74.2001 76.6095C71.8762 73.9474 72.1525 69.2716 72.6236 66.9898C73.0947 64.7081 74.0871 64.2405 74.0871 64.2405C74.0871 64.2405 72.9 62.2455 70.6262 61.5036C68.3525 60.7617 66.3049 61.2729 66.3049 61.2729C66.3049 61.2729 63.3717 67.046 59.3833 68.1993C55.3949 69.3527 51.4316 69.4649 47.8891 66.9898C44.3404 64.5148 43.6243 60.6682 43.7876 58.137C43.951 55.6058 45.3642 53.7542 45.3642 53.7542C45.3642 53.7542 42.2928 52.7505 39.6296 49.4525C36.9728 46.1482 31.1315 40.0198 31.1315 40.0198C31.1315 40.0198 32.708 43.9537 31.3262 49.2841C29.9381 54.6208 26.8353 54.9512 25.397 63.9662C23.9586 72.9811 21.7414 82.3327 24.951 92.8876C28.1669 103.442 41.7401 110.319 48.3853 111.31C55.0306 112.295 60.4636 110.924 64.8352 108.667C69.213 106.416 76.1347 102.289 80.0728 97.7255C84.0047 93.1619 73.0758 92.6818 70.2494 92.9562C67.4292 93.2305 65.2937 89.6893 62.2474 89.2217C59.2012 88.7542 58.9625 88.4612 56.1109 86.2666C53.2594 84.0659 49.6415 84.1594 47.0161 83.006C44.3843 81.8527 44.02 81.4537 44.02 81.4537C44.02 81.4537 46.7523 87.7504 52.3737 91.3227C57.9952 94.8951 63.1644 93.9474 66.0286 93.3863C68.8864 92.819 62.373 91.2666 59.4335 90.1382C56.5003 89.0098 54.4527 87.0584 52.0094 86.3477C49.5724 85.6307 40.352 81.5098 41.0743 78.3739C41.7903 75.238 52.0094 74.3028 55.2253 73.0372C58.4412 71.7779 58.8369 71.435 59.5026 71.9275C60.1684 72.42 56.8207 72.6694 55.7215 74.2093C54.6286 75.7492 54.5721 76.9961 55.8471 77.9312C57.1222 78.8664 57.9261 78.4674 57.3734 76.7093C56.8207 74.9512 61.9962 76.7903 62.5238 78.4425C63.0514 80.0946 60.338 80.3938 61.9145 80.8863C63.4911 81.3851 67.5109 80.3938 69.0874 80.0073C70.6639 79.627 71.4428 80.3003 70.3499 80.8614C69.6464 81.223 68.9555 81.4911 68.3777 81.8028C66.5436 82.8128 68.6477 83.2305 69.615 82.8502C71.336 82.1769 73.0067 79.6208 71.4805 77.2517C73.8044 78.8352 73.4087 83.4175 73.9928 86.304C74.7089 89.8764 73.8107 91.6282 74.3634 92.0522C74.9161 92.4761 79.7525 92.4636 80.5816 94.0846C81.4107 95.7055 82.2712 94.1968 82.9621 93.1806C83.653 92.1644 88.4768 82.5696 89.4189 80.2567C90.361 77.9499 93.043 74.5085 93.4324 73.8539C93.8219 73.1931 93.847 72.5322 93.847 72.5322C93.847 72.5322 95.9134 73.3427 96.6734 72.713C97.4334 72.0771 95.3607 66.6594 95.1911 66.1669C95.0278 65.6744 93.6962 70.4562 94.2804 71.117C94.8582 71.7779 96.328 70.9799 95.6057 69.6332C94.8896 68.2866 97.7977 65.2068 101.12 57.5073C104.443 49.8078 107.1 42.8814 105.994 37.6008C104.883 32.3265 100.894 29.6333 101.503 25.6183C102.113 21.6034 100.342 15.662 95.3042 9.6146C90.2606 3.56722 84.3313 3.18069 84.6642 4.9949C84.9971 6.80912 88.9855 10.3316 89.9277 15.9425C90.8698 21.5473 90.7316 22.5635 90.1789 24.465C89.6262 26.3602 93.087 31.6906 95.0278 32.738C96.9623 33.7792 99.3428 36.5846 99.4559 42.4138C99.569 48.243 96.9058 57.0958 96.0202 60.0634C95.5052 61.7904 94.9148 63.3365 94.5128 64.3215C94.1045 65.3066 97.0754 66.4911 97.9924 65.3876C98.9095 64.2903 98.0741 65.8864 100.04 67.0958C102.006 68.3053 104.085 66.8776 104.085 66.8776C104.085 66.8776 102.094 68.137 102.094 69.9512C102.094 71.7716 112.2 74.8452 112.2 74.8452C112.2 74.8452 110.372 68.5796 109.154 64.6769C107.935 60.7741 107.496 61.8963 104.361 61.2916C101.233 60.6869 100.348 59.4275 98.765 60.9923C97.1885 62.5572 96.9121 63.7105 96.0516 64.1532C95.1974 64.5958 95.2225 64.5397 95.2225 64.5397C95.2225 64.5397 95.1283 65.531 97.289 64.5086C99.4433 63.4923 102.967 64.2093 103.934 65.2816C104.902 66.3539 105.819 65.7741 105.844 66.4599C105.875 67.1519 103.878 69.9512 103.614 71.4537C103.35 72.9499 100.027 71.2479 98.7838 71.1669C97.5339 71.0796 97.2701 70.6432 97.3392 71.5347C97.4083 72.4262 97.5779 73.2804 96.2086 73.43C94.8331 73.5859 94.5567 73.1557 94.3369 73.4736C94.1171 73.7916 91.165 78.3552 90.7191 81.1544C90.2794 83.9599 87.3713 85.3377 87.2331 86.8464C87.095 88.3614 87.566 91.8215 88.1439 92.2891C88.728 92.7567 90.3359 91.5783 90.2794 90.8053C90.2229 90.0385 89.3624 88.1681 88.5898 88.1432C87.811 88.112 87.811 88.6357 87.7607 89.6395C87.7042 90.6432 88.4642 93.405 89.7078 93.5547C90.9577 93.7105 92.0255 92.3452 91.9941 90.612C91.969 88.8851 92.6599 85.637 93.5455 82.9998C94.4311 80.3626 96.5918 75.5746 99.8076 75.026C103.017 74.4774 117.281 78.8228 118.255 78.9848C119.222 79.1532 117.087 76.4038 115.234 75.743C113.381 75.0821 117.036 77.0896 117.256 78.4362C117.476 79.7829 110.416 77.2267 107.452 76.622C104.487 76.0173 99.638 75.3564 97.8668 77.2829C96.0956 79.2031 94.4311 83.4674 93.489 86.6532C92.5468 89.8452 92.5217 91.5222 92.327 93.3364C92.1323 95.1507 91.6487 96.597 93.0744 96.5534C94.5002 96.5098 93.8344 93.6918 93.4199 93.2118C93.0053 92.7317 92.6034 93.5297 92.4526 95.001C92.3019 96.4724 93.489 98.5172 94.9462 98.1993C96.3971 97.8876 96.8681 95.9487 96.3719 94.4337C95.8695 92.925 96.2903 90.2005 98.1683 85.531C100.053 80.8552 101.164 80.4125 105.234 80.6868C109.304 80.9674 112.878 81.6781 115.202 81.541C117.533 81.4038 116.452 82.6694 112.765 82.2018C109.085 81.7342 103.35 80.9362 101.441 81.9836C99.5313 83.0247 97.4523 89.1594 97.1194 90.8053C96.7865 92.4574 97.6156 94.1906 97.6721 95.6993C97.7286 97.2143 97.6156 97.6132 98.0615 97.7068C98.5012 97.8065 98.5891 96.703 98.3379 96.3165C98.0866 95.9362 97.7538 97.4761 98.3128 98.1868C98.8655 98.9038 101.579 98.804 102.088 97.7192C102.603 96.6345 103.061 95.6432 102.753 94.4898C102.452 93.3364 103.005 92.5135 102.119 91.9337C101.233 91.3539 100.499 90.3938 100.819 90.6307C101.133 90.8614 104.669 91.0671 104.845 89.9574C105.027 88.8414 104.682 87.0646 104.914 86.7217C105.153 86.3789 105.636 88.4674 105.649 89.2529C105.661 90.0384 109.348 89.0472 110.799 88.1806C112.257 87.314 111.522 89.0597 109.154 89.7205C106.786 90.3813 107.602 91.8402 108.431 92.2891C109.267 92.7442 114.43 92.9499 114.43 92.9499C114.43 92.9499 112.891 93.5297 110.397 93.4175C107.904 93.3053 109.223 94.8452 108.281 96.7716C107.91 97.5322 107.401 98.2429 106.924 99.097C106.698 99.5023 105.473 99.0098 103.809 97.7691C103.457 97.5073 105.963 100.144 105.837 100.624C105.63 101.447 105.498 103.523 105.486 104.664C105.429 109.004 103.601 111.148 100.888 109.558C98.1683 107.962 95.1786 102.85 94.0166 101.416C92.8546 99.9886 92.8546 104.496 98.1683 109.833C103.488 115.163 105.429 115.662 102.49 116.042C99.5564 116.429 83.1002 110.824 77.4537 108.841C71.8008 106.865 69.4203 107.358 68.5347 108.511C67.6491 109.664 67.3727 109.284 68.0385 112.083C68.698 114.889 65.4884 119.783 62.5489 124.072C59.6157 128.361 55.6838 126.104 54.7982 122.314C53.9126 118.517 61.1106 112.033 62.662 111.316C64.2134 110.6 60.8342 115.824 60.3883 120.444C59.9486 125.063 59.2828 129.845 56.5129 132.046C53.743 134.247 43.662 144.359 42.6634 151.84C41.671 159.315 47.6504 158.33 50.3073 151.067C52.9704 143.81 60.3883 136.005 65.0425 131.715C69.6967 127.426 71.694 112.252 74.3509 114.122C77.0077 115.992 97.0628 123.523 99.8893 120.774C102.716 118.025 105.316 115.768 107.697 116.703" stroke="#F6CC2C" stroke-width="1.5" stroke-linecap="round" stroke-linejoin="round"/>
</svg>
