<svg width="99" height="158" viewBox="0 0 99 158" fill="none" xmlns="http://www.w3.org/2000/svg">
<path d="M14.4302 10.5268C18.9302 15.5268 32.5302 15.9268 46.4302 8.02684C55.9302 2.62684 67.9302 21.5268 69.9302 26.0268C69.2302 28.7268 67.6302 25.4268 71.1302 36.4268C72.9302 41.0268 74.4302 52.2268 70.9302 50.2268C67.5302 48.2268 61.2302 46.5268 52.2302 43.6268C43.2302 40.7268 34.1302 43.7268 32.8302 52.3268C31.4302 60.9268 24.1302 57.1268 23.6302 55.8268C23.1302 54.4268 19.3302 50.3268 14.3302 49.0268C9.3302 47.6268 2.9302 51.5268 2.5302 53.8268C2.1302 56.1268 1.9302 61.3268 1.9302 61.3268C1.9302 61.3268 1.9302 57.3268 1.9302 54.8268C1.9302 52.3268 -0.769802 38.3268 3.0302 28.1268C6.8302 18.0268 10.3302 13.9268 18.0302 7.32684C25.8302 0.726844 42.3302 -0.773156 53.3302 3.12684C64.3302 7.02684 72.9302 15.1268 74.9302 22.3268C76.9302 29.5268 76.9302 32.1268 78.2302 36.7268C79.6302 41.3268 80.0302 45.5268 80.6302 48.5268C81.2302 51.5268 83.4302 51.7268 85.1302 55.2268C86.8302 58.7268 82.4302 60.6268 83.3302 62.3268C84.2302 64.0268 83.2302 68.0268 80.4302 67.9268C77.7302 67.8268 78.1302 63.9268 77.8302 65.2268C77.5302 66.5268 76.9302 69.0268 77.4302 74.1268C77.8302 79.2268 76.1302 82.5268 76.2302 87.4268C76.3302 92.3268 76.9302 98.2268 76.9302 98.2268C76.9302 98.2268 77.4302 78.2268 79.3302 78.5268C81.2302 78.8268 83.6302 76.9268 84.4302 73.2268C85.2302 69.5268 86.4302 68.9268 87.2302 62.7268C88.0302 56.4268 88.3302 53.3268 85.6302 50.4268C82.9302 47.5268 78.3302 50.6268 78.1302 55.0268C77.9302 59.4268 76.6302 59.5268 73.7302 56.3268C70.9302 53.1268 58.5302 54.0268 56.5302 53.6268C54.5302 53.3268 53.1302 53.5268 51.6302 53.7268C50.1302 54.0268 45.7302 55.4268 45.3302 54.8268C44.8302 54.2268 44.5302 53.6268 45.8302 52.8268C47.1302 51.9268 50.3302 52.3268 50.6302 52.8268C50.9302 53.2268 50.8302 54.2268 48.7302 54.8268C46.6302 55.4268 42.8302 55.3268 41.6302 55.4268C40.4302 55.5268 38.6302 56.3268 39.5302 55.4268C40.4302 54.5268 45.8302 51.5268 49.2302 52.1268C52.6302 52.6268 75.2302 54.9268 74.7302 65.2268C74.2302 75.5268 70.7302 79.6268 68.4302 83.2268C66.1302 86.8268 65.1302 85.9268 64.1302 84.7268C63.8302 84.4268 61.5302 84.2268 59.8302 86.5268C53.7302 94.6268 57.0302 99.1268 54.1302 103.927C52.6302 106.527 50.7302 101.727 48.9302 105.427C47.1302 109.127 42.1302 110.127 40.3302 108.627C38.6302 107.127 38.1302 104.027 39.9302 100.927C41.7302 97.8268 42.0302 96.3268 40.8302 97.3268C39.5302 98.4268 35.2302 104.327 31.8302 104.427C28.0302 104.527 25.2302 98.8268 25.2302 99.9268C25.3302 102.027 23.1302 106.427 21.1302 108.827C19.1302 111.227 18.4302 106.627 17.7302 103.627C16.9302 100.627 16.1302 105.927 14.8302 107.827C13.5302 109.727 12.2302 114.227 10.9302 109.227C9.5302 104.227 9.6302 94.0268 9.0302 95.8268C8.4302 97.6268 7.0302 97.6268 6.4302 94.7268C5.7302 90.9268 2.7302 83.3268 6.4302 87.7268C7.1302 88.5268 7.9302 89.2268 8.6302 88.9268C9.8302 88.6268 11.6302 83.9268 12.9302 82.6268C14.2302 81.3268 17.7302 76.7268 17.7302 76.7268C17.7302 76.7268 16.0302 80.1268 14.4302 82.0268C9.0302 88.5268 11.0302 89.7268 13.0302 93.4268C14.0302 95.3268 15.3302 95.8268 16.3302 97.1268C17.3302 98.4268 18.1302 100.327 18.1302 98.8268C18.1302 97.3268 19.3302 97.2268 19.3302 94.3268C19.3302 91.4268 17.7302 90.2268 18.9302 89.9268C20.1302 89.7268 22.4302 90.2268 24.5302 90.2268C26.6302 90.2268 28.2302 90.7268 30.6302 90.7268C33.0302 90.7268 35.7302 90.2268 38.5302 89.6268C41.4302 88.9268 47.6302 88.3268 47.6302 88.3268C47.6302 88.3268 44.3302 91.5268 39.9302 93.0268C35.4302 94.6268 27.3302 95.8268 23.6302 94.1268C19.9302 92.4268 21.4302 91.0268 20.8302 90.3268C20.2302 89.6268 18.2302 89.4268 18.8302 89.4268C19.4302 89.4268 19.6302 89.6268 21.5302 89.3268C23.4302 88.9268 26.0302 87.7268 27.8302 88.1268C29.5302 88.5268 31.1302 88.6268 32.3302 88.1268C33.5302 87.5268 38.9302 88.0268 42.7302 88.0268C46.5302 88.0268 50.7302 85.6268 52.2302 88.6268C53.8302 91.7268 54.7302 94.7268 55.1302 91.4268C55.4302 88.0268 56.4302 87.4268 55.9302 84.4268C55.4302 81.4268 52.5302 78.9268 49.7302 77.4268C46.9302 76.0268 46.1302 75.1268 42.6302 71.3268C39.1302 67.6268 39.7302 68.9268 41.0302 72.4268C42.3302 75.9268 39.6302 76.7268 38.4302 77.2268C37.3302 77.8268 38.3302 76.7268 36.9302 75.7268C35.5302 74.6268 30.6302 75.6268 29.5302 76.6268C28.4302 77.6268 28.7302 78.0268 31.4302 77.7268C34.1302 77.4268 37.4302 77.6268 36.5302 78.3268C35.6302 78.9268 29.7302 79.2268 29.1302 79.2268C28.5302 79.2268 25.4302 78.9268 23.6302 77.7268C21.7302 76.6268 21.2302 75.4268 21.1302 76.4268C21.1302 77.4268 22.6302 77.5268 22.8302 77.6268C23.0302 77.7268 20.9302 78.4268 19.6302 75.9268C18.3302 73.4268 19.7302 71.1268 21.4302 68.6268C23.1302 66.1268 24.1302 64.0268 24.1302 60.5268C24.1302 57.0268 19.7302 56.8268 19.7302 56.8268C19.7302 56.8268 19.8302 57.4268 18.1302 58.4268C16.4302 59.4268 13.8302 58.6268 13.6302 57.5268C13.3302 56.4268 14.3302 56.3268 13.3302 56.5268C12.3302 56.7268 9.8302 58.8268 11.3302 58.9268C12.9302 58.9268 18.0302 59.0268 19.4302 58.3268C20.8302 57.6268 21.9302 58.8268 21.9302 58.5268C22.0302 58.3268 21.6302 56.5268 17.7302 55.7268C13.8302 54.9268 7.2302 57.6268 5.3302 59.3268C3.4302 61.1268 2.6302 62.2268 1.9302 67.3268C1.0302 72.6268 0.930199 76.9268 1.9302 79.8268C2.9302 82.8268 2.9302 84.9268 3.5302 89.1268C4.1302 93.3268 3.7302 97.2268 5.5302 101.027C7.3302 104.827 8.2302 108.427 9.8302 112.027C11.4302 115.627 13.8302 115.927 15.0302 117.227C16.2302 118.527 14.9302 117.827 15.4302 119.127C15.9302 120.527 18.2302 122.427 19.8302 123.627C21.4302 124.827 21.1302 126.827 22.5302 128.527C23.9302 130.227 27.6302 131.027 27.2302 129.827C26.9302 128.627 27.7302 126.927 28.7302 127.627C29.7302 128.327 26.3302 130.527 31.1302 128.727C35.9302 126.927 38.9302 127.527 40.4302 127.527C41.9302 127.527 40.9302 128.127 41.7302 128.127C42.5302 128.127 43.3302 127.927 49.6302 124.527C55.9302 121.027 60.2302 118.227 63.7302 113.327C67.2302 108.427 68.4302 113.027 71.0302 106.727C73.6302 100.427 76.8302 100.127 76.8302 100.127C76.8302 100.127 76.9302 106.127 78.1302 108.627C79.3302 111.127 86.5302 113.027 89.5302 114.627C92.5302 116.227 92.8302 118.627 91.2302 124.327C89.6302 130.027 84.3302 137.727 77.0302 142.327C69.7302 146.927 53.1302 155.927 41.8302 150.127C30.5302 144.327 22.3302 131.427 22.3302 131.427C22.3302 131.427 21.2302 128.127 20.2302 126.727C19.1302 125.327 14.0302 123.427 15.4302 128.927C16.9302 134.527 21.4302 146.727 40.0302 154.727C58.7302 162.727 82.5302 148.127 92.8302 135.727C103.13 123.327 94.7302 115.127 92.6302 113.927C90.5302 112.727 85.7302 111.427 85.7302 111.427" stroke="#5BA7FC" stroke-width="1.5"/>
</svg>
