<svg width="99" height="158" viewBox="0 0 99 158" fill="none" xmlns="http://www.w3.org/2000/svg">
<path d="M85.8766 111.514C85.8766 111.514 90.7629 112.783 92.8223 113.974C94.872 115.156 103.275 123.379 92.9875 135.744C82.7097 148.118 58.8902 162.692 40.2193 154.728C21.5387 146.764 17.0798 134.476 15.5838 128.923C14.0878 123.379 19.2655 125.243 20.3341 126.684C21.4124 128.125 22.4712 131.382 22.4712 131.382C22.4712 131.382 30.6993 144.342 42.0067 150.107C53.3142 155.871 69.9354 146.888 77.2211 142.315C84.4972 137.742 89.8109 130.028 91.4429 124.35C93.0652 118.672 92.764 116.299 89.772 114.694C86.7703 113.08 79.572 111.255 78.3771 108.719C77.1726 106.173 77.0851 100.207 77.0851 100.207C77.0851 100.207 73.8308 100.543 71.2663 106.807C68.692 113.08 67.4874 108.507 63.9805 113.417C60.4639 118.336 56.1799 121.131 49.8462 124.609C43.5027 128.077 42.7547 128.202 41.9193 128.231C41.0839 128.25 42.0942 127.616 40.6079 127.616C39.1313 127.616 36.0907 126.973 31.2918 128.798C26.493 130.623 29.8638 128.394 28.8535 127.693C27.8432 127.001 27.037 128.731 27.377 129.884C27.717 131.027 24.0935 130.239 22.6655 128.567C21.2278 126.896 21.5095 124.897 19.9164 123.668C18.3329 122.448 16.0695 120.516 15.5546 119.162C15.0398 117.807 16.4289 118.585 15.1466 117.25C13.8643 115.915 11.4843 115.598 9.9009 112.004C8.30775 108.402 7.36546 104.837 5.56832 101.023C3.77117 97.2189 4.15974 93.3184 3.59631 89.12C3.04259 84.9312 3.00373 82.808 2.01287 79.849C1.03173 76.8803 1.11916 72.5571 1.84773 67.4748C2.5763 62.3926 3.30488 61.2493 5.22831 59.4624C7.15175 57.6851 13.7089 55.0623 17.6529 55.8212C21.5969 56.5898 21.9369 58.3672 21.8689 58.5977C21.8107 58.8283 20.7615 57.6658 19.3432 58.3672C17.9346 59.0685 12.7861 59.0012 11.2026 58.9532C9.61919 58.9148 12.1546 56.8204 13.1649 56.5898C14.1752 56.3496 13.1746 56.4649 13.4272 57.5794C13.6895 58.6938 16.2152 59.472 17.9444 58.4536C19.6638 57.4257 19.5375 56.8588 19.5375 56.8588C19.5375 56.8588 23.9089 57.0606 23.9478 60.5768C23.9964 64.0931 22.9181 66.1683 21.2472 68.6661C19.5764 71.1736 18.1678 73.4121 19.4501 75.958C20.7421 78.4944 22.8404 77.8411 22.6655 77.697C22.4907 77.5432 20.9752 77.3991 21.0141 76.448C21.0627 75.4873 21.6164 76.6113 23.5009 77.7546C25.3855 78.8979 28.4455 79.2437 29.0478 79.2437C29.6501 79.2437 35.605 78.9459 36.4793 78.3118C37.3633 77.6681 34.0993 77.4856 31.4084 77.7546C28.7078 78.0332 28.4067 77.697 29.5238 76.6594C30.6313 75.6122 35.605 74.6419 36.9553 75.7275C38.3056 76.8035 37.2759 77.8411 38.4124 77.2646C39.549 76.6978 42.3079 75.8908 40.977 72.4226C39.6559 68.9448 39.0924 67.5901 42.5604 71.3177C46.0382 75.0454 46.8445 75.9388 49.6713 77.3703C52.5079 78.8114 55.3736 81.3189 55.8885 84.326C56.4033 87.333 55.4611 88.0055 55.1211 91.3585C54.7713 94.7018 53.829 91.6563 52.2456 88.6012C50.6622 85.5557 46.4656 87.9671 42.6964 87.9671C38.9273 87.9671 33.4873 87.4964 32.2827 88.092C31.0878 88.6877 29.5238 88.582 27.785 88.14C26.0558 87.6885 23.4135 88.9663 21.5289 89.3217C19.6444 89.6772 19.4015 89.4658 18.8381 89.437C18.2649 89.4082 20.2661 89.6196 20.8392 90.3305C21.4027 91.0414 19.9552 92.4729 23.6467 94.1734C27.3284 95.8643 35.5078 94.5961 39.9667 93.0301C44.4159 91.4642 47.6993 88.1977 47.6993 88.1977C47.6993 88.1977 41.4239 88.851 38.5679 89.5139C35.7216 90.1672 33.0501 90.5899 30.6701 90.6379C28.2901 90.6764 26.6872 90.148 24.6084 90.1287C22.5295 90.1095 20.2564 89.6003 19.0421 89.8309C17.8181 90.0615 19.4112 91.272 19.4112 94.1926C19.4112 97.1132 18.1872 97.1805 18.2358 98.708C18.2746 100.226 17.5461 98.3429 16.4775 97.0075C15.4089 95.6721 14.1655 95.1245 13.1358 93.2607C11.0958 89.5715 9.10433 88.361 14.5055 81.8665C16.0986 79.9547 17.8472 76.5249 17.8472 76.5249C17.8472 76.5249 14.3403 81.146 13.0483 82.4525C11.766 83.7687 9.88147 88.4283 8.72547 88.7645C8.05518 88.9663 7.21003 88.3418 6.52032 87.5156C2.81916 83.0866 5.85003 90.734 6.50089 94.4904C7.01575 97.4495 8.4729 97.411 9.06547 95.6337C9.66776 93.8564 9.58033 104.021 10.95 109.017C12.3295 114.022 13.6118 109.439 14.8941 107.576C16.1764 105.712 17.0409 100.457 17.8084 103.425C18.5758 106.394 19.2655 110.967 21.2375 108.594C23.2095 106.221 25.4341 101.859 25.3467 99.736C25.2981 98.6216 28.1055 104.357 31.9038 104.242C35.2941 104.146 39.6364 98.2084 40.9381 97.1132C42.0553 96.1813 41.793 97.6224 39.9959 100.754C38.1987 103.896 38.7136 106.941 40.4233 108.469C42.1427 109.997 47.1942 108.978 48.9913 105.251C50.7885 101.523 52.6342 106.336 54.1788 103.704C57.0153 98.8713 53.7222 94.3655 59.8422 86.2954C61.5811 83.9993 63.9028 84.1722 64.1554 84.4893C65.1851 85.7574 66.1759 86.5645 68.488 83.0098C70.8 79.4455 74.3068 75.3816 74.8217 65.0442C75.3365 54.7068 52.7605 52.4587 49.341 51.9111C45.9119 51.3635 40.5981 54.2841 39.6559 55.216C38.7136 56.1479 40.5787 55.3409 41.7347 55.2544C42.8907 55.168 46.6793 55.216 48.8067 54.6396C50.9245 54.0727 50.9828 53.0736 50.6913 52.6316C50.3902 52.1897 47.2136 51.7862 45.9313 52.6509C44.649 53.5155 44.9502 54.0727 45.4164 54.6876C45.8925 55.3025 50.3028 53.8806 51.7599 53.6212C53.217 53.3714 54.6451 53.1793 56.6656 53.5155C58.6765 53.8614 71.0525 52.9679 73.8794 56.1863C76.716 59.4048 78.0857 59.3183 78.2508 54.9182C78.4257 50.5084 82.9623 47.4629 85.7114 50.3451C88.4509 53.2177 88.1109 56.3593 87.3337 62.6232C86.5663 68.8967 85.3229 69.4443 84.5554 73.1719C83.7783 76.8996 81.34 78.8498 79.4554 78.5136C77.5708 78.1773 77.056 98.17 77.056 98.17C77.056 98.17 76.4537 92.3288 76.3663 87.4099C76.2788 82.5006 77.9983 79.1957 77.5708 74.1038C77.1434 69.0216 77.6971 66.4853 77.9983 65.2075C78.2994 63.9394 77.872 67.8399 80.6114 67.9264C83.3509 68.0032 84.4194 64.0258 83.4772 62.335C82.5349 60.6345 86.9452 58.7322 85.284 55.216C83.6132 51.6997 81.4274 51.4884 80.8251 48.5197C80.2229 45.5511 79.7566 41.3623 78.3868 36.7412C77.0074 32.1201 77.0948 29.4974 75.0451 22.2919C72.9857 15.0961 64.4177 7.04522 53.4502 3.14467C42.4827 -0.755873 25.949 0.685215 18.1484 7.29501C10.3575 13.9048 6.92832 17.9783 3.07174 28.1427C-0.78485 38.3072 1.91573 52.2858 1.9643 54.7933C2.00316 57.2912 2.09059 61.355 2.09059 61.355C2.09059 61.355 2.21688 56.1479 2.64431 53.8133C3.07174 51.4884 9.45404 47.6743 14.4278 49.0289C19.3918 50.3835 23.2095 54.4954 23.7244 55.8501C24.2392 57.2047 31.5638 61.0188 32.9335 52.3722C34.3033 43.7353 43.3862 40.7667 52.3816 43.6489C61.3771 46.531 67.6331 48.3084 71.0622 50.2586C74.4817 52.2089 73.0245 41.0165 71.2274 36.4434C67.7274 25.4434 69.3204 28.7185 70 25.9999C68 21.5 56 2.63044 46.5 7.99993C32.584 15.8654 19 15.5 14.5 10.5" stroke="#5BA7FC" stroke-width="1.1"/>
</svg>
