<svg width="126" height="158" viewBox="0 0 126 158" fill="none" xmlns="http://www.w3.org/2000/svg">
<path d="M28.4302 10.5268C32.9302 15.5268 46.5302 15.9268 60.4302 8.02684C69.9302 2.62684 81.9302 21.5268 83.9302 26.0268C83.2302 28.7268 81.6302 25.4268 85.1302 36.4268C86.9302 41.0268 88.4302 52.2268 84.9302 50.2268C81.5302 48.2268 75.2302 46.5268 66.2302 43.6268C57.2302 40.7268 48.1302 43.7268 46.8302 52.3268C45.4302 60.9268 38.1302 57.1268 37.6302 55.8268C37.1302 54.4268 33.3302 50.3268 28.3302 49.0268C23.3302 47.6268 16.9302 51.5268 16.5302 53.8268C16.1302 56.1268 15.9302 61.3268 15.9302 61.3268C15.9302 61.3268 15.9302 57.3268 15.9302 54.8268C15.9302 52.3268 13.2302 38.3268 17.0302 28.1268C20.8302 18.0268 24.3302 13.9268 32.0302 7.32684C39.8302 0.726844 56.3302 -0.773156 67.3302 3.12684C78.3302 7.02684 86.9302 15.1268 88.9302 22.3268C90.9302 29.5268 90.9302 32.1268 92.2302 36.7268C93.6302 41.3268 94.0302 45.5268 94.6302 48.5268C95.2302 51.5268 97.4302 51.7268 99.1302 55.2268C100.83 58.7268 96.4302 60.6268 97.3302 62.3268C98.2302 64.0268 97.2302 68.0268 94.4302 67.9268C91.7302 67.8268 92.1302 63.9268 91.8302 65.2268C91.5302 66.5268 90.9302 69.0268 91.4302 74.1268C91.8302 79.2268 90.1302 82.5268 90.2302 87.4268C90.3302 92.3268 90.9302 98.2268 90.9302 98.2268C90.9302 98.2268 91.4302 78.2268 93.3302 78.5268C95.2302 78.8268 97.6302 76.9268 98.4302 73.2268C99.2302 69.5268 100.43 68.9268 101.23 62.7268C102.03 56.4268 102.33 53.3268 99.6302 50.4268C96.9302 47.5268 92.3302 50.6268 92.1302 55.0268C91.9302 59.4268 90.6302 59.5268 87.7302 56.3268C84.9302 53.1268 72.5302 54.0268 70.5302 53.6268C68.5302 53.3268 67.1302 53.5268 65.6302 53.7268C64.1302 54.0268 59.7302 55.4268 59.3302 54.8268C58.8302 54.2268 58.5302 53.6268 59.8302 52.8268C61.1302 51.9268 64.3302 52.3268 64.6302 52.8268C64.9302 53.2268 64.8302 54.2268 62.7302 54.8268C60.6302 55.4268 56.8302 55.3268 55.6302 55.4268C54.4302 55.5268 52.6302 56.3268 53.5302 55.4268C54.4302 54.5268 59.8302 51.5268 63.2302 52.1268C66.6302 52.6268 89.2302 54.9268 88.7302 65.2268C88.2302 75.5268 84.7302 79.6268 82.4302 83.2268C80.1302 86.8268 79.1302 85.9268 78.1302 84.7268C77.8302 84.4268 75.5302 84.2268 73.8302 86.5268C67.7302 94.6268 71.0302 99.1268 68.1302 103.927C66.6302 106.527 64.7302 101.727 62.9302 105.427C61.1302 109.127 56.1302 110.127 54.3302 108.627C52.6302 107.127 52.1302 104.027 53.9302 100.927C55.7302 97.8268 56.0302 96.3268 54.8302 97.3268C53.5302 98.4268 49.2302 104.327 45.8302 104.427C42.0302 104.527 39.2302 98.8268 39.2302 99.9268C39.3302 102.027 37.1302 106.427 35.1302 108.827C33.1302 111.227 32.4302 106.627 31.7302 103.627C30.9302 100.627 30.1302 105.927 28.8302 107.827C27.5302 109.727 26.2302 114.227 24.9302 109.227C23.5302 104.227 23.6302 94.0268 23.0302 95.8268C22.4302 97.6268 21.0302 97.6268 20.4302 94.7268C19.7302 90.9268 16.7302 83.3268 20.4302 87.7268C21.1302 88.5268 21.9302 89.2268 22.6302 88.9268C23.8302 88.6268 25.6302 83.9268 26.9302 82.6268C28.2302 81.3268 31.7302 76.7268 31.7302 76.7268C31.7302 76.7268 30.0302 80.1268 28.4302 82.0268C23.0302 88.5268 25.0302 89.7268 27.0302 93.4268C28.0302 95.3268 29.3302 95.8268 30.3302 97.1268C31.3302 98.4268 32.1302 100.327 32.1302 98.8268C32.1302 97.3268 33.3302 97.2268 33.3302 94.3268C33.3302 91.4268 31.7302 90.2268 32.9302 89.9268C34.1302 89.7268 36.4302 90.2268 38.5302 90.2268C40.6302 90.2268 42.2302 90.7268 44.6302 90.7268C47.0302 90.7268 49.7302 90.2268 52.5302 89.6268C55.4302 88.9268 61.6302 88.3268 61.6302 88.3268C61.6302 88.3268 58.3302 91.5268 53.9302 93.0268C49.4302 94.6268 41.3302 95.8268 37.6302 94.1268C33.9302 92.4268 35.4302 91.0268 34.8302 90.3268C34.2302 89.6268 32.2302 89.4268 32.8302 89.4268C33.4302 89.4268 33.6302 89.6268 35.5302 89.3268C37.4302 88.9268 40.0302 87.7268 41.8302 88.1268C43.5302 88.5268 45.1302 88.6268 46.3302 88.1268C47.5302 87.5268 52.9302 88.0268 56.7302 88.0268C60.5302 88.0268 64.7302 85.6268 66.2302 88.6268C67.8302 91.7268 68.7302 94.7268 69.1302 91.4268C69.4302 88.0268 70.4302 87.4268 69.9302 84.4268C69.4302 81.4268 66.5302 78.9268 63.7302 77.4268C60.9302 76.0268 60.1302 75.1268 56.6302 71.3268C53.1302 67.6268 53.7302 68.9268 55.0302 72.4268C56.3302 75.9268 53.6302 76.7268 52.4302 77.2268C51.3302 77.8268 52.3302 76.7268 50.9302 75.7268C49.5302 74.6268 44.6302 75.6268 43.5302 76.6268C42.4302 77.6268 42.7302 78.0268 45.4302 77.7268C48.1302 77.4268 51.4302 77.6268 50.5302 78.3268C49.6302 78.9268 43.7302 79.2268 43.1302 79.2268C42.5302 79.2268 39.4302 78.9268 37.6302 77.7268C35.7302 76.6268 35.2302 75.4268 35.1302 76.4268C35.1302 77.4268 36.6302 77.5268 36.8302 77.6268C37.0302 77.7268 34.9302 78.4268 33.6302 75.9268C32.3302 73.4268 33.7302 71.1268 35.4302 68.6268C37.1302 66.1268 38.1302 64.0268 38.1302 60.5268C38.1302 57.0268 33.7302 56.8268 33.7302 56.8268C33.7302 56.8268 33.8302 57.4268 32.1302 58.4268C30.4302 59.4268 27.8302 58.6268 27.6302 57.5268C27.3302 56.4268 28.3302 56.3268 27.3302 56.5268C26.3302 56.7268 23.8302 58.8268 25.3302 58.9268C26.9302 58.9268 32.0302 59.0268 33.4302 58.3268C34.8302 57.6268 35.9302 58.8268 35.9302 58.5268C36.0302 58.3268 35.6302 56.5268 31.7302 55.7268C27.8302 54.9268 21.2302 57.6268 19.3302 59.3268C17.4302 61.1268 16.6302 62.2268 15.9302 67.3268C15.0302 72.6268 14.9302 76.9268 15.9302 79.8268C16.9302 82.8268 16.9302 84.9268 17.5302 89.1268C18.1302 93.3268 17.7302 97.2268 19.5302 101.027C21.3302 104.827 22.2302 108.427 23.8302 112.027C25.4302 115.627 27.8302 115.927 29.0302 117.227C30.2302 118.527 28.9302 117.827 29.4302 119.127C29.9302 120.527 32.2302 122.427 33.8302 123.627C35.4302 124.827 35.1302 126.827 36.5302 128.527C37.9302 130.227 41.6302 131.027 41.2302 129.827C40.9302 128.627 41.7302 126.927 42.7302 127.627C43.7302 128.327 40.3302 130.527 45.1302 128.727C49.9302 126.927 52.9302 127.527 54.4302 127.527C55.9302 127.527 54.9302 128.127 55.7302 128.127C56.5302 128.127 57.3302 127.927 63.6302 124.527C69.9302 121.027 74.2302 118.227 77.7302 113.327C81.2302 108.427 82.4302 113.027 85.0302 106.727C87.6302 100.427 90.8302 100.127 90.8302 100.127C90.8302 100.127 90.9302 106.127 92.1302 108.627C93.3302 111.127 100.53 113.027 103.53 114.627C106.53 116.227 106.83 118.627 105.23 124.327C103.63 130.027 98.3302 137.727 91.0302 142.327C83.7302 146.927 67.1302 155.927 55.8302 150.127C44.5302 144.327 36.3302 131.427 36.3302 131.427C36.3302 131.427 35.2302 128.127 34.2302 126.727C33.1302 125.327 28.0302 123.427 29.4302 128.927C30.9302 134.527 35.4302 146.727 54.0302 154.727C72.7302 162.727 96.5302 148.127 106.83 135.727C117.13 123.327 108.73 115.127 106.63 113.927C104.53 112.727 99.7302 111.427 99.7302 111.427" stroke="#5BA7FC" stroke-width="1.5"/>
</svg>
