<svg width="484" height="96" viewBox="0 0 484 96" fill="none" xmlns="http://www.w3.org/2000/svg">
<g clip-path="url(#clip0)">
<path d="M0 69.6V56.9C0 53.5 2.8 50.7 6.3 50.7H18.9C22.4 50.7 25.2 47.9 25.2 44.4V31.7C25.2 28.3 28 25.5 31.5 25.5H44.1C47.6 25.5 50.4 22.7 50.4 19.2V6.6C50.4 3.1 53.2 0.3 56.7 0.3H69.3C72.8 0.3 75.6 3.1 75.6 6.6V63.3C75.6 70.2 69.9 75.9 63 75.9H6.3C2.8 75.9 0 73.1 0 69.6Z" fill="black"/>
<path d="M424.7 77.2H408.7V23.9H424.7V77.2Z" fill="black"/>
<path d="M384.1 32.1C385.7 29.2 387.6 27 389.8 25.3C391.9 23.7 394.4 22.9 397.1 22.9C399.5 22.9 401.5 23.4 403 24.6C402.6 28.5 402.3 32.4 402 36.3C401.8 37 401.5 37.5 401.1 37.8C400.7 38.1 400.2 38.2 399.5 38.2C399.2 38.2 398.9 38.2 398.4 38.2C398 38.1 397.5 38.1 397 38C396.5 38 396.1 37.9 395.6 37.9C395.1 37.8 394.6 37.8 394.2 37.8C391.9 37.8 390 38.4 388.6 39.7C387.2 40.9 386.1 42.6 385.1 44.8V77.2H369.2V23.9H378.6C379.4 23.9 380.1 24 380.6 24.1C381.1 24.2 381.6 24.5 382 24.7C382.3 25 382.6 25.4 382.8 25.9C383 26.4 383.1 27 383.3 27.6C383.5 29.1 383.8 30.6 384.1 32.1V32.1Z" fill="black"/>
<path d="M288.5 55.5C285.3 55.6 282.7 55.9 280.6 56.3C278.6 56.7 277 57.2 275.8 57.8C274.6 58.5 273.7 59.2 273.3 60C272.8 60.7 272.6 61.6 272.6 62.5C272.6 64.3 273.1 65.6 274.1 66.3C275.1 67.1 276.5 67.4 278.4 67.4C280.5 67.4 282.3 67.1 283.8 66.4C285.4 65.7 286.9 64.5 288.5 62.9V55.5ZM259.8 31.3C263.1 28.5 266.6 26.3 270.6 25C274.5 23.6 278.7 22.9 283.2 22.9C286.4 22.9 289.3 23.4 291.9 24.4C294.5 25.5 296.6 26.9 298.4 28.8C300.2 30.7 301.6 32.9 302.6 35.5C303.5 38 304 40.8 304 43.9V77.2H296.7C295.2 77.2 294.1 77 293.3 76.5C292.5 76.1 291.9 75.3 291.4 74C291 73 290.6 72 290.3 71C288.9 72.2 287.6 73.2 286.4 74C285.2 74.9 283.9 75.6 282.6 76.2C281.3 76.8 279.8 77.3 278.4 77.5C276.9 77.8 275.2 78 273.4 78C271 78 268.8 77.7 266.8 77C264.8 76.4 263.1 75.5 261.7 74.2C260.3 73 259.3 71.5 258.5 69.6C257.8 67.8 257.4 65.7 257.4 63.3C257.4 61.4 257.9 59.4 258.8 57.5C259.8 55.5 261.4 53.7 263.8 52.1C266.2 50.4 269.3 49.1 273.4 48C277.4 46.9 282.4 46.3 288.5 46.1V43.9C288.5 40.8 287.9 38.5 286.6 37.1C285.3 35.7 283.5 35 281.1 35C279.2 35 277.7 35.2 276.5 35.7C275.3 36.1 274.2 36.5 273.3 37C272.3 37.6 271.4 38 270.5 38.4C269.6 38.8 268.6 39 267.3 39C266.2 39 265.3 38.8 264.6 38.2C263.8 37.7 263.2 37 262.7 36.3C261.8 34.6 260.8 33 259.8 31.3V31.3Z" fill="black"/>
<path d="M209.7 35.6C209.3 36.2 208.8 36.7 208.4 36.9C207.9 37.2 207.3 37.4 206.6 37.4C205.8 37.4 205.1 37.2 204.3 36.9C203.6 36.5 202.8 36.2 201.9 35.8C201 35.4 200 35.1 198.9 34.8C197.8 34.4 196.6 34.3 195.2 34.3C193.2 34.3 191.6 34.7 190.5 35.4C189.5 36.2 188.9 37.3 188.9 38.6C188.9 39.6 189.3 40.5 190 41.1C190.7 41.8 191.6 42.3 192.8 42.8C193.9 43.3 195.3 43.8 196.7 44.2C198.2 44.7 199.7 45.2 201.2 45.7C202.8 46.3 204.3 46.9 205.8 47.6C207.2 48.4 208.6 49.3 209.7 50.4C210.9 51.5 211.8 52.8 212.5 54.3C213.2 55.8 213.6 57.7 213.6 59.8C213.6 62.5 213.1 64.9 212.1 67.1C211.2 69.4 209.7 71.3 207.8 72.9C205.9 74.5 203.6 75.8 200.8 76.6C198 77.5 194.8 78 191.2 78C189.4 78 187.5 77.8 185.7 77.5C183.9 77.1 182.2 76.7 180.5 76.1C178.8 75.5 177.2 74.8 175.8 74C174.3 73.2 173.1 72.3 172.1 71.4C173.3 69.5 174.5 67.5 175.8 65.5C176.2 64.9 176.7 64.3 177.3 63.9C178 63.5 178.8 63.3 179.8 63.3C180.7 63.3 181.5 63.5 182.3 64C183 64.4 183.8 64.8 184.7 65.3C185.5 65.8 186.5 66.2 187.7 66.6C188.8 67 190.3 67.2 192 67.2C193.2 67.2 194.3 67.1 195.1 66.9C196 66.6 196.7 66.3 197.2 65.8C197.7 65.4 198.1 64.9 198.3 64.3C198.6 63.8 198.7 63.2 198.7 62.6C198.7 61.6 198.3 60.7 197.6 60C196.9 59.3 195.9 58.7 194.8 58.2C193.6 57.7 192.3 57.3 190.8 56.8C189.3 56.4 187.8 55.9 186.2 55.4C184.7 54.8 183.2 54.2 181.7 53.4C180.2 52.6 178.9 51.7 177.7 50.5C176.6 49.3 175.6 47.8 174.9 46.1C174.2 44.4 173.8 42.4 173.8 39.9C173.8 37.7 174.3 35.5 175.1 33.5C176 31.4 177.3 29.7 179.1 28.1C180.8 26.6 183 25.3 185.6 24.4C188.3 23.5 191.3 23.1 194.9 23.1C196.8 23.1 198.7 23.2 200.4 23.6C202.2 23.9 203.9 24.4 205.5 25C207.1 25.6 208.5 26.4 209.8 27.2C211.1 28 212.3 29 213.3 30C212.1 31.8 210.9 33.7 209.7 35.6V35.6Z" fill="black"/>
<path d="M132 29.7C133 28.7 134 27.8 135.1 27C136.2 26.2 137.4 25.5 138.7 24.9C139.9 24.3 141.3 23.9 142.7 23.6C144.2 23.2 145.8 23.1 147.5 23.1C150.4 23.1 153 23.6 155.2 24.6C157.4 25.6 159.3 27 160.9 28.8C162.4 30.6 163.6 32.7 164.4 35.2C165.2 37.7 165.5 40.4 165.5 43.3V77.2H149.6V43.3C149.6 40.7 149 38.7 147.8 37.2C146.6 35.8 144.9 35 142.5 35C140.8 35 139.2 35.4 137.6 36.1C136.1 36.9 134.6 37.9 133.2 39.2V77.2H117.3V23.9H127.1C129.1 23.9 130.4 24.8 131 26.6C131.3 27.6 131.7 28.6 132 29.7V29.7Z" fill="black"/>
<path d="M107.8 9.3C107.8 10.6 107.5 11.8 107 12.9C106.5 14 105.8 15 104.9 15.8C104 16.6 103 17.3 101.8 17.8C100.6 18.3 99.3 18.6 98 18.6C96.7 18.6 95.5 18.3 94.4 17.8C93.2 17.3 92.2 16.6 91.4 15.8C90.5 15 89.8 14 89.3 12.9C88.8 11.8 88.6 10.6 88.6 9.3C88.6 8 88.8 6.8 89.3 5.7C89.8 4.5 90.5 3.5 91.4 2.7C92.2 1.8 93.2 1.2 94.4 0.7C95.5 0.2 96.7 0 98 0C99.3 0 100.6 0.2 101.8 0.7C103 1.2 104 1.8 104.9 2.7C105.8 3.5 106.5 4.5 107 5.7C107.5 6.8 107.8 8 107.8 9.3V9.3Z" fill="black"/>
<path d="M90.2 64.6V23.9H106.1V77.2H102.8C95.8 77.2 90.2 71.5 90.2 64.6V64.6Z" fill="black"/>
<path d="M468.1 38.2C466.9 36.8 465.6 35.9 464.2 35.4C462.8 34.8 461.3 34.6 459.8 34.6C458.3 34.6 457 34.9 455.7 35.5C454.5 36 453.4 37 452.5 38.3C451.6 39.5 450.9 41.2 450.4 43.3C449.9 45.3 449.6 47.8 449.6 50.7C449.6 53.5 449.8 55.9 450.2 57.8C450.6 59.7 451.2 61.3 452 62.4C452.7 63.6 453.6 64.5 454.6 65C455.6 65.5 456.8 65.8 458 65.8C459.2 65.8 460.3 65.6 461.2 65.4C462.1 65.2 463 64.9 463.8 64.5C464.6 64.1 465.3 63.5 466 62.9C466.7 62.3 467.4 61.5 468.1 60.7V38.2ZM484 77.2H473.8C470.7 77.2 468.1 74.6 468.1 71.4C467.3 72.1 466.5 72.9 465.7 73.5C464.5 74.4 463.3 75.2 461.9 75.9C460.6 76.6 459.1 77.1 457.6 77.4C456 77.8 454.3 78 452.5 78C449.7 78 447.2 77.4 444.8 76.1C442.4 74.9 440.4 73.1 438.7 70.8C437 68.5 435.6 65.6 434.6 62.2C433.7 58.9 433.2 55 433.2 50.7C433.2 46.7 433.7 43 434.8 39.6C435.9 36.2 437.5 33.3 439.5 30.8C441.5 28.3 443.9 26.4 446.7 25C449.5 23.6 452.6 22.9 456 22.9C458.8 22.9 461.1 23.3 463 24.1C464.9 24.8 466.6 25.9 468.1 27.2V6.6C468.1 3.1 470.9 0.3 474.4 0.3H484V77.2Z" fill="black"/>
<path d="M327.9 74.3C326.9 75 326.1 75.8 325.5 76.6C324.8 77.5 324.5 78.4 324.5 79.5C324.5 80.2 324.7 80.9 325 81.5C325.3 82.1 325.9 82.7 326.7 83.1C327.5 83.6 328.6 83.9 330 84.2C331.4 84.4 333.2 84.6 335.3 84.6C337.6 84.6 339.5 84.4 340.9 84.1C342.4 83.9 343.6 83.5 344.5 83C345.3 82.5 345.9 82 346.3 81.3C346.6 80.6 346.8 79.9 346.8 79.1C346.8 77.8 346.2 76.9 345.1 76.4C344 75.8 342.5 75.4 340.7 75.2C338.9 74.9 336.8 74.8 334.6 74.7C332.4 74.7 330.1 74.5 327.9 74.3V74.3ZM334.5 47.7C337.1 47.7 339 47.1 340.2 45.7C341.4 44.4 342 42.7 342 40.6C342 38.5 341.4 36.8 340.2 35.6C339 34.3 337.1 33.7 334.5 33.7C331.8 33.7 329.9 34.3 328.7 35.6C327.6 36.8 327 38.5 327 40.6C327 41.7 327.1 42.6 327.4 43.5C327.7 44.3 328.2 45.1 328.8 45.7C329.4 46.3 330.2 46.8 331.1 47.2C332 47.5 333.2 47.7 334.5 47.7V47.7ZM362.5 25.5V31.3C362.5 32.2 362.3 32.9 361.8 33.4C361.3 34 360.4 34.4 359.2 34.6C357.9 34.9 356.7 35.2 355.4 35.5C355.6 36.3 355.7 37 355.9 37.8C356 38.6 356 39.4 356 40.3C356 42.9 355.5 45.3 354.4 47.5C353.3 49.6 351.7 51.4 349.8 52.9C347.9 54.4 345.6 55.5 342.9 56.3C340.3 57.1 337.5 57.5 334.5 57.5C333.6 57.5 332.8 57.5 332.1 57.5C331.3 57.4 330.5 57.3 329.7 57.2C328.6 57.9 328 58.7 328 59.6C328 60.5 328.5 61.1 329.4 61.5C330.4 61.9 331.7 62.2 333.2 62.3C334.8 62.5 336.6 62.6 338.6 62.6C340.6 62.7 342.6 62.8 344.7 63C346.8 63.2 348.9 63.5 350.9 64C352.9 64.4 354.7 65.1 356.2 66.1C357.8 67.1 359.1 68.4 360 70.1C361 71.8 361.5 73.9 361.5 76.4C361.5 78.8 360.9 81.2 359.7 83.5C358.6 85.8 356.9 87.8 354.6 89.6C352.3 91.4 349.6 92.8 346.3 93.9C343 95 339.2 95.5 335 95.5C330.8 95.5 327.2 95.1 324.2 94.3C321.1 93.5 318.6 92.5 316.6 91.2C314.6 89.9 313.1 88.4 312.2 86.8C311.2 85.1 310.7 83.3 310.7 81.5C310.7 79.2 311.4 77.2 312.8 75.6C314.2 74 316.1 72.8 318.5 71.8C317.2 71 316.2 70 315.5 68.8C314.7 67.6 314.3 66 314.3 64C314.3 63.2 314.5 62.4 314.7 61.5C315 60.6 315.5 59.8 316.1 58.9C316.7 58.1 317.4 57.3 318.3 56.6C319.2 55.8 320.2 55.1 321.5 54.6C318.7 53.1 316.5 51.1 314.9 48.7C313.3 46.3 312.5 43.5 312.5 40.3C312.5 37.6 313.1 35.2 314.2 33.1C315.3 30.9 316.9 29.1 318.8 27.6C320.8 26.1 323.1 25 325.8 24.2C328.5 23.4 331.4 23 334.5 23C339 23 343 23.8 346.5 25.5H362.5Z" fill="black"/>
<path d="M225 24V14.7C225 11.2 227.8 8.4 231.3 8.4H240.9V24H254.1V34.9H240.9V61.3C240.9 62.6 241.2 63.6 241.8 64.4C242.4 65.2 243.3 65.6 244.4 65.6C245 65.6 245.5 65.5 245.9 65.4C246.3 65.3 246.6 65.2 246.9 65C247.2 64.9 247.5 64.7 247.7 64.6C248 64.5 248.3 64.4 248.6 64.4C249.1 64.4 249.5 64.5 249.8 64.8C250.1 65 250.4 65.3 250.7 65.8C252.3 68.3 253.9 70.8 255.5 73.4C253.5 74.9 251.2 76.1 248.6 76.8C246 77.6 243.4 78 240.6 78C238.1 78 235.9 77.6 233.9 76.9C232 76.1 230.4 75.1 229.1 73.7C227.7 72.4 226.7 70.8 226.1 68.8C225.4 66.9 225 64.8 225 62.4V34.9H220.5C219.7 34.9 219 34.6 218.4 34.1C217.8 33.6 217.5 32.8 217.5 31.8V25.5V24H225Z" fill="black"/>
<path d="M426.3 9.3C426.3 10.6 426 11.8 425.5 12.9C425 14 424.3 15 423.4 15.8C422.5 16.6 421.5 17.3 420.3 17.8C419.1 18.3 417.9 18.6 416.5 18.6C415.2 18.6 414 18.3 412.9 17.8C411.8 17.3 410.8 16.6 409.9 15.8C409 15 408.3 14 407.8 12.9C407.3 11.8 407.1 10.6 407.1 9.3C407.1 8 407.3 6.8 407.8 5.7C408.3 4.5 409 3.5 409.9 2.7C410.8 1.8 411.8 1.2 412.9 0.7C414 0.2 415.2 0 416.5 0C417.9 0 419.1 0.2 420.3 0.7C421.5 1.2 422.5 1.8 423.4 2.7C424.3 3.5 425 4.5 425.5 5.7C426 6.8 426.3 8 426.3 9.3Z" fill="black"/>
</g>
<defs>
<clipPath id="clip0">
<rect width="484" height="95.5" fill="white"/>
</clipPath>
</defs>
</svg>
