<svg width="185" height="29" viewBox="0 0 185 29" fill="none" xmlns="http://www.w3.org/2000/svg">
<path d="M2.212 28C1.708 28 1.24 27.88 0.808004 27.64C0.376004 27.376 0.160004 26.992 0.160004 26.488V3.12401C0.160004 2.62001 0.400004 2.26001 0.880004 2.04401C1.384 1.80401 1.924 1.68401 2.5 1.68401C3.1 1.68401 3.64 1.80401 4.12 2.04401C4.6 2.26001 4.84 2.62001 4.84 3.12401V23.896H13.66C14.116 23.896 14.452 24.112 14.668 24.544C14.908 24.952 15.028 25.42 15.028 25.948C15.028 26.452 14.908 26.92 14.668 27.352C14.452 27.784 14.116 28 13.66 28H2.212ZM19.5063 28C18.8343 28 18.2823 27.844 17.8503 27.532C17.4183 27.22 17.2023 26.872 17.2023 26.488V12.34C17.2023 11.908 17.4183 11.56 17.8503 11.296C18.2823 11.032 18.8343 10.9 19.5063 10.9C20.1543 10.9 20.7063 11.032 21.1623 11.296C21.6183 11.56 21.8463 11.908 21.8463 12.34V26.488C21.8463 26.872 21.6183 27.22 21.1623 27.532C20.7063 27.844 20.1543 28 19.5063 28ZM19.5063 7.08401C18.7863 7.08401 18.1743 6.85601 17.6703 6.40001C17.1903 5.94401 16.9503 5.41601 16.9503 4.81601C16.9503 4.21601 17.1903 3.68801 17.6703 3.23201C18.1743 2.77601 18.7863 2.54801 19.5063 2.54801C20.2023 2.54801 20.7903 2.77601 21.2703 3.23201C21.7743 3.68801 22.0263 4.21601 22.0263 4.81601C22.0263 5.41601 21.7743 5.94401 21.2703 6.40001C20.7903 6.85601 20.2023 7.08401 19.5063 7.08401ZM27.6978 28C27.0258 28 26.4738 27.844 26.0418 27.532C25.6098 27.22 25.3938 26.872 25.3938 26.488V12.34C25.3938 11.908 25.6098 11.56 26.0418 11.296C26.4738 11.032 27.0258 10.9 27.6978 10.9C28.2498 10.9 28.7298 11.032 29.1378 11.296C29.5458 11.56 29.7498 11.908 29.7498 12.34V13.42C30.1098 12.724 30.6978 12.1 31.5138 11.548C32.3538 10.972 33.3738 10.684 34.5738 10.684C35.6778 10.684 36.6978 11.02 37.6338 11.692C38.5938 12.34 39.3498 13.228 39.9018 14.356C40.4778 15.46 40.7658 16.672 40.7658 17.992V26.488C40.7658 26.992 40.5258 27.376 40.0458 27.64C39.5658 27.88 39.0258 28 38.4258 28C37.8978 28 37.3818 27.88 36.8778 27.64C36.3738 27.376 36.1218 26.992 36.1218 26.488V17.992C36.1218 17.176 35.8098 16.432 35.1858 15.76C34.5858 15.088 33.8538 14.752 32.9898 14.752C32.2698 14.752 31.5978 15.04 30.9738 15.616C30.3498 16.192 30.0378 16.984 30.0378 17.992V26.488C30.0378 26.872 29.7978 27.22 29.3178 27.532C28.8618 27.844 28.3218 28 27.6978 28ZM46.5415 28C45.8695 28 45.3175 27.844 44.8855 27.532C44.4535 27.22 44.2375 26.872 44.2375 26.488V12.34C44.2375 11.908 44.4535 11.56 44.8855 11.296C45.3175 11.032 45.8695 10.9 46.5415 10.9C47.0935 10.9 47.5735 11.032 47.9815 11.296C48.3895 11.56 48.5935 11.908 48.5935 12.34V13.42C48.9535 12.724 49.5415 12.1 50.3575 11.548C51.1975 10.972 52.2175 10.684 53.4175 10.684C54.5215 10.684 55.5415 11.02 56.4775 11.692C57.4375 12.34 58.1935 13.228 58.7455 14.356C59.3215 15.46 59.6095 16.672 59.6095 17.992V26.488C59.6095 26.992 59.3695 27.376 58.8895 27.64C58.4095 27.88 57.8695 28 57.2695 28C56.7415 28 56.2255 27.88 55.7215 27.64C55.2175 27.376 54.9655 26.992 54.9655 26.488V17.992C54.9655 17.176 54.6535 16.432 54.0295 15.76C53.4295 15.088 52.6975 14.752 51.8335 14.752C51.1135 14.752 50.4415 15.04 49.8175 15.616C49.1935 16.192 48.8815 16.984 48.8815 17.992V26.488C48.8815 26.872 48.6415 27.22 48.1615 27.532C47.7055 27.844 47.1655 28 46.5415 28ZM70.7133 28.324C69.2973 28.324 67.9893 27.988 66.7893 27.316C65.6133 26.62 64.6653 25.72 63.9453 24.616C63.2493 23.488 62.9013 22.288 62.9013 21.016V12.376C62.9013 12.016 63.1293 11.68 63.5853 11.368C64.0413 11.056 64.5933 10.9 65.2413 10.9C65.8653 10.9 66.4053 11.056 66.8613 11.368C67.3173 11.68 67.5453 12.016 67.5453 12.376V21.016C67.5453 21.832 67.8573 22.576 68.4813 23.248C69.1053 23.92 69.8493 24.256 70.7133 24.256C71.6013 24.256 72.3453 23.92 72.9453 23.248C73.5693 22.576 73.8813 21.832 73.8813 21.016V12.34C73.8813 11.956 74.1093 11.62 74.5653 11.332C75.0213 11.044 75.5733 10.9 76.2213 10.9C76.8933 10.9 77.4453 11.044 77.8773 11.332C78.3093 11.62 78.5253 11.956 78.5253 12.34V21.016C78.5253 22.312 78.1653 23.524 77.4453 24.652C76.7493 25.756 75.8013 26.644 74.6013 27.316C73.4253 27.988 72.1293 28.324 70.7133 28.324ZM84.2642 28C83.5922 28 83.0402 27.844 82.6082 27.532C82.1762 27.22 81.9602 26.872 81.9602 26.488V12.34C81.9602 11.908 82.1762 11.56 82.6082 11.296C83.0402 11.032 83.5922 10.9 84.2642 10.9C84.8162 10.9 85.2962 11.032 85.7042 11.296C86.1122 11.56 86.3162 11.908 86.3162 12.34V13.42C86.6762 12.724 87.2642 12.1 88.0802 11.548C88.9202 10.972 89.9402 10.684 91.1402 10.684C92.2442 10.684 93.2642 11.02 94.2002 11.692C95.1602 12.34 95.9162 13.228 96.4682 14.356C97.0442 15.46 97.3322 16.672 97.3322 17.992V26.488C97.3322 26.992 97.0922 27.376 96.6122 27.64C96.1322 27.88 95.5922 28 94.9922 28C94.4642 28 93.9482 27.88 93.4442 27.64C92.9402 27.376 92.6882 26.992 92.6882 26.488V17.992C92.6882 17.176 92.3762 16.432 91.7522 15.76C91.1522 15.088 90.4202 14.752 89.5562 14.752C88.8362 14.752 88.1642 15.04 87.5402 15.616C86.9162 16.192 86.6042 16.984 86.6042 17.992V26.488C86.6042 26.872 86.3642 27.22 85.8842 27.532C85.4282 27.844 84.8882 28 84.2642 28ZM103.072 28C102.424 28 101.884 27.844 101.452 27.532C101.02 27.22 100.804 26.872 100.804 26.488V12.34C100.804 11.908 101.02 11.56 101.452 11.296C101.884 11.032 102.424 10.9 103.072 10.9C103.648 10.9 104.14 11.032 104.548 11.296C104.956 11.56 105.16 11.908 105.16 12.34V13.816C105.544 13.048 106.132 12.34 106.924 11.692C107.716 11.02 108.604 10.684 109.588 10.684H110.704C111.16 10.684 111.556 10.888 111.892 11.296C112.228 11.68 112.396 12.148 112.396 12.7C112.396 13.252 112.228 13.732 111.892 14.14C111.556 14.548 111.16 14.752 110.704 14.752H109.588C108.892 14.752 108.22 14.968 107.572 15.4C106.948 15.832 106.432 16.456 106.024 17.272C105.64 18.064 105.448 19 105.448 20.08V26.488C105.448 26.872 105.22 27.22 104.764 27.532C104.308 27.844 103.744 28 103.072 28ZM117.765 28.324C116.493 28.324 115.389 27.94 114.453 27.172C113.541 26.38 113.085 25.168 113.085 23.536C113.085 22.168 113.433 21.1 114.129 20.332C114.849 19.564 115.833 19.024 117.081 18.712C118.353 18.4 119.817 18.244 121.473 18.244H122.949V17.776C122.949 17.248 122.841 16.732 122.625 16.228C122.433 15.724 122.109 15.304 121.653 14.968C121.197 14.632 120.573 14.464 119.781 14.464C118.869 14.464 118.161 14.56 117.657 14.752C117.177 14.92 116.793 15.1 116.505 15.292C116.241 15.484 115.965 15.58 115.677 15.58C115.173 15.58 114.777 15.328 114.489 14.824C114.225 14.32 114.093 13.804 114.093 13.276C114.093 12.772 114.393 12.328 114.993 11.944C115.593 11.56 116.337 11.26 117.225 11.044C118.137 10.804 119.013 10.684 119.853 10.684C121.725 10.684 123.225 11.02 124.353 11.692C125.481 12.364 126.297 13.24 126.801 14.32C127.329 15.376 127.593 16.504 127.593 17.704V26.488C127.593 26.92 127.377 27.28 126.945 27.568C126.513 27.856 125.973 28 125.325 28C124.725 28 124.221 27.856 123.813 27.568C123.429 27.28 123.237 26.92 123.237 26.488V25.48C122.589 26.224 121.821 26.884 120.933 27.46C120.069 28.036 119.013 28.324 117.765 28.324ZM119.637 24.868C120.141 24.868 120.645 24.712 121.149 24.4C121.653 24.064 122.073 23.632 122.409 23.104C122.769 22.576 122.949 22.012 122.949 21.412V20.656H122.409C121.593 20.656 120.825 20.704 120.105 20.8C119.409 20.896 118.833 21.112 118.377 21.448C117.945 21.76 117.729 22.252 117.729 22.924C117.729 23.596 117.909 24.088 118.269 24.4C118.629 24.712 119.085 24.868 119.637 24.868ZM137.626 28C135.466 28 133.81 27.544 132.658 26.632C131.53 25.696 130.966 24.196 130.966 22.132V4.70801C130.966 4.27601 131.218 3.92801 131.722 3.66401C132.226 3.40001 132.742 3.26801 133.27 3.26801C133.846 3.26801 134.374 3.40001 134.854 3.66401C135.358 3.92801 135.61 4.27601 135.61 4.70801V10.9H139.858C140.242 10.9 140.53 11.08 140.722 11.44C140.938 11.776 141.046 12.16 141.046 12.592C141.046 13.024 140.938 13.42 140.722 13.78C140.53 14.116 140.242 14.284 139.858 14.284H135.61V22.132C135.61 22.852 135.754 23.356 136.042 23.644C136.354 23.932 136.882 24.076 137.626 24.076H139.03C139.702 24.076 140.194 24.28 140.506 24.688C140.842 25.096 141.01 25.54 141.01 26.02C141.01 26.524 140.842 26.98 140.506 27.388C140.194 27.796 139.702 28 139.03 28H137.626ZM147.085 28.324C145.813 28.324 144.709 27.94 143.773 27.172C142.861 26.38 142.405 25.168 142.405 23.536C142.405 22.168 142.753 21.1 143.449 20.332C144.169 19.564 145.153 19.024 146.401 18.712C147.673 18.4 149.137 18.244 150.793 18.244H152.269V17.776C152.269 17.248 152.161 16.732 151.945 16.228C151.753 15.724 151.429 15.304 150.973 14.968C150.517 14.632 149.893 14.464 149.101 14.464C148.189 14.464 147.481 14.56 146.977 14.752C146.497 14.92 146.113 15.1 145.825 15.292C145.561 15.484 145.285 15.58 144.997 15.58C144.493 15.58 144.097 15.328 143.809 14.824C143.545 14.32 143.413 13.804 143.413 13.276C143.413 12.772 143.713 12.328 144.313 11.944C144.913 11.56 145.657 11.26 146.545 11.044C147.457 10.804 148.333 10.684 149.173 10.684C151.045 10.684 152.545 11.02 153.673 11.692C154.801 12.364 155.617 13.24 156.121 14.32C156.649 15.376 156.913 16.504 156.913 17.704V26.488C156.913 26.92 156.697 27.28 156.265 27.568C155.833 27.856 155.293 28 154.645 28C154.045 28 153.541 27.856 153.133 27.568C152.749 27.28 152.557 26.92 152.557 26.488V25.48C151.909 26.224 151.141 26.884 150.253 27.46C149.389 28.036 148.333 28.324 147.085 28.324ZM148.957 24.868C149.461 24.868 149.965 24.712 150.469 24.4C150.973 24.064 151.393 23.632 151.729 23.104C152.089 22.576 152.269 22.012 152.269 21.412V20.656H151.729C150.913 20.656 150.145 20.704 149.425 20.8C148.729 20.896 148.153 21.112 147.697 21.448C147.265 21.76 147.049 22.252 147.049 22.924C147.049 23.596 147.229 24.088 147.589 24.4C147.949 24.712 148.405 24.868 148.957 24.868Z" fill="black"/>
<path d="M162.015 28.216C161.319 28.216 160.731 27.976 160.251 27.496C159.795 26.992 159.567 26.416 159.567 25.768C159.567 25.096 159.795 24.52 160.251 24.04C160.731 23.56 161.319 23.32 162.015 23.32C162.663 23.32 163.227 23.56 163.707 24.04C164.187 24.52 164.427 25.096 164.427 25.768C164.427 26.416 164.187 26.992 163.707 27.496C163.227 27.976 162.663 28.216 162.015 28.216ZM169.553 28C168.905 28 168.365 27.868 167.933 27.604C167.501 27.34 167.285 26.98 167.285 26.524V8.812C167.285 7.396 167.633 6.08799 168.329 4.88799C169.049 3.68799 170.069 2.72799 171.389 2.00799C172.733 1.28799 174.329 0.927994 176.177 0.927994C177.185 0.927994 178.157 1.03599 179.093 1.25199C180.053 1.46799 180.833 1.76799 181.433 2.15199C182.033 2.53599 182.333 2.97999 182.333 3.48399C182.333 3.69999 182.273 4.02399 182.153 4.45599C182.033 4.88799 181.853 5.28399 181.613 5.64399C181.373 6.00399 181.061 6.18399 180.677 6.18399C180.389 6.18399 180.077 6.07599 179.741 5.85999C179.429 5.64399 178.997 5.42799 178.445 5.21199C177.917 4.97199 177.173 4.85199 176.213 4.85199C174.893 4.85199 173.849 5.17599 173.081 5.82399C172.313 6.44799 171.929 7.38399 171.929 8.63199V10.9H175.601C175.985 10.9 176.285 11.08 176.501 11.44C176.717 11.776 176.825 12.16 176.825 12.592C176.825 13.024 176.717 13.42 176.501 13.78C176.285 14.116 175.985 14.284 175.601 14.284H171.929V26.524C171.929 26.98 171.689 27.34 171.209 27.604C170.729 27.868 170.177 28 169.553 28ZM181.685 28C181.013 28 180.461 27.844 180.029 27.532C179.621 27.22 179.417 26.872 179.417 26.488V12.34C179.417 11.908 179.621 11.56 180.029 11.296C180.461 11.032 181.013 10.9 181.685 10.9C182.333 10.9 182.885 11.032 183.341 11.296C183.821 11.56 184.061 11.908 184.061 12.34V26.488C184.061 26.872 183.821 27.22 183.341 27.532C182.885 27.844 182.333 28 181.685 28Z" fill="black"/>
</svg>
