<svg width="122" height="35" viewBox="0 0 122 35" fill="none" xmlns="http://www.w3.org/2000/svg">
<path fill-rule="evenodd" clip-rule="evenodd" d="M57.1946 13.8849H59.2682C60.9992 13.8849 61.9058 13.0532 61.9058 11.5576C61.9058 10.0633 60.9689 9.23291 59.181 9.23291H57.1946V13.8849ZM51.5782 8.12471C51.5782 6.12941 52.5973 5.04971 54.47 5.04971H59.3239C64.5736 5.04971 67.4414 7.26591 67.4414 11.5576C67.4414 15.8247 64.6875 17.9286 59.4933 17.9286H57.2794V22.9695H51.5782V8.12471Z" fill="#FFFFFE"/>
<path fill-rule="evenodd" clip-rule="evenodd" d="M69.0006 7.48831C69.0006 5.74351 69.8226 4.91171 71.384 4.91171H72.2072C73.8242 4.91171 74.6765 5.74351 74.6765 7.48831V18.1509H80.2651C82.0264 18.1509 82.8761 18.9271 82.8761 20.451V20.5313C82.8761 22.1106 82.0264 22.9696 80.2651 22.9696H69.0006V7.48831Z" fill="#FFFFFE"/>
<path fill-rule="evenodd" clip-rule="evenodd" d="M91.0216 15.2707H94.967L92.9801 10.0634L91.0216 15.2707ZM95.988 19.259H90.0569L88.6091 22.9695H82.9333L89.4893 6.43551C89.7737 5.54841 90.5386 4.91281 93.0915 4.91281C95.676 4.91281 96.327 5.54841 96.612 6.43551L103.451 22.9695H97.519L95.988 19.259Z" fill="#FFFFFE"/>
<path fill-rule="evenodd" clip-rule="evenodd" d="M104.188 7.48831C104.188 5.77061 105.068 4.91171 106.516 4.91171H107.056C108.388 4.91171 108.813 5.30041 109.607 6.21371L116.191 14.5774V5.05001H121.527V20.5314C121.527 22.2503 120.645 23.1079 119.228 23.1079H118.775C117.411 23.1079 117.015 22.776 116.249 21.8887L109.524 13.3891V22.9697H104.188V7.48831Z" fill="#FFFFFE"/>
<path fill-rule="evenodd" clip-rule="evenodd" d="M52.0168 28.8424C52.0168 28.3846 52.2976 28.1564 52.7111 28.1564H52.9513C53.3825 28.1564 53.6707 28.3846 53.6707 28.8424V33.4116H52.0168V28.8424Z" fill="#FFFFFE"/>
<path fill-rule="evenodd" clip-rule="evenodd" d="M54.9036 28.8999C54.9036 28.3964 55.1615 28.1484 55.5812 28.1484H55.7406C56.1287 28.1484 56.2513 28.2606 56.4841 28.5297L58.4033 30.9668V28.1879H59.9585V32.7018C59.9585 33.2016 59.7018 33.4532 59.2884 33.4532H59.157C58.7599 33.4532 58.6436 33.3545 58.4198 33.0978L56.4575 30.6189V33.4125H54.9036V28.8999Z" fill="#FFFFFE"/>
<path fill-rule="evenodd" clip-rule="evenodd" d="M60.8353 28.8832V28.8598C60.8353 28.4156 61.1008 28.1873 61.5977 28.1873H65.0294C65.5427 28.1873 65.7993 28.4156 65.7993 28.8598V28.8832C65.7993 29.3433 65.5427 29.5939 65.0294 29.5939H64.162V33.4118H62.4968V29.5939H61.5977C61.1008 29.5939 60.8353 29.3433 60.8353 28.8832Z" fill="#FFFFFE"/>
<path fill-rule="evenodd" clip-rule="evenodd" d="M66.6688 32.5988V29.0831C66.6688 28.5032 66.966 28.1873 67.5121 28.1873H71.0955V29.5854H68.324V30.1111H70.3912V31.4192H68.324V32.0249H71.1017V33.4119H67.5121C67.0064 33.4119 66.6688 33.1441 66.6688 32.5988Z" fill="#FFFFFE"/>
<path fill-rule="evenodd" clip-rule="evenodd" d="M73.8094 30.635H74.5035C75.0006 30.635 75.2484 30.4167 75.2484 30.0305C75.2484 29.6257 75.0069 29.416 74.4871 29.416H73.8094V30.635ZM74.893 32.7661L74.1318 31.7827H73.8335V33.4114H72.1783V29.084C72.1783 28.5028 72.4768 28.1881 73.023 28.1881H74.6781C76.165 28.1881 76.9097 28.7866 76.9097 29.9021C76.9097 30.6597 76.5052 31.2237 75.7541 31.4335L76.9604 32.8945C77.0096 32.9599 76.7213 33.4535 76.0082 33.4535C75.496 33.4535 75.2381 33.2338 74.893 32.7661Z" fill="#FFFFFE"/>
<path fill-rule="evenodd" clip-rule="evenodd" d="M77.9708 28.8999C77.9708 28.3964 78.2263 28.1484 78.6473 28.1484H78.804C79.1948 28.1484 79.3199 28.2606 79.5526 28.5297L81.4695 30.9668V28.1879H83.0246V32.7018C83.0246 33.2016 82.7693 33.4532 82.3544 33.4532H82.2205C81.8248 33.4532 81.711 33.3545 81.4858 33.0978L79.5247 30.6189V33.4125H77.9708V28.8999Z" fill="#FFFFFE"/>
<path fill-rule="evenodd" clip-rule="evenodd" d="M86.0534 31.168H87.2027L86.6262 29.6502L86.0534 31.168ZM87.4998 32.3328H85.7739L85.3517 33.4125H83.6967L85.6058 28.5939C85.6881 28.3337 85.9131 28.1473 86.6578 28.1473C87.4088 28.1473 87.5997 28.3337 87.6819 28.5939L89.6771 33.4125H87.9487L87.4998 32.3328Z" fill="#FFFFFE"/>
<path fill-rule="evenodd" clip-rule="evenodd" d="M90.0077 28.8832V28.8598C90.0077 28.4156 90.2721 28.1873 90.7702 28.1873H94.203C94.715 28.1873 94.971 28.4156 94.971 28.8598V28.8832C94.971 29.3433 94.715 29.5939 94.203 29.5939H93.3331V33.4118H91.673V29.5939H90.7702C90.2721 29.5939 90.0077 29.3433 90.0077 28.8832Z" fill="#FFFFFE"/>
<path fill-rule="evenodd" clip-rule="evenodd" d="M95.9 28.8424C95.9 28.3846 96.181 28.1564 96.595 28.1564H96.836C97.264 28.1564 97.554 28.3846 97.554 28.8424V33.4116H95.9V28.8424Z" fill="#FFFFFE"/>
<path fill-rule="evenodd" clip-rule="evenodd" d="M102.616 30.7963C102.616 30.03 102.144 29.5056 101.434 29.5056C100.707 29.5056 100.243 30.0053 100.243 30.7963C100.243 31.5712 100.716 32.0796 101.434 32.0796C102.144 32.0796 102.616 31.5712 102.616 30.7963ZM98.605 30.7963C98.605 29.2143 99.788 28.0767 101.434 28.0767C103.081 28.0767 104.256 29.207 104.256 30.7963C104.256 32.3868 103.081 33.5258 101.434 33.5258C99.781 33.5258 98.605 32.3954 98.605 30.7963Z" fill="#FFFFFE"/>
<path fill-rule="evenodd" clip-rule="evenodd" d="M105.257 28.8999C105.257 28.3964 105.514 28.1484 105.934 28.1484H106.091C106.481 28.1484 106.605 28.2606 106.837 28.5297L108.756 30.9668V28.1879H110.311V32.7018C110.311 33.2016 110.056 33.4532 109.64 33.4532H109.508C109.11 33.4532 108.995 33.3545 108.771 33.0978L106.811 30.6189V33.4125H105.257V28.8999Z" fill="#FFFFFE"/>
<path fill-rule="evenodd" clip-rule="evenodd" d="M113.339 31.168H114.489L113.91 29.6502L113.339 31.168ZM114.786 32.3328H113.057L112.636 33.4125H110.98L112.894 28.5939C112.976 28.3337 113.199 28.1473 113.944 28.1473C114.697 28.1473 114.886 28.3337 114.969 28.5939L116.962 33.4125H115.233L114.786 32.3328Z" fill="#FFFFFE"/>
<path fill-rule="evenodd" clip-rule="evenodd" d="M117.592 28.8999C117.592 28.3916 117.834 28.1484 118.288 28.1484H118.529C119 28.1484 119.246 28.3916 119.246 28.8999V32.0059H120.877C121.391 32.0059 121.638 32.2341 121.638 32.6772V32.7018C121.638 33.1621 121.391 33.4126 120.877 33.4126H117.592V28.8999Z" fill="#FFFFFE"/>
<path fill-rule="evenodd" clip-rule="evenodd" d="M6.4289 6.9428C6.0396 7.1749 4.3048 8.9825 4.081 9.2862C3.98486 9.4206 3.64728 9.9845 3.62068 10.0167C3.57025 10.0783 3.31601 10.4028 3.26927 10.4497C3.22753 10.4867 3.04044 11.0531 2.99488 11.1222C2.91773 11.2457 2.60924 11.5159 2.59028 11.5776C2.57883 11.6158 2.73445 11.9515 2.30707 12.3032C2.02505 12.5401 1.81136 13.452 1.78239 13.526C1.71788 13.6925 1.34869 14.1133 1.41189 14.4996C1.43967 14.665 1.33724 14.8303 1.24112 14.9722C1.17292 15.1043 1.1982 15.5646 0.91749 15.6607C0.67352 15.7434 0.762 16.1445 0.82388 16.2617C1.0111 16.6023 0.85811 16.933 0.85679 16.9589C0.85561 16.9848 0.7645 17.2834 0.90485 17.4808C1.10459 17.7585 0.88589 18.2163 0.87826 18.373C0.82138 19.206 1.42321 19.4515 1.25007 19.9426C1.14382 20.2499 1.36252 20.5078 1.31327 20.8187C1.27535 21.0742 1.47891 21.1865 1.51683 21.2728C1.54092 21.321 1.72038 21.7404 1.70892 21.8121C1.63058 22.2612 2.3209 22.9227 2.28179 23.5815C2.25019 24.148 2.93669 24.3947 2.98224 24.4503C3.31865 24.8464 3.31865 25.3214 3.67888 25.5547C3.71179 25.5793 4.1024 25.8656 4.1493 25.8916C4.3693 26.0149 4.1658 26.1605 4.1974 26.2309C4.4819 26.8577 5.0989 27.2589 5.0989 27.2589C6.5871 28.916 10.1197 31.0915 10.4611 31.1334C10.8012 31.1803 11.1262 31.2383 11.3891 31.4507C11.67 31.6776 12.9356 32.1267 12.9381 32.1267C13.1214 32.202 13.3175 32.1849 13.5032 32.2428C13.679 32.3044 14.7766 32.6895 14.9359 32.7424C15.1558 32.8216 15.4213 32.9745 16.242 33.1646C16.5972 33.2448 16.9589 33.4484 17.3243 33.5175C17.7365 33.5952 18.0917 33.2484 18.4356 33.4583C18.8163 33.6878 19.3473 33.8333 19.5951 33.8691C21.354 34.243 23.8574 34.3134 25.6426 34.2639C25.6426 34.2639 26.2104 34.3837 26.8185 34.2639C27.4433 34.2319 28.1487 34.0283 28.7708 33.9925C29.6698 33.7433 30.7268 33.5372 31.5727 33.1176C31.8685 33.0511 32.1961 32.7375 32.3819 32.7215C32.7903 32.5673 33.377 32.0491 33.4415 32.0108C33.506 31.9738 34.0521 31.648 34.0521 31.648C34.0521 31.648 34.2317 31.5357 34.415 31.4185C34.5377 31.321 35.9968 30.1895 35.9968 30.1895C36.1132 29.9537 36.3939 29.8649 36.605 29.7081C36.6253 29.6737 36.6492 29.6403 36.6796 29.6107C36.7567 29.533 36.8579 29.4786 36.9552 29.422C37.0033 29.3959 37.0463 29.3688 37.0881 29.3343C37.1057 29.3121 37.1247 29.2948 37.1386 29.2738C37.1549 29.2456 37.1626 29.2159 37.179 29.1899C37.1904 29.1776 37.2018 29.1664 37.2183 29.1664C37.2422 29.1641 37.26 29.1924 37.284 29.1886C37.3029 29.1863 37.3143 29.1529 37.3219 29.1406C37.3397 29.1072 37.3573 29.0961 37.3864 29.0752C37.4281 29.0518 37.4168 28.9938 37.3864 28.9666C37.3599 28.9431 37.3219 28.9185 37.3143 28.8754C37.3029 28.8136 37.3649 28.7655 37.4155 28.7358C37.4661 28.7087 37.5243 28.716 37.5723 28.747C37.6114 28.7728 37.6279 28.8246 37.6721 28.8407C37.7202 28.8567 37.7606 28.7975 37.7556 28.7556C37.7544 28.721 37.7556 28.7087 37.7822 28.6766C37.8188 28.6224 37.719 28.631 37.6924 28.6112C37.6671 28.5915 37.7152 28.5755 37.7202 28.5557C37.7354 28.4977 37.6658 28.473 37.6204 28.4682C37.5622 28.4643 37.5191 28.4964 37.4812 28.5359C37.4647 28.5581 37.4446 28.5792 37.4205 28.594C37.4079 28.6001 37.3826 28.6001 37.3724 28.6112C37.3636 28.6224 37.3711 28.6433 37.3674 28.6556C37.3611 28.6839 37.327 28.6779 37.3054 28.6766C37.279 28.6741 37.2524 28.6704 37.2271 28.6704C37.1929 28.6728 37.1513 28.6829 37.1197 28.6926C37.0942 28.7012 37.0779 28.721 37.0563 28.7334C37.0222 28.7506 36.9894 28.7605 36.9502 28.7631C36.8478 28.7728 36.7631 28.8296 36.6733 28.8703C36.605 28.9025 36.538 28.9456 36.4633 28.9579C36.4368 28.9629 36.3951 28.9666 36.3685 28.9629C36.342 28.9579 36.3319 28.9468 36.3053 28.9666C36.285 28.9827 36.2661 29.0073 36.2434 29.0234C36.2232 29.0406 36.1929 29.0469 36.1777 29.0666C36.1586 29.0961 36.1549 29.1281 36.1309 29.1566C36.1031 29.1924 36.0713 29.2121 36.0296 29.2243C35.9298 29.2529 35.7945 29.2084 35.7123 29.1529C35.6024 29.0801 35.5771 28.9185 35.5518 28.7975C35.543 28.7543 35.5505 28.6889 35.4582 28.7012C35.4203 28.7087 35.3912 28.7532 35.3697 28.7814C35.261 28.9137 35.108 28.9938 34.9423 29.0406C34.8563 29.0591 34.7716 29.0666 34.6831 29.074C34.6122 29.0752 34.5429 29.0406 34.4745 29.0518C34.4303 29.0554 34.4202 29.0961 34.4075 29.132C34.3936 29.1602 34.3822 29.1886 34.3708 29.2159C34.3342 29.28 34.281 29.2973 34.2115 29.2701C34.171 29.2492 34.0837 29.2011 34.1444 29.1516C34.1825 29.1232 34.2874 29.0875 34.2608 29.0234C34.2469 28.9877 34.19 29.0148 34.1672 29.027C34.1192 29.0518 34.0749 29.0752 34.0192 29.0776C33.9371 29.0776 33.8296 29.043 33.8208 28.9543C33.8208 28.9395 33.8208 28.9221 33.8271 28.9085C33.8373 28.8901 33.8549 28.8827 33.8702 28.8754C33.8917 28.8666 33.9219 28.8506 33.9359 28.8296C33.9523 28.8025 33.9119 28.7728 33.9206 28.7431C33.9258 28.7124 34.0041 28.6668 34.0282 28.6347C34.0648 28.5792 34.0889 28.5297 34.1559 28.4977C34.2128 28.4754 34.3379 28.4977 34.3658 28.4434C34.3961 28.3693 34.3771 28.2928 34.4353 28.2163C34.4998 28.1336 34.5605 28.1423 34.4909 28.0472C34.405 27.9326 34.2773 28.0373 34.1888 28.0942C34.1444 28.1238 34.0914 28.1645 34.0332 28.167C33.9587 28.1695 33.9878 28.1126 34.0244 28.0745C34.0598 28.0301 34.1178 27.9943 34.1534 27.9498C34.2015 27.882 34.2229 27.8091 34.3265 27.8203C34.3746 27.8252 34.429 27.8425 34.4657 27.7943C34.5352 27.7117 34.4556 27.6377 34.3733 27.6364C34.271 27.634 34.1724 27.6747 34.0914 27.724C34.0192 27.7745 33.951 27.8252 33.884 27.882C33.8208 27.9313 33.7678 27.9918 33.683 27.9498C33.6615 27.9375 33.6552 27.9313 33.6274 27.9339C33.5768 27.9412 33.5338 27.9831 33.4959 28.0115C33.4061 28.0769 33.3086 28.1126 33.272 27.9745C33.2619 27.9412 33.3618 27.8992 33.3883 27.8745C33.3883 27.8745 33.6084 27.8437 33.6565 27.8338C33.7247 27.8177 33.8537 27.7869 33.9005 27.7289C33.9156 27.7091 33.9206 27.6894 33.9422 27.6671C34.0395 27.5611 33.9081 27.4081 33.7829 27.4796C33.6956 27.5316 33.6299 27.629 33.5516 27.6894C33.4959 27.7375 33.4263 27.7857 33.3492 27.7857C33.281 27.7857 33.1506 27.724 33.1962 27.6413C33.2203 27.5968 33.3036 27.5968 33.3442 27.5709C33.3959 27.5426 33.425 27.4871 33.4731 27.4501C33.5541 27.3846 33.6437 27.3378 33.745 27.3168C33.8057 27.3081 33.9156 27.3032 33.9156 27.2131C33.9181 27.1711 33.8777 27.1539 33.8373 27.1588C33.7854 27.1687 33.7475 27.181 33.6919 27.1749C33.6173 27.1637 33.53 27.1625 33.4731 27.1083C33.4263 27.0663 33.4516 26.9639 33.3796 26.959C33.2518 26.949 33.3366 27.0243 33.3011 27.0885C33.2632 27.1515 33.0583 27.1995 33.0191 27.1193C32.9775 27.0317 33.0951 26.9416 33.1671 26.912C33.2328 26.8824 33.3086 26.8516 33.3821 26.8491C33.4175 26.8467 33.4415 26.8577 33.4731 26.8343C33.4984 26.8146 33.5123 26.7331 33.5717 26.7208C33.6084 26.7133 33.6425 26.6492 33.5907 26.6232C33.5591 26.6122 33.5085 26.6368 33.4756 26.6406C33.4402 26.6467 33.4011 26.6331 33.3643 26.6431C33.2822 26.6677 33.272 26.7368 33.2316 26.7961C33.1949 26.8491 33.1114 26.891 33.0482 26.9022C32.9585 26.9181 32.9358 26.8318 32.8649 26.7985C32.7587 26.7492 32.7828 26.8714 32.76 26.9257C32.7334 26.996 32.6512 26.9984 32.5894 27.0281C32.521 27.0552 32.4793 27.1193 32.4249 27.1662C32.2871 27.2909 32.1113 27.2699 31.9445 27.3168C31.8016 27.3623 31.847 27.3711 31.7863 27.4131C31.6599 27.5019 31.5045 27.3623 31.3692 27.4193C31.3565 27.4216 31.2946 27.4785 31.263 27.4845C31.2199 27.4982 31.2199 27.4537 31.1807 27.4537C30.9721 27.4464 30.9026 27.4154 30.8621 27.4216C30.7989 27.4353 30.7483 27.4759 30.7167 27.5267C30.6535 27.6166 30.4701 27.6796 30.4234 27.6796C30.3678 27.677 30.3336 27.6239 30.2995 27.5821C30.2527 27.5352 30.2097 27.5499 30.1541 27.5882C30.0921 27.629 30.0921 27.7228 30.058 27.7424C30.0188 27.7598 29.9416 27.7623 29.9542 27.7005C29.9657 27.6734 29.9948 27.6523 30.0074 27.6239C30.0188 27.5931 30.0049 27.5686 29.9644 27.5709C29.9416 27.5709 29.886 27.6191 29.8646 27.629C29.8026 27.6523 29.7116 27.6475 29.6496 27.634C29.6192 27.6216 29.5864 27.6153 29.5573 27.603C29.5307 27.5931 29.5054 27.5709 29.4764 27.5709C29.4296 27.5747 29.4182 27.634 29.3702 27.6426C29.3183 27.6561 29.2626 27.64 29.2134 27.629C29.1768 27.6166 29.1211 27.5968 29.0807 27.6067L28.9782 27.6944C28.9074 27.708 28.8315 27.6931 28.762 27.6931C28.714 27.6894 28.3169 27.7031 28.1664 27.7289C27.8984 27.7771 27.648 27.877 27.3788 27.9078C27.112 27.9412 25.9032 27.993 25.7313 27.988C25.5656 27.9831 24.7968 27.956 24.712 28.035C24.6982 28.0511 24.525 28.035 24.4934 28.0313C24.4277 28.0275 24.4238 27.9412 24.3656 27.9203C24.205 27.8511 24.334 28.0141 24.1356 27.8857C24.0053 27.7981 23.8283 27.8338 23.6159 27.8399C23.2657 27.8474 22.6765 27.7549 22.5538 27.7424C22.3389 27.7153 22.1163 27.6239 21.9936 27.4845C21.8875 27.3623 21.7067 27.3303 21.6864 27.1637C21.632 26.7492 21.7902 26.1198 21.8256 25.9434C21.8635 25.7681 21.9177 25.1129 21.9759 25.066C22.01 25.0364 21.9759 25.0142 22.01 24.9834C22.2503 24.7538 22.1643 24.744 22.2099 24.5132C22.2819 24.1232 22.4387 23.5445 22.8952 23.4348C23.1114 23.383 23.3718 23.2558 23.5198 23.204C23.7006 23.1423 24.0635 23.1892 24.3417 23.0682C24.4024 23.0399 24.4453 23.0078 24.5148 22.9992C24.788 22.9732 25.0599 23.0511 25.3278 23.0189C25.5909 22.9855 25.8816 22.9633 25.9449 22.9732C26.0486 22.9954 25.9677 22.8844 26.0093 22.8683C26.1357 22.8239 26.1295 22.9807 26.2825 23.0189C26.3925 23.0485 26.8426 23.0682 26.9589 23.0682C26.988 23.0682 26.964 23.0152 26.9855 22.9905C27.0651 22.9066 27.1435 23.0658 27.1904 23.1041C27.3066 23.1965 29.2741 23.41 29.4093 23.4384C29.6306 23.4841 29.9606 23.4682 30.2336 23.3385C30.355 23.2842 30.7673 23.1041 30.8494 23.0177C30.8837 22.9831 30.828 22.93 30.8521 22.8979C30.9304 22.8141 31.0189 22.6488 30.9785 22.4574C30.9683 22.397 30.9999 22.3402 31.0189 22.2859C31.0505 22.1958 30.9962 22.1366 31.0037 22.0465C31.0114 21.9676 31.0227 21.8663 31.0834 21.8084C31.1845 21.7084 31.1946 21.5763 31.1529 21.4999C31.0683 21.3506 30.9279 21.2852 30.8938 21.2631C30.8141 21.2173 30.8938 21.2654 30.9026 21.168C30.9038 21.1198 30.7546 21.142 30.7546 21.142C30.7546 21.142 30.4689 21.131 30.3715 21.0964C30.1047 21.0026 29.843 20.9754 29.5573 20.9718C29.1134 20.9669 28.6862 20.7941 28.2474 20.8298C28.174 20.8336 28.0185 20.8791 27.9844 20.8742C27.911 20.8668 27.9806 20.7484 27.7137 20.7558C27.4672 20.7619 27.2143 20.7053 26.9767 20.6423C26.7617 20.5831 26.1357 20.6201 26.0625 20.5831C26.022 20.5657 25.9714 20.572 25.9247 20.556C25.8324 20.5263 25.7906 20.3992 25.6009 20.3893C25.5618 20.3893 25.5277 20.3227 25.4858 20.3227C25.4088 20.3202 25.2811 20.3547 25.2394 20.3227C25.1572 20.256 24.9764 20.2215 24.946 20.1006C24.893 19.8724 25.3468 19.6009 25.4973 19.491C25.6351 19.3923 25.7956 19.2282 25.9777 19.2417C26.0865 19.2479 26.137 19.1714 26.2129 19.0888C26.371 18.9085 26.983 18.1176 27.1751 17.967C27.3838 17.8078 27.2231 17.6105 27.4887 17.4155C27.5722 17.3524 27.6746 17.091 27.7049 17.0354C27.8364 16.8058 27.7909 16.4197 28.0298 16.2581C28.0463 16.2469 28.0944 16.1741 28.1311 16.0854C28.1639 16.0038 28.0842 15.9298 28.0666 15.8989C28.026 15.8298 28.0501 15.7398 28.0463 15.6607C28.0425 15.604 28.0287 15.087 28.0287 14.9845C28.0323 14.8303 28.1007 14.7538 28.255 14.7661C28.3649 14.776 28.2587 14.5355 28.241 14.4613C28.1968 14.254 27.9907 13.9715 27.667 13.9418C27.284 13.9072 26.9868 14.1775 26.744 14.4428C26.5809 14.6242 26.1409 15.2474 26.065 15.2931C25.9385 15.3695 26.0562 15.425 25.9044 15.6115C25.8552 15.6694 25.7602 15.6558 25.7186 15.7137C25.6642 15.7879 25.553 15.9718 25.5555 16.0606C25.558 16.1285 25.5794 16.1988 25.5187 16.2444C25.3468 16.3765 25.3165 16.1964 25.2394 16.2444C25.1787 16.2839 25.1496 16.358 25.1206 16.3814C24.9321 16.5382 24.893 16.5986 24.7032 16.6369C24.5895 16.6604 24.3618 16.6825 24.2949 16.8034C24.2481 16.8849 24.0078 16.8985 24.0066 16.7355C24.0053 16.6221 24.1217 16.2136 24.133 16.1691C24.195 15.968 23.8561 15.8458 24.0179 15.6423C24.1077 15.5324 24.0926 15.4177 24.023 15.3041C23.9965 15.2585 23.9371 15.0413 23.9055 14.9993C23.8067 14.8772 23.9434 14.8378 23.8283 14.6736C23.7626 14.5761 23.6677 14.7427 23.6487 14.4947C23.6374 14.3466 23.4819 14.3022 23.4048 14.2307C23.301 14.1319 23.1872 14.0369 23.0672 13.9554C22.7497 13.7383 22.3907 13.5852 22.0127 13.5025C21.6333 13.4199 21.2389 13.394 20.8544 13.4643C20.7558 13.4804 20.5978 13.4718 20.5978 13.378C20.5978 13.352 20.5637 13.3496 20.5396 13.3335C20.465 13.2855 20.3083 13.3545 20.2273 13.3853C19.9845 13.4804 20.2197 13.5877 20.0908 13.6273C19.8999 13.6865 19.4535 13.8197 19.3271 13.8556C19.2753 13.8715 19.1766 13.8986 19.0426 13.8986C18.9149 13.8986 18.9099 14.0085 18.7493 14.0788C18.4419 14.212 18.5141 14.9092 18.5317 15.0821C18.5344 15.1129 18.5545 15.198 18.619 15.177C18.6822 15.1548 18.7606 15.24 18.7493 15.3893C18.7378 15.5386 18.7378 15.6151 18.6822 15.7952C18.6304 15.9755 18.7518 15.8742 18.7378 16.0495C18.729 16.179 18.9072 16.6344 18.8858 16.7615C18.8807 16.8022 18.9224 16.8478 18.9402 16.8824C18.9516 16.9145 18.9768 16.9194 19.011 16.9243C19.0982 16.9355 19.0868 17.1046 19.1539 17.2637C19.1981 17.376 19.2373 17.5277 19.3321 17.6043C19.3953 17.6524 19.4005 17.7178 19.4332 17.7585C19.4775 17.819 19.5066 17.8622 19.475 17.9029C19.4357 17.9523 19.2879 18.067 19.2322 18.0461C19.1424 18.0128 18.882 17.9943 18.7985 17.967C18.6254 17.9091 18.4065 18.0091 18.3586 17.9609C18.3004 17.9041 18.2131 17.9029 18.1373 17.8745C18.0653 17.8473 18.0538 17.9399 18.0159 17.9313C17.9362 17.9065 17.916 17.8499 17.868 17.7992C17.7466 17.6709 17.586 17.6673 17.414 17.6043C17.1979 17.5215 16.9765 17.4488 16.7894 17.3205C16.5871 17.1786 15.8968 16.9306 15.8652 16.8566C15.8272 16.7553 15.6097 16.7985 15.6022 16.7725C15.5806 16.6998 15.3859 16.6787 15.3797 16.6245C15.3694 16.5505 15.2392 16.5664 15.1798 16.5258C15.1343 16.495 15.0192 16.432 14.9637 16.4592C14.8991 16.49 14.8145 16.527 14.75 16.4801C14.712 16.4493 14.6816 16.4209 14.6286 16.4085C14.4895 16.3715 14.3984 16.4246 14.2961 16.5048C14.1709 16.5999 14.0532 16.701 13.9471 16.8157C13.8889 16.8861 13.8636 16.9738 13.8232 17.0576C13.7878 17.1328 13.7144 17.1786 13.6752 17.2513C13.6273 17.3427 13.6424 17.4352 13.751 17.4612C13.8699 17.4896 13.76 17.5821 13.846 17.6265C13.9762 17.6931 14.0279 17.9399 14.1899 18.0941C14.3883 18.2806 14.4541 18.5643 14.5148 18.6815C14.5995 18.8468 14.9168 18.7148 14.975 18.9246C14.9991 19.0111 15.1837 19.1664 15.5149 19.4515C15.6338 19.5515 16.1407 19.8193 16.338 19.8402C16.8565 19.8982 17.0828 20.1327 17.2952 20.2783C17.3926 20.3412 17.5784 20.2882 17.8098 20.7089C17.897 20.8706 17.9439 21.4147 17.9893 21.6874C18.0854 22.2786 18.3232 22.1859 18.2106 22.3945C18.0703 22.661 18.3232 22.9732 18.3207 23.6469C18.3181 23.8061 18.2359 24.064 18.1524 24.2578C17.9893 24.6427 18.2587 25.1364 18.1878 25.2968C18.0917 25.5152 18.0475 26.3567 17.8503 26.5308C17.7681 26.6036 17.6214 26.5849 17.519 26.5382C17.3332 26.4616 16.7565 26.6036 16.6213 26.4827C16.3697 26.2605 16.0687 26.2938 15.8828 26.2691C15.7235 26.247 15.5124 26.1224 15.3922 26.0654C15.1406 25.9434 14.1114 25.5842 13.7309 25.3893C12.7876 24.9056 11.4879 24.3627 11.3929 23.8691C11.3538 23.6605 9.939 22.7733 9.7176 22.4673C9.5951 22.3008 9.346 22.0441 9.3042 21.9676C9.246 21.8589 9.2182 21.6121 9.1399 21.5036C8.959 21.253 8.7277 21.2259 8.634 20.7522C8.5999 20.572 8.476 20.6707 8.2762 20.182C7.763 18.9148 7.8262 17.4563 7.8476 16.9071C7.8628 16.4358 8.2851 15.4005 8.409 15.0363C8.4824 14.8154 8.7606 14.6749 8.8175 14.2935C8.8339 14.175 9.4382 13.774 9.6506 13.4298C9.8365 13.1287 10.2513 12.7721 10.5484 12.5882C10.7153 12.4857 12.9381 10.8915 13.1302 10.6681C13.2061 10.5806 13.4148 10.2708 13.8737 10.2634C13.9838 10.2609 14.2315 10.103 14.2429 10.0167C14.2783 9.7773 16.5681 9.2393 16.9298 8.8555C17.0435 8.7383 17.7302 8.5471 18.0753 8.4804C18.1714 8.4593 18.1499 8.5778 18.3724 8.3755C18.5394 8.2261 18.9047 8.4742 19.1146 8.2706C19.384 8.0115 19.4598 7.9534 19.9935 7.9609C20.5245 7.9683 20.4486 7.6955 20.8709 7.666C21.0997 7.6499 21.4677 7.5302 21.5878 7.3106C21.6788 7.1465 22.6663 7.0626 22.8635 6.9181C23.3364 6.569 23.6891 6.954 24.2697 6.8367C24.3417 6.8219 24.592 6.9034 24.7248 6.8948C24.8614 6.8799 25.0825 6.6874 25.1647 6.8638C25.2141 6.9699 26.1118 6.9194 26.3331 6.9095C26.3988 6.907 26.543 6.8182 26.529 6.8799C26.5 6.9835 27.0942 6.9342 27.2106 7.028C27.3635 7.1538 27.6026 7.281 27.9084 7.1921C28.088 7.1403 28.7556 7.2427 28.9997 7.3278C29.1691 7.3846 28.8706 7.4797 29.5054 7.5055C29.9113 7.5203 31.321 8.3397 31.6144 8.3928C31.9698 8.4125 32.0595 8.7716 32.4262 8.9048C33.0786 9.1443 33.8689 9.6848 35.4936 10.9187C35.5683 10.9754 35.6504 11.2482 35.7376 11.2457C36.1498 11.2297 36.5468 11.9873 36.7264 12.2069C36.7808 12.2685 37.0475 12.1082 37.0146 12.5746C37.0096 12.6475 37.2271 12.5426 37.2334 12.8646C37.2384 13.2335 37.9073 13.4396 38.0692 14.2307C38.0869 14.3084 38.183 14.3725 38.2133 14.4441C38.3346 14.7328 38.7773 16.0618 38.7697 16.5442C38.767 16.6924 38.8505 17.5697 38.7153 18.2176C38.5914 18.7951 38.3714 19.3503 38.1489 19.8995C38.0123 20.2375 37.6861 20.6904 37.6645 20.8077C37.6443 20.9236 37.5597 21.0433 37.5848 21.1655C37.6013 21.2457 37.6039 21.3642 37.5154 21.395C37.4104 21.4333 37.2638 21.5073 37.2499 21.6492C37.2422 21.7319 37.0412 21.7404 37.0513 21.8379C37.0628 21.9577 36.8326 21.9503 36.8187 22.0799C36.8085 22.1588 36.6189 22.2279 36.6569 22.3378C36.6796 22.4019 36.5759 22.4069 36.4987 22.4353C36.4014 22.4685 36.2054 22.7611 36.2054 22.8103C36.2105 22.8659 36.0954 22.8302 36.0803 23.0128C36.0713 23.1251 35.9576 23.1324 35.8906 23.2262C35.8324 23.3064 35.7592 23.3311 35.749 23.3471C35.7123 23.4051 35.6972 23.5088 35.706 23.5988C35.7111 23.6741 35.5644 23.9234 35.7338 23.916C35.8059 23.9111 35.8299 23.8283 35.8754 23.7864C35.9463 23.7259 36.0424 23.668 36.1284 23.6285C36.2408 23.5716 36.3811 23.5483 36.4443 23.4312C36.4748 23.378 36.5443 23.2436 36.6239 23.2324C36.6492 23.2298 36.6796 23.2348 36.7049 23.2213C36.734 23.2101 36.7555 23.1805 36.7769 23.1595C36.8276 23.0978 36.8755 23.0324 36.9287 22.9708C36.959 22.9349 37.0362 22.9732 37.0601 22.919C37.0753 22.8831 37.0374 22.8622 37.0856 22.8374C37.1197 22.8227 37.1601 22.8227 37.1929 22.8017C37.2195 22.7844 37.2435 22.7549 37.27 22.7301C37.327 22.687 37.3914 22.6549 37.4597 22.698C37.5572 22.7611 37.2334 23.0238 37.2118 23.0485C37.1323 23.1324 37.1082 23.2496 37.0324 23.3372C36.9742 23.4051 36.9085 23.4742 36.8428 23.5359C36.8174 23.5557 36.7846 23.5716 36.7618 23.5988C36.7415 23.6285 36.7251 23.6605 36.7099 23.6889C36.677 23.7395 36.6214 23.7667 36.5797 23.8098C36.5355 23.8531 36.5178 23.9061 36.4798 23.9555C36.4204 24.0245 36.3888 24.0714 36.4191 24.1651C36.4368 24.2244 36.4773 24.2466 36.5355 24.2184C36.5885 24.1949 36.6088 24.1406 36.6366 24.0911C36.6619 24.0431 36.6885 24.0012 36.7327 23.969C36.7808 23.9346 36.8301 23.9111 36.8807 23.8827C36.9198 23.8629 36.9414 23.8197 36.9667 23.7852C37.0299 23.6889 37.1082 23.5988 37.1828 23.5113C37.2258 23.4632 37.2638 23.399 37.3282 23.3719C37.3636 23.3619 37.4079 23.3619 37.4268 23.3224C37.4421 23.2842 37.4256 23.2175 37.4862 23.2152C37.5394 23.2126 37.5344 23.278 37.5407 23.3127C37.5482 23.3546 37.5622 23.3643 37.6039 23.3643C37.6658 23.3669 37.6899 23.3385 37.7152 23.2892C37.7328 23.2436 37.7734 23.1843 37.8163 23.1645C37.8668 23.1361 37.9149 23.1225 37.9591 23.0842C38.0262 23.0238 38.092 22.9657 38.1514 22.9029C38.1968 22.8609 38.2412 22.8153 38.2816 22.7697C38.317 22.7289 38.3474 22.671 38.4005 22.6523C38.4333 22.6364 38.4612 22.6574 38.4978 22.661C38.5319 22.6648 38.5294 22.6536 38.5433 22.6252C38.556 22.6043 38.5749 22.5747 38.604 22.5772C38.6697 22.5783 38.6659 22.6648 38.6659 22.7117C38.6659 22.7301 38.6584 22.7659 38.6722 22.7844C38.6887 22.8067 38.7291 22.8004 38.7545 22.7968C38.8026 22.7893 38.8329 22.7893 38.8164 22.8474C38.8088 22.8795 38.781 22.9078 38.7583 22.93C38.6925 22.9941 38.6255 23.0485 38.5724 23.1201C38.5458 23.1485 38.5167 23.1769 38.4915 23.2077C38.4118 23.3015 38.3335 23.3939 38.2538 23.4891C38.1855 23.5643 38.1198 23.6456 38.0528 23.7198C38.016 23.7642 37.9781 23.8136 37.9339 23.8457C37.8732 23.8925 37.8567 23.9406 37.8226 24.0012C37.7771 24.0801 37.7113 24.1232 37.6545 24.1838C37.6241 24.2195 37.6304 24.2652 37.6204 24.306C37.6051 24.3576 37.5798 24.3762 37.5457 24.4145C37.4672 24.5022 37.399 24.6008 37.3724 24.7094C37.3611 24.7589 37.3636 24.8501 37.432 24.7982C37.4724 24.7662 37.48 24.7156 37.5243 24.6885C37.5597 24.665 37.6102 24.6614 37.652 24.6466C37.7152 24.628 37.7707 24.5874 37.7998 24.5291C37.8226 24.4837 37.8163 24.4022 37.8542 24.3688C37.8845 24.343 37.9465 24.3467 37.9869 24.3355C38.0388 24.3219 38.0945 24.3059 38.1451 24.2935C38.1906 24.2849 38.25 24.2826 38.2929 24.2578C38.2954 24.2529 38.3019 24.2492 38.3069 24.2466C38.3145 24.2381 38.3208 24.2282 38.3271 24.2184C38.3346 24.2024 38.3398 24.1763 38.3372 24.1554C38.3346 24.1307 38.3119 24.1232 38.3335 24.101C38.3474 24.0801 38.3651 24.0604 38.3701 24.0344C38.3764 23.995 38.3474 23.9666 38.3182 23.9468C38.2778 23.9197 38.2096 23.8864 38.2032 23.8308C38.1994 23.7975 38.2234 23.7753 38.2374 23.7482C38.2525 23.7259 38.2613 23.6975 38.2639 23.668C38.2664 23.6495 38.2601 23.6285 38.2651 23.6086C38.2689 23.5854 38.2778 23.5667 38.2904 23.5507C38.303 23.5323 38.3283 23.4989 38.3474 23.4903C38.408 23.4742 38.4296 23.5483 38.4826 23.5581C38.5257 23.5631 38.5623 23.5667 38.6052 23.5667C38.6533 23.5667 38.7013 23.5716 38.7494 23.5667C38.781 23.5631 38.8252 23.5581 38.8442 23.5273C38.8556 23.5124 38.8595 23.4891 38.8556 23.4692C38.8493 23.4273 38.8013 23.4013 38.7974 23.3669C38.7936 23.3336 38.8164 23.2879 38.8342 23.2619C38.8595 23.2213 38.8987 23.2077 38.9428 23.2213C39.0288 23.2436 39.1224 23.3408 39.216 23.3101C39.2539 23.2966 39.2652 23.2522 39.2451 23.2188C39.2388 23.2015 39.216 23.1916 39.2046 23.1756C39.1919 23.1634 39.1818 23.1485 39.1743 23.1324C39.149 23.0682 39.1793 23.0078 39.221 22.9584C39.2589 22.9152 39.3096 22.8573 39.369 22.8412C39.3955 22.8302 39.4246 22.8141 39.4537 22.8103H39.4751C39.5132 22.8103 39.5371 22.856 39.5396 22.8906C39.5448 22.93 39.5321 22.9696 39.5093 23.004C39.4814 23.056 39.4246 23.1201 39.4803 23.1731C39.5296 23.2175 39.5965 23.2175 39.6585 23.2077C39.6863 23.2077 39.7129 23.2015 39.7407 23.2015C39.761 23.2015 39.7937 23.1954 39.8152 23.204C39.8506 23.2188 39.8734 23.278 39.8634 23.315C39.8506 23.3694 39.8001 23.41 39.7723 23.4632C39.7394 23.5174 39.6687 23.5594 39.613 23.5915C39.5789 23.6125 39.5371 23.6198 39.4979 23.6297C39.4397 23.6495 39.3955 23.6655 39.3753 23.7198C39.355 23.7753 39.3841 23.7975 39.4397 23.8061C39.5042 23.8161 39.5675 23.8531 39.5675 23.9234C39.5687 24.043 39.4638 24.1072 39.3677 24.1579C39.3221 24.1789 39.2792 24.2024 39.2438 24.2319C39.2248 24.2479 39.2084 24.2652 39.197 24.2849C39.1894 24.2935 39.1641 24.3576 39.1603 24.3576C39.1123 24.3701 39.0782 24.3095 39.0427 24.2886C39.0238 24.2774 39.0048 24.2738 38.9845 24.2849C38.9719 24.2935 38.9669 24.3047 38.9581 24.317C38.9416 24.3293 38.9227 24.3331 38.9125 24.354C38.9049 24.3701 38.9062 24.3947 38.9049 24.4145C38.9037 24.4503 38.9074 24.496 38.8961 24.533C38.8884 24.5552 38.8631 24.596 38.8695 24.6244C38.8809 24.6687 38.9593 24.644 38.9834 24.628C39.0136 24.6057 39.0238 24.5687 39.0516 24.5514C39.0959 24.5144 39.149 24.6119 39.1375 24.6477C39.13 24.681 39.0971 24.6971 39.087 24.7229C39.0693 24.7576 39.0996 24.7834 39.13 24.7933C39.1818 24.8094 39.3171 24.7415 39.3133 24.681V24.6761C39.3032 24.6341 39.2451 24.5725 39.3184 24.5552C39.355 24.5452 39.3866 24.5724 39.4132 24.5922C39.4372 24.6095 39.4663 24.6427 39.4979 24.6427C39.5371 24.644 39.5637 24.5773 39.589 24.5552C39.6319 24.5108 39.6838 24.4774 39.7319 24.4478C39.8077 24.4009 39.9101 24.3824 39.9695 24.3196C40.0327 24.2479 40.0846 24.1381 40.1086 24.043C40.1225 24.0012 40.1365 23.9418 40.1693 23.9134C40.2464 23.8382 40.3741 23.8754 40.4475 23.7962C40.4791 23.7667 40.4955 23.7309 40.5095 23.6951C40.5196 23.6594 40.5373 23.6285 40.5575 23.5988C40.5865 23.5631 40.5727 23.5261 40.574 23.4853C40.5765 23.4459 40.5979 23.4013 40.6284 23.378C40.6688 23.3497 40.7029 23.3508 40.7421 23.3755C40.8015 23.4224 40.8963 23.3546 40.952 23.3977C41.0139 23.4495 40.9432 23.5445 40.8951 23.5815C40.7484 23.6865 40.7812 23.879 40.6434 23.9838C40.5929 24.0221 40.5208 24.0245 40.4754 24.0679C40.4109 24.1331 40.4348 24.2504 40.3779 24.3095C40.3488 24.3367 40.2971 24.2826 40.2642 24.2997C40.2401 24.3121 40.2351 24.3491 40.2313 24.3701C40.2299 24.3874 40.2313 24.4071 40.2274 24.4231C40.2174 24.4528 40.1365 24.5033 40.1832 24.5403C40.2047 24.5552 40.2427 24.5552 40.2654 24.5577C40.3046 24.5601 40.3161 24.5514 40.34 24.5243C40.3488 24.5108 40.3653 24.4911 40.3829 24.4947C40.4019 24.496 40.4172 24.5243 40.431 24.5343C40.4425 24.5428 40.4664 24.5687 40.4829 24.5552C40.4955 24.5452 40.4993 24.5144 40.5043 24.5033C40.5145 24.4824 40.5334 24.4639 40.5587 24.4639C40.5828 24.4676 40.574 24.475 40.5828 24.4885C40.6043 24.5243 40.6713 24.5058 40.6979 24.4861C40.7218 24.4725 40.7433 24.4502 40.7636 24.4306C40.8053 24.3824 40.8394 24.3256 40.8762 24.2774C40.9166 24.2282 40.9595 24.1789 41.0164 24.1579C41.0519 24.1431 41.0885 24.1455 41.1253 24.1331C41.167 24.1159 41.2023 24.0862 41.2327 24.0554C41.2934 23.9987 41.3704 23.9887 41.4349 23.9346C41.469 23.9061 41.54 23.8531 41.5462 23.9295C41.55 23.9418 41.5387 23.9629 41.5412 23.969C41.545 23.9887 41.5576 23.995 41.5576 24.0135C41.5551 24.0875 41.4211 24.1159 41.397 24.1789C41.3869 24.2096 41.3997 24.2381 41.3958 24.2614C41.3832 24.3516 41.2984 24.3293 41.2377 24.3663C41.1619 24.4145 41.1012 24.5022 41.0619 24.5799C41.0405 24.6194 41.043 24.6244 41.0658 24.665C41.0784 24.681 41.1176 24.7119 41.1012 24.7377C41.086 24.7589 41.0316 24.7328 41.0089 24.7377C40.9355 24.7489 40.9671 24.8204 40.9545 24.8662C40.9405 24.9144 40.8748 24.8303 40.8521 24.9229C40.8394 24.971 40.8457 25.0254 40.8256 25.0735C40.8015 25.1265 40.737 25.1622 40.6852 25.1882C40.6713 25.1956 40.6561 25.1969 40.6409 25.2054C40.627 25.2117 40.6131 25.2228 40.6018 25.2375C40.5878 25.2549 40.5929 25.2857 40.5828 25.3091C40.574 25.3252 40.56 25.3412 40.5474 25.3523C40.5208 25.3782 40.4829 25.4066 40.4741 25.4436C40.4651 25.4646 40.4779 25.4758 40.5006 25.4782C40.5183 25.4831 40.5334 25.4719 40.5474 25.4633C40.555 25.4609 40.5575 25.456 40.5663 25.4548C40.5765 25.451 40.5865 25.4485 40.5929 25.4448C40.6043 25.4399 40.6157 25.4326 40.6257 25.4263C40.6485 25.4152 40.6688 25.4054 40.6941 25.3917C40.7193 25.3782 40.7484 25.3672 40.7724 25.3498C40.871 25.2771 40.9621 25.1931 41.0506 25.1043C41.1417 25.0116 41.2099 24.8932 41.3022 24.8019C41.3415 24.7625 41.3945 24.7057 41.4489 24.6921C41.5551 24.665 41.5222 24.7698 41.4805 24.8168C41.459 24.8391 41.4577 24.8686 41.4349 24.8909C41.4173 24.9056 41.3945 24.9056 41.3742 24.9204C41.3515 24.9376 41.325 24.9759 41.3072 25.0032C41.2718 25.066 41.2415 25.1364 41.1871 25.1858C41.1467 25.2166 41.0987 25.2264 41.0646 25.2709C41.0317 25.3128 41.0139 25.3695 40.9912 25.419C40.9734 25.4597 40.9608 25.5029 41.024 25.5115C41.1038 25.5225 41.1113 25.4597 41.1505 25.4152C41.191 25.3672 41.2756 25.3622 41.33 25.3313C41.3844 25.2968 41.3894 25.2512 41.4058 25.1981C41.4148 25.1721 41.4615 25.0931 41.4893 25.0968C41.4994 25.0339 41.5525 25.0426 41.5879 25.0006C41.6057 24.9759 41.5942 24.9685 41.6272 24.9574C41.6829 24.9353 41.7713 24.9204 41.7612 25.0032C41.7562 25.0549 41.703 25.1007 41.6714 25.1377C41.5791 25.2523 41.4918 25.3523 41.4211 25.4758C41.3528 25.5954 41.3731 25.7262 41.2959 25.8471C41.258 25.9026 41.2149 25.9766 41.1619 26.0187C41.1113 26.0643 41.0443 26.0841 40.9987 26.1321C40.9545 26.1779 40.9141 26.2358 40.8787 26.2864C40.8243 26.3704 40.7433 26.4111 40.6598 26.4703C40.6257 26.4949 40.5993 26.5208 40.5765 26.5554C40.5411 26.5998 40.4842 26.6381 40.4475 26.685C40.4109 26.7294 40.3994 26.7813 40.364 26.8206C40.3122 26.8738 40.2629 26.8936 40.2617 26.975C40.2224 26.9824 40.2174 26.9688 40.1845 26.996C40.1681 27.0082 40.1503 27.0218 40.1365 27.0379C40.1162 27.0613 40.096 27.091 40.0758 27.1156C40.0644 27.128 40.0176 27.1687 40.0214 27.1859C40.0467 27.2649 40.3021 27.0503 40.3261 27.0317C40.4082 26.9541 40.4829 26.8714 40.5663 26.7948C40.7749 26.5998 40.976 26.3987 41.1707 26.1926C41.3415 26.0113 41.5096 25.8262 41.6651 25.6336C41.7372 25.5485 41.8219 25.4597 41.8725 25.3622C41.9117 25.2968 41.9255 25.1858 42.0002 25.1439C42.0507 25.1179 42.1317 25.14 42.1924 25.1153C42.4275 25.0191 42.5654 24.6921 42.7222 24.5108C43.1646 24.0023 43.7172 22.7857 43.7628 22.6536C43.7994 22.5525 43.8335 22.3143 44.0662 22.2612C44.2103 22.2255 44.185 21.912 44.2154 21.7774C44.2596 21.5974 44.2773 21.3988 44.395 21.253C44.5947 21.0088 44.6112 20.5917 44.6427 20.4523C44.711 20.1622 45.2623 18.2854 45.127 16.7787C45.0991 16.485 45.1018 14.7328 44.6061 14.1961C44.2887 13.8556 44.639 13.4273 44.4442 12.8807C44.3987 12.7462 44.6036 12.6882 44.644 12.5548C44.7793 12.1205 44.5049 11.7602 44.271 11.7145C44.0662 11.6763 43.793 11.6763 43.7134 11.4394C43.6805 11.342 43.8575 10.931 43.6249 10.5041C43.5136 10.2981 43.3265 9.8253 41.9117 8.753C41.4388 8.3915 41.0873 7.8992 40.6663 7.4845C40.5411 7.2525 39.8027 6.6121 39.6118 6.4788C39.4789 6.3876 39.2691 5.9582 38.6584 5.7434C38.456 5.6719 37.0817 4.5921 36.9236 4.5428C36.3382 4.3589 35.3356 3.6518 35.151 3.6086C34.1255 3.3681 33.7563 2.80528 33.372 2.76827C33.0786 2.74244 32.2593 2.69426 31.8281 2.22294C31.5916 1.96877 31.2503 1.91198 30.9304 2.08725C30.7218 2.20328 30.0668 1.6343 29.14 1.74661C28.9466 1.76999 28.7772 1.43321 28.0603 1.52457C27.3761 1.61336 26.9286 1.17532 26.6845 1.08897C26.4519 1.0075 24.9954 0.644629 24.339 0.666859H23.9358C22.5374 0.485559 21.3122 0.485559 19.9606 0.666859C19.6419 0.747039 15.5883 1.76639 15.2114 1.97738C14.8953 2.15625 14.0432 2.42532 13.8307 2.51899C13.387 2.72021 11.6673 3.2681 11.6129 3.4544C11.5813 3.5518 11.3045 3.5643 11.2363 3.6408C11.1919 3.6888 10.7671 4.1343 10.2057 4.3355C9.8492 4.4626 8.1586 5.673 7.8413 5.9384C7.615 6.1297 6.6022 6.838 6.4289 6.9428Z" fill="#FFFFFE"/>
<path fill-rule="evenodd" clip-rule="evenodd" d="M45.3343 11.8026C45.3254 11.9346 45.309 12.0753 45.1735 12.1579C45.1622 12.1666 45.1305 12.1603 45.1177 12.1592C45.1001 12.1579 45.0849 12.1542 45.0698 12.1493C45.0065 12.1308 44.9571 12.0863 44.9191 12.0357C44.8988 12.0147 44.8786 11.9876 44.8571 11.9641C44.8319 11.9346 44.8078 11.9099 44.7888 11.8753C44.7723 11.8432 44.7597 11.8026 44.7635 11.7655C44.766 11.7371 44.7748 11.7075 44.7888 11.6767C44.8001 11.6483 44.8179 11.6249 44.8432 11.6038C44.8647 11.5866 44.9014 11.5632 44.9293 11.562C45.1152 11.5558 45.2912 11.615 45.3343 11.8026Z" fill="#FFFFFE"/>
<path fill-rule="evenodd" clip-rule="evenodd" d="M35.5887 24.2021C35.5747 24.228 35.5496 24.254 35.5381 24.2724C35.4939 24.3267 35.4458 24.3822 35.4003 24.439C35.3851 24.4562 35.37 24.4749 35.3549 24.4921C35.2511 24.6117 35.1424 24.7277 35.0273 24.8327C34.9666 24.8894 34.9072 24.94 34.8465 24.9918C34.8124 25.014 34.7125 25.1237 34.6694 25.0719C34.6328 25.0313 34.6581 24.9659 34.6872 24.9289C34.7112 24.8981 34.7429 24.871 34.7644 24.8376C34.7896 24.7944 34.7985 24.7487 34.8124 24.7018C34.8226 24.6487 34.8477 24.5872 34.8984 24.5611C34.9616 24.5266 35.0399 24.5143 35.1069 24.5069C35.1791 24.4958 35.2182 24.4476 35.2549 24.386C35.2663 24.3699 35.2764 24.3514 35.2827 24.3304C35.2942 24.3008 35.3017 24.2847 35.3283 24.265C35.3561 24.2415 35.3826 24.2193 35.4104 24.1971C35.4509 24.1662 35.5129 24.0874 35.5722 24.1208C35.6065 24.1404 35.6027 24.1725 35.5887 24.2021Z" fill="#FFFFFE"/>
<path fill-rule="evenodd" clip-rule="evenodd" d="M40.2052 24.7204C40.218 24.7449 40.223 24.7784 40.2205 24.8042C40.2142 24.8462 40.1636 24.8623 40.1307 24.872C40.0851 24.8943 40.0408 24.9116 39.9914 24.9264C39.9459 24.9375 39.894 24.9535 39.8447 24.9623C39.8231 24.9683 39.6889 24.9967 39.7522 25.0325C39.8016 25.0585 39.7661 25.0868 39.7232 25.1041C39.6864 25.1153 39.6143 25.1312 39.5814 25.1004C39.5409 25.0634 39.608 24.9572 39.637 24.9264C39.6737 24.8869 39.7232 24.8585 39.7711 24.8301C39.8231 24.8042 39.8737 24.782 39.9218 24.7524C39.9724 24.7204 40.0141 24.6795 40.0661 24.6561C40.1281 24.6339 40.1801 24.6685 40.2052 24.7204Z" fill="#FFFFFE"/>
<path fill-rule="evenodd" clip-rule="evenodd" d="M34.2893 25.5483C34.1526 25.705 33.9159 25.8691 33.7628 25.7456C33.6121 25.6236 33.6945 25.5077 33.8045 25.3892C33.9753 25.2336 34.3425 25.0795 34.4146 25.1499C34.5399 25.2706 34.3399 25.4225 34.2893 25.5483Z" fill="#FFFFFE"/>
<path fill-rule="evenodd" clip-rule="evenodd" d="M36.2889 25.6645C36.3092 25.6411 36.3207 25.6126 36.3371 25.588C36.351 25.5645 36.3713 25.5546 36.3713 25.5288C36.3713 25.4831 36.3257 25.4597 36.2839 25.4758C36.2396 25.4905 36.2055 25.5189 36.1649 25.541C36.0991 25.5793 36.0232 25.6015 35.9435 25.6126C35.8916 25.6163 35.8398 25.6151 35.7879 25.625C35.7587 25.6299 35.7081 25.6361 35.6903 25.6607C35.6739 25.6843 35.6928 25.7373 35.6967 25.7631C35.7208 25.8568 35.8548 25.8459 35.932 25.842C36.0029 25.8371 36.0738 25.8175 36.1384 25.7866C36.1953 25.7521 36.251 25.7138 36.2889 25.6645Z" fill="#FFFFFE"/>
<path fill-rule="evenodd" clip-rule="evenodd" d="M39.3639 27.3495C39.4222 27.4704 39.3221 27.605 39.2272 27.6753C39.1741 27.7123 39.1222 27.7431 39.0553 27.7308C38.9944 27.7209 38.9463 27.6816 38.9273 27.6285C38.8893 27.5284 38.9653 27.4211 39.0463 27.3667C39.0906 27.3346 39.1463 27.3114 39.2033 27.3051C39.2424 27.3038 39.3437 27.3114 39.3639 27.3495Z" fill="#FFFFFE"/>
<path fill-rule="evenodd" clip-rule="evenodd" d="M26.8046 7.85669C26.8248 7.97519 26.7249 8.09739 26.6667 8.18989C26.6363 8.23439 26.6174 8.29609 26.5806 8.33439C26.544 8.37139 26.4907 8.39729 26.4452 8.42069C26.368 8.46519 26.2858 8.48239 26.2097 8.42069C26.1022 8.32449 26.1959 8.23309 26.1959 8.12079C26.1503 7.97029 26.1959 7.82839 26.2718 7.69389C26.3326 7.58899 26.3933 7.44709 26.5047 7.38039C26.5704 7.34339 26.6122 7.27309 26.6958 7.31869C26.8248 7.44469 26.7743 7.69019 26.8046 7.85669Z" fill="#FFFFFE"/>
<path fill-rule="evenodd" clip-rule="evenodd" d="M24.7814 8.56381C24.827 8.67481 24.8497 8.80071 24.9269 8.89811C25.0016 8.99081 25.0154 9.23381 24.97 9.23501C24.8471 9.24611 24.8738 9.33371 24.818 9.33371C24.7181 9.33131 24.3904 9.32511 24.3068 9.11791C24.2752 9.04261 24.265 8.98331 24.2727 8.89331C24.2789 8.81051 24.2979 8.52921 24.289 8.37621C24.2777 8.23441 24.4789 8.22571 24.5738 8.30351C24.6206 8.34051 24.7637 8.52061 24.7814 8.56381Z" fill="#FFFFFE"/>
<path fill-rule="evenodd" clip-rule="evenodd" d="M28.8343 8.8109C28.7913 8.9453 28.541 9.0034 28.6408 9.1626C28.6649 9.2587 28.5574 9.30321 28.4866 9.31551C28.2995 9.37231 28.1048 9.5599 27.9125 9.4562C27.8329 9.3032 27.5838 9.2871 27.5977 9.1008C27.6912 8.9329 27.8834 8.96621 27.9973 8.83431C28.0453 8.78251 28.7344 8.65651 28.8204 8.77131L28.8343 8.8109Z" fill="#FFFFFE"/>
<path fill-rule="evenodd" clip-rule="evenodd" d="M24.0856 10.1034C24.0895 10.17 24.0793 10.2589 24.0236 10.3168C23.9238 10.4168 23.7467 10.4095 23.6912 10.4292C23.5623 10.4649 23.3737 10.4342 23.3157 10.4205C23.2916 10.4155 23.0666 10.3243 23.0413 10.275C23.0147 10.2367 22.9729 10.0491 22.9907 10.0035C23.021 9.9195 23.1348 9.8764 23.2182 9.8616C23.3358 9.8405 23.4712 9.8245 23.571 9.8788C23.7695 9.9924 23.9694 9.922 24.0351 9.9689C24.0565 9.9837 24.0843 10.0762 24.0856 10.1034Z" fill="#FFFFFE"/>
<path fill-rule="evenodd" clip-rule="evenodd" d="M26.8421 10.153C26.8243 10.0938 26.6336 9.9346 26.574 9.9074C26.4691 9.8568 26.3414 9.8779 26.2288 9.8432C25.9962 9.7692 25.8496 9.9815 25.6624 10.0123C25.5814 10.0284 25.541 10.1123 25.4741 10.1554C25.2907 10.2739 25.144 10.7502 25.1086 10.8601C25.0226 11.1216 25.2945 11.2931 25.3995 11.2981C25.5511 11.3054 25.7181 11.2832 25.861 11.2499C26.0936 11.1709 26.2908 11.0143 26.4501 10.8354C26.5702 10.7046 26.6411 10.5466 26.7473 10.4109C26.8927 10.2233 26.8471 10.164 26.8421 10.153ZM27.7183 11.0575C27.5956 11.3536 27.0698 12.0508 26.1872 12.2186C25.8585 12.2828 25.4614 12.4246 25.1668 12.1902C25.149 12.1779 25.0112 12.0508 24.8735 11.9953C24.723 11.9348 24.6812 12.0114 24.5688 11.9212C24.5473 11.904 24.4853 11.7485 24.4992 11.6448C24.5106 11.5794 24.4626 11.519 24.4348 11.4585C24.4019 11.3869 24.2981 11.2524 24.3146 11.1279C24.3222 11.0846 24.2678 10.8403 24.393 10.6675C24.4321 10.6144 24.5663 10.3554 24.431 10.3331C24.3829 10.3257 24.3716 10.1937 24.4689 10.1123C24.5991 10.0074 24.6699 9.5471 25.144 9.4126C25.4931 9.3126 25.7093 8.9105 26.081 8.8907C26.2541 8.8586 26.4325 8.887 26.5956 8.9536C26.7473 9.0165 26.9419 9.0449 27.038 9.177C27.1 9.267 27.3794 9.3978 27.4769 9.5718C27.5502 9.7026 27.7133 9.805 27.7499 9.9543C27.7689 10.0246 27.8385 10.3023 27.8359 10.3752C27.8347 10.5071 27.7576 10.9649 27.7183 11.0575Z" fill="#FFFFFE"/>
<path fill-rule="evenodd" clip-rule="evenodd" d="M29.0731 11.128C29.1415 11.1491 29.2236 11.1886 29.211 11.2738C29.1983 11.3465 29.1325 11.3207 29.0808 11.3441C28.9935 11.3848 29.0213 11.5489 28.8987 11.5353C28.8278 11.528 28.7696 11.5624 28.7078 11.5847C28.5585 11.5798 28.3625 11.5946 28.231 11.5192C28.1956 11.502 28.1779 11.4773 28.1488 11.4489C28.1211 11.4243 28.011 11.4058 28.0199 11.2811C28.0225 11.2417 27.9984 11.2392 27.9744 11.212C27.9149 11.1441 27.9681 11.0589 28.054 11.0454C28.0996 11.0392 28.1475 11.0529 28.1881 11.0368C28.317 10.9776 28.4623 11.0121 28.6015 11.0306C28.6735 11.0392 28.7457 11.0516 28.8152 11.0701C28.8771 11.0862 29.0515 11.1219 29.0731 11.128Z" fill="#FFFFFE"/>
<path fill-rule="evenodd" clip-rule="evenodd" d="M23.9856 12.0021C23.9844 12.0193 24.0198 12.0503 24.0299 12.0651C24.078 12.1441 23.997 12.2267 23.9325 12.2699C23.863 12.3131 23.7833 12.3403 23.7188 12.3884C23.686 12.413 23.5204 12.4859 23.4685 12.4945C23.4205 12.5031 23.2409 12.5055 23.203 12.5007C23.1132 12.4833 23.0348 12.4044 23.026 12.3168C23.0892 11.9886 23.4787 11.9331 23.7353 11.8269C23.8769 11.7935 24.0008 11.864 23.9856 12.0021Z" fill="#FFFFFE"/>
<path fill-rule="evenodd" clip-rule="evenodd" d="M27.3018 12.5334C27.3879 12.6038 27.4626 12.6618 27.5144 12.7606C27.5676 12.8556 27.5853 12.9531 27.6119 13.058C27.6449 13.1864 27.4866 13.2146 27.4372 13.3122C27.422 13.3419 27.4069 13.3714 27.3714 13.3789C27.3145 13.3899 27.2334 13.3566 27.1765 13.3406C27.1121 13.3232 27.05 13.3232 27.0069 13.2641C26.9716 13.2159 26.9576 13.1554 26.9526 13.0986C26.9461 13.0468 26.9513 12.9395 26.9108 12.8827C26.893 12.858 26.8716 12.8358 26.8639 12.8062C26.8576 12.7754 26.8729 12.7482 26.8664 12.721C26.8399 12.6297 26.9172 12.6261 26.9044 12.5545C26.8969 12.5125 26.9197 12.4768 26.9538 12.4656C27.0159 12.457 27.0753 12.4804 27.131 12.5014C27.1664 12.5125 27.2689 12.5063 27.3018 12.5334Z" fill="#FFFFFE"/>
<path fill-rule="evenodd" clip-rule="evenodd" d="M25.5944 12.854C25.6741 12.9911 25.6703 13.1428 25.6032 13.2847C25.5526 13.3981 25.4754 13.4994 25.4008 13.598C25.3703 13.64 25.3475 13.6967 25.2994 13.7152C25.1768 13.7584 25.0932 13.6659 25.0641 13.6375C25.0439 13.6128 25.0033 13.5648 24.9996 13.5315C24.9807 13.2106 25.2425 12.7392 25.3703 12.7306C25.4666 12.722 25.5235 12.822 25.5944 12.854Z" fill="#FFFFFE"/>
<path fill-rule="evenodd" clip-rule="evenodd" d="M36.1231 28.6842C36.0306 28.7337 36.1231 28.9298 36.0724 29.0089C36.0231 29.0914 35.9091 29.1113 35.8193 29.0804C35.7306 29.0521 35.7534 28.9854 35.7939 28.9163C35.7952 28.9101 35.7877 28.8768 35.7902 28.867C35.7939 28.8496 35.8054 28.8387 35.8142 28.8249C35.8268 28.8066 35.8496 28.7707 35.8307 28.7448C35.8218 28.7337 35.8015 28.73 35.7927 28.7126C35.7762 28.6917 35.7814 28.6683 35.7852 28.6424C35.7889 28.6227 35.7801 28.5919 35.7965 28.5758C35.8142 28.5658 35.837 28.5721 35.851 28.5745C35.8914 28.5844 35.9244 28.6041 35.9636 28.6227C35.9851 28.6337 36.0129 28.6362 36.0395 28.6362C36.061 28.6362 36.0813 28.6337 36.1003 28.6239C36.1193 28.6152 36.1357 28.6041 36.1559 28.5967C36.1927 28.5844 36.2445 28.588 36.2546 28.6337C36.2559 28.656 36.2598 28.7251 36.2167 28.7126C36.199 28.709 36.1889 28.6881 36.1737 28.6794C36.1572 28.6732 36.1369 28.6769 36.1231 28.6842Z" fill="#FFFFFE"/>
<path fill-rule="evenodd" clip-rule="evenodd" d="M33.8376 26.9431C33.7895 26.9468 33.7705 26.9985 33.7211 26.9775C33.6843 26.9615 33.6882 26.9258 33.6996 26.8951C33.7084 26.8678 33.6996 26.8247 33.7147 26.7988C33.7642 26.721 33.8882 26.7913 33.9248 26.6914C33.9438 26.6531 33.9982 26.4829 34.0641 26.5691C34.1071 26.6222 34.0311 26.7062 34.0387 26.7629C34.04 26.8073 34.0463 26.8172 34.011 26.8555C33.9869 26.8764 33.9589 26.9183 33.9261 26.9357C33.897 26.9443 33.8667 26.9381 33.8376 26.9431Z" fill="#FFFFFE"/>
<path fill-rule="evenodd" clip-rule="evenodd" d="M37.4565 23.4032C37.4071 23.3823 37.3275 23.4748 37.2995 23.5019C37.206 23.592 37.1199 23.6895 37.0578 23.8029C37.025 23.8635 36.968 23.8857 36.9198 23.93C36.9035 23.9461 36.8807 23.9745 36.9047 23.9881C36.9376 24.0029 37.0097 23.9696 37.0375 23.9584C37.0693 23.9461 37.0908 23.919 37.1173 23.8956C37.1427 23.8746 37.1717 23.8672 37.1996 23.8462C37.2211 23.8338 37.2338 23.8104 37.2502 23.7895C37.2704 23.7659 37.292 23.745 37.316 23.7253C37.335 23.7104 37.3565 23.6895 37.3704 23.671C37.4046 23.6291 37.4363 23.5871 37.473 23.5476C37.4958 23.5191 37.5299 23.4328 37.4868 23.4094C37.4743 23.4019 37.4678 23.4094 37.4565 23.4032Z" fill="#FFFFFE"/>
<path fill-rule="evenodd" clip-rule="evenodd" d="M35.9877 24.5798C35.9371 24.5342 35.851 24.6809 35.7839 24.7377C35.7345 24.7736 35.5802 24.8278 35.6941 24.9055C35.794 24.9734 35.8687 24.8512 35.9029 24.7932C35.9319 24.7377 36.0333 24.6193 35.9877 24.5798Z" fill="#FFFFFE"/>
<path fill-rule="evenodd" clip-rule="evenodd" d="M38.8041 24.9401C38.6573 24.9376 38.4181 24.9426 38.3131 25.0659C38.2194 25.1721 38.3144 25.3016 38.4346 25.3313C38.5055 25.351 38.6181 25.3522 38.6763 25.3016C38.7269 25.2623 38.7294 25.1721 38.7776 25.1289C38.8142 25.0894 38.9016 25.0857 38.9143 25.0276C38.9281 24.9624 38.8598 24.9426 38.8041 24.9401Z" fill="#FFFFFE"/>
<path fill-rule="evenodd" clip-rule="evenodd" d="M34.8859 27.5686C34.9137 27.55 34.9403 27.5316 34.9668 27.5156C35.0099 27.4822 35.0757 27.4489 35.1061 27.402C35.1086 27.3958 35.1466 27.2909 35.1048 27.3021C35.0416 27.3205 35.0138 27.3932 34.9555 27.4253C34.9124 27.4538 34.6859 27.5599 34.691 27.6154C34.6935 27.6401 34.7529 27.655 34.7707 27.6524C34.8163 27.6451 34.796 27.6341 34.8263 27.6069C34.8466 27.5969 34.8668 27.5797 34.8859 27.5686Z" fill="#FFFFFE"/>
<path fill-rule="evenodd" clip-rule="evenodd" d="M34.4668 28.5942C34.4415 28.6362 34.3404 28.7128 34.3379 28.7707C34.3302 28.8571 34.4478 28.8509 34.5225 28.8608C34.7057 28.8892 34.9637 28.9137 35.1002 28.7608C35.1521 28.7042 35.1963 28.5648 35.1483 28.4882C35.0851 28.3869 35.013 28.4746 34.9244 28.4869C34.7373 28.5104 34.597 28.3968 34.4668 28.5942Z" fill="#FFFFFE"/>
</svg>
