<svg width="135" height="51" viewBox="0 0 135 51" fill="none" xmlns="http://www.w3.org/2000/svg">
<mask id="mask0" mask-type="alpha" maskUnits="userSpaceOnUse" x="0" y="0" width="135" height="51">
<path d="M135 0H0V50.0294H135V0Z" fill="white"/>
</mask>
<g mask="url(#mask0)">
<path fill-rule="evenodd" clip-rule="evenodd" d="M3.02385 48.2799C3.00107 48.6759 2.42951 48.6795 2.41701 49.0461C2.41701 49.0659 2.28166 49.1054 2.21964 49.0954C1.08799 48.8499 0.642968 48.365 0.521574 47.2864C0.502615 47.1161 0.670749 46.8386 0.16753 46.9052C-0.0739411 46.9372 -0.0182473 46.5424 0.100513 46.509C0.665746 46.3438 0.726443 45.7822 1.20557 45.5503C1.51287 45.4021 1.2764 45.3677 1.09181 45.2702C0.0905071 44.7322 0.0512712 44.0942 0.970416 43.4328C1.32064 43.1785 1.35988 42.8541 0.981871 42.7183C0.473517 42.5332 0.653107 42.1767 0.737766 42.01C0.861794 41.7633 1.09563 41.6201 0.72144 41.3796C0.615187 41.3103 0.731447 41.1524 0.947639 41.0982C1.68733 40.9142 1.71261 40.48 1.20188 39.916C0.952773 39.6445 0.559494 39.1831 1.13223 38.8339C1.37884 38.6869 1.35988 38.5365 1.3637 38.3562C1.38015 37.7122 1.09826 37.089 1.18924 36.4387C1.20188 36.3499 1.16646 36.2733 1.05257 36.2068C0.338167 35.7983 0.691026 35.4478 1.17028 35.1233C0.492477 34.6148 0.396362 33.9313 0.903399 33.3439C0.919857 33.3254 0.966598 33.3032 0.96041 33.2946C0.608868 32.4863 1.36119 31.8164 1.32828 31.0154C1.29536 30.2517 0.503931 29.7174 0.689709 28.9411C0.7404 28.7239 0.615187 28.4711 0.990693 28.3537C1.1741 28.2957 1.20688 28.1415 1.09313 27.9367C0.898396 27.5764 1.00202 27.2642 1.55843 27.1643C0.947639 26.8274 0.866797 26.4794 1.25376 26.0377C1.43703 25.8316 1.44454 25.6095 1.24994 25.4256C0.746719 24.9443 0.703665 24.5298 1.15132 24.0817C1.19556 24.0398 1.29918 24.046 1.26376 23.9411C0.880753 22.8503 1.41044 21.7891 1.45599 20.7106C1.49523 19.8024 0.606366 19.141 0.850339 18.2488C0.885756 18.1131 0.760544 18.0403 0.594911 18.0341C0.422958 18.0243 0.302881 17.8392 0.378719 17.8108C0.861794 17.6282 0.718807 17.0816 1.11209 16.8964C1.83281 16.5534 1.92893 16.2313 1.3396 15.734C1.08799 15.5218 0.816238 15.4898 1.38766 15.2491C2.01859 14.9826 2.01991 13.9152 1.52551 13.4228C1.24612 13.1452 1.2764 12.8255 1.48377 12.5886C1.75566 12.2789 1.8631 12.0543 1.43321 11.81C1.36488 11.7718 1.31564 11.7064 1.25876 11.657C1.91366 11.1289 0.689709 10.5489 1.39911 9.90973C1.93894 9.42222 1.19306 8.53381 1.7758 7.90945C2.00477 7.67006 1.61649 7.6824 1.55211 7.5602C1.3687 7.21468 1.14487 6.868 1.86692 6.79026C2.00595 6.77304 2.24993 6.91734 2.26902 6.61756C2.28166 6.39783 2.2943 6.13378 2.044 6.1005C1.59003 6.04126 1.69114 5.78453 1.71511 5.5711C1.75066 5.22801 2.09443 5.3515 2.30193 5.36011C3.06558 5.38979 3.77617 5.39583 3.90125 4.52476C3.94181 4.23346 4.25161 4.35566 4.44502 4.34705C7.11293 4.2359 9.7807 4.15328 12.4511 4.1953C13.4083 4.20879 14.3402 3.904 15.334 4.14094C15.5742 4.19774 15.9927 3.64238 16.525 3.7633C16.8285 3.83243 17.1723 3.63249 17.3975 4.08788C17.5302 4.36054 18.3938 4.31493 18.5253 4.13979C18.8364 3.72256 19.1891 3.9225 19.5216 3.91505C20.3599 3.90284 21.1995 3.904 22.0378 3.92996C22.2186 3.93368 22.2615 3.93484 22.3817 3.78925C22.6194 3.50297 22.9962 3.4684 23.1783 3.85222C23.306 4.12373 23.5778 4.10509 23.7118 4.03853C24.8549 3.4869 26.0877 3.89051 27.2661 3.76831C27.8009 3.71408 28.3673 3.89166 28.8604 3.51286C28.9932 3.41045 29.3295 3.40672 29.5533 3.57582C29.8581 3.80287 30.1488 4.09032 30.4738 3.54743C30.5787 3.36972 30.8987 3.47701 31.0239 3.66461C31.2502 4.00641 31.4967 4.02003 31.7736 3.72629C31.9292 3.5622 32.1326 3.62889 32.3135 3.62632C33.1505 3.619 33.9913 3.62761 34.8296 3.62028C34.9991 3.619 35.257 3.82253 35.3076 3.46467C35.3328 3.27347 35.6313 3.29069 35.716 3.34505C36.6453 3.95334 37.5241 3.05259 38.4774 3.31305C39.4876 3.58687 40.5775 3.48819 41.6345 3.46969C42.1011 3.46352 42.6271 3.63005 43.0103 3.2118C43.066 3.15385 43.3429 3.14022 43.4086 3.19818C44.109 3.81392 44.7627 3.0143 45.4846 3.16117C46.2888 3.32898 47.1511 3.30187 47.9869 3.32526C48.2689 3.33271 48.6393 3.48202 48.7658 3.0143C48.8252 2.78725 50.2439 2.93784 50.4777 3.17723C50.8052 3.51042 51.5728 3.51903 51.9167 3.16117C52.0835 2.98963 52.2707 3.04514 52.4439 3.05131C53.1899 3.07983 53.9309 3.0143 54.6857 3.15256C55.0738 3.22285 55.6416 3.44129 56.0436 2.85265C56.2371 2.56521 57.0059 2.69974 57.475 2.79843C57.8366 2.87373 58.1881 2.91189 58.542 2.89583C60.7004 2.8046 62.8473 3.11183 65.0056 3.03897C65.2864 3.02908 65.6858 3.19818 65.7693 2.72673C65.7972 2.56277 65.9944 2.58127 66.1626 2.74909C66.5823 3.17479 66.8238 3.18957 67.1905 2.77491C67.2917 2.66389 67.3498 2.71825 67.451 2.73675C68.0971 2.86756 68.9 2.48747 69.3754 3.18456C69.407 3.22901 69.5739 3.26846 69.5991 3.24623C70.4047 2.48618 71.4287 3.02548 72.3404 2.92551C72.9789 2.85509 73.8678 3.10926 74.2711 2.93283C74.859 2.67507 75.0891 2.73431 75.4824 3.03409C75.5456 3.08343 75.8276 3.04514 75.8605 2.98475C76.0867 2.57253 76.2688 2.34304 76.4875 2.9859C76.5015 3.02175 76.7632 3.05015 76.7847 3.01803C77.3562 2.18139 78.3058 2.59733 78.9974 2.65271C81.2822 2.82927 83.5656 2.85509 85.8505 2.96624C86.6192 3.00196 87.3878 3.05015 88.1579 3.03897C88.4967 3.0328 88.9304 3.20678 89.0974 2.70218C89.1328 2.59849 89.6536 2.41461 89.8661 2.85265C90.0153 3.16117 90.4123 3.18211 90.6893 2.98102C91.2772 2.55647 91.4555 2.56765 91.8423 3.16734C92.242 2.9205 92.5972 2.26042 93.1042 3.10322C93.1776 3.22529 93.5139 3.35982 93.8072 3.17607C94.4217 2.7947 95.0502 2.61327 95.6191 3.25985C95.7152 3.36728 95.8632 3.34749 95.9857 3.27103C96.7875 2.76014 98.0315 2.73546 98.7599 3.22901C98.9774 3.3746 99.0697 3.29326 99.2859 3.17222C99.6032 2.99708 100.123 2.77735 100.253 3.40056C100.315 3.7065 100.576 3.61784 100.769 3.61784C102.671 3.62517 104.574 3.62272 106.476 3.62272C106.531 3.62272 106.616 3.63994 106.642 3.61784C107.107 3.19573 107.664 3.46596 108.185 3.43756C108.393 3.42895 108.874 3.63493 108.874 3.11799C108.874 2.99952 109.33 2.98346 109.487 3.06737C110.122 3.40171 110.657 3.31305 111.185 2.91189C111.233 2.87373 111.342 2.75153 111.506 2.90701C111.821 3.20062 112.246 3.11928 112.452 2.77376C112.519 2.66261 113.236 2.56521 113.281 2.67995C113.362 2.90456 113.695 2.93168 113.701 2.94401C114.313 3.96324 114.481 2.92178 114.561 2.75153C114.866 2.10738 115.487 2.33687 115.838 2.48374C116.214 2.63922 116.592 2.69101 116.827 2.54542C117.915 1.87044 119.203 2.00625 120.387 1.92607C122.902 1.75697 125.393 1.44717 127.904 1.31148C128.036 1.30403 128.267 1.27203 128.276 1.22629C128.481 0.236748 129.462 0.867274 130.027 0.620435C130.351 0.477291 130.741 0.371154 131.07 0.268744C132.091 -0.0508238 133.232 -0.0274377 134.332 0.0416927C134.634 0.0603245 134.446 0.367556 134.539 0.527918C134.652 0.721689 134.921 0.33903 134.991 0.624161C135.071 0.949896 134.588 0.832709 134.58 0.933834C134.535 1.53725 133.745 1.7643 133.637 2.21596C133.529 2.65773 133.442 3.28208 133.854 3.67823C134.355 4.15829 134.263 4.7283 134.095 5.15773C133.977 5.47729 134.045 5.74379 133.994 6.02648C133.887 6.61872 134.36 7.22341 133.875 7.83544C133.783 7.95262 133.35 8.70047 134.284 8.73876C134.306 8.73991 134.364 8.97198 134.327 9.07554C134.136 9.59261 134.086 10.1233 133.99 10.6513C133.85 11.446 133.724 11.5163 134.293 12.2333C134.386 12.3518 134.41 12.6368 134.318 12.7158C133.914 13.0539 134.197 13.6252 133.724 13.9214C133.706 13.9337 133.702 13.9608 133.683 13.9781C133.317 14.3964 134.28 14.4741 133.995 14.8666C133.748 15.2071 133.691 15.5169 134.184 15.7352C134.298 15.7895 134.373 15.9315 134.319 15.9538C133.607 16.2732 134.349 17.0025 133.774 17.3518C133.725 17.3813 133.727 17.4703 133.706 17.5307C134.53 17.659 133.999 18.2798 134.228 18.6302C134.318 18.7659 134.322 19.009 134.02 19.1176C133.818 19.1891 133.803 19.3889 133.837 19.558C133.989 20.2614 134.147 20.945 133.964 21.6843C133.912 21.8977 134.185 22.3098 134.281 22.6455C134.544 23.5524 134.309 24.4236 134.191 25.3145C134.119 25.8686 134.257 26.4498 134.365 27.01C134.423 27.3197 134.638 27.5986 134.09 27.7491C133.91 27.7961 133.998 28.0502 134.027 28.2107C134.243 29.3508 134.681 30.5404 134.418 31.6374C134.228 32.4383 134.754 33.3501 133.962 34.0794C133.875 34.1583 133.807 34.7469 134.176 34.8654C134.518 34.9789 134.452 35.1418 134.511 35.3405C134.65 35.802 134.577 36.1797 134.087 36.4473C133.871 36.5669 133.636 36.688 134.091 36.7682C134.332 36.8113 134.32 36.931 134.334 37.0742C134.376 37.5172 133.875 38.001 134.492 38.4069C134.554 38.4502 134.564 38.7561 134.368 38.7672C133.584 38.8067 133.77 39.225 133.816 39.6445C133.848 39.9247 133.848 40.19 133.586 40.4886C133.382 40.7243 133.376 41.187 133.8 41.5659C134.215 41.936 134.295 42.5986 134.06 43.038C133.922 43.302 133.837 43.5401 133.843 43.7969C133.856 44.541 133.455 45.2702 133.735 46.0278C133.789 46.1784 133.021 46.466 132.837 46.3857C132.331 46.1636 131.65 46.3227 131.557 46.6091C131.398 47.0743 131.121 47.0051 130.778 47.0113C129.917 47.0285 129.067 47.0199 128.204 47.1322C127.276 47.2556 126.34 46.9237 125.387 47.0076C124.827 47.0533 124.263 47.0261 123.809 47.4036C123.772 47.437 123.436 47.7048 123.208 47.3729C123.053 47.147 121.524 47.2039 121.28 47.3803C120.59 47.8874 120.487 47.8307 119.442 47.5284C119.214 47.4605 118.443 47.3063 118.211 47.8651C118.124 48.0763 117.966 48.1738 117.709 48.1626C117.264 48.1467 116.834 48.2305 116.398 48.2861C116.093 48.3267 115.751 48.428 115.445 47.9961C115.155 47.59 114.455 47.9899 113.982 48.0737C113.409 48.1774 113.152 48.2279 113.16 47.632C113.165 47.3161 112.835 47.3002 112.541 47.3002C109.688 47.3013 106.833 47.3001 103.979 47.3025C103.749 47.3037 103.412 47.2297 103.45 47.5814C103.51 48.0946 103.113 48.0344 102.754 48.0195C98.9887 47.8504 95.2106 47.859 91.4455 47.6024C91.1077 47.5801 90.6552 47.3852 90.4199 47.9294C90.3365 48.1293 89.6385 48.1589 89.3793 47.906C88.8647 47.4026 88.3615 47.5074 87.8115 47.7752C87.7065 47.827 87.6649 47.8628 87.5435 47.801C86.5673 47.3161 86.5876 47.3544 85.5128 47.827C85.1955 47.964 84.6353 48.0515 84.3723 47.6714C84.1448 47.3519 83.7527 47.3643 83.6022 47.4827C82.9588 47.9873 82.2178 47.5962 81.5528 47.7345C81.0963 47.8281 81.3264 47.3372 80.9775 47.2864C80.5324 47.2174 80.2909 47.5679 79.952 47.5715C78.4575 47.5974 76.9668 47.5962 75.4748 47.542C75.1448 47.5296 74.7313 47.569 74.4367 47.2062C74.2243 46.941 74.0764 47.4482 73.792 47.4444C72.8133 47.4297 71.8131 47.5444 70.861 47.4062C69.6307 47.2248 68.3993 47.2531 67.2006 47.3568C66.6595 47.4013 66.0816 47.585 65.4937 47.585C65.1713 47.585 64.8197 47.6592 64.6466 47.2914C64.5505 47.0903 64.2028 47.1212 64.2078 47.252C64.2407 47.9368 63.6186 47.5912 63.429 47.5604C62.5059 47.4123 61.5804 47.4592 60.6561 47.4482C60.4779 47.4469 60.2756 47.3803 60.1314 47.569C59.9582 47.7961 59.79 47.8554 59.6977 47.5074C59.6914 47.4766 59.4764 47.4396 59.417 47.4753C58.4876 48.054 57.4408 47.5814 56.4659 47.7257C56.3091 47.7505 56.127 47.7418 56.0981 47.5332C56.05 47.189 55.6428 47.2396 55.524 47.3224C54.8324 47.7973 54.0446 47.5136 53.3074 47.585C52.9978 47.6171 52.6285 47.4888 52.4743 47.8677C52.459 47.912 52.32 47.9676 52.2922 47.9503C51.1682 47.2939 50.0074 48.2008 48.8745 47.8849C48.7051 47.8356 48.5849 47.9146 48.5344 48.1009C48.4421 48.4364 48.2575 48.3058 48.1083 48.1256C47.777 47.7233 47.71 47.6973 47.5583 48.0651C47.4205 48.4082 47.251 48.2626 47.0019 48.2366C45.5377 48.0898 44.0192 47.9899 42.6158 48.2329C41.5979 48.4095 40.5991 48.5156 39.6344 48.4132C38.4622 48.2871 37.2662 48.1959 36.1484 48.3624C35.18 48.5044 34.2316 48.6019 33.2618 48.5909C32.77 48.5859 32.2693 48.6882 31.7837 48.4822C31.6408 48.4242 31.3387 48.4502 31.2451 48.5401C30.537 49.2263 29.6368 48.7956 28.8326 48.8548C28.3774 48.8881 27.8932 48.5723 27.4747 48.9869C27.3913 49.0695 27.1839 49.0695 27.1004 48.9511C26.8917 48.6599 26.7224 48.6401 26.5149 48.9511C26.4758 49.009 26.2899 49.0512 26.2141 49.0202C25.2898 48.6672 24.3705 49.2115 23.4475 49.0177C22.6017 48.8413 21.8343 48.4957 20.8682 48.6377C18.8679 48.9314 16.8512 49.2016 14.8079 49.1757C13.636 49.9641 12.2008 49.6458 10.8947 49.8234C9.54687 50.0099 8.15847 49.9802 6.78798 50.0358C6.4313 50.0506 5.45778 49.5225 5.1884 49.2646C4.80789 48.9029 4.20605 48.8869 3.71679 48.7834C3.33484 48.7042 3.22239 48.5266 3.02385 48.2799Z" fill="#343434"/>
</g>
<path fill-rule="evenodd" clip-rule="evenodd" d="M63.1946 20.8849H65.2682C66.9992 20.8849 67.9058 20.0532 67.9058 18.5576C67.9058 17.0633 66.9689 16.2329 65.181 16.2329H63.1946V20.8849ZM57.5782 15.1247C57.5782 13.1294 58.5973 12.0497 60.47 12.0497H65.3239C70.5736 12.0497 73.4414 14.2659 73.4414 18.5576C73.4414 22.8247 70.6875 24.9286 65.4933 24.9286H63.2794V29.9695H57.5782V15.1247Z" fill="#FFFFFE"/>
<path fill-rule="evenodd" clip-rule="evenodd" d="M75.0006 14.4883C75.0006 12.7435 75.8226 11.9117 77.384 11.9117H78.2072C79.8242 11.9117 80.6765 12.7435 80.6765 14.4883V25.1509H86.2651C88.0264 25.1509 88.8761 25.9271 88.8761 27.451V27.5313C88.8761 29.1106 88.0264 29.9696 86.2651 29.9696H75.0006V14.4883Z" fill="#FFFFFE"/>
<path fill-rule="evenodd" clip-rule="evenodd" d="M97.0216 22.2707H100.967L98.9801 17.0634L97.0216 22.2707ZM101.988 26.259H96.0569L94.6091 29.9695H88.9333L95.4893 13.4355C95.7737 12.5484 96.5386 11.9128 99.0915 11.9128C101.676 11.9128 102.327 12.5484 102.612 13.4355L109.451 29.9695H103.519L101.988 26.259Z" fill="#FFFFFE"/>
<path fill-rule="evenodd" clip-rule="evenodd" d="M110.188 14.4883C110.188 12.7706 111.068 11.9117 112.516 11.9117H113.056C114.388 11.9117 114.813 12.3004 115.607 13.2137L122.191 21.5774V12.05H127.527V27.5314C127.527 29.2503 126.645 30.1079 125.228 30.1079H124.775C123.411 30.1079 123.015 29.776 122.249 28.8887L115.524 20.3891V29.9697H110.188V14.4883Z" fill="#FFFFFE"/>
<path fill-rule="evenodd" clip-rule="evenodd" d="M58.0168 35.8424C58.0168 35.3846 58.2976 35.1564 58.7111 35.1564H58.9513C59.3825 35.1564 59.6707 35.3846 59.6707 35.8424V40.4116H58.0168V35.8424Z" fill="#FFFFFE"/>
<path fill-rule="evenodd" clip-rule="evenodd" d="M60.9036 35.8999C60.9036 35.3964 61.1615 35.1484 61.5812 35.1484H61.7406C62.1287 35.1484 62.2513 35.2606 62.4841 35.5297L64.4033 37.9668V35.1879H65.9585V39.7018C65.9585 40.2016 65.7018 40.4532 65.2884 40.4532H65.157C64.7599 40.4532 64.6436 40.3545 64.4198 40.0978L62.4575 37.6189V40.4125H60.9036V35.8999Z" fill="#FFFFFE"/>
<path fill-rule="evenodd" clip-rule="evenodd" d="M66.8353 35.8832V35.8598C66.8353 35.4156 67.1008 35.1873 67.5977 35.1873H71.0294C71.5427 35.1873 71.7993 35.4156 71.7993 35.8598V35.8832C71.7993 36.3433 71.5427 36.5939 71.0294 36.5939H70.162V40.4118H68.4968V36.5939H67.5977C67.1008 36.5939 66.8353 36.3433 66.8353 35.8832Z" fill="#FFFFFE"/>
<path fill-rule="evenodd" clip-rule="evenodd" d="M72.6688 39.5988V36.0831C72.6688 35.5032 72.966 35.1873 73.5121 35.1873H77.0955V36.5854H74.324V37.1111H76.3912V38.4192H74.324V39.0249H77.1017V40.4119H73.5121C73.0064 40.4119 72.6688 40.1441 72.6688 39.5988Z" fill="#FFFFFE"/>
<path fill-rule="evenodd" clip-rule="evenodd" d="M79.8094 37.635H80.5035C81.0006 37.635 81.2484 37.4167 81.2484 37.0305C81.2484 36.6257 81.0069 36.416 80.4871 36.416H79.8094V37.635ZM80.893 39.7661L80.1318 38.7827H79.8335V40.4114H78.1783V36.084C78.1783 35.5028 78.4768 35.1881 79.023 35.1881H80.6781C82.165 35.1881 82.9097 35.7866 82.9097 36.9021C82.9097 37.6597 82.5052 38.2237 81.7541 38.4335L82.9604 39.8945C83.0096 39.9599 82.7213 40.4535 82.0082 40.4535C81.496 40.4535 81.2381 40.2338 80.893 39.7661Z" fill="#FFFFFE"/>
<path fill-rule="evenodd" clip-rule="evenodd" d="M83.9708 35.8999C83.9708 35.3964 84.2263 35.1484 84.6473 35.1484H84.804C85.1948 35.1484 85.3199 35.2606 85.5526 35.5297L87.4695 37.9668V35.1879H89.0246V39.7018C89.0246 40.2016 88.7693 40.4532 88.3544 40.4532H88.2205C87.8248 40.4532 87.711 40.3545 87.4858 40.0978L85.5247 37.6189V40.4125H83.9708V35.8999Z" fill="#FFFFFE"/>
<path fill-rule="evenodd" clip-rule="evenodd" d="M92.0534 38.168H93.2027L92.6262 36.6502L92.0534 38.168ZM93.4998 39.3328H91.7739L91.3517 40.4125H89.6967L91.6058 35.5939C91.6881 35.3337 91.9131 35.1473 92.6578 35.1473C93.4088 35.1473 93.5997 35.3337 93.6819 35.5939L95.6771 40.4125H93.9487L93.4998 39.3328Z" fill="#FFFFFE"/>
<path fill-rule="evenodd" clip-rule="evenodd" d="M96.0077 35.8832V35.8598C96.0077 35.4156 96.2721 35.1873 96.7702 35.1873H100.203C100.715 35.1873 100.971 35.4156 100.971 35.8598V35.8832C100.971 36.3433 100.715 36.5939 100.203 36.5939H99.3331V40.4118H97.673V36.5939H96.7702C96.2721 36.5939 96.0077 36.3433 96.0077 35.8832Z" fill="#FFFFFE"/>
<path fill-rule="evenodd" clip-rule="evenodd" d="M101.9 35.8424C101.9 35.3846 102.181 35.1564 102.595 35.1564H102.836C103.264 35.1564 103.554 35.3846 103.554 35.8424V40.4116H101.9V35.8424Z" fill="#FFFFFE"/>
<path fill-rule="evenodd" clip-rule="evenodd" d="M108.616 37.7963C108.616 37.03 108.144 36.5056 107.434 36.5056C106.707 36.5056 106.243 37.0053 106.243 37.7963C106.243 38.5712 106.716 39.0796 107.434 39.0796C108.144 39.0796 108.616 38.5712 108.616 37.7963ZM104.605 37.7963C104.605 36.2143 105.788 35.0767 107.434 35.0767C109.081 35.0767 110.256 36.207 110.256 37.7963C110.256 39.3868 109.081 40.5258 107.434 40.5258C105.781 40.5258 104.605 39.3954 104.605 37.7963Z" fill="#FFFFFE"/>
<path fill-rule="evenodd" clip-rule="evenodd" d="M111.257 35.8999C111.257 35.3964 111.514 35.1484 111.934 35.1484H112.091C112.481 35.1484 112.605 35.2606 112.837 35.5297L114.756 37.9668V35.1879H116.311V39.7018C116.311 40.2016 116.056 40.4532 115.64 40.4532H115.508C115.11 40.4532 114.995 40.3545 114.771 40.0978L112.811 37.6189V40.4125H111.257V35.8999Z" fill="#FFFFFE"/>
<path fill-rule="evenodd" clip-rule="evenodd" d="M119.339 38.168H120.489L119.91 36.6502L119.339 38.168ZM120.786 39.3328H119.057L118.636 40.4125H116.98L118.894 35.5939C118.976 35.3337 119.199 35.1473 119.944 35.1473C120.697 35.1473 120.886 35.3337 120.969 35.5939L122.962 40.4125H121.233L120.786 39.3328Z" fill="#FFFFFE"/>
<path fill-rule="evenodd" clip-rule="evenodd" d="M123.592 35.8999C123.592 35.3916 123.834 35.1484 124.288 35.1484H124.529C125 35.1484 125.246 35.3916 125.246 35.8999V39.0059H126.877C127.391 39.0059 127.638 39.2341 127.638 39.6772V39.7018C127.638 40.1621 127.391 40.4126 126.877 40.4126H123.592V35.8999Z" fill="#FFFFFE"/>
<path fill-rule="evenodd" clip-rule="evenodd" d="M12.4289 13.9428C12.0396 14.1749 10.3048 15.9825 10.081 16.2862C9.98486 16.4206 9.64728 16.9845 9.62068 17.0167C9.57025 17.0783 9.31601 17.4028 9.26927 17.4497C9.22753 17.4867 9.04044 18.0531 8.99488 18.1222C8.91773 18.2457 8.60924 18.5159 8.59028 18.5776C8.57883 18.6158 8.73445 18.9515 8.30707 19.3032C8.02505 19.5401 7.81136 20.452 7.78239 20.526C7.71788 20.6925 7.34869 21.1133 7.41189 21.4996C7.43967 21.665 7.33724 21.8303 7.24112 21.9722C7.17292 22.1043 7.1982 22.5646 6.91749 22.6607C6.67352 22.7434 6.762 23.1445 6.82388 23.2617C7.0111 23.6023 6.85811 23.933 6.85679 23.9589C6.85561 23.9848 6.7645 24.2834 6.90485 24.4808C7.10459 24.7585 6.88589 25.2163 6.87826 25.373C6.82138 26.206 7.42321 26.4515 7.25007 26.9426C7.14382 27.2499 7.36252 27.5078 7.31327 27.8187C7.27535 28.0742 7.47891 28.1865 7.51683 28.2728C7.54092 28.321 7.72038 28.7404 7.70892 28.8121C7.63058 29.2612 8.3209 29.9227 8.28179 30.5815C8.25019 31.148 8.93669 31.3947 8.98224 31.4503C9.31865 31.8464 9.31865 32.3214 9.67888 32.5547C9.71179 32.5793 10.1024 32.8656 10.1493 32.8916C10.3693 33.0149 10.1658 33.1605 10.1974 33.2309C10.4819 33.8577 11.0989 34.2589 11.0989 34.2589C12.5871 35.916 16.1197 38.0915 16.4611 38.1334C16.8012 38.1803 17.1262 38.2383 17.3891 38.4507C17.67 38.6776 18.9356 39.1267 18.9381 39.1267C19.1214 39.202 19.3175 39.1849 19.5032 39.2428C19.679 39.3044 20.7766 39.6895 20.9359 39.7424C21.1558 39.8216 21.4213 39.9745 22.242 40.1646C22.5972 40.2448 22.9589 40.4484 23.3243 40.5175C23.7365 40.5952 24.0917 40.2484 24.4356 40.4583C24.8163 40.6878 25.3473 40.8333 25.5951 40.8691C27.354 41.243 29.8574 41.3134 31.6426 41.2639C31.6426 41.2639 32.2104 41.3837 32.8185 41.2639C33.4433 41.2319 34.1487 41.0283 34.7708 40.9925C35.6698 40.7433 36.7268 40.5372 37.5727 40.1176C37.8685 40.0511 38.1961 39.7375 38.3819 39.7215C38.7903 39.5673 39.377 39.0491 39.4415 39.0108C39.506 38.9738 40.0521 38.648 40.0521 38.648C40.0521 38.648 40.2317 38.5357 40.415 38.4185C40.5377 38.321 41.9968 37.1895 41.9968 37.1895C42.1132 36.9537 42.3939 36.8649 42.605 36.7081C42.6253 36.6737 42.6492 36.6403 42.6796 36.6107C42.7567 36.533 42.8579 36.4786 42.9552 36.422C43.0033 36.3959 43.0463 36.3688 43.0881 36.3343C43.1057 36.3121 43.1247 36.2948 43.1386 36.2738C43.1549 36.2456 43.1626 36.2159 43.179 36.1899C43.1904 36.1776 43.2018 36.1664 43.2183 36.1664C43.2422 36.1641 43.26 36.1924 43.284 36.1886C43.3029 36.1863 43.3143 36.1529 43.3219 36.1406C43.3397 36.1072 43.3573 36.0961 43.3864 36.0752C43.4281 36.0518 43.4168 35.9938 43.3864 35.9666C43.3599 35.9431 43.3219 35.9185 43.3143 35.8754C43.3029 35.8136 43.3649 35.7655 43.4155 35.7358C43.4661 35.7087 43.5243 35.716 43.5723 35.747C43.6114 35.7728 43.6279 35.8246 43.6721 35.8407C43.7202 35.8567 43.7606 35.7975 43.7556 35.7556C43.7544 35.721 43.7556 35.7087 43.7822 35.6766C43.8188 35.6224 43.719 35.631 43.6924 35.6112C43.6671 35.5915 43.7152 35.5755 43.7202 35.5557C43.7354 35.4977 43.6658 35.473 43.6204 35.4682C43.5622 35.4643 43.5191 35.4964 43.4812 35.5359C43.4647 35.5581 43.4446 35.5792 43.4205 35.594C43.4079 35.6001 43.3826 35.6001 43.3724 35.6112C43.3636 35.6224 43.3711 35.6433 43.3674 35.6556C43.3611 35.6839 43.327 35.6779 43.3054 35.6766C43.279 35.6741 43.2524 35.6704 43.2271 35.6704C43.1929 35.6728 43.1513 35.6829 43.1197 35.6926C43.0942 35.7012 43.0779 35.721 43.0563 35.7334C43.0222 35.7506 42.9894 35.7605 42.9502 35.7631C42.8478 35.7728 42.7631 35.8296 42.6733 35.8703C42.605 35.9025 42.538 35.9456 42.4633 35.9579C42.4368 35.9629 42.3951 35.9666 42.3685 35.9629C42.342 35.9579 42.3319 35.9468 42.3053 35.9666C42.285 35.9827 42.2661 36.0073 42.2434 36.0234C42.2232 36.0406 42.1929 36.0469 42.1777 36.0666C42.1586 36.0961 42.1549 36.1281 42.1309 36.1566C42.1031 36.1924 42.0713 36.2121 42.0296 36.2243C41.9298 36.2529 41.7945 36.2084 41.7123 36.1529C41.6024 36.0801 41.5771 35.9185 41.5518 35.7975C41.543 35.7543 41.5505 35.6889 41.4582 35.7012C41.4203 35.7087 41.3912 35.7532 41.3697 35.7814C41.261 35.9137 41.108 35.9938 40.9423 36.0406C40.8563 36.0591 40.7716 36.0666 40.6831 36.074C40.6122 36.0752 40.5429 36.0406 40.4745 36.0518C40.4303 36.0554 40.4202 36.0961 40.4075 36.132C40.3936 36.1602 40.3822 36.1886 40.3708 36.2159C40.3342 36.28 40.281 36.2973 40.2115 36.2701C40.171 36.2492 40.0837 36.2011 40.1444 36.1516C40.1825 36.1232 40.2874 36.0875 40.2608 36.0234C40.2469 35.9877 40.19 36.0148 40.1672 36.027C40.1192 36.0518 40.0749 36.0752 40.0192 36.0776C39.9371 36.0776 39.8296 36.043 39.8208 35.9543C39.8208 35.9395 39.8208 35.9221 39.8271 35.9085C39.8373 35.8901 39.8549 35.8827 39.8702 35.8754C39.8917 35.8666 39.9219 35.8506 39.9359 35.8296C39.9523 35.8025 39.9119 35.7728 39.9206 35.7431C39.9258 35.7124 40.0041 35.6668 40.0282 35.6347C40.0648 35.5792 40.0889 35.5297 40.1559 35.4977C40.2128 35.4754 40.3379 35.4977 40.3658 35.4434C40.3961 35.3693 40.3771 35.2928 40.4353 35.2163C40.4998 35.1336 40.5605 35.1423 40.4909 35.0472C40.405 34.9326 40.2773 35.0373 40.1888 35.0942C40.1444 35.1238 40.0914 35.1645 40.0332 35.167C39.9587 35.1695 39.9878 35.1126 40.0244 35.0745C40.0598 35.0301 40.1178 34.9943 40.1534 34.9498C40.2015 34.882 40.2229 34.8091 40.3265 34.8203C40.3746 34.8252 40.429 34.8425 40.4657 34.7943C40.5352 34.7117 40.4556 34.6377 40.3733 34.6364C40.271 34.634 40.1724 34.6747 40.0914 34.724C40.0192 34.7745 39.951 34.8252 39.884 34.882C39.8208 34.9313 39.7678 34.9918 39.683 34.9498C39.6615 34.9375 39.6552 34.9313 39.6274 34.9339C39.5768 34.9412 39.5338 34.9831 39.4959 35.0115C39.4061 35.0769 39.3086 35.1126 39.272 34.9745C39.2619 34.9412 39.3618 34.8992 39.3883 34.8745C39.3883 34.8745 39.6084 34.8437 39.6565 34.8338C39.7247 34.8177 39.8537 34.7869 39.9005 34.7289C39.9156 34.7091 39.9206 34.6894 39.9422 34.6671C40.0395 34.5611 39.9081 34.4081 39.7829 34.4796C39.6956 34.5316 39.6299 34.629 39.5516 34.6894C39.4959 34.7375 39.4263 34.7857 39.3492 34.7857C39.281 34.7857 39.1506 34.724 39.1962 34.6413C39.2203 34.5968 39.3036 34.5968 39.3442 34.5709C39.3959 34.5426 39.425 34.4871 39.4731 34.4501C39.5541 34.3846 39.6437 34.3378 39.745 34.3168C39.8057 34.3081 39.9156 34.3032 39.9156 34.2131C39.9181 34.1711 39.8777 34.1539 39.8373 34.1588C39.7854 34.1687 39.7475 34.181 39.6919 34.1749C39.6173 34.1637 39.53 34.1625 39.4731 34.1083C39.4263 34.0663 39.4516 33.9639 39.3796 33.959C39.2518 33.949 39.3366 34.0243 39.3011 34.0885C39.2632 34.1515 39.0583 34.1995 39.0191 34.1193C38.9775 34.0317 39.0951 33.9416 39.1671 33.912C39.2328 33.8824 39.3086 33.8516 39.3821 33.8491C39.4175 33.8467 39.4415 33.8577 39.4731 33.8343C39.4984 33.8146 39.5123 33.7331 39.5717 33.7208C39.6084 33.7133 39.6425 33.6492 39.5907 33.6232C39.5591 33.6122 39.5085 33.6368 39.4756 33.6406C39.4402 33.6467 39.4011 33.6331 39.3643 33.6431C39.2822 33.6677 39.272 33.7368 39.2316 33.7961C39.1949 33.8491 39.1114 33.891 39.0482 33.9022C38.9585 33.9181 38.9358 33.8318 38.8649 33.7985C38.7587 33.7492 38.7828 33.8714 38.76 33.9257C38.7334 33.996 38.6512 33.9984 38.5894 34.0281C38.521 34.0552 38.4793 34.1193 38.4249 34.1662C38.2871 34.2909 38.1113 34.2699 37.9445 34.3168C37.8016 34.3623 37.847 34.3711 37.7863 34.4131C37.6599 34.5019 37.5045 34.3623 37.3692 34.4193C37.3565 34.4216 37.2946 34.4785 37.263 34.4845C37.2199 34.4982 37.2199 34.4537 37.1807 34.4537C36.9721 34.4464 36.9026 34.4154 36.8621 34.4216C36.7989 34.4353 36.7483 34.4759 36.7167 34.5267C36.6535 34.6166 36.4701 34.6796 36.4234 34.6796C36.3678 34.677 36.3336 34.6239 36.2995 34.5821C36.2527 34.5352 36.2097 34.5499 36.1541 34.5882C36.0921 34.629 36.0921 34.7228 36.058 34.7424C36.0188 34.7598 35.9416 34.7623 35.9542 34.7005C35.9657 34.6734 35.9948 34.6523 36.0074 34.6239C36.0188 34.5931 36.0049 34.5686 35.9644 34.5709C35.9416 34.5709 35.886 34.6191 35.8646 34.629C35.8026 34.6523 35.7116 34.6475 35.6496 34.634C35.6192 34.6216 35.5864 34.6153 35.5573 34.603C35.5307 34.5931 35.5054 34.5709 35.4764 34.5709C35.4296 34.5747 35.4182 34.634 35.3702 34.6426C35.3183 34.6561 35.2626 34.64 35.2134 34.629C35.1768 34.6166 35.1211 34.5968 35.0807 34.6067L34.9782 34.6944C34.9074 34.708 34.8315 34.6931 34.762 34.6931C34.714 34.6894 34.3169 34.7031 34.1664 34.7289C33.8984 34.7771 33.648 34.877 33.3788 34.9078C33.112 34.9412 31.9032 34.993 31.7313 34.988C31.5656 34.9831 30.7968 34.956 30.712 35.035C30.6982 35.0511 30.525 35.035 30.4934 35.0313C30.4277 35.0275 30.4238 34.9412 30.3656 34.9203C30.205 34.8511 30.334 35.0141 30.1356 34.8857C30.0053 34.7981 29.8283 34.8338 29.6159 34.8399C29.2657 34.8474 28.6765 34.7549 28.5538 34.7424C28.3389 34.7153 28.1163 34.6239 27.9936 34.4845C27.8875 34.3623 27.7067 34.3303 27.6864 34.1637C27.632 33.7492 27.7902 33.1198 27.8256 32.9434C27.8635 32.7681 27.9177 32.1129 27.9759 32.066C28.01 32.0364 27.9759 32.0142 28.01 31.9834C28.2503 31.7538 28.1643 31.744 28.2099 31.5132C28.2819 31.1232 28.4387 30.5445 28.8952 30.4348C29.1114 30.383 29.3718 30.2558 29.5198 30.204C29.7006 30.1423 30.0635 30.1892 30.3417 30.0682C30.4024 30.0399 30.4453 30.0078 30.5148 29.9992C30.788 29.9732 31.0599 30.0511 31.3278 30.0189C31.5909 29.9855 31.8816 29.9633 31.9449 29.9732C32.0486 29.9954 31.9677 29.8844 32.0093 29.8683C32.1357 29.8239 32.1295 29.9807 32.2825 30.0189C32.3925 30.0485 32.8426 30.0682 32.9589 30.0682C32.988 30.0682 32.964 30.0152 32.9855 29.9905C33.0651 29.9066 33.1435 30.0658 33.1904 30.1041C33.3066 30.1965 35.2741 30.41 35.4093 30.4384C35.6306 30.4841 35.9606 30.4682 36.2336 30.3385C36.355 30.2842 36.7673 30.1041 36.8494 30.0177C36.8837 29.9831 36.828 29.93 36.8521 29.8979C36.9304 29.8141 37.0189 29.6488 36.9785 29.4574C36.9683 29.397 36.9999 29.3402 37.0189 29.2859C37.0505 29.1958 36.9962 29.1366 37.0037 29.0465C37.0114 28.9676 37.0227 28.8663 37.0834 28.8084C37.1845 28.7084 37.1946 28.5763 37.1529 28.4999C37.0683 28.3506 36.9279 28.2852 36.8938 28.2631C36.8141 28.2173 36.8938 28.2654 36.9026 28.168C36.9038 28.1198 36.7546 28.142 36.7546 28.142C36.7546 28.142 36.4689 28.131 36.3715 28.0964C36.1047 28.0026 35.843 27.9754 35.5573 27.9718C35.1134 27.9669 34.6862 27.7941 34.2474 27.8298C34.174 27.8336 34.0185 27.8791 33.9844 27.8742C33.911 27.8668 33.9806 27.7484 33.7137 27.7558C33.4672 27.7619 33.2143 27.7053 32.9767 27.6423C32.7617 27.5831 32.1357 27.6201 32.0625 27.5831C32.022 27.5657 31.9714 27.572 31.9247 27.556C31.8324 27.5263 31.7906 27.3992 31.6009 27.3893C31.5618 27.3893 31.5277 27.3227 31.4858 27.3227C31.4088 27.3202 31.2811 27.3547 31.2394 27.3227C31.1572 27.256 30.9764 27.2215 30.946 27.1006C30.893 26.8724 31.3468 26.6009 31.4973 26.491C31.6351 26.3923 31.7956 26.2282 31.9777 26.2417C32.0865 26.2479 32.137 26.1714 32.2129 26.0888C32.371 25.9085 32.983 25.1176 33.1751 24.967C33.3838 24.8078 33.2231 24.6105 33.4887 24.4155C33.5722 24.3524 33.6746 24.091 33.7049 24.0354C33.8364 23.8058 33.7909 23.4197 34.0298 23.2581C34.0463 23.2469 34.0944 23.1741 34.1311 23.0854C34.1639 23.0038 34.0842 22.9298 34.0666 22.8989C34.026 22.8298 34.0501 22.7398 34.0463 22.6607C34.0425 22.604 34.0287 22.087 34.0287 21.9845C34.0323 21.8303 34.1007 21.7538 34.255 21.7661C34.3649 21.776 34.2587 21.5355 34.241 21.4613C34.1968 21.254 33.9907 20.9715 33.667 20.9418C33.284 20.9072 32.9868 21.1775 32.744 21.4428C32.5809 21.6242 32.1409 22.2474 32.065 22.2931C31.9385 22.3695 32.0562 22.425 31.9044 22.6115C31.8552 22.6694 31.7602 22.6558 31.7186 22.7137C31.6642 22.7879 31.553 22.9718 31.5555 23.0606C31.558 23.1285 31.5794 23.1988 31.5187 23.2444C31.3468 23.3765 31.3165 23.1964 31.2394 23.2444C31.1787 23.2839 31.1496 23.358 31.1206 23.3814C30.9321 23.5382 30.893 23.5986 30.7032 23.6369C30.5895 23.6604 30.3618 23.6825 30.2949 23.8034C30.2481 23.8849 30.0078 23.8985 30.0066 23.7355C30.0053 23.6221 30.1217 23.2136 30.133 23.1691C30.195 22.968 29.8561 22.8458 30.0179 22.6423C30.1077 22.5324 30.0926 22.4177 30.023 22.3041C29.9965 22.2585 29.9371 22.0413 29.9055 21.9993C29.8067 21.8772 29.9434 21.8378 29.8283 21.6736C29.7626 21.5761 29.6677 21.7427 29.6487 21.4947C29.6374 21.3466 29.4819 21.3022 29.4048 21.2307C29.301 21.1319 29.1872 21.0369 29.0672 20.9554C28.7497 20.7383 28.3907 20.5852 28.0127 20.5025C27.6333 20.4199 27.2389 20.394 26.8544 20.4643C26.7558 20.4804 26.5978 20.4718 26.5978 20.378C26.5978 20.352 26.5637 20.3496 26.5396 20.3335C26.465 20.2855 26.3083 20.3545 26.2273 20.3853C25.9845 20.4804 26.2197 20.5877 26.0908 20.6273C25.8999 20.6865 25.4535 20.8197 25.3271 20.8556C25.2753 20.8715 25.1766 20.8986 25.0426 20.8986C24.9149 20.8986 24.9099 21.0085 24.7493 21.0788C24.4419 21.212 24.5141 21.9092 24.5317 22.0821C24.5344 22.1129 24.5545 22.198 24.619 22.177C24.6822 22.1548 24.7606 22.24 24.7493 22.3893C24.7378 22.5386 24.7378 22.6151 24.6822 22.7952C24.6304 22.9755 24.7518 22.8742 24.7378 23.0495C24.729 23.179 24.9072 23.6344 24.8858 23.7615C24.8807 23.8022 24.9224 23.8478 24.9402 23.8824C24.9516 23.9145 24.9768 23.9194 25.011 23.9243C25.0982 23.9355 25.0868 24.1046 25.1539 24.2637C25.1981 24.376 25.2373 24.5277 25.3321 24.6043C25.3953 24.6524 25.4005 24.7178 25.4332 24.7585C25.4775 24.819 25.5066 24.8622 25.475 24.9029C25.4357 24.9523 25.2879 25.067 25.2322 25.0461C25.1424 25.0128 24.882 24.9943 24.7985 24.967C24.6254 24.9091 24.4065 25.0091 24.3586 24.9609C24.3004 24.9041 24.2131 24.9029 24.1373 24.8745C24.0653 24.8473 24.0538 24.9399 24.0159 24.9313C23.9362 24.9065 23.916 24.8499 23.868 24.7992C23.7466 24.6709 23.586 24.6673 23.414 24.6043C23.1979 24.5215 22.9765 24.4488 22.7894 24.3205C22.5871 24.1786 21.8968 23.9306 21.8652 23.8566C21.8272 23.7553 21.6097 23.7985 21.6022 23.7725C21.5806 23.6998 21.3859 23.6787 21.3797 23.6245C21.3694 23.5505 21.2392 23.5664 21.1798 23.5258C21.1343 23.495 21.0192 23.432 20.9637 23.4592C20.8991 23.49 20.8145 23.527 20.75 23.4801C20.712 23.4493 20.6816 23.4209 20.6286 23.4085C20.4895 23.3715 20.3984 23.4246 20.2961 23.5048C20.1709 23.5999 20.0532 23.701 19.9471 23.8157C19.8889 23.8861 19.8636 23.9738 19.8232 24.0576C19.7878 24.1328 19.7144 24.1786 19.6752 24.2513C19.6273 24.3427 19.6424 24.4352 19.751 24.4612C19.8699 24.4896 19.76 24.5821 19.846 24.6265C19.9762 24.6931 20.0279 24.9399 20.1899 25.0941C20.3883 25.2806 20.4541 25.5643 20.5148 25.6815C20.5995 25.8468 20.9168 25.7148 20.975 25.9246C20.9991 26.0111 21.1837 26.1664 21.5149 26.4515C21.6338 26.5515 22.1407 26.8193 22.338 26.8402C22.8565 26.8982 23.0828 27.1327 23.2952 27.2783C23.3926 27.3412 23.5784 27.2882 23.8098 27.7089C23.897 27.8706 23.9439 28.4147 23.9893 28.6874C24.0854 29.2786 24.3232 29.1859 24.2106 29.3945C24.0703 29.661 24.3232 29.9732 24.3207 30.6469C24.3181 30.8061 24.2359 31.064 24.1524 31.2578C23.9893 31.6427 24.2587 32.1364 24.1878 32.2968C24.0917 32.5152 24.0475 33.3567 23.8503 33.5308C23.7681 33.6036 23.6214 33.5849 23.519 33.5382C23.3332 33.4616 22.7565 33.6036 22.6213 33.4827C22.3697 33.2605 22.0687 33.2938 21.8828 33.2691C21.7235 33.247 21.5124 33.1224 21.3922 33.0654C21.1406 32.9434 20.1114 32.5842 19.7309 32.3893C18.7876 31.9056 17.4879 31.3627 17.3929 30.8691C17.3538 30.6605 15.939 29.7733 15.7176 29.4673C15.5951 29.3008 15.346 29.0441 15.3042 28.9676C15.246 28.8589 15.2182 28.6121 15.1399 28.5036C14.959 28.253 14.7277 28.2259 14.634 27.7522C14.5999 27.572 14.476 27.6707 14.2762 27.182C13.763 25.9148 13.8262 24.4563 13.8476 23.9071C13.8628 23.4358 14.2851 22.4005 14.409 22.0363C14.4824 21.8154 14.7606 21.6749 14.8175 21.2935C14.8339 21.175 15.4382 20.774 15.6506 20.4298C15.8365 20.1287 16.2513 19.7721 16.5484 19.5882C16.7153 19.4857 18.9381 17.8915 19.1302 17.6681C19.2061 17.5806 19.4148 17.2708 19.8737 17.2634C19.9838 17.2609 20.2315 17.103 20.2429 17.0167C20.2783 16.7773 22.5681 16.2393 22.9298 15.8555C23.0435 15.7383 23.7302 15.5471 24.0753 15.4804C24.1714 15.4593 24.1499 15.5778 24.3724 15.3755C24.5394 15.2261 24.9047 15.4742 25.1146 15.2706C25.384 15.0115 25.4598 14.9534 25.9935 14.9609C26.5245 14.9683 26.4486 14.6955 26.8709 14.666C27.0997 14.6499 27.4677 14.5302 27.5878 14.3106C27.6788 14.1465 28.6663 14.0626 28.8635 13.9181C29.3364 13.569 29.6891 13.954 30.2697 13.8367C30.3417 13.8219 30.592 13.9034 30.7248 13.8948C30.8614 13.8799 31.0825 13.6874 31.1647 13.8638C31.2141 13.9699 32.1118 13.9194 32.3331 13.9095C32.3988 13.907 32.543 13.8182 32.529 13.8799C32.5 13.9835 33.0942 13.9342 33.2106 14.028C33.3635 14.1538 33.6026 14.281 33.9084 14.1921C34.088 14.1403 34.7556 14.2427 34.9997 14.3278C35.1691 14.3846 34.8706 14.4797 35.5054 14.5055C35.9113 14.5203 37.321 15.3397 37.6144 15.3928C37.9698 15.4125 38.0595 15.7716 38.4262 15.9048C39.0786 16.1443 39.8689 16.6848 41.4936 17.9187C41.5683 17.9754 41.6504 18.2482 41.7376 18.2457C42.1498 18.2297 42.5468 18.9873 42.7264 19.2069C42.7808 19.2685 43.0475 19.1082 43.0146 19.5746C43.0096 19.6475 43.2271 19.5426 43.2334 19.8646C43.2384 20.2335 43.9073 20.4396 44.0692 21.2307C44.0869 21.3084 44.183 21.3725 44.2133 21.4441C44.3346 21.7328 44.7773 23.0618 44.7697 23.5442C44.767 23.6924 44.8505 24.5697 44.7153 25.2176C44.5914 25.7951 44.3714 26.3503 44.1489 26.8995C44.0123 27.2375 43.6861 27.6904 43.6645 27.8077C43.6443 27.9236 43.5597 28.0433 43.5848 28.1655C43.6013 28.2457 43.6039 28.3642 43.5154 28.395C43.4104 28.4333 43.2638 28.5073 43.2499 28.6492C43.2422 28.7319 43.0412 28.7404 43.0513 28.8379C43.0628 28.9577 42.8326 28.9503 42.8187 29.0799C42.8085 29.1588 42.6189 29.2279 42.6569 29.3378C42.6796 29.4019 42.5759 29.4069 42.4987 29.4353C42.4014 29.4685 42.2054 29.7611 42.2054 29.8103C42.2105 29.8659 42.0954 29.8302 42.0803 30.0128C42.0713 30.1251 41.9576 30.1324 41.8906 30.2262C41.8324 30.3064 41.7592 30.3311 41.749 30.3471C41.7123 30.4051 41.6972 30.5088 41.706 30.5988C41.7111 30.6741 41.5644 30.9234 41.7338 30.916C41.8059 30.9111 41.8299 30.8283 41.8754 30.7864C41.9463 30.7259 42.0424 30.668 42.1284 30.6285C42.2408 30.5716 42.3811 30.5483 42.4443 30.4312C42.4748 30.378 42.5443 30.2436 42.6239 30.2324C42.6492 30.2298 42.6796 30.2348 42.7049 30.2213C42.734 30.2101 42.7555 30.1805 42.7769 30.1595C42.8276 30.0978 42.8755 30.0324 42.9287 29.9708C42.959 29.9349 43.0362 29.9732 43.0601 29.919C43.0753 29.8831 43.0374 29.8622 43.0856 29.8374C43.1197 29.8227 43.1601 29.8227 43.1929 29.8017C43.2195 29.7844 43.2435 29.7549 43.27 29.7301C43.327 29.687 43.3914 29.6549 43.4597 29.698C43.5572 29.7611 43.2334 30.0238 43.2118 30.0485C43.1323 30.1324 43.1082 30.2496 43.0324 30.3372C42.9742 30.4051 42.9085 30.4742 42.8428 30.5359C42.8174 30.5557 42.7846 30.5716 42.7618 30.5988C42.7415 30.6285 42.7251 30.6605 42.7099 30.6889C42.677 30.7395 42.6214 30.7667 42.5797 30.8098C42.5355 30.8531 42.5178 30.9061 42.4798 30.9555C42.4204 31.0245 42.3888 31.0714 42.4191 31.1651C42.4368 31.2244 42.4773 31.2466 42.5355 31.2184C42.5885 31.1949 42.6088 31.1406 42.6366 31.0911C42.6619 31.0431 42.6885 31.0012 42.7327 30.969C42.7808 30.9346 42.8301 30.9111 42.8807 30.8827C42.9198 30.8629 42.9414 30.8197 42.9667 30.7852C43.0299 30.6889 43.1082 30.5988 43.1828 30.5113C43.2258 30.4632 43.2638 30.399 43.3282 30.3719C43.3636 30.3619 43.4079 30.3619 43.4268 30.3224C43.4421 30.2842 43.4256 30.2175 43.4862 30.2152C43.5394 30.2126 43.5344 30.278 43.5407 30.3127C43.5482 30.3546 43.5622 30.3643 43.6039 30.3643C43.6658 30.3669 43.6899 30.3385 43.7152 30.2892C43.7328 30.2436 43.7734 30.1843 43.8163 30.1645C43.8668 30.1361 43.9149 30.1225 43.9591 30.0842C44.0262 30.0238 44.092 29.9657 44.1514 29.9029C44.1968 29.8609 44.2412 29.8153 44.2816 29.7697C44.317 29.7289 44.3474 29.671 44.4005 29.6523C44.4333 29.6364 44.4612 29.6574 44.4978 29.661C44.5319 29.6648 44.5294 29.6536 44.5433 29.6252C44.556 29.6043 44.5749 29.5747 44.604 29.5772C44.6697 29.5783 44.6659 29.6648 44.6659 29.7117C44.6659 29.7301 44.6584 29.7659 44.6722 29.7844C44.6887 29.8067 44.7291 29.8004 44.7545 29.7968C44.8026 29.7893 44.8329 29.7893 44.8164 29.8474C44.8088 29.8795 44.781 29.9078 44.7583 29.93C44.6925 29.9941 44.6255 30.0485 44.5724 30.1201C44.5458 30.1485 44.5167 30.1769 44.4915 30.2077C44.4118 30.3015 44.3335 30.3939 44.2538 30.4891C44.1855 30.5643 44.1198 30.6456 44.0528 30.7198C44.016 30.7642 43.9781 30.8136 43.9339 30.8457C43.8732 30.8925 43.8567 30.9406 43.8226 31.0012C43.7771 31.0801 43.7113 31.1232 43.6545 31.1838C43.6241 31.2195 43.6304 31.2652 43.6204 31.306C43.6051 31.3576 43.5798 31.3762 43.5457 31.4145C43.4672 31.5022 43.399 31.6008 43.3724 31.7094C43.3611 31.7589 43.3636 31.8501 43.432 31.7982C43.4724 31.7662 43.48 31.7156 43.5243 31.6885C43.5597 31.665 43.6102 31.6614 43.652 31.6466C43.7152 31.628 43.7707 31.5874 43.7998 31.5291C43.8226 31.4837 43.8163 31.4022 43.8542 31.3688C43.8845 31.343 43.9465 31.3467 43.9869 31.3355C44.0388 31.3219 44.0945 31.3059 44.1451 31.2935C44.1906 31.2849 44.25 31.2826 44.2929 31.2578C44.2954 31.2529 44.3019 31.2492 44.3069 31.2466C44.3145 31.2381 44.3208 31.2282 44.3271 31.2184C44.3346 31.2024 44.3398 31.1763 44.3372 31.1554C44.3346 31.1307 44.3119 31.1232 44.3335 31.101C44.3474 31.0801 44.3651 31.0604 44.3701 31.0344C44.3764 30.995 44.3474 30.9666 44.3182 30.9468C44.2778 30.9197 44.2096 30.8864 44.2032 30.8308C44.1994 30.7975 44.2234 30.7753 44.2374 30.7482C44.2525 30.7259 44.2613 30.6975 44.2639 30.668C44.2664 30.6495 44.2601 30.6285 44.2651 30.6086C44.2689 30.5854 44.2778 30.5667 44.2904 30.5507C44.303 30.5323 44.3283 30.4989 44.3474 30.4903C44.408 30.4742 44.4296 30.5483 44.4826 30.5581C44.5257 30.5631 44.5623 30.5667 44.6052 30.5667C44.6533 30.5667 44.7013 30.5716 44.7494 30.5667C44.781 30.5631 44.8252 30.5581 44.8442 30.5273C44.8556 30.5124 44.8595 30.4891 44.8556 30.4692C44.8493 30.4273 44.8013 30.4013 44.7974 30.3669C44.7936 30.3336 44.8164 30.2879 44.8342 30.2619C44.8595 30.2213 44.8987 30.2077 44.9428 30.2213C45.0288 30.2436 45.1224 30.3408 45.216 30.3101C45.2539 30.2966 45.2652 30.2522 45.2451 30.2188C45.2388 30.2015 45.216 30.1916 45.2046 30.1756C45.1919 30.1634 45.1818 30.1485 45.1743 30.1324C45.149 30.0682 45.1793 30.0078 45.221 29.9584C45.2589 29.9152 45.3096 29.8573 45.369 29.8412C45.3955 29.8302 45.4246 29.8141 45.4537 29.8103H45.4751C45.5132 29.8103 45.5371 29.856 45.5396 29.8906C45.5448 29.93 45.5321 29.9696 45.5093 30.004C45.4814 30.056 45.4246 30.1201 45.4803 30.1731C45.5296 30.2175 45.5965 30.2175 45.6585 30.2077C45.6863 30.2077 45.7129 30.2015 45.7407 30.2015C45.761 30.2015 45.7937 30.1954 45.8152 30.204C45.8506 30.2188 45.8734 30.278 45.8634 30.315C45.8506 30.3694 45.8001 30.41 45.7723 30.4632C45.7394 30.5174 45.6687 30.5594 45.613 30.5915C45.5789 30.6125 45.5371 30.6198 45.4979 30.6297C45.4397 30.6495 45.3955 30.6655 45.3753 30.7198C45.355 30.7753 45.3841 30.7975 45.4397 30.8061C45.5042 30.8161 45.5675 30.8531 45.5675 30.9234C45.5687 31.043 45.4638 31.1072 45.3677 31.1579C45.3221 31.1789 45.2792 31.2024 45.2438 31.2319C45.2248 31.2479 45.2084 31.2652 45.197 31.2849C45.1894 31.2935 45.1641 31.3576 45.1603 31.3576C45.1123 31.3701 45.0782 31.3095 45.0427 31.2886C45.0238 31.2774 45.0048 31.2738 44.9845 31.2849C44.9719 31.2935 44.9669 31.3047 44.9581 31.317C44.9416 31.3293 44.9227 31.3331 44.9125 31.354C44.9049 31.3701 44.9062 31.3947 44.9049 31.4145C44.9037 31.4503 44.9074 31.496 44.8961 31.533C44.8884 31.5552 44.8631 31.596 44.8695 31.6244C44.8809 31.6687 44.9593 31.644 44.9834 31.628C45.0136 31.6057 45.0238 31.5687 45.0516 31.5514C45.0959 31.5144 45.149 31.6119 45.1375 31.6477C45.13 31.681 45.0971 31.6971 45.087 31.7229C45.0693 31.7576 45.0996 31.7834 45.13 31.7933C45.1818 31.8094 45.3171 31.7415 45.3133 31.681V31.6761C45.3032 31.6341 45.2451 31.5725 45.3184 31.5552C45.355 31.5452 45.3866 31.5724 45.4132 31.5922C45.4372 31.6095 45.4663 31.6427 45.4979 31.6427C45.5371 31.644 45.5637 31.5773 45.589 31.5552C45.6319 31.5108 45.6838 31.4774 45.7319 31.4478C45.8077 31.4009 45.9101 31.3824 45.9695 31.3196C46.0327 31.2479 46.0846 31.1381 46.1086 31.043C46.1225 31.0012 46.1365 30.9418 46.1693 30.9134C46.2464 30.8382 46.3741 30.8754 46.4475 30.7962C46.4791 30.7667 46.4955 30.7309 46.5095 30.6951C46.5196 30.6594 46.5373 30.6285 46.5575 30.5988C46.5865 30.5631 46.5727 30.5261 46.574 30.4853C46.5765 30.4459 46.5979 30.4013 46.6284 30.378C46.6688 30.3497 46.7029 30.3508 46.7421 30.3755C46.8015 30.4224 46.8963 30.3546 46.952 30.3977C47.0139 30.4495 46.9432 30.5445 46.8951 30.5815C46.7484 30.6865 46.7812 30.879 46.6434 30.9838C46.5929 31.0221 46.5208 31.0245 46.4754 31.0679C46.4109 31.1331 46.4348 31.2504 46.3779 31.3095C46.3488 31.3367 46.2971 31.2826 46.2642 31.2997C46.2401 31.3121 46.2351 31.3491 46.2313 31.3701C46.2299 31.3874 46.2313 31.4071 46.2274 31.4231C46.2174 31.4528 46.1365 31.5033 46.1832 31.5403C46.2047 31.5552 46.2427 31.5552 46.2654 31.5577C46.3046 31.5601 46.3161 31.5514 46.34 31.5243C46.3488 31.5108 46.3653 31.4911 46.3829 31.4947C46.4019 31.496 46.4172 31.5243 46.431 31.5343C46.4425 31.5428 46.4664 31.5687 46.4829 31.5552C46.4955 31.5452 46.4993 31.5144 46.5043 31.5033C46.5145 31.4824 46.5334 31.4639 46.5587 31.4639C46.5828 31.4676 46.574 31.475 46.5828 31.4885C46.6043 31.5243 46.6713 31.5058 46.6979 31.4861C46.7218 31.4725 46.7433 31.4502 46.7636 31.4306C46.8053 31.3824 46.8394 31.3256 46.8762 31.2774C46.9166 31.2282 46.9595 31.1789 47.0164 31.1579C47.0519 31.1431 47.0885 31.1455 47.1253 31.1331C47.167 31.1159 47.2023 31.0862 47.2327 31.0554C47.2934 30.9987 47.3704 30.9887 47.4349 30.9346C47.469 30.9061 47.54 30.8531 47.5462 30.9295C47.55 30.9418 47.5387 30.9629 47.5412 30.969C47.545 30.9887 47.5576 30.995 47.5576 31.0135C47.5551 31.0875 47.4211 31.1159 47.397 31.1789C47.3869 31.2096 47.3997 31.2381 47.3958 31.2614C47.3832 31.3516 47.2984 31.3293 47.2377 31.3663C47.1619 31.4145 47.1012 31.5022 47.0619 31.5799C47.0405 31.6194 47.043 31.6244 47.0658 31.665C47.0784 31.681 47.1176 31.7119 47.1012 31.7377C47.086 31.7589 47.0316 31.7328 47.0089 31.7377C46.9355 31.7489 46.9671 31.8204 46.9545 31.8662C46.9405 31.9144 46.8748 31.8303 46.8521 31.9229C46.8394 31.971 46.8457 32.0254 46.8256 32.0735C46.8015 32.1265 46.737 32.1622 46.6852 32.1882C46.6713 32.1956 46.6561 32.1969 46.6409 32.2054C46.627 32.2117 46.6131 32.2228 46.6018 32.2375C46.5878 32.2549 46.5929 32.2857 46.5828 32.3091C46.574 32.3252 46.56 32.3412 46.5474 32.3523C46.5208 32.3782 46.4829 32.4066 46.4741 32.4436C46.4651 32.4646 46.4779 32.4758 46.5006 32.4782C46.5183 32.4831 46.5334 32.4719 46.5474 32.4633C46.555 32.4609 46.5575 32.456 46.5663 32.4548C46.5765 32.451 46.5865 32.4485 46.5929 32.4448C46.6043 32.4399 46.6157 32.4326 46.6257 32.4263C46.6485 32.4152 46.6688 32.4054 46.6941 32.3917C46.7193 32.3782 46.7484 32.3672 46.7724 32.3498C46.871 32.2771 46.9621 32.1931 47.0506 32.1043C47.1417 32.0116 47.2099 31.8932 47.3022 31.8019C47.3415 31.7625 47.3945 31.7057 47.4489 31.6921C47.5551 31.665 47.5222 31.7698 47.4805 31.8168C47.459 31.8391 47.4577 31.8686 47.4349 31.8909C47.4173 31.9056 47.3945 31.9056 47.3742 31.9204C47.3515 31.9376 47.325 31.9759 47.3072 32.0032C47.2718 32.066 47.2415 32.1364 47.1871 32.1858C47.1467 32.2166 47.0987 32.2264 47.0646 32.2709C47.0317 32.3128 47.0139 32.3695 46.9912 32.419C46.9734 32.4597 46.9608 32.5029 47.024 32.5115C47.1038 32.5225 47.1113 32.4597 47.1505 32.4152C47.191 32.3672 47.2756 32.3622 47.33 32.3313C47.3844 32.2968 47.3894 32.2512 47.4058 32.1981C47.4148 32.1721 47.4615 32.0931 47.4893 32.0968C47.4994 32.0339 47.5525 32.0426 47.5879 32.0006C47.6057 31.9759 47.5942 31.9685 47.6272 31.9574C47.6829 31.9353 47.7713 31.9204 47.7612 32.0032C47.7562 32.0549 47.703 32.1007 47.6714 32.1377C47.5791 32.2523 47.4918 32.3523 47.4211 32.4758C47.3528 32.5954 47.3731 32.7262 47.2959 32.8471C47.258 32.9026 47.2149 32.9766 47.1619 33.0187C47.1113 33.0643 47.0443 33.0841 46.9987 33.1321C46.9545 33.1779 46.9141 33.2358 46.8787 33.2864C46.8243 33.3704 46.7433 33.4111 46.6598 33.4703C46.6257 33.4949 46.5993 33.5208 46.5765 33.5554C46.5411 33.5998 46.4842 33.6381 46.4475 33.685C46.4109 33.7294 46.3994 33.7813 46.364 33.8206C46.3122 33.8738 46.2629 33.8936 46.2617 33.975C46.2224 33.9824 46.2174 33.9688 46.1845 33.996C46.1681 34.0082 46.1503 34.0218 46.1365 34.0379C46.1162 34.0613 46.096 34.091 46.0758 34.1156C46.0644 34.128 46.0176 34.1687 46.0214 34.1859C46.0467 34.2649 46.3021 34.0503 46.3261 34.0317C46.4082 33.9541 46.4829 33.8714 46.5663 33.7948C46.7749 33.5998 46.976 33.3987 47.1707 33.1926C47.3415 33.0113 47.5096 32.8262 47.6651 32.6336C47.7372 32.5485 47.8219 32.4597 47.8725 32.3622C47.9117 32.2968 47.9255 32.1858 48.0002 32.1439C48.0507 32.1179 48.1317 32.14 48.1924 32.1153C48.4275 32.0191 48.5654 31.6921 48.7222 31.5108C49.1646 31.0023 49.7172 29.7857 49.7628 29.6536C49.7994 29.5525 49.8335 29.3143 50.0662 29.2612C50.2103 29.2255 50.185 28.912 50.2154 28.7774C50.2596 28.5974 50.2773 28.3988 50.395 28.253C50.5947 28.0088 50.6112 27.5917 50.6427 27.4523C50.711 27.1622 51.2623 25.2854 51.127 23.7787C51.0991 23.485 51.1018 21.7328 50.6061 21.1961C50.2887 20.8556 50.639 20.4273 50.4442 19.8807C50.3987 19.7462 50.6036 19.6882 50.644 19.5548C50.7793 19.1205 50.5049 18.7602 50.271 18.7145C50.0662 18.6763 49.793 18.6763 49.7134 18.4394C49.6805 18.342 49.8575 17.931 49.6249 17.5041C49.5136 17.2981 49.3265 16.8253 47.9117 15.753C47.4388 15.3915 47.0873 14.8992 46.6663 14.4845C46.5411 14.2525 45.8027 13.6121 45.6118 13.4788C45.4789 13.3876 45.2691 12.9582 44.6584 12.7434C44.456 12.6719 43.0817 11.5921 42.9236 11.5428C42.3382 11.3589 41.3356 10.6518 41.151 10.6086C40.1255 10.3681 39.7563 9.80528 39.372 9.76827C39.0786 9.74244 38.2593 9.69426 37.8281 9.22294C37.5916 8.96877 37.2503 8.91198 36.9304 9.08725C36.7218 9.20328 36.0668 8.6343 35.14 8.74661C34.9466 8.76999 34.7772 8.43321 34.0603 8.52457C33.3761 8.61336 32.9286 8.17532 32.6845 8.08897C32.4519 8.0075 30.9954 7.64463 30.339 7.66686H29.9358C28.5374 7.48556 27.3122 7.48556 25.9606 7.66686C25.6419 7.74704 21.5883 8.76639 21.2114 8.97738C20.8953 9.15625 20.0432 9.42532 19.8307 9.51899C19.387 9.72021 17.6673 10.2681 17.6129 10.4544C17.5813 10.5518 17.3045 10.5643 17.2363 10.6408C17.1919 10.6888 16.7671 11.1343 16.2057 11.3355C15.8492 11.4626 14.1586 12.673 13.8413 12.9384C13.615 13.1297 12.6022 13.838 12.4289 13.9428Z" fill="#FFFFFE"/>
<path fill-rule="evenodd" clip-rule="evenodd" d="M51.3343 18.8026C51.3254 18.9346 51.309 19.0753 51.1735 19.1579C51.1622 19.1666 51.1305 19.1603 51.1177 19.1592C51.1001 19.1579 51.0849 19.1542 51.0698 19.1493C51.0065 19.1308 50.9571 19.0863 50.9191 19.0357C50.8988 19.0147 50.8786 18.9876 50.8571 18.9641C50.8319 18.9346 50.8078 18.9099 50.7888 18.8753C50.7723 18.8432 50.7597 18.8026 50.7635 18.7655C50.766 18.7371 50.7748 18.7075 50.7888 18.6767C50.8001 18.6483 50.8179 18.6249 50.8432 18.6038C50.8647 18.5866 50.9014 18.5632 50.9293 18.562C51.1152 18.5558 51.2912 18.615 51.3343 18.8026Z" fill="#FFFFFE"/>
<path fill-rule="evenodd" clip-rule="evenodd" d="M41.5887 31.2021C41.5747 31.228 41.5496 31.254 41.5381 31.2724C41.4939 31.3267 41.4458 31.3822 41.4003 31.439C41.3851 31.4562 41.37 31.4749 41.3549 31.4921C41.2511 31.6117 41.1424 31.7277 41.0273 31.8327C40.9666 31.8894 40.9072 31.94 40.8465 31.9918C40.8124 32.014 40.7125 32.1237 40.6694 32.0719C40.6328 32.0313 40.6581 31.9659 40.6872 31.9289C40.7112 31.8981 40.7429 31.871 40.7644 31.8376C40.7896 31.7944 40.7985 31.7487 40.8124 31.7018C40.8226 31.6487 40.8477 31.5872 40.8984 31.5611C40.9616 31.5266 41.0399 31.5143 41.1069 31.5069C41.1791 31.4958 41.2182 31.4476 41.2549 31.386C41.2663 31.3699 41.2764 31.3514 41.2827 31.3304C41.2942 31.3008 41.3017 31.2847 41.3283 31.265C41.3561 31.2415 41.3826 31.2193 41.4104 31.1971C41.4509 31.1662 41.5129 31.0874 41.5722 31.1208C41.6065 31.1404 41.6027 31.1725 41.5887 31.2021Z" fill="#FFFFFE"/>
<path fill-rule="evenodd" clip-rule="evenodd" d="M46.2052 31.7204C46.218 31.7449 46.223 31.7784 46.2205 31.8042C46.2142 31.8462 46.1636 31.8623 46.1307 31.872C46.0851 31.8943 46.0408 31.9116 45.9914 31.9264C45.9459 31.9375 45.894 31.9535 45.8447 31.9623C45.8231 31.9683 45.6889 31.9967 45.7522 32.0325C45.8016 32.0585 45.7661 32.0868 45.7232 32.1041C45.6864 32.1153 45.6143 32.1312 45.5814 32.1004C45.5409 32.0634 45.608 31.9572 45.637 31.9264C45.6737 31.8869 45.7232 31.8585 45.7711 31.8301C45.8231 31.8042 45.8737 31.782 45.9218 31.7524C45.9724 31.7204 46.0141 31.6795 46.0661 31.6561C46.1281 31.6339 46.1801 31.6685 46.2052 31.7204Z" fill="#FFFFFE"/>
<path fill-rule="evenodd" clip-rule="evenodd" d="M40.2893 32.5483C40.1526 32.705 39.9159 32.8691 39.7628 32.7456C39.6121 32.6236 39.6945 32.5077 39.8045 32.3892C39.9753 32.2336 40.3425 32.0795 40.4146 32.1499C40.5399 32.2706 40.3399 32.4225 40.2893 32.5483Z" fill="#FFFFFE"/>
<path fill-rule="evenodd" clip-rule="evenodd" d="M42.2889 32.6645C42.3092 32.6411 42.3207 32.6126 42.3371 32.588C42.351 32.5645 42.3713 32.5546 42.3713 32.5288C42.3713 32.4831 42.3257 32.4597 42.2839 32.4758C42.2396 32.4905 42.2055 32.5189 42.1649 32.541C42.0991 32.5793 42.0232 32.6015 41.9435 32.6126C41.8916 32.6163 41.8398 32.6151 41.7879 32.625C41.7587 32.6299 41.7081 32.6361 41.6903 32.6607C41.6739 32.6843 41.6928 32.7373 41.6967 32.7631C41.7208 32.8568 41.8548 32.8459 41.932 32.842C42.0029 32.8371 42.0738 32.8175 42.1384 32.7866C42.1953 32.7521 42.251 32.7138 42.2889 32.6645Z" fill="#FFFFFE"/>
<path fill-rule="evenodd" clip-rule="evenodd" d="M45.3639 34.3495C45.4222 34.4704 45.3221 34.605 45.2272 34.6753C45.1741 34.7123 45.1222 34.7431 45.0553 34.7308C44.9944 34.7209 44.9463 34.6816 44.9273 34.6285C44.8893 34.5284 44.9653 34.4211 45.0463 34.3667C45.0906 34.3346 45.1463 34.3114 45.2033 34.3051C45.2424 34.3038 45.3437 34.3114 45.3639 34.3495Z" fill="#FFFFFE"/>
<path fill-rule="evenodd" clip-rule="evenodd" d="M32.8046 14.8567C32.8248 14.9752 32.7249 15.0974 32.6667 15.1899C32.6363 15.2344 32.6174 15.2961 32.5806 15.3344C32.544 15.3714 32.4907 15.3973 32.4452 15.4207C32.368 15.4652 32.2858 15.4824 32.2097 15.4207C32.1022 15.3245 32.1959 15.2331 32.1959 15.1208C32.1503 14.9703 32.1959 14.8284 32.2718 14.6939C32.3326 14.589 32.3933 14.4471 32.5047 14.3804C32.5704 14.3434 32.6122 14.2731 32.6958 14.3187C32.8248 14.4447 32.7743 14.6902 32.8046 14.8567Z" fill="#FFFFFE"/>
<path fill-rule="evenodd" clip-rule="evenodd" d="M30.7814 15.5638C30.827 15.6748 30.8497 15.8007 30.9269 15.8981C31.0016 15.9908 31.0154 16.2338 30.97 16.235C30.8471 16.2461 30.8738 16.3337 30.818 16.3337C30.7181 16.3313 30.3904 16.3251 30.3068 16.1179C30.2752 16.0426 30.265 15.9833 30.2727 15.8933C30.2789 15.8105 30.2979 15.5292 30.289 15.3762C30.2777 15.2344 30.4789 15.2257 30.5738 15.3035C30.6206 15.3405 30.7637 15.5206 30.7814 15.5638Z" fill="#FFFFFE"/>
<path fill-rule="evenodd" clip-rule="evenodd" d="M34.8343 15.8109C34.7913 15.9453 34.541 16.0034 34.6408 16.1626C34.6649 16.2587 34.5574 16.3032 34.4866 16.3155C34.2995 16.3723 34.1048 16.5599 33.9125 16.4562C33.8329 16.3032 33.5838 16.2871 33.5977 16.1008C33.6912 15.9329 33.8834 15.9662 33.9973 15.8343C34.0453 15.7825 34.7344 15.6565 34.8204 15.7713L34.8343 15.8109Z" fill="#FFFFFE"/>
<path fill-rule="evenodd" clip-rule="evenodd" d="M30.0856 17.1034C30.0895 17.17 30.0793 17.2589 30.0236 17.3168C29.9238 17.4168 29.7467 17.4095 29.6912 17.4292C29.5623 17.4649 29.3737 17.4342 29.3157 17.4205C29.2916 17.4155 29.0666 17.3243 29.0413 17.275C29.0147 17.2367 28.9729 17.0491 28.9907 17.0035C29.021 16.9195 29.1348 16.8764 29.2182 16.8616C29.3358 16.8405 29.4712 16.8245 29.571 16.8788C29.7695 16.9924 29.9694 16.922 30.0351 16.9689C30.0565 16.9837 30.0843 17.0762 30.0856 17.1034Z" fill="#FFFFFE"/>
<path fill-rule="evenodd" clip-rule="evenodd" d="M32.8421 17.153C32.8243 17.0938 32.6336 16.9346 32.574 16.9074C32.4691 16.8568 32.3414 16.8779 32.2288 16.8432C31.9962 16.7692 31.8496 16.9815 31.6624 17.0123C31.5814 17.0284 31.541 17.1123 31.4741 17.1554C31.2907 17.2739 31.144 17.7502 31.1086 17.8601C31.0226 18.1216 31.2945 18.2931 31.3995 18.2981C31.5511 18.3054 31.7181 18.2832 31.861 18.2499C32.0936 18.1709 32.2908 18.0143 32.4501 17.8354C32.5702 17.7046 32.6411 17.5466 32.7473 17.4109C32.8927 17.2233 32.8471 17.164 32.8421 17.153ZM33.7183 18.0575C33.5956 18.3536 33.0698 19.0508 32.1872 19.2186C31.8585 19.2828 31.4614 19.4246 31.1668 19.1902C31.149 19.1779 31.0112 19.0508 30.8735 18.9953C30.723 18.9348 30.6812 19.0114 30.5688 18.9212C30.5473 18.904 30.4853 18.7485 30.4992 18.6448C30.5106 18.5794 30.4626 18.519 30.4348 18.4585C30.4019 18.3869 30.2981 18.2524 30.3146 18.1279C30.3222 18.0846 30.2678 17.8403 30.393 17.6675C30.4321 17.6144 30.5663 17.3554 30.431 17.3331C30.3829 17.3257 30.3716 17.1937 30.4689 17.1123C30.5991 17.0074 30.6699 16.5471 31.144 16.4126C31.4931 16.3126 31.7093 15.9105 32.081 15.8907C32.2541 15.8586 32.4325 15.887 32.5956 15.9536C32.7473 16.0165 32.9419 16.0449 33.038 16.177C33.1 16.267 33.3794 16.3978 33.4769 16.5718C33.5502 16.7026 33.7133 16.805 33.7499 16.9543C33.7689 17.0246 33.8385 17.3023 33.8359 17.3752C33.8347 17.5071 33.7576 17.9649 33.7183 18.0575Z" fill="#FFFFFE"/>
<path fill-rule="evenodd" clip-rule="evenodd" d="M35.0731 18.128C35.1415 18.1491 35.2236 18.1886 35.211 18.2738C35.1983 18.3465 35.1325 18.3207 35.0808 18.3441C34.9935 18.3848 35.0213 18.5489 34.8987 18.5353C34.8278 18.528 34.7696 18.5624 34.7078 18.5847C34.5585 18.5798 34.3625 18.5946 34.231 18.5192C34.1956 18.502 34.1779 18.4773 34.1488 18.4489C34.1211 18.4243 34.011 18.4058 34.0199 18.2811C34.0225 18.2417 33.9984 18.2392 33.9744 18.212C33.9149 18.1441 33.9681 18.0589 34.054 18.0454C34.0996 18.0392 34.1475 18.0529 34.1881 18.0368C34.317 17.9776 34.4623 18.0121 34.6015 18.0306C34.6735 18.0392 34.7457 18.0516 34.8152 18.0701C34.8771 18.0862 35.0515 18.1219 35.0731 18.128Z" fill="#FFFFFE"/>
<path fill-rule="evenodd" clip-rule="evenodd" d="M29.9856 19.0021C29.9844 19.0193 30.0198 19.0503 30.0299 19.0651C30.078 19.1441 29.997 19.2267 29.9325 19.2699C29.863 19.3131 29.7833 19.3403 29.7188 19.3884C29.686 19.413 29.5204 19.4859 29.4685 19.4945C29.4205 19.5031 29.2409 19.5055 29.203 19.5007C29.1132 19.4833 29.0348 19.4044 29.026 19.3168C29.0892 18.9886 29.4787 18.9331 29.7353 18.8269C29.8769 18.7935 30.0008 18.864 29.9856 19.0021Z" fill="#FFFFFE"/>
<path fill-rule="evenodd" clip-rule="evenodd" d="M33.3018 19.5334C33.3879 19.6038 33.4626 19.6618 33.5144 19.7606C33.5676 19.8556 33.5853 19.9531 33.6119 20.058C33.6449 20.1864 33.4866 20.2146 33.4372 20.3122C33.422 20.3419 33.4069 20.3714 33.3714 20.3789C33.3145 20.3899 33.2334 20.3566 33.1765 20.3406C33.1121 20.3232 33.05 20.3232 33.0069 20.2641C32.9716 20.2159 32.9576 20.1554 32.9526 20.0986C32.9461 20.0468 32.9513 19.9395 32.9108 19.8827C32.893 19.858 32.8716 19.8358 32.8639 19.8062C32.8576 19.7754 32.8729 19.7482 32.8664 19.721C32.8399 19.6297 32.9172 19.6261 32.9044 19.5545C32.8969 19.5125 32.9197 19.4768 32.9538 19.4656C33.0159 19.457 33.0753 19.4804 33.131 19.5014C33.1664 19.5125 33.2689 19.5063 33.3018 19.5334Z" fill="#FFFFFE"/>
<path fill-rule="evenodd" clip-rule="evenodd" d="M31.5944 19.854C31.6741 19.9911 31.6703 20.1428 31.6032 20.2847C31.5526 20.3981 31.4754 20.4994 31.4008 20.598C31.3703 20.64 31.3475 20.6967 31.2994 20.7152C31.1768 20.7584 31.0932 20.6659 31.0641 20.6375C31.0439 20.6128 31.0033 20.5648 30.9996 20.5315C30.9807 20.2106 31.2425 19.7392 31.3703 19.7306C31.4666 19.722 31.5235 19.822 31.5944 19.854Z" fill="#FFFFFE"/>
<path fill-rule="evenodd" clip-rule="evenodd" d="M42.1231 35.6842C42.0306 35.7337 42.1231 35.9298 42.0724 36.0089C42.0231 36.0914 41.9091 36.1113 41.8193 36.0804C41.7306 36.0521 41.7534 35.9854 41.7939 35.9163C41.7952 35.9101 41.7877 35.8768 41.7902 35.867C41.7939 35.8496 41.8054 35.8387 41.8142 35.8249C41.8268 35.8066 41.8496 35.7707 41.8307 35.7448C41.8218 35.7337 41.8015 35.73 41.7927 35.7126C41.7762 35.6917 41.7814 35.6683 41.7852 35.6424C41.7889 35.6227 41.7801 35.5919 41.7965 35.5758C41.8142 35.5658 41.837 35.5721 41.851 35.5745C41.8914 35.5844 41.9244 35.6041 41.9636 35.6227C41.9851 35.6337 42.0129 35.6362 42.0395 35.6362C42.061 35.6362 42.0813 35.6337 42.1003 35.6239C42.1193 35.6152 42.1357 35.6041 42.1559 35.5967C42.1927 35.5844 42.2445 35.588 42.2546 35.6337C42.2559 35.656 42.2598 35.7251 42.2167 35.7126C42.199 35.709 42.1889 35.6881 42.1737 35.6794C42.1572 35.6732 42.1369 35.6769 42.1231 35.6842Z" fill="#FFFFFE"/>
<path fill-rule="evenodd" clip-rule="evenodd" d="M39.8376 33.9431C39.7895 33.9468 39.7705 33.9985 39.7211 33.9775C39.6843 33.9615 39.6882 33.9258 39.6996 33.8951C39.7084 33.8678 39.6996 33.8247 39.7147 33.7988C39.7642 33.721 39.8882 33.7913 39.9248 33.6914C39.9438 33.6531 39.9982 33.4829 40.0641 33.5691C40.1071 33.6222 40.0311 33.7062 40.0387 33.7629C40.04 33.8073 40.0463 33.8172 40.011 33.8555C39.9869 33.8764 39.9589 33.9183 39.9261 33.9357C39.897 33.9443 39.8667 33.9381 39.8376 33.9431Z" fill="#FFFFFE"/>
<path fill-rule="evenodd" clip-rule="evenodd" d="M43.4565 30.4032C43.4071 30.3823 43.3275 30.4748 43.2995 30.5019C43.206 30.592 43.1199 30.6895 43.0578 30.8029C43.025 30.8635 42.968 30.8857 42.9198 30.93C42.9035 30.9461 42.8807 30.9745 42.9047 30.9881C42.9376 31.0029 43.0097 30.9696 43.0375 30.9584C43.0693 30.9461 43.0908 30.919 43.1173 30.8956C43.1427 30.8746 43.1717 30.8672 43.1996 30.8462C43.2211 30.8338 43.2338 30.8104 43.2502 30.7895C43.2704 30.7659 43.292 30.745 43.316 30.7253C43.335 30.7104 43.3565 30.6895 43.3704 30.671C43.4046 30.6291 43.4363 30.5871 43.473 30.5476C43.4958 30.5191 43.5299 30.4328 43.4868 30.4094C43.4743 30.4019 43.4678 30.4094 43.4565 30.4032Z" fill="#FFFFFE"/>
<path fill-rule="evenodd" clip-rule="evenodd" d="M41.9877 31.5798C41.9371 31.5342 41.851 31.6809 41.7839 31.7377C41.7345 31.7736 41.5802 31.8278 41.6941 31.9055C41.794 31.9734 41.8687 31.8512 41.9029 31.7932C41.9319 31.7377 42.0333 31.6193 41.9877 31.5798Z" fill="#FFFFFE"/>
<path fill-rule="evenodd" clip-rule="evenodd" d="M44.8041 31.9401C44.6573 31.9376 44.4181 31.9426 44.3131 32.0659C44.2194 32.1721 44.3144 32.3016 44.4346 32.3313C44.5055 32.351 44.6181 32.3522 44.6763 32.3016C44.7269 32.2623 44.7294 32.1721 44.7776 32.1289C44.8142 32.0894 44.9016 32.0857 44.9143 32.0276C44.9281 31.9624 44.8598 31.9426 44.8041 31.9401Z" fill="#FFFFFE"/>
<path fill-rule="evenodd" clip-rule="evenodd" d="M40.8859 34.5686C40.9137 34.55 40.9403 34.5316 40.9668 34.5156C41.0099 34.4822 41.0757 34.4489 41.1061 34.402C41.1086 34.3958 41.1466 34.2909 41.1048 34.3021C41.0416 34.3205 41.0138 34.3932 40.9555 34.4253C40.9124 34.4538 40.6859 34.5599 40.691 34.6154C40.6935 34.6401 40.7529 34.655 40.7707 34.6524C40.8163 34.6451 40.796 34.6341 40.8263 34.6069C40.8466 34.5969 40.8668 34.5797 40.8859 34.5686Z" fill="#FFFFFE"/>
<path fill-rule="evenodd" clip-rule="evenodd" d="M40.4668 35.5942C40.4415 35.6362 40.3404 35.7128 40.3379 35.7707C40.3302 35.8571 40.4478 35.8509 40.5225 35.8608C40.7057 35.8892 40.9637 35.9137 41.1002 35.7608C41.1521 35.7042 41.1963 35.5648 41.1483 35.4882C41.0851 35.3869 41.013 35.4746 40.9244 35.4869C40.7373 35.5104 40.597 35.3968 40.4668 35.5942Z" fill="#FFFFFE"/>
</svg>
