<svg width="456" height="47" viewBox="0 0 456 47" fill="none" xmlns="http://www.w3.org/2000/svg">
<path d="M35.94 1.47998H48.65V19.21H57.17V1.51996H70V45.93H57.3V27.74H48.77V46H35.94V1.47998Z" fill="white"/>
<path d="M330.82 27.73H322.24V45.91H309.55V1.52002H322.22V19.29H328.64C330.79 19.29 330.79 19.29 330.79 17.14V1.53003H343.52V45.93H330.82V27.73Z" fill="#ADADAD"/>
<path d="M144.21 26.23C149.08 32.16 151.21 39.38 155 46.02H150.56C147.72 46.02 144.88 46.02 142.05 46.02C141.685 46.0758 141.313 45.9884 141.011 45.7759C140.709 45.5634 140.501 45.2424 140.43 44.88C139.09 41.17 137.68 37.48 136.29 33.79C135.525 31.3892 134.024 29.29 132 27.79V46H119.32V44.77C119.32 31.37 119.32 17.9666 119.32 4.55996C119.261 4.19751 119.345 3.82631 119.553 3.52426C119.762 3.2222 120.08 3.01277 120.44 2.93997C128.22 0.369966 136.1 -0.270045 143.99 2.20995C145.754 2.72202 147.387 3.60968 148.777 4.81204C150.166 6.0144 151.278 7.50303 152.038 9.17581C152.798 10.8486 153.187 12.6659 153.179 14.5032C153.171 16.3404 152.765 18.1542 151.99 19.82C150.669 22.4025 148.481 24.4379 145.81 25.57C145.26 25.77 144.75 26 144.21 26.23ZM131.93 22.41C133.282 22.9137 134.77 22.9207 136.127 22.4299C137.484 21.9391 138.623 20.9822 139.34 19.73C140.4 17.6953 140.729 15.358 140.27 13.1099C139.68 9.37995 137.58 7.73998 133.8 7.91998C131.93 8.00998 131.93 8.00998 131.93 9.91998V22.43V22.41Z" fill="white"/>
<path d="M253.79 26.23C258.64 32.11 260.79 39.32 264.52 45.91C263.94 45.91 263.61 46.02 263.28 46.02C259.4 46.02 255.53 46.02 251.65 46.02C251.287 46.0767 250.915 45.9923 250.612 45.7841C250.309 45.5758 250.097 45.2595 250.02 44.9C248.61 41 247.14 37.12 245.65 33.26C244.902 31.0323 243.453 29.1064 241.52 27.77V45.9H228.92V44.7C228.92 31.2867 228.92 17.88 228.92 4.48C228.858 4.11723 228.941 3.74472 229.15 3.44204C229.36 3.13936 229.679 2.93046 230.04 2.85998C237.86 0.289978 245.78 -0.350005 253.71 2.19C255.398 2.70452 256.961 3.56422 258.3 4.71459C259.638 5.86497 260.723 7.28093 261.486 8.87267C262.248 10.4644 262.672 12.1972 262.729 13.9612C262.787 15.7252 262.477 17.4819 261.82 19.12C260.61 22.21 258.21 24.12 255.33 25.51C254.82 25.78 254.31 26 253.79 26.23ZM241.46 15.35C241.46 17.46 241.46 19.57 241.46 21.68C241.478 21.8695 241.539 22.0523 241.64 22.2138C241.74 22.3753 241.878 22.5109 242.04 22.61C243.185 22.9083 244.392 22.8688 245.516 22.4962C246.639 22.1235 247.63 21.4337 248.37 20.51C249.095 19.482 249.603 18.3165 249.861 17.0851C250.119 15.8538 250.122 14.5827 249.87 13.35C249.3 9.21 246.68 7.34998 242.54 7.98998C241.72 8.10998 241.38 8.37 241.42 9.26C241.51 11.29 241.46 13.32 241.46 15.35V15.35Z" fill="white"/>
<path d="M73.63 46C75.39 40.49 77.08 35.18 78.77 29.87C81.66 20.8 84.58 11.74 87.43 2.66004C87.4578 2.46266 87.5251 2.27292 87.628 2.10221C87.7309 1.9315 87.8672 1.78334 88.0288 1.6666C88.1904 1.54987 88.3739 1.46698 88.5682 1.42289C88.7626 1.3788 88.9639 1.37443 89.16 1.41004C93 1.47004 96.83 1.41004 100.67 1.41004C101.22 1.41004 101.59 1.41002 101.81 2.11002C106.39 16.6234 110.993 31.1234 115.62 45.61C115.632 45.7331 115.632 45.857 115.62 45.98H111.83C108.99 45.98 106.15 45.98 103.32 45.98C102.54 45.98 102.19 45.78 102.02 44.98C101.58 42.87 101.02 40.79 100.57 38.69C100.43 38.04 100.18 37.77 99.47 37.78C95.95 37.78 92.4333 37.78 88.92 37.78C88.21 37.78 87.92 38.01 87.8 38.68C87.31 40.81 86.8 42.93 86.17 45.04C86.07 45.39 85.62 45.9 85.33 45.9C81.48 46 77.65 46 73.63 46ZM94.32 12.38C92.9 18.21 91.42 24.38 89.92 30.52H98.49C97.06 24.33 95.65 18.19 94.32 12.4V12.38Z" fill="white"/>
<path d="M389.29 46H386.63C383.35 46 380.07 46 376.79 46C376.647 46.0292 376.5 46.0269 376.358 45.9931C376.216 45.9593 376.083 45.8949 375.969 45.8044C375.855 45.7138 375.761 45.5994 375.696 45.4691C375.631 45.3388 375.594 45.1957 375.59 45.05C375.14 42.95 374.59 40.87 374.11 38.77C373.96 38.01 373.63 37.77 372.91 37.77C369.47 37.77 366.03 37.77 362.6 37.77C361.78 37.77 361.49 38.07 361.32 38.77C360.83 40.87 360.32 42.95 359.71 45.03C359.62 45.36 359.23 45.86 358.97 45.86C355.14 45.92 351.31 45.86 347.31 45.86C347.43 45.35 347.49 44.98 347.6 44.62C352.06 30.62 356.513 16.6433 360.96 2.69C361.28 1.69 361.68 1.23999 362.85 1.26999C366.53 1.36999 370.21 1.34999 373.85 1.26999C374.04 1.23736 374.234 1.24332 374.421 1.28748C374.608 1.33163 374.785 1.41311 374.94 1.52701C375.094 1.64091 375.225 1.78488 375.323 1.95035C375.421 2.11581 375.485 2.29935 375.51 2.48999C379.47 15.0433 383.45 27.5833 387.45 40.11C388.06 42.11 388.64 44 389.29 46ZM372.06 30.54C370.63 24.29 369.22 18.15 367.9 12.41L363.48 30.54H372.06Z" fill="#ADADAD"/>
<path d="M172.17 30.2V46H159.65C159.65 45.68 159.59 45.34 159.59 45C159.59 31.4934 159.59 17.9767 159.59 4.45004C159.534 4.12562 159.608 3.79225 159.795 3.52127C159.981 3.25028 160.267 3.0632 160.59 3.00003C167.99 0.540027 175.51 -0.299973 183.07 2.00003C189.54 4.00003 192.99 9.00002 192.82 15.59C192.64 22.45 188.99 27.23 182.47 29.17C179.545 29.9961 176.507 30.3505 173.47 30.22L172.17 30.2ZM172.17 22.95H174.36C177.7 22.95 179.76 21.36 180.27 18.06C180.55 16.2139 180.55 14.3361 180.27 12.49C179.81 9.44002 177.89 7.99003 174.77 7.91003C172.19 7.85003 172.19 7.85003 172.19 10.41V23L172.17 22.95Z" fill="white"/>
<path d="M405.48 30.4201V45.9201H392.94V44.61C392.94 31.2767 392.94 17.9167 392.94 4.53004C392.872 4.16565 392.951 3.78929 393.159 3.48237C393.366 3.17545 393.687 2.96268 394.05 2.89005C401.55 0.490052 409.13 -0.369977 416.76 2.11002C423.94 4.44002 426.86 10.56 425.99 17.4C425.12 24.24 420.99 28.24 413.87 29.6C411.17 30.11 408.4 30.1501 405.48 30.4201ZM405.48 22.9501C406.42 22.9501 407.21 22.9501 408 22.9501C411 22.8701 413.06 21.27 413.54 18.34C413.835 16.5374 413.865 14.7014 413.63 12.8901C413.11 9.02005 410.01 7.11002 406.2 8.11002C406.027 8.18433 405.875 8.29967 405.756 8.44602C405.638 8.59237 405.557 8.76536 405.52 8.95005C405.46 13.5201 405.47 18.1 405.47 23L405.48 22.9501Z" fill="#ADADAD"/>
<path d="M0.359985 44L3.35999 35.49C5.23715 36.1455 7.15444 36.6799 9.10001 37.09C10.7101 37.3575 12.3566 37.3133 13.95 36.96C14.5909 36.8539 15.1868 36.5628 15.6643 36.1223C16.1418 35.6818 16.4801 35.1113 16.6374 34.481C16.7947 33.8507 16.7642 33.1882 16.5497 32.575C16.3351 31.9618 15.9459 31.4247 15.43 31.03C14.089 29.969 12.6567 29.0286 11.15 28.22C9.36329 27.2535 7.62767 26.1954 5.95001 25.05C4.13008 23.653 2.70276 21.8088 1.80698 19.6966C0.911188 17.5845 0.577436 15.2764 0.838196 12.9971C1.09896 10.7177 1.94533 8.54462 3.29498 6.68935C4.64464 4.83409 6.45161 3.35981 8.54001 2.40999C15.14 -0.540005 21.78 0.180005 28.25 3.17C28.31 3.17 28.35 3.29 28.49 3.45L25.74 11.16C23.384 9.96967 20.7685 9.38537 18.13 9.45998C15.75 9.56998 14.02 10.63 13.58 12.3C13.14 13.97 13.85 15.64 15.99 16.92C18.13 18.2 20.23 19.14 22.33 20.3C29.82 24.47 32.1 33.13 27.5 40.14C26.3052 41.9258 24.7278 43.4231 22.8822 44.5232C21.0366 45.6233 18.9691 46.2986 16.83 46.5C11.4606 47.276 5.98131 46.5491 1 44.4C0.79 44.32 0.629985 44.2 0.359985 44Z" fill="white"/>
<path d="M299.28 11.18C296.926 10.0071 294.318 9.43674 291.69 9.51999C291.171 9.53939 290.655 9.60975 290.15 9.73001C288.58 10.13 287.34 10.94 287.05 12.67C286.913 13.4052 287.008 14.1647 287.322 14.8436C287.635 15.5225 288.152 16.0873 288.8 16.46C290.44 17.52 292.23 18.34 293.91 19.33C295.714 20.2663 297.434 21.3571 299.05 22.59C305.69 28.31 304.46 39.59 296.78 44.28C294.167 45.8627 291.184 46.7284 288.13 46.79C283.725 47.037 279.319 46.3203 275.22 44.69C274.923 44.5729 274.632 44.4394 274.35 44.29C274.204 44.2073 274.067 44.1101 273.94 44C274.94 41.18 275.94 38.34 276.89 35.55C278.779 36.1872 280.702 36.7181 282.65 37.14C284.151 37.3483 285.674 37.3314 287.17 37.09C287.837 37.0441 288.473 36.7911 288.989 36.3662C289.506 35.9413 289.877 35.3658 290.05 34.72C290.27 34.0243 290.263 33.2769 290.031 32.5851C289.8 31.8934 289.354 31.2929 288.76 30.87C287.408 29.8859 285.992 28.9939 284.52 28.2C281.944 26.9854 279.581 25.3647 277.52 23.4C272.52 18 272.75 6.26 282.52 2.22C288.72 -0.340003 294.95 0.310001 301.04 2.88C301.38 3.03 301.84 3.66999 301.76 3.92999C301 6.31999 300.17 8.66999 299.28 11.18Z" fill="#ADADAD"/>
<path d="M432 1.45001H433.25C440.32 1.45001 447.4 1.45001 454.47 1.45001C455.61 1.45001 455.88 1.78999 455.85 2.85999C455.78 5.20999 455.85 7.54999 455.85 10.02H444.86V19.29H454.12V27.64H444.86V37.5H455.71V45.93H432V1.45001Z" fill="#ADADAD"/>
<path d="M198.68 1.51001H222.37V10H211.5V19.28H220.85V27.65H211.48V37.46H222.39V46H198.68V1.51001Z" fill="white"/>
</svg>
