<?xml version="1.0" encoding="UTF-8" standalone="no"?>
<!-- Created with Inkscape (http://www.inkscape.org/) -->

<svg
   xmlns:dc="http://purl.org/dc/elements/1.1/"
   xmlns:cc="http://creativecommons.org/ns#"
   xmlns:rdf="http://www.w3.org/1999/02/22-rdf-syntax-ns#"
   xmlns:svg="http://www.w3.org/2000/svg"
   xmlns="http://www.w3.org/2000/svg"
   xmlns:sodipodi="http://sodipodi.sourceforge.net/DTD/sodipodi-0.dtd"
   xmlns:inkscape="http://www.inkscape.org/namespaces/inkscape"
   width="58.367081mm"
   height="6.2970853mm"
   viewBox="0 0 58.367081 6.2970853"
   version="1.1"
   id="svg856"
   inkscape:version="0.92.4 (unknown)"
   sodipodi:docname="SIMUCUBE logo text only.svg">
  <defs
     id="defs850" />
  <sodipodi:namedview
     id="base"
     pagecolor="#ffffff"
     bordercolor="#666666"
     borderopacity="1.0"
     inkscape:pageopacity="0.0"
     inkscape:pageshadow="2"
     inkscape:zoom="5.6"
     inkscape:cx="106.57489"
     inkscape:cy="-9.5809809"
     inkscape:document-units="mm"
     inkscape:current-layer="layer1"
     showgrid="false"
     fit-margin-top="0"
     fit-margin-left="0"
     fit-margin-right="0"
     fit-margin-bottom="0"
     inkscape:window-width="2560"
     inkscape:window-height="1411"
     inkscape:window-x="5120"
     inkscape:window-y="0"
     inkscape:window-maximized="1" />
  <metadata
     id="metadata853">
    <rdf:RDF>
      <cc:Work
         rdf:about="">
        <dc:format>image/svg+xml</dc:format>
        <dc:type
           rdf:resource="http://purl.org/dc/dcmitype/StillImage" />
        <dc:title></dc:title>
      </cc:Work>
    </rdf:RDF>
  </metadata>
  <g
     inkscape:label="Layer 1"
     inkscape:groupmode="layer"
     id="layer1"
     transform="translate(-81.941462,-50.434791)">
    <path
       inkscape:connector-curvature="0"
       d="m 86.042502,56.731875 h -3.51896 c -0.34396,0 -0.55563,-0.211667 -0.55563,-0.582083 v -1.825625 l 1.19063,0.47625 v 0.978958 h 2.24896 v -1.058333 l -3.175,-1.613959 c -0.21167,-0.105833 -0.29104,-0.264583 -0.29104,-0.529166 v -1.508125 c 0,-0.370417 0.21166,-0.582084 0.55562,-0.582084 h 3.54542 c 0.34396,0 0.55562,0.211667 0.55562,0.582084 v 1.640416 l -1.19062,-0.423333 v -0.846667 h -2.24896 v 0.926042 l 3.175,1.613958 c 0.21167,0.132292 0.29104,0.264584 0.29104,0.529167 v 1.613958 c -0.0265,0.370417 -0.21167,0.608542 -0.58208,0.608542"
       id="path3778"
       style="stroke-width:0.26458332" />
    <rect
       x="90.090637"
       y="50.514168"
       width="1.190625"
       height="6.2177081"
       id="rect3782"
       style="stroke-width:0.26458332" />
    <polygon
       transform="matrix(0.26458333,0,0,0.26458333,80.988962,8.5512497)"
       points="52,158.6 56.6,158.6 63,172.9 69.5,158.6 74.1,158.6 74.1,182.1 69.6,182.1 69.6,169.4 64.8,179.7 61.3,179.7 56.4,169.4 56.4,182.1 52,182.1 "
       id="polygon3786" />
    <path
       inkscape:connector-curvature="0"
       d="m 108.18812,56.731875 h -3.78354 c -0.34396,0 -0.55562,-0.211667 -0.55562,-0.582083 v -5.635625 h 1.19062 v 5.212291 h 2.51354 v -5.212291 h 1.19063 v 5.635625 c 0,0.343958 -0.21167,0.582083 -0.55563,0.582083"
       id="path3790"
       style="stroke-width:0.26458332" />
    <path
       inkscape:connector-curvature="0"
       d="m 124.08958,56.731875 h -3.78354 c -0.37042,0 -0.55563,-0.211667 -0.55563,-0.582083 v -5.635625 h 1.19063 v 5.212291 h 2.51354 v -5.212291 h 1.19063 v 5.635625 c 0,0.343958 -0.21167,0.582083 -0.55563,0.582083"
       id="path3794"
       style="stroke-width:0.26458332" />
    <path
       inkscape:connector-curvature="0"
       d="m 132.15937,56.731875 h -4.23333 v -6.217708 h 4.20687 c 0.34396,0 0.55563,0.211666 0.55563,0.582083 v 1.508125 c 0,0.264583 -0.0794,0.423333 -0.3175,0.555625 l -0.60854,0.370417 0.66146,0.370416 c 0.23812,0.132292 0.3175,0.264584 0.3175,0.555625 v 1.719792 c -0.0265,0.3175 -0.23813,0.555625 -0.58209,0.555625 m -0.68791,-5.265208 h -2.3548 v 1.613958 H 130.81 l 0.66146,-0.449792 z m 0.0529,2.910416 -0.71438,-0.423333 h -1.69333 v 1.825625 h 2.40771 z"
       id="path3798"
       style="stroke-width:0.26458332" />
    <polygon
       transform="matrix(0.26458333,0,0,0.26458333,80.988962,8.5512497)"
       points="219.2,171.9 212.4,171.9 212.4,178.3 224.2,178.3 224.2,182.1 207.9,182.1 207.9,158.6 224.1,158.6 224.1,162.4 212.4,162.4 212.4,168.3 219.2,168.3 "
       id="polygon3802" />
    <polygon
       transform="matrix(0.26458333,0,0,0.26458333,80.988962,8.5512497)"
       points="115.4,170.1 120.4,181.9 133.9,181.9 133.9,177.3 123.5,177.3 120.4,170.1 123.5,162.9 133.7,162.9 133.7,158.3 120.4,158.3 "
       id="polygon3806" />
  </g>
</svg>
