<svg xmlns="http://www.w3.org/2000/svg" height="34" viewBox="0 0 114.895 27.284" fill="none">
<g stroke="none" fill="white" stroke-width="1px">
<g data-name="Group 282" transform="translate(-43.596 -42.594)" stroke="none" fill="white" stroke-width="1px">
<g data-name="Group 273" transform="translate(-2)" stroke="none" fill="white" stroke-width="1px">
<path data-name="Path 1" d="M132.423 46.01a1.2 1.2 0 0 0-2 .367c-.567.972-2.076 3.743-3.441 5.891a23.1 23.1 0 0 1-2.388 3.394s0-5.449-.069-5.919c-.224-1.561-1.041-1.408-1.651-1.3-1.579.269-1.559.867-1.634 1.374a74.007 74.007 0 0 0 .144 7.607c.057.7-.053 3.168 1.374 3.371 1.075.152 2.1-.837 2.879-1.695a43.824 43.824 0 0 0 3.49-4.486c2.024-2.861 3.454-5.236 3.987-6.167.516-.912.489-1.552-.691-2.437z" stroke="none" fill="white" stroke-width="1px"></path>
<path data-name="Path 2" d="M159.711 45.883c-.944-.928-1.577-.381-2.039.1-.077.093-2.217 2.227-4.471 4.828-1.754 2.024-3.272 3.907-3.272 3.907a19.884 19.884 0 0 1 .135-2.861c.108-.907.4-2.673.493-3.232.445-2.834-1.295-2.947-1.943-2.988-.682-.042-1.006.322-1.208 1.186a32.251 32.251 0 0 0-.8 9.622c.073.808.229 1.639.244 1.693l-.409.571a16.319 16.319 0 0 1-6.429-3.7 12.2 12.2 0 0 0 2.628-1.208 5.666 5.666 0 0 0 2.975-5.236 3.783 3.783 0 0 0-3.724-3.4 11.172 11.172 0 0 0-3.812 2.537c-.1-.677-.113-1.422-.8-1.5a2.846 2.846 0 0 0-1.518.4 2.459 2.459 0 0 0-1.093 1.053l-1.606 3.7a.29.29 0 0 1-.24.179 1.606 1.606 0 0 0-1.2 1 1.39 1.39 0 0 0 .275 1.471c-.318.856-1.162 2.853-1.162 2.853-1.048 2.449-.98 3.3-.606 3.819a2.913 2.913 0 0 0 1.663.781c.607.1 1.071-.264 1.578-1.073.749-1.194 2.253-4.345 2.253-4.345a23.76 23.76 0 0 0 8.992 5.436s-3.174 4.389-3.632 6.816c0 0-.236 1.591 1.9 1.586a3.989 3.989 0 0 0 1.933-.491 1.043 1.043 0 0 0 .486-.626.494.494 0 0 0-.045-.34 1.041 1.041 0 0 0-.221-.231c-.11-.11-.094-.252-.034-.415 1.177-3.435 5.961-9.275 6.977-10.541 2.692-3.353 7.662-8.574 8.015-8.991.643-.829.77-1.326-.283-2.36zm-20.333 4.165c1.026-1.026 2.222-1.776 2.8-1.464.658.358-.1 1.9-1.366 2.841a6.662 6.662 0 0 1-3.65 1.511 13.843 13.843 0 0 1 2.216-2.888z" stroke="none" fill="white" stroke-width="1px"></path>
<path data-name="Path 3" d="M119.874 56.787c-.275-.156-.656-.058-1.227.1-.944.257-3.279 1.154-4.088 1.4-.328.1-.975.253-1.224-.061-.415-.522.179-2.156.535-3.067a3.375 3.375 0 0 1 2.63-2.136c.63-.181 1.662-.509 2.083-.652a1.894 1.894 0 0 0 1.325-1.5c.294-1.188-.607-1.37-1.429-1.6-1.177-.327-1.915-.367-1.4-1.511a1.171 1.171 0 0 1 .867-.8c.467-.124 4.427-.752 6-1.04.883-.161 1.183-.637 1.551-1.4.8-1.659-.2-1.767-1.009-1.693-1.824.169-4.752.7-6.007.884-.669.1-.223-1.045-1-1.1a5.279 5.279 0 0 0-3.363.945 3.334 3.334 0 0 0-.728 1.565l-1.522 5.269a2.189 2.189 0 0 1-.749 1.466c-1.046.629-3.18.672-2.989 2.982a11.976 11.976 0 0 0 .954 3.449 2.6 2.6 0 0 1 .156 1.539q-.1.675-.236 1.345c-.076.387-.255 1.225.007 1.543s.764.291 1.358.218a35.532 35.532 0 0 0 7.413-2.218 6.637 6.637 0 0 0 1.358-.768 3.625 3.625 0 0 0 1.092-2.235.878.878 0 0 0-.358-.924z" stroke="none" fill="white" stroke-width="1px"></path>
</g>
<g data-name="Group 274" stroke="none" fill="white" stroke-width="1px">
<path data-name="Path 4" d="M67.46 46.815a7.213 7.213 0 0 0-7.516 7.113c0 4.534 3.084 7.191 7.62 7.191 3.114 0 6.093-1.355 6.928-4.481h-4.27a2.728 2.728 0 0 1-2.6 1.486 2.928 2.928 0 0 1-3.114-3.075h10.225c.216-4.585-2.28-8.234-7.273-8.234zm-2.953 5.758a2.967 2.967 0 0 1 2.953-2.761 2.779 2.779 0 0 1 2.709 2.761z" stroke="none" fill="white" stroke-width="1px"></path>
<path data-name="Path 5" d="M91.56 46.815a7.155 7.155 0 1 0 7.358 7.166 7.016 7.016 0 0 0-7.358-7.166zm0 10.916c-2.118 0-2.762-2.031-2.762-3.751s.644-3.778 2.762-3.778 2.792 2.058 2.792 3.778-.672 3.751-2.792 3.751z" stroke="none" fill="white" stroke-width="1px"></path>
<path data-name="Path 6" d="M50.467 42.627h-4.566v4.534h-2.305v2.951h2.305v5.882c0 3.783 1 4.912 4.888 4.912.831 0 1.662-.108 2.5-.135v-3.355c-.4 0-.808.054-1.182.054-.992 0-1.635-.241-1.635-1.341v-6.017h2.818v-2.951h-2.818z" stroke="none" fill="white" stroke-width="1px"></path>
<path data-name="Rectangle 2" d="M54.534 47.161h4.562v13.611h-4.562z" stroke="none" fill="white" stroke-width="1px"></path>
<path data-name="Path 7" d="M81.367 42.627H76.8v4.534h-2.305v2.951H76.8v5.882c0 3.783 1 4.912 4.888 4.912.83 0 1.661-.108 2.5-.135v-3.355c-.4 0-.808.054-1.182.054-.992 0-1.635-.241-1.635-1.341v-6.017h2.818v-2.951h-2.818z" stroke="none" fill="white" stroke-width="1px"></path>
<path data-name="Rectangle 42" d="M54.534 42.627h4.563v3.288h-4.563z" stroke="none" fill="white" stroke-width="1px"></path>
</g>
</g>
</g>
</svg>