<svg width="90" height="30" viewBox="0 0 90 30" fill="none" xmlns="http://www.w3.org/2000/svg">
<g clip-path="url(#clip0)">
<path d="M33.9238 20.1521C34.0511 23.1517 35.8361 25.1411 38.9754 25.1411C40.7604 25.1411 42.5028 24.3367 43.1951 22.7305H50.1225C48.7683 27.8014 43.9355 30 38.8839 30C31.525 30 26.5222 25.6888 26.5222 18.334C26.5222 11.6158 32.0473 6.79468 38.7139 6.79468C46.8133 6.79468 50.863 12.7147 50.5113 20.1521H33.9238ZM43.1097 16.1354C42.9762 13.6836 41.1912 11.6564 38.7139 11.6564C36.0969 11.6564 34.3546 13.4744 33.9231 16.1354H43.1097Z" fill="white"/>
<path d="M77.8062 6.79468C84.819 6.79468 89.7434 11.8243 89.7434 18.4194C89.7434 25.0145 84.819 30 77.8062 30C70.7996 30 65.9242 25.0145 65.9242 18.4194C65.9242 11.8243 70.7996 6.79468 77.8062 6.79468ZM77.8062 24.5039C81.249 24.5039 82.3356 21.2098 82.3356 18.4194C82.3356 15.629 81.249 12.2901 77.8062 12.2901C74.3697 12.2901 73.3251 15.629 73.3251 18.4194C73.3251 21.2098 74.3697 24.5039 77.8062 24.5039Z" fill="white"/>
<path d="M15.7191 12.1432H11.1471V21.9044C11.1471 23.6894 12.1917 24.081 13.8006 24.081C14.4075 24.081 15.0633 23.9929 15.7191 23.9929V29.436C14.3648 29.4787 13.0175 29.6549 11.6694 29.6549C5.35508 29.6549 3.74002 27.8244 3.74002 21.6856V12.1432H0V7.35581H3.74002V0.00100708H11.1471V7.35581H15.7191V12.1432Z" fill="white"/>
<path d="M25.1466 5.33375H17.7443V0H25.1466V5.33375ZM17.745 7.35549H25.1466V29.4357H17.745V7.35549Z" fill="white"/>
<path d="M65.8464 12.1428H61.2744V21.9041C61.2744 23.6891 62.319 24.0806 63.9279 24.0806C64.5348 24.0806 65.1906 23.9926 65.8464 23.9926V29.4357C64.4922 29.4784 63.1448 29.6545 61.7967 29.6545C55.4824 29.6545 53.8673 27.8241 53.8673 21.6852V12.1428H50.1273V7.35547H53.8673V0.000671387H61.2744V7.35547H65.8464V12.1428Z" fill="white"/>
</g>
<defs>
<clipPath id="clip0">
<rect width="89.7433" height="30" fill="white"/>
</clipPath>
</defs>
</svg>
