<svg width="140" height="30" viewBox="0 0 140 30" fill="none" xmlns="http://www.w3.org/2000/svg">
<g clip-path="url(#clip0)">
<path d="M14.7067 8.35626L14.4609 8.3959L10.0291 22.9916L5.63689 8.62582L5.54968 8.3959L5.30391 8.35626C3.69049 8.15009 2.05739 8.15009 0.443975 8.35626L0 8.42762L6.90539 29.4768H7.15116C8.10094 29.5886 9.05695 29.6389 10.0132 29.6274C10.9695 29.6389 11.9255 29.5886 12.8753 29.4768H13.121L19.9868 8.42762L19.5349 8.35626C17.9321 8.15011 16.3095 8.15011 14.7067 8.35626Z" fill="white"/>
<path d="M31.3637 7.7933C25.259 7.7933 22.2939 10.0687 22.2939 14.7542V23.1104C22.2939 27.7484 25.3224 30 31.5619 30C34.0447 29.986 36.521 29.7419 38.9588 29.2706L39.2363 29.223V28.9376C39.4028 27.5923 39.4028 26.2316 39.2363 24.8863L39.1808 24.4741L38.8478 24.5771C36.7944 25.0139 34.6997 25.2266 32.6004 25.2114C29.3103 25.2114 27.7405 24.7278 27.7405 21.9846V20.8271C31.5064 21.0095 37.2542 20.9461 39.8705 20.7637H40.2352V16.0068C40.1956 10.473 37.3097 7.7933 31.3637 7.7933ZM27.7009 15.5946C27.7009 13.0576 29.0328 12.566 31.324 12.566C33.6152 12.566 34.8837 13.0496 34.8837 15.5946V16.8234H30.999L27.7167 17.0375L27.7009 15.5946Z" fill="white"/>
<path d="M57.019 7.7933H56.6781C52.5951 7.7933 50.7558 9.16487 49.9551 10.6474L49.7172 8.22142H49.3843C48.0232 8.1025 46.6544 8.1025 45.2934 8.22142H44.9366V29.4609L45.2616 29.5163C46.0494 29.6279 46.8446 29.6782 47.6401 29.667C48.4355 29.6765 49.2306 29.6262 50.0185 29.5163L50.3515 29.4609V16.102C51.3266 13.4778 52.4049 12.685 56.6781 12.685H57.019L57.0666 12.344C57.2334 10.959 57.2334 9.55892 57.0666 8.17385L57.019 7.7933Z" fill="white"/>
<path d="M68.1818 7.79331C65.7175 7.78226 63.2575 7.99722 60.8324 8.43549L60.547 8.48306V8.7764C60.3832 10.0927 60.3832 11.4242 60.547 12.7405L60.6025 13.1527L61.0069 13.0814C62.9568 12.7331 64.9326 12.5501 66.9133 12.5343C71.0835 12.5343 71.9239 13.676 71.9239 15.5153V17.1009C70.2249 16.8558 68.511 16.7286 66.7944 16.7204C62.8779 16.7204 58.8663 17.5528 58.8663 23.6892C58.8663 27.7405 61.3795 29.9762 65.9461 29.9762C69.1173 29.9762 71.3372 29.0882 72.2886 27.4075L72.5264 29.6353L72.8198 29.6908C74.1995 29.8969 75.6023 29.8969 76.982 29.6908L77.3071 29.6274V14.3974C77.3309 9.89427 74.4292 7.79331 68.1818 7.79331ZM71.8842 21.0967V23.0629C71.0914 24.8388 70.037 25.3858 67.5872 25.3858C65.4149 25.3858 64.2415 25.029 64.2415 23.1501C64.2415 21.1205 65.2643 20.7716 68.1422 20.7716C69.4066 20.783 70.6682 20.8917 71.916 21.0967H71.8842Z" fill="white"/>
<path d="M91.3795 12.566C93.1584 12.5507 94.9346 12.7074 96.6834 13.0338L97.0719 13.1051L97.1432 12.7167C97.3494 11.3794 97.3494 10.0185 97.1432 8.68125L97.0956 8.4117L96.8261 8.3562C94.7681 7.95727 92.6749 7.76867 90.5787 7.7933C86.8208 7.7933 81.8578 8.4989 81.8578 14.6353V23.1897C81.8578 27.7722 84.7198 30 90.5787 30C92.6906 29.9856 94.7931 29.7194 96.8419 29.2072L97.0956 29.1437L97.1432 28.89C97.3461 27.5765 97.3461 26.2395 97.1432 24.926L97.0719 24.5216L96.6675 24.6009C94.936 25.0157 93.1599 25.2154 91.3795 25.1955C88.8187 25.1955 87.2331 24.6802 87.2331 22.1273V15.6739C87.2093 13.0814 88.7949 12.566 91.3795 12.566Z" fill="white"/>
<path d="M109.844 7.7933C103.739 7.7933 100.766 10.0687 100.766 14.7542V23.1104C100.766 27.7484 103.803 30 110.042 30C112.523 29.9864 114.996 29.7422 117.431 29.2706L117.717 29.223L117.756 28.9376C117.923 27.5923 117.923 26.2316 117.756 24.8863L117.701 24.4741L117.289 24.5533C115.233 24.9901 113.135 25.2028 111.033 25.1876C107.743 25.1876 106.181 24.704 106.181 21.9609V20.8271C109.939 21.0095 115.695 20.9461 118.303 20.7637H118.676V16.0068C118.676 10.473 115.79 7.7933 109.844 7.7933ZM106.181 15.5946C106.181 13.0576 107.505 12.566 109.804 12.566C112.104 12.566 113.348 13.0496 113.348 15.5946V16.8234H109.456L106.181 17.0375V15.5946Z" fill="white"/>
<path d="M123.742 0.158648L123.417 0.214145V29.461L123.742 29.5165C124.53 29.628 125.325 29.6784 126.12 29.6671C126.916 29.6766 127.711 29.6263 128.499 29.5165L128.832 29.461V0.214145L128.491 0.158648C126.915 -0.0554056 125.318 -0.0554056 123.742 0.158648Z" fill="white"/>
<path d="M138.917 0.158577C137.338 -0.0561956 135.738 -0.0561956 134.16 0.158577L133.835 0.214074V29.4609L134.16 29.5164C134.947 29.6279 135.743 29.6783 136.538 29.667C137.334 29.6766 138.129 29.6262 138.917 29.5164L139.249 29.4609V0.214074L138.917 0.158577Z" fill="white"/>
</g>
<defs>
<clipPath id="clip0">
<rect width="139.249" height="30" fill="white"/>
</clipPath>
</defs>
</svg>
